<svg xmlns="http://www.w3.org/2000/svg" version="1.0" width="48px" height="48px" viewBox="0 0 160.000000 160.000000" preserveAspectRatio="xMidYMid meet">
  <g transform="translate(0.000000,160.000000) scale(0.100000,-0.100000)" fill="${color}" stroke="none">
    <path d="M479 1225 c-15 -8 -32 -29 -38 -46 -7 -21 -11 -157 -11 -400 0 -367 0 -368 23 -394 43 -49 79 -45 218 27 172 90 488 283 522 318 35 39 36 87 2 128 -22 26 -148 105 -400 250 -114 65 -252 132 -272 132 -10 -1 -30 -7 -44 -15z"/>
  </g>
</svg>