<?xml version="1.0" encoding="UTF-8" standalone="no"?>
<!-- Generator: Adobe Illustrator 26.5.0, SVG Export Plug-In . SVG Version: 6.00 Build 0)  -->

<svg
   version="1.1"
   id="Layer_1"
   x="0px"
   y="0px"
   viewBox="0 0 85.806002 85.803003"
   enable-background="new 0 0 71.365 71.406"
   xml:space="preserve"
   sodipodi:docname="Applied_Year_10.svg"
   width="85.806"
   height="85.803001"
   inkscape:version="1.2.2 (732a01da63, 2022-12-09)"
   xmlns:inkscape="http://www.inkscape.org/namespaces/inkscape"
   xmlns:sodipodi="http://sodipodi.sourceforge.net/DTD/sodipodi-0.dtd"
   xmlns="http://www.w3.org/2000/svg"
   xmlns:svg="http://www.w3.org/2000/svg"><defs
   id="defs155" /><sodipodi:namedview
   id="namedview153"
   pagecolor="#ffffff"
   bordercolor="#000000"
   borderopacity="0.25"
   inkscape:showpageshadow="2"
   inkscape:pageopacity="0.0"
   inkscape:pagecheckerboard="0"
   inkscape:deskcolor="#d1d1d1"
   showgrid="false"
   inkscape:zoom="5.8048345"
   inkscape:cx="-0.9474861"
   inkscape:cy="24.117828"
   inkscape:window-width="2560"
   inkscape:window-height="1009"
   inkscape:window-x="-8"
   inkscape:window-y="-8"
   inkscape:window-maximized="1"
   inkscape:current-layer="Layer_1" />









<g
   id="g382"
   transform="translate(7.4999999,7.5000007)"><path
     fill="#a20f3b"
     stroke="#a20f3b"
     stroke-miterlimit="10"
     d="m 70.305,61.579 c 0,4.816 -3.91,8.724 -8.726,8.724 H 9.227 C 4.408,70.303 0.5,66.396 0.5,61.579 V 9.225 C 0.5,4.407 4.407,0.5 9.227,0.5 H 61.58 c 4.815,0 8.726,3.906 8.726,8.725 v 52.354 z"
     id="path2" /><g
     id="g20"
     transform="translate(-0.271,-0.254)">
	<g
   id="g18">
		<path
   fill="#4a162e"
   d="m 20.801,50.756 -0.308,-0.809 h -2.619 l -0.308,0.826 c -0.12,0.322 -0.223,0.54 -0.308,0.652 -0.085,0.113 -0.224,0.169 -0.417,0.169 -0.164,0 -0.309,-0.06 -0.435,-0.18 -0.126,-0.12 -0.189,-0.256 -0.189,-0.408 0,-0.088 0.015,-0.179 0.044,-0.273 0.029,-0.093 0.078,-0.224 0.145,-0.391 l 1.648,-4.184 c 0.047,-0.12 0.103,-0.265 0.169,-0.433 0.065,-0.169 0.136,-0.309 0.211,-0.42 0.074,-0.111 0.172,-0.201 0.294,-0.271 0.122,-0.068 0.272,-0.104 0.451,-0.104 0.182,0 0.333,0.035 0.455,0.104 0.122,0.069 0.22,0.158 0.295,0.266 0.074,0.109 0.137,0.226 0.188,0.35 0.051,0.125 0.117,0.291 0.196,0.499 l 1.683,4.157 c 0.132,0.316 0.198,0.547 0.198,0.689 0,0.15 -0.062,0.287 -0.187,0.411 -0.125,0.125 -0.274,0.187 -0.45,0.187 -0.103,0 -0.19,-0.018 -0.264,-0.055 -0.073,-0.036 -0.135,-0.086 -0.185,-0.149 -0.05,-0.062 -0.104,-0.159 -0.16,-0.29 -0.057,-0.128 -0.106,-0.243 -0.147,-0.343 z m -2.584,-1.788 h 1.925 l -0.971,-2.659 z"
   id="path4" />
		<path
   fill="#4a162e"
   d="M 25.653,48.976 H 24.458 V 50.8 c 0,0.261 -0.062,0.459 -0.185,0.594 -0.123,0.134 -0.278,0.201 -0.466,0.201 -0.196,0 -0.354,-0.066 -0.475,-0.199 -0.12,-0.134 -0.18,-0.329 -0.18,-0.587 v -4.966 c 0,-0.287 0.066,-0.492 0.198,-0.615 0.132,-0.123 0.341,-0.185 0.628,-0.185 h 1.674 c 0.495,0 0.876,0.038 1.143,0.114 0.264,0.073 0.491,0.195 0.683,0.365 0.192,0.17 0.338,0.377 0.438,0.623 0.1,0.246 0.149,0.523 0.149,0.831 0,0.656 -0.202,1.153 -0.606,1.492 -0.404,0.339 -1.006,0.508 -1.806,0.508 z m -0.317,-2.953 h -0.879 v 1.969 h 0.879 c 0.308,0 0.565,-0.031 0.771,-0.096 0.207,-0.064 0.364,-0.17 0.473,-0.316 0.109,-0.146 0.163,-0.339 0.163,-0.576 0,-0.284 -0.083,-0.516 -0.25,-0.694 -0.188,-0.191 -0.574,-0.287 -1.157,-0.287 z"
   id="path6" />
		<path
   fill="#4a162e"
   d="M 31.656,48.976 H 30.46 V 50.8 c 0,0.261 -0.062,0.459 -0.185,0.594 -0.123,0.134 -0.278,0.201 -0.466,0.201 -0.196,0 -0.354,-0.066 -0.475,-0.199 -0.12,-0.134 -0.18,-0.329 -0.18,-0.587 v -4.966 c 0,-0.287 0.066,-0.492 0.198,-0.615 0.132,-0.123 0.341,-0.185 0.628,-0.185 h 1.674 c 0.495,0 0.876,0.038 1.143,0.114 0.264,0.073 0.491,0.195 0.683,0.365 0.192,0.17 0.338,0.377 0.438,0.623 0.1,0.246 0.149,0.523 0.149,0.831 0,0.656 -0.202,1.153 -0.606,1.492 -0.403,0.339 -1.005,0.508 -1.805,0.508 z M 31.339,46.023 H 30.46 v 1.969 h 0.879 c 0.308,0 0.565,-0.031 0.771,-0.096 0.207,-0.064 0.364,-0.17 0.473,-0.316 0.109,-0.146 0.163,-0.339 0.163,-0.576 0,-0.284 -0.083,-0.516 -0.25,-0.694 -0.188,-0.191 -0.574,-0.287 -1.157,-0.287 z"
   id="path8" />
		<path
   fill="#4a162e"
   d="m 36.437,45.724 v 4.689 h 2.646 c 0.211,0 0.373,0.052 0.486,0.154 0.112,0.103 0.169,0.231 0.169,0.387 0,0.158 -0.056,0.286 -0.167,0.384 -0.111,0.099 -0.274,0.147 -0.488,0.147 h -3.151 c -0.284,0 -0.489,-0.062 -0.613,-0.189 -0.125,-0.125 -0.187,-0.329 -0.187,-0.61 v -4.962 c 0,-0.264 0.06,-0.461 0.178,-0.593 0.119,-0.132 0.275,-0.198 0.468,-0.198 0.196,0 0.355,0.065 0.477,0.196 0.121,0.13 0.182,0.33 0.182,0.595 z"
   id="path10" />
		<path
   fill="#4a162e"
   d="m 40.647,50.8 v -5.076 c 0,-0.264 0.06,-0.461 0.18,-0.593 0.12,-0.132 0.275,-0.198 0.466,-0.198 0.196,0 0.355,0.065 0.477,0.196 0.121,0.13 0.182,0.329 0.182,0.595 V 50.8 c 0,0.267 -0.061,0.466 -0.182,0.598 -0.122,0.132 -0.281,0.197 -0.477,0.197 -0.188,0 -0.342,-0.066 -0.463,-0.199 -0.122,-0.134 -0.183,-0.332 -0.183,-0.596 z"
   id="path12" />
		<path
   fill="#4a162e"
   d="m 47.656,46.05 h -2.94 v 1.582 h 2.707 c 0.199,0 0.348,0.044 0.446,0.134 0.098,0.089 0.147,0.207 0.147,0.354 0,0.147 -0.048,0.266 -0.145,0.358 -0.097,0.092 -0.246,0.139 -0.448,0.139 h -2.707 v 1.832 h 3.041 c 0.205,0 0.359,0.048 0.463,0.143 0.104,0.096 0.156,0.223 0.156,0.381 0,0.152 -0.052,0.275 -0.156,0.371 -0.104,0.095 -0.258,0.143 -0.463,0.143 h -3.546 c -0.284,0 -0.489,-0.062 -0.613,-0.189 -0.125,-0.125 -0.187,-0.329 -0.187,-0.61 v -4.843 c 0,-0.188 0.028,-0.341 0.083,-0.459 0.056,-0.119 0.143,-0.205 0.261,-0.26 0.119,-0.054 0.271,-0.081 0.455,-0.081 h 3.445 c 0.208,0 0.362,0.046 0.464,0.139 0.101,0.092 0.151,0.213 0.151,0.362 0,0.152 -0.051,0.274 -0.151,0.367 -0.1,0.09 -0.255,0.137 -0.463,0.137 z"
   id="path14" />
		<path
   fill="#4a162e"
   d="m 50.223,45.043 h 1.701 c 0.442,0 0.822,0.041 1.138,0.123 0.316,0.082 0.604,0.236 0.861,0.462 0.671,0.574 1.006,1.447 1.006,2.619 0,0.387 -0.034,0.739 -0.101,1.059 -0.067,0.32 -0.171,0.607 -0.312,0.863 -0.141,0.257 -0.321,0.486 -0.541,0.688 -0.173,0.156 -0.362,0.28 -0.567,0.374 -0.205,0.094 -0.426,0.16 -0.662,0.198 -0.236,0.038 -0.501,0.057 -0.797,0.057 h -1.701 c -0.237,0 -0.416,-0.036 -0.536,-0.107 -0.12,-0.072 -0.199,-0.173 -0.235,-0.304 -0.037,-0.13 -0.055,-0.299 -0.055,-0.507 v -4.725 c 0,-0.281 0.063,-0.484 0.189,-0.611 0.127,-0.125 0.33,-0.189 0.612,-0.189 z m 0.505,1.033 v 4.373 h 0.989 c 0.217,0 0.387,-0.006 0.51,-0.018 0.123,-0.012 0.25,-0.041 0.382,-0.088 0.132,-0.047 0.246,-0.112 0.343,-0.197 0.437,-0.369 0.655,-1.005 0.655,-1.908 0,-0.635 -0.096,-1.111 -0.288,-1.428 -0.192,-0.317 -0.428,-0.518 -0.709,-0.604 -0.281,-0.086 -0.621,-0.13 -1.02,-0.13 z"
   id="path16" />
	</g>
</g><g
     id="g26"
     transform="translate(-0.271,-0.254)">
	<path
   fill="none"
   stroke="#ffffff"
   stroke-width="1.8512"
   stroke-miterlimit="10"
   d="m 44.902,23.519 c -2.941,3.539 -8.193,4.021 -11.734,1.082 -3.535,-2.942 -4.021,-8.195 -1.079,-11.732 2.942,-3.537 8.194,-4.024 11.733,-1.08 3.537,2.94 4.022,8.191 1.08,11.73 z"
   id="path22" />
	
		<line
   fill="#ffffff"
   stroke="#ffffff"
   stroke-width="1.8512"
   stroke-linecap="round"
   stroke-miterlimit="10"
   x1="33.167999"
   y1="24.6"
   x2="24.910999"
   y2="34.535"
   id="line24" />
</g><g
     id="g138"
     transform="translate(-0.271,-0.254)">
	<path
   fill="#ffffff"
   d="m 42.645,18.225 -0.021,0.025 c 0.013,0.045 -0.009,0.139 0.045,0.179 -0.009,-0.069 -0.017,-0.137 -0.024,-0.204"
   id="path28" />
	<path
   fill="#ffffff"
   d="m 43.682,18.513 c -0.053,0.075 -0.1,0.157 -0.143,0.243 0.027,-0.009 0.057,-0.012 0.09,-0.012 0.043,0 0.09,0.006 0.136,0.011 0.046,0.006 0.093,0.011 0.136,0.011 0.026,0 0.052,-0.002 0.075,-0.008 0.121,-0.019 0.12,-0.188 0.206,-0.234 -0.158,-0.001 -0.33,0 -0.5,-0.011 m -2.714,-1.026 c -0.013,0.075 -0.209,0.049 -0.124,0.157 0.13,0.044 0.129,0.198 0.254,0.267 -0.012,0.131 0.073,0.295 -0.004,0.404 -0.015,-0.006 -0.029,-0.009 -0.043,-0.009 -0.047,0 -0.082,0.037 -0.115,0.073 -0.033,0.037 -0.064,0.073 -0.106,0.073 -0.022,0 -0.047,-0.01 -0.077,-0.036 l -0.208,-0.105 c 0.086,0.221 -0.148,0.419 0.063,0.651 l -0.139,0.215 -0.295,0.095 c 0.061,0.02 0.123,0.027 0.185,0.027 0.064,0 0.127,-0.007 0.19,-0.014 0.063,-0.007 0.125,-0.014 0.185,-0.014 0.092,0 0.18,0.017 0.261,0.075 -0.049,0.355 -0.246,0.651 -0.287,1.013 H 40.6 c -0.008,0.05 -0.178,0.157 -0.063,0.204 0.017,0.062 0.037,0.086 0.058,0.086 0.038,0 0.082,-0.074 0.131,-0.148 0.049,-0.074 0.104,-0.148 0.164,-0.148 0.004,0 0.007,0 0.011,10e-4 0.014,0.095 0.028,0.246 0.144,0.252 0.025,-0.056 0.056,-0.071 0.089,-0.071 0.022,0 0.045,0.007 0.068,0.013 0.024,0.007 0.048,0.013 0.071,0.013 0.019,0 0.038,-0.004 0.056,-0.016 0.079,0.117 -0.013,0.284 0.031,0.431 0.259,-0.081 0.568,-0.291 0.874,-0.419 0.099,-0.064 0.111,-0.195 0.158,-0.299 0.257,0.016 0.317,0.329 0.56,0.404 l 0.263,-0.049 c 0.079,-0.472 -0.537,-0.513 -0.425,-0.974 0.157,-0.074 0.306,-0.184 0.424,-0.32 -0.043,-0.049 -0.09,-0.098 -0.076,-0.171 0.024,-0.204 0.314,-0.472 0.015,-0.599 -0.08,-0.065 -0.148,-0.145 -0.204,-0.234 -0.015,-0.01 -0.03,-0.021 -0.045,-0.032 l -0.107,0.113 c -0.233,-0.012 -0.004,-0.241 -0.15,-0.242 0.02,-0.12 0.067,-0.24 0.118,-0.359 -0.004,-0.031 -0.008,-0.062 -0.01,-0.092 -0.015,-0.011 -0.031,-0.02 -0.046,-0.028 -0.085,0.122 -0.208,0.231 -0.32,0.294 l -0.025,-0.174 -0.085,0.159 c -0.053,-0.047 -0.096,-0.101 -0.129,-0.163 -0.067,0.031 -0.136,0.055 -0.21,0.055 -0.032,0 -0.066,-0.005 -0.1,-0.015 0,0.027 0,0.053 0,0.078 l -0.129,0.012 0.014,0.151 c -0.017,0.042 -0.032,0.057 -0.047,0.057 -0.016,0 -0.032,-0.016 -0.049,-0.033 -0.017,-0.016 -0.034,-0.033 -0.053,-0.033 -0.017,0 -0.034,0.013 -0.054,0.049 -0.257,-0.115 -0.378,-0.418 -0.554,-0.625"
   id="path30" />
	<path
   fill="#ffffff"
   d="m 47.76,29.878 0.075,-0.082 -0.075,0.082 m 0.381,-1.03 -0.066,-0.03 0.066,0.03 m -1.117,-0.921 c -0.202,0.153 -0.426,0.317 -0.689,0.366 -0.209,0.428 -0.612,0.58 -0.872,0.967 l 0.086,0.22 c -0.047,0.104 -0.196,0.087 -0.265,0.146 0.005,0.055 0.025,0.069 0.051,0.069 0.013,0 0.027,-0.004 0.042,-0.007 0.015,-0.004 0.029,-0.007 0.043,-0.007 0.027,0 0.05,0.014 0.06,0.068 -0.012,0.187 -0.188,0.304 -0.245,0.442 l 0.216,-0.058 c 0.083,0.092 0.108,0.266 0.128,0.351 l -0.12,0.188 c 0.016,0.015 0.033,0.021 0.051,0.021 0.03,0 0.061,-0.017 0.091,-0.034 0.03,-0.017 0.059,-0.034 0.086,-0.034 0.032,0 0.06,0.025 0.082,0.103 0.108,0.112 -0.092,0.167 -0.031,0.271 0.022,0.017 0.039,0.023 0.053,0.023 0.055,0 0.07,-0.097 0.136,-0.101 0.162,0.055 0.017,0.223 0.075,0.311 l 0.111,-0.138 c 0.014,-0.002 0.027,-0.003 0.039,-0.003 0.2,0 -0.022,0.262 0.158,0.295 0.231,-0.06 0.578,-0.115 0.854,-0.239 0.002,0 0.005,0 0.007,0 0.254,0 0.236,0.439 0.51,0.484 0.187,-0.094 -0.1,-0.162 -0.052,-0.306 0.126,-0.52 0.296,-0.949 0.724,-1.25 l 0.533,0.215 0.077,-0.109 C 48.728,30 48.43,29.966 48.224,29.765 l 0.101,0.008 c -0.097,-0.033 -0.238,-0.043 -0.269,-0.151 0.161,-0.227 0.011,-0.3 0.241,-0.473 l -0.131,-0.157 0.107,-0.113 c 0.012,-0.027 0.011,-0.053 10e-4,-0.08 l -0.021,0.01 -0.071,-0.123 c 0.004,-0.002 0.008,-0.004 0.013,-0.005 -0.04,-0.05 -0.081,-0.102 -0.089,-0.155 L 48.09,28.359 47.866,28.41 c -0.108,-0.056 -0.12,-0.191 -0.175,-0.303 l -0.159,0.073 -0.111,-0.128 -0.203,0.096 c -0.12,-0.023 -0.148,-0.115 -0.194,-0.221"
   id="path32" />
	<path
   fill="#ffffff"
   d="m 46.289,26.579 0.006,-0.066 -0.006,0.066 m 0.023,-0.108 0.067,-0.019 -0.067,0.019 m 0.473,-0.042 -0.043,-0.034 0.043,0.034 m -0.59,-0.077 v -0.056 0.056 m 0.06,-0.065 0.004,-0.081 0.009,0.063 -0.013,0.018 m 0.429,-0.076 -0.016,-0.054 0.026,0.02 -0.01,0.034 m -0.435,-0.069 -0.005,-0.032 0.074,0.029 -0.069,0.003 m 0.332,-0.108 -0.009,-0.007 0.032,-0.045 0.009,0.007 -0.032,0.045 m -0.089,-0.083 v 0 l -0.013,0.074 -0.009,-0.007 c 0,0.05 -0.007,0.064 -0.017,0.064 -0.007,0 -0.015,-0.006 -0.025,-0.012 -0.01,-0.006 -0.021,-0.012 -0.033,-0.012 -0.002,0 -0.005,0 -0.007,0.001 -0.005,0.007 -0.016,0.018 -0.038,0.034 0.013,-0.022 0.026,-0.032 0.038,-0.034 0.022,-0.032 -0.096,0.008 -0.077,-0.081 l 0.096,0.074 0.085,-0.101 m -0.074,-0.198 c -0.016,0.096 -0.082,0.113 -0.156,0.113 -0.02,0 -0.04,-0.001 -0.06,-0.002 -0.02,-0.001 -0.04,-0.002 -0.059,-0.002 -10e-4,0 -0.002,0 -0.003,0 l -0.038,0.167 -0.196,0.087 c 0.21,0.12 -0.087,0.199 0.022,0.367 0.052,0.363 0.395,0.333 0.582,0.449 0.045,-0.096 0.108,-0.108 0.172,-0.108 0.011,0 0.021,0 0.032,10e-4 0.011,0 0.021,0.001 0.031,0.001 0.065,0 0.126,-0.013 0.165,-0.118 0.189,-0.134 -0.004,-0.298 0.096,-0.459 -0.091,-0.042 0.021,-0.181 -0.107,-0.209 0.035,-0.239 -0.29,-0.027 -0.239,-0.269 -0.044,0.032 -0.092,0.056 -0.137,0.056 -0.042,10e-4 -0.079,-0.02 -0.105,-0.074"
   id="path34" />
	<polyline
   fill="#ffffff"
   points="46.605,25.982 46.573,26.027 46.581,26.034 46.613,25.988 46.605,25.982  "
   id="polyline36" />
	<path
   fill="#ffffff"
   d="m 46.388,26.06 c -0.012,0.003 -0.025,0.012 -0.038,0.034 0.022,-0.016 0.034,-0.027 0.038,-0.034 m 0.104,-0.109 -0.086,0.102 -0.096,-0.074 c -0.019,0.089 0.099,0.048 0.077,0.081 0.002,-10e-4 0.005,-10e-4 0.007,-10e-4 0.012,0 0.023,0.006 0.033,0.012 0.01,0.006 0.018,0.012 0.025,0.012 0.01,0 0.017,-0.014 0.017,-0.064 l 0.009,0.007 0.014,-0.075"
   id="path38" />
	<polyline
   fill="#ffffff"
   points="46.668,26.157 46.684,26.211 46.695,26.177 46.668,26.157  "
   id="polyline40" />
	<polyline
   fill="#ffffff"
   points="46.741,26.396 46.785,26.429 46.741,26.396  "
   id="polyline42" />
	<polyline
   fill="#ffffff"
   points="46.245,26.111 46.249,26.142 46.319,26.139 46.245,26.111  "
   id="polyline44" />
	<polyline
   fill="#ffffff"
   points="46.259,26.205 46.255,26.287 46.268,26.268 46.259,26.205  "
   id="polyline46" />
	<polyline
   fill="#ffffff"
   points="46.194,26.296 46.195,26.352 46.194,26.296  "
   id="polyline48" />
	<polyline
   fill="#ffffff"
   points="46.379,26.452 46.312,26.471 46.379,26.452  "
   id="polyline50" />
	<polyline
   fill="#ffffff"
   points="46.295,26.514 46.289,26.579 46.295,26.514  "
   id="polyline52" />
	<path
   fill="#ffffff"
   d="m 42.061,26.918 -0.048,0.201 c -0.024,0.023 -0.043,0.031 -0.059,0.031 -0.027,0 -0.044,-0.026 -0.064,-0.052 -0.019,-0.026 -0.041,-0.052 -0.077,-0.052 -0.006,0 -0.012,0.001 -0.019,0.002 -0.151,0.052 -0.317,0.152 -0.467,0.152 -0.026,0 -0.052,-0.003 -0.076,-0.01 l 0.066,0.135 c 0.025,0.117 -0.122,0.116 -0.141,0.2 -0.028,0.052 -0.057,0.069 -0.085,0.069 -0.027,0 -0.055,-0.015 -0.084,-0.031 -0.029,-0.015 -0.059,-0.031 -0.09,-0.031 -0.011,0 -0.021,0.002 -0.032,0.006 l 0.122,0.094 c -0.232,0.101 0.035,0.462 -0.26,0.557 0.02,0.086 0.166,0.24 -0.017,0.309 0.09,0.106 0.242,0.153 0.376,0.153 0.019,0 0.037,-0.001 0.055,-0.003 0.128,0.141 -0.099,0.33 0.063,0.442 0.016,0.009 0.036,0.011 0.06,0.011 0.014,0 0.028,-10e-4 0.043,-0.002 0.015,-0.001 0.03,-0.002 0.045,-0.002 0.057,0 0.114,0.011 0.142,0.076 -0.063,0.204 0.108,0.322 0.15,0.509 0.003,0 0.006,0 0.009,0 0.112,0 0.047,-0.227 0.188,-0.241 l 0.08,0.076 c 0.035,0.035 0.062,0.049 0.085,0.049 0.095,0 0.105,-0.247 0.209,-0.257 l 0.118,0.231 c -0.054,-0.242 0.051,-0.277 0.191,-0.277 0.029,0 0.059,10e-4 0.089,0.003 0.031,0.001 0.061,0.003 0.092,0.003 0.083,0 0.161,-0.011 0.213,-0.062 -0.016,-0.11 -0.045,-0.259 -0.007,-0.37 0.017,-0.058 0.053,-0.072 0.092,-0.072 0.017,0 0.035,0.002 0.052,0.005 0.017,0.002 0.034,0.005 0.048,0.005 0.011,0 0.021,-10e-4 0.029,-0.005 l -0.135,-0.132 c 0.022,-0.045 0.057,-0.054 0.094,-0.054 0.011,0 0.022,0.001 0.033,0.002 0.011,0.001 0.022,0.002 0.033,0.002 0.039,0 0.072,-0.01 0.086,-0.068 0.048,-0.314 -0.304,-0.557 -0.135,-0.834 0.023,-0.108 0.007,-0.219 -0.075,-0.311 -0.017,0.001 -0.033,0.002 -0.049,0.002 -0.374,0.001 -0.671,-0.315 -0.943,-0.459"
   id="path54" />
	<path
   fill="#ffffff"
   d="m 44.783,25.223 0.112,-0.082 c -0.026,0.037 10e-4,0.16 -0.047,0.16 -0.011,0 -0.027,-0.007 -0.049,-0.024 l 0.006,-0.066 -0.022,0.012 m -0.249,-0.122 0.049,-0.088 0.019,-0.027 c 0.102,0.065 -0.04,0.095 -0.051,0.185 0.007,-0.01 0.058,-0.032 0.109,-0.032 0.042,0 0.083,0.015 0.097,0.064 -0.023,-0.037 -0.039,-0.051 -0.051,-0.051 -0.02,0 -0.03,0.036 -0.044,0.072 -0.014,0.036 -0.031,0.072 -0.065,0.072 -0.004,0 -0.008,0 -0.012,-10e-4 l 0.045,-0.063 c -0.021,0.011 -0.038,0.016 -0.05,0.016 -0.061,0 -0.034,-0.113 -0.053,-0.162 l -0.003,-0.007 c 10e-4,0.002 0.002,0.004 0.003,0.007 l 0.007,0.015 m 0.256,-0.096 0.043,-0.023 -0.043,0.023 m -0.276,0.011 -0.028,-0.036 0.076,-0.012 -0.048,0.048 m 0.201,-0.115 c 0.014,0 0.026,-0.008 0.038,-0.016 0.012,-0.008 0.025,-0.016 0.039,-0.016 0.013,0 0.028,0.008 0.045,0.031 L 44.695,24.987 44.67,24.87 c 0.017,0.024 0.032,0.031 0.045,0.031 m 0.063,-0.106 c -0.089,0 -0.19,0.059 -0.267,0.092 -0.088,0.086 -0.063,0.204 -0.056,0.307 l 0.103,0.177 c 0.021,-0.017 0.041,-0.023 0.061,-0.023 0.025,0 0.048,0.01 0.072,0.02 0.024,0.01 0.049,0.02 0.075,0.02 0.013,0 0.026,-0.002 0.04,-0.008 0.125,-0.044 0.168,-0.123 0.204,-0.249 -0.029,-0.092 -0.014,-0.208 -0.11,-0.281 -0.035,-0.04 -0.077,-0.055 -0.122,-0.055"
   id="path56" />
	<path
   fill="#ffffff"
   d="m 44.792,24.869 c -0.014,0 -0.026,0.008 -0.039,0.016 -0.012,0.008 -0.025,0.016 -0.038,0.016 -0.013,0 -0.028,-0.008 -0.045,-0.031 l 0.025,0.117 0.142,-0.087 C 44.82,24.877 44.806,24.869 44.792,24.869"
   id="path58" />
	<polyline
   fill="#ffffff"
   points="44.833,24.982 44.79,25.005 44.833,24.982  "
   id="polyline60" />
	<path
   fill="#ffffff"
   d="m 44.895,25.141 -0.112,0.082 0.021,-0.012 -0.006,0.066 c 0.022,0.017 0.037,0.024 0.049,0.024 0.049,0 0.022,-0.123 0.048,-0.16"
   id="path62" />
	<path
   fill="#ffffff"
   d="m 44.523,25.079 0.003,0.007 c -0.001,-0.003 -0.002,-0.005 -0.003,-0.007 m 0.079,-0.093 -0.019,0.027 -0.049,0.088 -0.007,-0.015 c 0.019,0.048 -0.008,0.162 0.053,0.162 0.013,0 0.029,-0.005 0.05,-0.016 l -0.045,0.063 c 0.004,10e-4 0.009,10e-4 0.012,10e-4 0.034,0 0.051,-0.036 0.065,-0.072 0.014,-0.036 0.024,-0.072 0.044,-0.072 0.012,0 0.028,0.014 0.051,0.051 -0.014,-0.049 -0.055,-0.064 -0.097,-0.064 -0.05,0 -0.102,0.022 -0.109,0.032 0.011,-0.09 0.153,-0.121 0.051,-0.185"
   id="path64" />
	<polyline
   fill="#ffffff"
   points="44.561,24.968 44.485,24.98 44.514,25.016 44.561,24.968  "
   id="polyline66" />
	<path
   fill="#ffffff"
   d="m 51.091,24.697 c -0.103,0.295 -0.215,0.662 -0.454,0.832 l 0.047,0.101 c -0.018,0.047 -0.039,0.061 -0.06,0.061 -0.018,0 -0.036,-0.011 -0.054,-0.021 -0.017,-0.011 -0.033,-0.021 -0.047,-0.021 -0.012,0 -0.021,0.008 -0.029,0.029 C 50.36,25.6 50.249,25.457 50.126,25.352 l -0.042,0.049 c 0.119,0.07 0.209,0.265 0.231,0.413 l -0.117,-0.023 0.081,0.096 c -0.061,0.038 -0.128,0.057 -0.198,0.057 -0.05,0 -0.101,-0.01 -0.153,-0.03 l 0.104,0.09 -0.088,0.12 0.203,0.058 -0.023,0.093 0.099,0.026 c 0.094,0.088 -0.103,0.054 -0.022,0.15 -0.129,0.147 -0.343,0.163 -0.514,0.233 0.032,0.04 0.064,0.079 0.079,0.118 l 0.209,-0.104 0.256,0.097 c -0.078,0.093 0.109,0.182 -0.015,0.261 l -0.115,0.12 c 0.003,0 0.006,0 0.009,0 0.063,0 0.112,0.033 0.162,0.066 0.049,0.033 0.099,0.066 0.163,0.066 0.029,0 0.061,-0.007 0.096,-0.024 l 0.105,0.147 -0.009,0.227 c 0.125,-0.175 0.073,-0.427 0.239,-0.554 0.214,0.117 0.358,0.324 0.578,0.437 l -0.025,0.075 0.115,0.092 c 0.005,0 0.01,0 0.015,0 0.17,0 -0.115,-0.201 -0.064,-0.302 l 0.194,-0.042 0.028,-0.212 c 0.011,-0.003 0.022,-0.005 0.032,-0.005 0.081,0 0.158,0.081 0.249,0.084 0.009,-0.199 -0.052,-0.463 -0.063,-0.706 l -0.153,-0.18 c 0.07,-0.175 0.284,-0.144 0.389,-0.295 l 0.03,-0.194 c -0.048,-0.028 -0.094,-0.04 -0.136,-0.04 -0.08,0 -0.152,0.039 -0.224,0.078 -0.071,0.039 -0.142,0.078 -0.218,0.078 -0.045,0 -0.092,-0.013 -0.142,-0.048 -0.019,-0.227 -0.118,-0.465 -0.29,-0.602 -0.214,-0.089 -0.009,-0.283 0.007,-0.428 l -0.097,-0.197"
   id="path68" />
	<path
   fill="#ffffff"
   d="m 49.691,26.684 c -0.004,0.002 -0.009,0.004 -0.013,0.005 l 0.071,0.123 0.021,-0.01 c -0.015,-0.039 -0.047,-0.078 -0.079,-0.118"
   id="path70" />
	<polyline
   fill="#ffffff"
   points="49.571,26.823 49.637,26.853 49.571,26.823  "
   id="polyline72" />
	<path
   fill="#ffffff"
   d="m 54.481,32.924 c -0.17,0.121 -0.262,0.32 -0.438,0.416 l 0.029,-0.069 -0.159,0.151 c -0.107,-0.165 -0.189,-0.078 -0.245,-0.278 l -0.131,0.054 -0.047,-0.101 -0.264,0.033 -0.11,-0.028 -0.02,0.168 -0.234,0.051 0.01,0.128 -0.107,0.047 0.014,0.163 -0.185,0.083 c 0.05,0.176 0.102,0.37 0.072,0.565 0.224,0.245 0.226,0.561 0.412,0.833 l 0.161,-0.008 0.031,0.218 c 0.009,0.002 0.017,0.003 0.024,0.003 0.034,0 0.035,-0.028 0.038,-0.056 0.003,-0.028 0.007,-0.056 0.046,-0.056 0.005,0 0.01,0 0.016,10e-4 0.117,0.052 0.15,0.202 0.224,0.274 l 0.014,-0.163 0.254,-0.007 0.092,0.127 c 0.083,-0.05 -0.055,-0.202 0.091,-0.202 0.005,0 0.011,0 0.017,10e-4 0.014,-0.007 0.025,-0.01 0.035,-0.01 0.028,0 0.043,0.024 0.059,0.048 0.015,0.024 0.031,0.048 0.059,0.048 0.004,0 0.008,0 0.013,-0.002 l -0.006,-0.15 c 0.02,-0.027 0.039,-0.036 0.059,-0.036 0.024,0 0.048,0.015 0.072,0.029 0.024,0.015 0.047,0.029 0.071,0.029 0.005,0 0.01,-0.001 0.015,-0.002 l -0.062,-0.11 c 0.012,-0.058 0.032,-0.076 0.056,-0.076 0.019,0 0.04,0.011 0.061,0.022 0.022,0.011 0.043,0.022 0.064,0.022 0.019,0 0.036,-0.009 0.051,-0.036 0.016,-0.175 0.062,-0.429 0.048,-0.649 0.056,-0.184 0.336,-0.065 0.429,-0.246 -0.005,-0.047 -0.019,-0.062 -0.039,-0.062 -0.016,0 -0.037,0.01 -0.058,0.021 -0.022,0.01 -0.045,0.021 -0.068,0.021 -0.015,0 -0.029,-0.004 -0.042,-0.016 -0.302,-0.209 -0.536,-0.428 -0.627,-0.796 l 0.262,-0.32 -0.057,-0.077"
   id="path74" />
	<polyline
   fill="#ffffff"
   points="49.332,27.8 49.256,27.883 49.332,27.8  "
   id="polyline76" />
	<path
   fill="#ffffff"
   d="m 55.06,27.491 c -0.074,0.283 -0.362,0.42 -0.524,0.583 l 0.117,0.081 c 0.041,0.106 -0.086,0.051 -0.096,0.136 -0.003,0.137 0.032,0.304 -0.037,0.411 l 0.101,-0.014 0.094,0.145 c 0.085,0.103 -0.06,0.12 -0.06,0.206 l 0.088,-0.063 c 0.01,0.185 0.303,0.084 0.294,0.311 0.003,0 0.006,0 0.009,0 0.014,0 0.03,-0.003 0.047,-0.005 0.017,-0.003 0.036,-0.005 0.053,-0.005 0.045,0 0.083,0.017 0.084,0.094 0.101,-0.043 0.172,-0.16 0.197,-0.264 0.015,-0.007 0.029,-0.01 0.043,-0.01 0.038,0 0.07,0.023 0.102,0.046 0.032,0.023 0.062,0.046 0.096,0.046 0.018,0 0.036,-0.006 0.056,-0.022 0.04,-0.038 0.026,-0.173 0.121,-0.182 0.039,0.031 0.079,0.041 0.119,0.041 0.034,0 0.068,-0.007 0.103,-0.014 0.035,-0.007 0.071,-0.014 0.108,-0.014 0.01,0 0.019,0 0.029,0.002 0.037,-0.084 -0.132,-0.089 -0.107,-0.193 l 0.067,-0.038 c 0.158,-0.083 -0.086,-0.16 -0.063,-0.253 l 0.175,-0.028 C 55.948,28.451 56.274,28.172 56.2,28.003 l -0.237,-0.082 0.009,-0.17 -0.116,0.063 -0.018,-0.199 C 55.79,27.588 55.739,27.58 55.687,27.58 c -0.039,0 -0.078,0.004 -0.116,0.009 -0.038,0.004 -0.076,0.009 -0.112,0.009 -0.07,0 -0.134,-0.017 -0.184,-0.084 L 55.06,27.491"
   id="path78" />
	<path
   fill="#ffffff"
   d="m 42.703,17.319 c -0.066,0.021 -0.111,0.074 -0.116,0.194 -0.042,0.136 -0.117,0.26 -0.211,0.368 0.03,0.034 0.058,0.067 0.062,0.107 0.079,-0.213 0.159,-0.454 0.265,-0.669 m -0.811,-3.575 c -0.013,0 -0.026,0.007 -0.041,0.026 -0.009,-10e-4 -0.016,-10e-4 -0.024,-10e-4 -0.232,0 0.16,0.283 0.089,0.424 -0.041,-0.009 -0.093,-0.021 -0.141,-0.021 -0.056,0 -0.107,0.017 -0.131,0.077 0.115,0.12 -0.065,0.179 -0.041,0.296 -0.015,0.004 -0.029,0.006 -0.044,0.006 -0.113,0 -0.221,-0.115 -0.35,-0.121 -0.006,0.109 0.003,0.233 0.017,0.364 l 0.071,-0.086 c 0.1,0.049 0.083,0.148 0.049,0.234 l -0.051,0.072 c -0.019,-0.003 -0.034,-0.009 -0.045,-0.017 0.017,0.14 0.033,0.283 0.038,0.421 0.024,0.117 0.136,0.173 0.213,0.254 -0.101,0.244 -0.399,0.197 -0.547,0.407 -0.053,0.077 -0.08,0.176 -0.044,0.272 0.032,0.019 0.063,0.033 0.094,0.042 -10e-4,-0.077 -0.005,-0.158 -0.022,-0.233 l 0.195,0.066 0.066,-0.188 v 0 c -0.002,0.116 0.023,0.223 0.071,0.314 0.034,-0.016 0.067,-0.034 0.101,-0.051 0.099,-0.053 0.197,-0.106 0.303,-0.106 0.05,0 0.102,0.012 0.156,0.041 0.05,-0.072 0.087,-0.149 0.099,-0.223 l 0.082,0.036 c -0.035,0.103 -0.082,0.205 -0.126,0.308 0.026,0.183 0.088,0.366 0.185,0.52 0.202,0.135 0.466,0.182 0.734,0.199 0.069,-0.097 0.147,-0.182 0.239,-0.245 l -0.065,-0.142 c 0.026,-0.065 0.055,-0.085 0.084,-0.085 0.025,0 0.051,0.015 0.075,0.03 0.024,0.015 0.047,0.03 0.066,0.03 0.016,0 0.03,-0.01 0.04,-0.04 0.186,0.111 0.34,0.312 0.511,0.461 l 0.059,-0.068 c -0.166,-0.099 -0.29,-0.374 -0.319,-0.581 L 43.7,16.47 43.588,16.334 c 0.085,-0.051 0.177,-0.077 0.273,-0.077 0.071,0 0.145,0.014 0.218,0.043 l -0.145,-0.127 0.124,-0.167 C 43.96,15.994 43.86,15.956 43.774,15.922 l 0.033,-0.13 -0.139,-0.037 c -0.13,-0.124 0.145,-0.074 0.033,-0.21 0.187,-0.21 0.497,-0.225 0.74,-0.327 -0.055,-0.033 0.009,-0.181 -0.063,-0.181 -0.009,0 -0.02,0.002 -0.034,0.007 -0.083,0.111 -0.219,0.058 -0.323,0.157 -0.112,-0.056 -0.287,-0.028 -0.358,-0.139 0.11,-0.13 -0.15,-0.257 0.024,-0.364 l 0.163,-0.167 c -0.003,0 -0.007,0 -0.01,0 -0.089,0 -0.158,-0.047 -0.228,-0.095 -0.069,-0.047 -0.139,-0.095 -0.229,-0.095 -0.04,0 -0.083,0.009 -0.133,0.032 l -0.145,-0.207 c -0.027,-0.102 0.062,-0.244 0.015,-0.318 -0.178,0.244 -0.107,0.596 -0.34,0.772 -0.299,-0.167 -0.496,-0.458 -0.804,-0.618 l 0.036,-0.105 c -0.035,-0.018 -0.067,-0.153 -0.12,-0.153"
   id="path80" />
	<path
   fill="#ffffff"
   d="m 42.716,18.139 -0.071,0.086 c 0.007,0.066 0.016,0.135 0.024,0.204 0.011,0.008 0.026,0.014 0.045,0.017 l 0.051,-0.072 c 0.034,-0.087 0.051,-0.186 -0.049,-0.235"
   id="path82" />
	<path
   fill="#ffffff"
   d="m 43.53,20.309 c 0.056,0.09 0.124,0.17 0.204,0.234 0.299,0.127 0.009,0.395 -0.015,0.599 -0.014,0.073 0.033,0.123 0.076,0.171 0.094,-0.108 0.168,-0.233 0.211,-0.368 0.005,-0.12 0.05,-0.173 0.116,-0.194 0.043,-0.086 0.09,-0.168 0.143,-0.243 -0.268,-0.017 -0.532,-0.064 -0.735,-0.199 m -0.87,-0.839 -0.066,0.188 -0.195,-0.066 c 0.017,0.075 0.021,0.156 0.022,0.233 0.034,0.01 0.067,0.015 0.1,0.015 0.074,0 0.143,-0.023 0.21,-0.055 -0.048,-0.092 -0.073,-0.198 -0.071,-0.315 m 0.73,-0.025 c -0.012,0.074 -0.049,0.151 -0.099,0.223 0.015,0.008 0.03,0.018 0.046,0.028 0.002,0.031 0.006,0.061 0.01,0.092 0.044,-0.103 0.091,-0.206 0.126,-0.308 L 43.39,19.445"
   id="path84" />
	<path
   fill="#ffffff"
   d="m 40.457,22.755 -0.097,-0.012 0.097,0.012 m -0.486,-0.486 c -0.005,-0.006 -0.01,-0.013 -0.016,-0.021 0.005,0.007 0.011,0.014 0.016,0.021 0.054,0.07 0.07,0.093 0.138,0.18 -0.003,0.025 -0.01,0.033 -0.02,0.033 -0.01,0 -0.021,-0.008 -0.033,-0.017 -0.011,-0.008 -0.023,-0.017 -0.032,-0.017 -0.01,0 -0.017,0.011 -0.017,0.043 l 0.047,0.034 -0.03,-0.006 0.142,0.102 0.023,-0.049 c -0.014,-0.029 -0.007,-0.061 0.042,-0.09 l -0.042,0.09 c 0.018,0.037 0.072,0.07 0.123,0.088 l -0.004,-0.017 0.071,0.031 C 40.36,22.673 40.336,22.668 40.312,22.66 l 0.013,0.051 c -0.015,-0.019 -0.028,-0.025 -0.04,-0.025 -0.014,0 -0.026,0.009 -0.036,0.017 -0.01,0.008 -0.019,0.017 -0.025,0.017 -0.007,0 -0.012,-0.012 -0.014,-0.05 -0.003,0.096 -0.133,0.093 -0.115,0.161 l -0.068,-0.087 0.044,0.009 -0.124,-0.034 0.036,-0.145 0.035,0.056 c 0.062,-0.123 -0.101,-0.077 -0.133,-0.108 0.078,-0.065 0.148,-0.16 0.086,-0.253 m 0.177,-0.071 -0.019,-0.017 c 0.01,0.002 0.016,0.008 0.019,0.017 l 0.132,0.119 0.107,-0.074 v 0 c -0.024,0.083 0.009,0.114 0.101,0.158 l -0.068,-0.006 0.05,0.059 -0.035,-0.015 c -0.062,0.124 0.068,0.086 0.118,0.105 l -0.118,0.055 0.053,0.083 -0.107,-0.046 C 40.499,22.54 40.34,22.491 40.325,22.367 l -0.074,0.105 C 40.23,22.379 40.34,22.37 40.233,22.324 l -0.047,0.127 C 40.07,22.425 40.167,22.254 40.148,22.198 m 0.075,-0.015 c 0.022,0 0.037,-0.01 0.048,-0.02 0.012,-0.01 0.02,-0.02 0.028,-0.02 0.011,0 0.021,0.015 0.039,0.065 l -0.054,0.037 c 0.011,-0.038 0.014,-0.05 0.013,-0.05 -0.002,0 -0.008,0.011 -0.018,0.023 -0.009,0.011 -0.021,0.023 -0.034,0.023 -0.014,0 -0.029,-0.015 -0.041,-0.061 0.008,0.002 0.014,0.003 0.019,0.003 m -0.022,-0.174 c -0.036,0 -0.073,0.031 -0.113,0.061 -0.04,0.031 -0.084,0.061 -0.133,0.061 -0.019,0 -0.039,-0.005 -0.06,-0.016 -0.089,0.102 -0.065,0.3 -0.116,0.442 0.122,0.232 0.213,0.433 0.482,0.433 0.004,0 0.008,0 0.012,0 0.006,-0.151 0.172,-0.093 0.254,-0.123 -0.003,-0.105 0.068,-0.154 0.113,-0.225 0.024,-0.123 0.039,-0.281 -0.047,-0.395 -0.065,-0.056 -0.138,-0.206 -0.22,-0.206 -0.026,0 -0.053,0.015 -0.082,0.055 -0.03,-0.065 -0.059,-0.087 -0.09,-0.087"
   id="path86" />
	<polyline
   fill="#ffffff"
   points="40.359,22.743 40.457,22.755 40.359,22.743  "
   id="polyline88" />
	<path
   fill="#ffffff"
   d="m 40.371,22.4 -0.053,-0.084 0.08,0.065 -0.027,0.019 m -0.223,-0.202 c 0.019,0.056 -0.078,0.227 0.037,0.251 l 0.047,-0.127 c 0.107,0.046 -0.003,0.055 0.018,0.148 l 0.074,-0.105 c 0.015,0.124 0.175,0.173 0.056,0.269 l 0.107,0.046 -0.053,-0.083 0.118,-0.055 c -0.05,-0.019 -0.181,0.018 -0.118,-0.105 l 0.035,0.015 -0.05,-0.059 0.068,0.006 c -0.092,-0.043 -0.124,-0.074 -0.101,-0.158 l -0.107,0.074 -0.131,-0.117 m -0.019,-0.017 0.019,0.017 c -0.003,-0.009 -0.009,-0.015 -0.019,-0.017"
   id="path90" />
	<path
   fill="#ffffff"
   d="m 40.309,22.644 0.004,0.017 c 0.024,0.008 0.048,0.013 0.067,0.014 l -0.071,-0.031 m -0.077,-0.16 c -0.049,0.029 -0.056,0.061 -0.042,0.09 l 0.042,-0.09 m -0.092,0.277 0.003,-0.055 -0.003,0.055 m -0.169,-0.492 c 0.062,0.093 -0.007,0.188 -0.084,0.254 0.032,0.031 0.195,-0.015 0.133,0.108 l -0.035,-0.056 -0.036,0.145 0.124,0.034 -0.044,-0.009 0.068,0.087 c -0.018,-0.068 0.113,-0.065 0.115,-0.161 0.002,0.038 0.006,0.05 0.014,0.05 0.006,0 0.015,-0.009 0.025,-0.017 0.01,-0.008 0.022,-0.017 0.036,-0.017 0.012,0 0.025,0.006 0.04,0.025 L 40.314,22.661 C 40.263,22.643 40.209,22.61 40.191,22.573 l -0.023,0.049 -0.142,-0.102 0.03,0.006 -0.047,-0.034 c 0,-0.033 0.007,-0.043 0.017,-0.043 0.009,0 0.02,0.008 0.032,0.017 0.011,0.008 0.023,0.017 0.033,0.017 0.01,0 0.017,-0.008 0.02,-0.033 -0.07,-0.088 -0.086,-0.111 -0.14,-0.181 m -0.017,-0.02 c 0.006,0.007 0.011,0.014 0.016,0.021 -0.004,-0.008 -0.01,-0.015 -0.016,-0.021"
   id="path92" />
	<polyline
   fill="#ffffff"
   points="40.143,22.706 40.14,22.761 40.143,22.706  "
   id="polyline94" />
	<polyline
   fill="#ffffff"
   points="40.318,22.317 40.371,22.4 40.398,22.382 40.318,22.317  "
   id="polyline96" />
	<path
   fill="#ffffff"
   d="m 40.3,22.144 c -0.008,0 -0.017,0.01 -0.028,0.02 -0.012,0.01 -0.027,0.02 -0.048,0.02 -0.005,0 -0.011,-0.001 -0.017,-0.002 0.012,0.046 0.027,0.061 0.041,0.061 0.012,0 0.024,-0.011 0.034,-0.023 0.009,-0.011 0.016,-0.023 0.018,-0.023 0.002,0 -10e-4,0.012 -0.013,0.05 L 40.341,22.21 C 40.321,22.159 40.31,22.144 40.3,22.144"
   id="path98" />
	<path
   fill="#ffffff"
   d="m 34.961,18.257 -0.021,0.229 c -0.044,0.02 -0.096,0.026 -0.148,0.026 -0.079,0 -0.157,-0.015 -0.207,-0.02 l -0.127,-0.179 c -0.117,0.068 0.073,0.282 -0.128,0.282 -0.008,0 -0.017,0 -0.026,-10e-4 -0.019,0.009 -0.035,0.013 -0.048,0.013 -0.04,0 -0.061,-0.034 -0.082,-0.068 -0.021,-0.034 -0.043,-0.068 -0.082,-0.068 -0.005,0 -0.011,0.001 -0.018,0.002 -0.106,0.074 0.029,0.127 0.006,0.21 -0.027,0.037 -0.055,0.05 -0.082,0.05 -0.034,0 -0.068,-0.021 -0.101,-0.042 -0.033,-0.021 -0.066,-0.042 -0.099,-0.042 -0.007,0 -0.013,10e-4 -0.02,0.003 l 0.086,0.155 c -0.018,0.081 -0.046,0.106 -0.079,0.106 -0.026,0 -0.056,-0.016 -0.086,-0.032 -0.03,-0.016 -0.061,-0.032 -0.09,-0.032 -0.026,0 -0.05,0.013 -0.07,0.05 -0.024,0.244 -0.092,0.599 -0.074,0.908 -0.08,0.256 -0.471,0.086 -0.604,0.339 0.006,0.067 0.026,0.087 0.054,0.087 0.023,0 0.051,-0.014 0.081,-0.028 0.03,-0.014 0.063,-0.028 0.095,-0.028 0.021,0 0.041,0.006 0.06,0.022 0.42,0.297 0.745,0.606 0.869,1.122 l -0.37,0.444 0.071,0.111 c 0.24,-0.167 0.37,-0.444 0.618,-0.577 l -0.041,0.096 c 0.061,-0.082 0.116,-0.21 0.218,-0.21 0.002,0 0.005,0 0.007,0 0.148,0.232 0.263,0.111 0.34,0.392 l 0.184,-0.074 0.065,0.142 c 0.019,0.02 0.042,0.028 0.068,0.028 0.04,0 0.087,-0.018 0.135,-0.037 0.048,-0.018 0.096,-0.037 0.14,-0.037 0.009,0 0.018,0.001 0.027,0.003 l 0.154,0.04 c 0,-0.08 -0.065,-0.182 0.029,-0.235 0.086,-0.087 0.21,-0.052 0.328,-0.068 l -0.012,-0.179 0.151,-0.065 -0.018,-0.229 c 0.059,-0.108 0.151,-0.105 0.26,-0.114 -0.068,-0.247 -0.139,-0.519 -0.094,-0.791 -0.31,-0.346 -0.31,-0.788 -0.567,-1.171 l -0.225,0.009 -0.041,-0.306 c -0.013,-0.003 -0.024,-0.005 -0.034,-0.005 -0.046,0 -0.049,0.039 -0.053,0.078 -0.004,0.039 -0.01,0.078 -0.064,0.078 -0.007,0 -0.015,-10e-4 -0.023,-0.002 -0.164,-0.073 -0.208,-0.283 -0.312,-0.385"
   id="path100" />
	<path
   fill="#ffffff"
   d="m 38.181,21.395 -0.026,-0.022 0.053,0.003 -0.027,0.019 m -0.255,0.003 0.044,-0.031 -0.044,0.031 m 0.45,-0.019 -0.03,-0.046 0.009,-0.006 0.03,0.046 -0.009,0.006 m 0.019,-0.237 c 0.007,0 0.012,-0.016 0.021,-0.032 0.009,-0.016 0.021,-0.032 0.04,-0.032 0.008,0 0.018,0.003 0.03,0.011 -10e-4,0.038 -0.012,0.046 -0.026,0.046 -0.005,0 -0.01,-0.001 -0.016,-0.002 -0.006,-10e-4 -0.012,-0.002 -0.018,-0.002 -0.013,0 -0.027,0.005 -0.038,0.025 l 0.062,0.117 -0.062,-0.037 0.009,-0.006 c -0.108,-0.042 -0.015,-0.046 -0.009,-0.094 -0.005,-0.007 -0.01,-0.022 -0.018,-0.048 0.015,0.02 0.02,0.036 0.018,0.048 0.002,0.005 0.005,0.006 0.007,0.006 m -0.054,-0.099 0.021,-0.068 0.03,0.006 -0.051,0.062 m -0.039,-0.08 -0.059,-0.012 -0.012,-0.019 0.071,0.031 m -0.26,0.033 0.006,-0.071 -0.006,0.071 m -0.026,-0.102 -0.056,-0.028 0.056,0.028 m 0.227,-0.024 -0.05,-0.019 0.05,0.019 m -0.165,-0.331 c -0.269,0 -0.356,0.294 -0.507,0.423 0.166,0.179 -0.118,0.296 0.065,0.463 0.056,0.229 0.266,0.096 0.375,0.247 0.014,-0.016 0.029,-0.021 0.045,-0.021 0.018,0 0.038,0.008 0.057,0.016 0.019,0.008 0.038,0.015 0.057,0.015 0.022,0 0.043,-0.01 0.063,-0.044 0.027,0.015 0.048,0.021 0.066,0.021 0.049,0 0.072,-0.048 0.093,-0.095 0.022,-0.048 0.043,-0.095 0.089,-0.095 0.019,0 0.042,0.008 0.071,0.027 -0.027,-0.102 -0.021,-0.213 0.098,-0.229 -0.124,-0.074 -0.038,-0.201 -0.003,-0.306 l -0.136,-0.093 -0.012,-0.219 c -0.037,0.034 -0.065,0.048 -0.088,0.048 -0.039,0 -0.063,-0.039 -0.091,-0.077 -0.028,-0.039 -0.061,-0.078 -0.117,-0.078 -0.012,0 -0.024,0.002 -0.038,0.005 -0.03,-0.005 -0.059,-0.008 -0.087,-0.008"
   id="path102" />
	<polyline
   fill="#ffffff"
   points="38.355,21.327 38.346,21.333 38.376,21.379 38.385,21.373 38.355,21.327  "
   id="polyline104" />
	<path
   fill="#ffffff"
   d="m 38.37,21.089 c 0.007,0.026 0.013,0.041 0.018,0.048 0.002,-0.012 -0.002,-0.028 -0.018,-0.048 m 0.085,-0.011 c -0.019,0 -0.031,0.016 -0.04,0.032 -0.009,0.016 -0.014,0.032 -0.021,0.032 -0.002,0 -0.004,-0.002 -0.007,-0.005 -0.007,0.048 -0.099,0.052 0.009,0.094 l -0.009,0.006 0.062,0.037 -0.062,-0.117 c 0.011,-0.021 0.025,-0.025 0.038,-0.025 0.006,0 0.012,10e-4 0.018,0.002 0.006,0.001 0.011,0.002 0.016,0.002 0.014,0 0.025,-0.008 0.026,-0.046 -0.011,-0.008 -0.021,-0.012 -0.03,-0.012"
   id="path106" />
	<polyline
   fill="#ffffff"
   points="38.154,21.373 38.181,21.395 38.207,21.376 38.154,21.373  "
   id="polyline108" />
	<polyline
   fill="#ffffff"
   points="37.971,21.367 37.926,21.398 37.971,21.367  "
   id="polyline110" />
	<polyline
   fill="#ffffff"
   points="38.361,20.975 38.341,21.043 38.391,20.981 38.361,20.975  "
   id="polyline112" />
	<polyline
   fill="#ffffff"
   points="38.231,20.932 38.243,20.95 38.302,20.963 38.231,20.932  "
   id="polyline114" />
	<polyline
   fill="#ffffff"
   points="38.193,20.851 38.243,20.87 38.193,20.851  "
   id="polyline116" />
	<polyline
   fill="#ffffff"
   points="38.048,20.925 38.042,20.996 38.048,20.925  "
   id="polyline118" />
	<polyline
   fill="#ffffff"
   points="37.959,20.867 38.016,20.894 37.959,20.867  "
   id="polyline120" />
	<path
   fill="#ffffff"
   d="m 37.538,12.916 c -0.142,0.059 -0.243,0.222 -0.278,0.367 -0.021,0.009 -0.04,0.013 -0.059,0.013 -0.053,0 -0.099,-0.033 -0.143,-0.065 -0.044,-0.033 -0.087,-0.065 -0.135,-0.065 -0.024,0 -0.05,0.009 -0.077,0.03 -0.057,0.053 -0.039,0.241 -0.172,0.253 -0.056,-0.045 -0.112,-0.059 -0.169,-0.059 -0.046,0 -0.094,0.009 -0.142,0.019 -0.048,0.009 -0.097,0.018 -0.148,0.018 -0.015,0 -0.029,-10e-4 -0.044,-0.003 -0.053,0.117 0.183,0.127 0.148,0.272 l -0.095,0.052 c -0.222,0.114 0.118,0.225 0.086,0.355 l -0.245,0.037 c 0.458,0.056 0,0.442 0.1,0.679 0.103,0.022 0.245,0.043 0.331,0.118 0.1,0.077 -0.018,0.173 -0.015,0.238 l 0.163,-0.086 c 0.089,0.099 -0.092,0.198 0.023,0.278 0.069,0.04 0.142,0.051 0.217,0.051 0.052,0 0.104,-0.006 0.156,-0.011 0.052,-0.006 0.102,-0.011 0.151,-0.011 0.1,0 0.192,0.024 0.262,0.12 0.055,0.036 0.115,0.058 0.179,0.058 0.04,0 0.08,-0.008 0.122,-0.027 0.107,-0.395 0.512,-0.583 0.74,-0.809 -0.021,-0.093 -0.118,-0.065 -0.163,-0.114 -0.056,-0.148 0.121,-0.071 0.136,-0.188 0.006,-0.191 -0.041,-0.426 0.056,-0.574 l -0.142,0.018 c -0.112,-0.015 -0.062,-0.157 -0.13,-0.204 -0.118,-0.145 0.086,-0.167 0.086,-0.287 l -0.124,0.086 c -0.012,-0.259 -0.423,-0.121 -0.408,-0.439 -0.004,0 -0.009,-10e-4 -0.014,-10e-4 -0.019,0 -0.041,0.003 -0.065,0.006 -0.024,0.003 -0.048,0.006 -0.072,0.006 -0.061,0.002 -0.116,-0.021 -0.116,-0.131"
   id="path122" />
	<path
   fill="#ffffff"
   d="m 51.628,18.944 c -0.094,0.039 -0.16,0.147 -0.184,0.243 -0.014,0.006 -0.027,0.009 -0.039,0.009 -0.035,0 -0.065,-0.022 -0.094,-0.043 -0.029,-0.022 -0.058,-0.043 -0.089,-0.043 -0.016,0 -0.033,0.006 -0.051,0.02 -0.037,0.035 -0.026,0.159 -0.113,0.167 -0.037,-0.03 -0.074,-0.039 -0.112,-0.039 -0.031,0 -0.062,0.006 -0.094,0.012 -0.032,0.006 -0.064,0.012 -0.097,0.012 -0.01,0 -0.019,-0.001 -0.029,-0.002 -0.035,0.077 0.121,0.084 0.097,0.179 l -0.063,0.035 c -0.146,0.075 0.078,0.149 0.057,0.234 l -0.162,0.024 c 0.302,0.037 0,0.291 0.066,0.449 0.068,0.014 0.162,0.029 0.219,0.078 0.066,0.051 -0.012,0.114 -0.01,0.157 l 0.107,-0.057 c 0.059,0.065 -0.061,0.131 0.016,0.184 0.045,0.026 0.094,0.034 0.143,0.034 0.034,0 0.069,-0.004 0.103,-0.007 0.034,-0.004 0.068,-0.007 0.1,-0.007 0.066,0 0.127,0.016 0.173,0.079 0.036,0.024 0.076,0.039 0.118,0.039 0.026,0 0.053,-0.006 0.081,-0.018 0.071,-0.261 0.338,-0.385 0.488,-0.534 -0.014,-0.061 -0.078,-0.043 -0.107,-0.075 -0.037,-0.098 0.08,-0.047 0.09,-0.124 0.004,-0.126 -0.027,-0.281 0.037,-0.379 l -0.094,0.012 c -0.074,-0.01 -0.041,-0.104 -0.086,-0.135 -0.078,-0.096 0.057,-0.11 0.057,-0.19 l -0.082,0.057 c -0.008,-0.171 -0.279,-0.08 -0.269,-0.29 -0.003,0 -0.006,0 -0.009,0 -0.012,0 -0.027,0.002 -0.043,0.004 -0.016,0.002 -0.032,0.004 -0.047,0.004 -0.042,-0.002 -0.078,-0.017 -0.078,-0.089"
   id="path124" />
	<path
   fill="#ffffff"
   d="m 39.868,19.991 -0.006,-0.049 0.006,0.049 m -0.162,0.006 c -0.03,-0.046 -0.204,-0.059 -0.089,-0.139 l 0.056,0.028 -0.003,-0.025 0.036,0.136 m 0.233,0.025 -0.029,-0.167 0.112,0.015 c -0.106,0.034 0.024,0.118 -0.083,0.152 m 0.033,-0.291 -0.026,-0.062 0.041,-0.015 -0.015,0.077 M 39.715,19.71 c -0.007,-0.062 0.011,-0.079 0.04,-0.079 0.018,0 0.04,0.007 0.062,0.014 0.022,0.007 0.043,0.014 0.06,0.014 10e-4,0 0.002,0 0.003,0 l 0.007,-10e-4 v 0 c -0.002,10e-4 -0.005,10e-4 -0.007,10e-4 l -0.016,0.002 0.062,0.077 0.018,0.028 c -0.018,0.016 -0.032,0.022 -0.043,0.022 -0.044,0 -0.043,-0.101 -0.104,-0.133 0.012,0.018 0.009,0.189 -0.092,0.189 -0.002,0 -0.004,0 -0.005,0 0.177,-0.043 -0.08,-0.105 -0.024,-0.198 l 0.039,0.064 m 0.091,-0.158 -0.192,0.04 c 0.032,0.111 -0.095,0.133 -0.092,0.238 -0.003,0.136 0.053,0.204 0.153,0.281 0.056,0.002 0.115,0.022 0.174,0.022 0.037,0 0.075,-0.008 0.113,-0.035 0.142,-0.059 0.104,-0.259 0.098,-0.389 -0.047,-0.114 -0.159,-0.129 -0.254,-0.157"
   id="path126" />
	<path
   fill="#ffffff"
   d="m 39.91,19.855 0.029,0.167 c 0.106,-0.034 -0.023,-0.117 0.083,-0.151 L 39.91,19.855"
   id="path128" />
	<polyline
   fill="#ffffff"
   points="39.862,19.941 39.868,19.991 39.862,19.941  "
   id="polyline130" />
	<path
   fill="#ffffff"
   d="m 39.617,19.858 c -0.115,0.08 0.059,0.093 0.089,0.139 l -0.035,-0.136 0.003,0.025 -0.057,-0.028"
   id="path132" />
	<path
   fill="#ffffff"
   d="m 39.886,19.657 -0.007,0.001 c 0.002,0 0.005,0 0.007,-0.001 M 39.755,19.63 c -0.028,0 -0.047,0.017 -0.04,0.079 l -0.041,-0.065 c -0.056,0.093 0.201,0.154 0.024,0.198 0.002,0 0.004,0 0.005,0 0.101,0 0.104,-0.17 0.092,-0.189 0.061,0.032 0.06,0.133 0.104,0.133 0.011,0 0.025,-0.006 0.043,-0.022 l -0.018,-0.028 -0.062,-0.077 0.016,-0.002 c -10e-4,0 -0.002,0 -0.003,0 -0.017,0 -0.038,-0.007 -0.06,-0.014 -0.02,-0.006 -0.042,-0.013 -0.06,-0.013"
   id="path134" />
	<polyline
   fill="#ffffff"
   points="39.987,19.654 39.945,19.669 39.972,19.731 39.987,19.654  "
   id="polyline136" />
</g><g
     id="g140"
     transform="translate(-0.271,-0.254)">
</g><g
     id="g142"
     transform="translate(-0.271,-0.254)">
</g><g
     id="g144"
     transform="translate(-0.271,-0.254)">
</g><g
     id="g146"
     transform="translate(-0.271,-0.254)">
</g><g
     id="g148"
     transform="translate(-0.271,-0.254)">
</g><g
     id="g150"
     transform="translate(-0.271,-0.254)">
</g></g>
</svg>
