<?xml version="1.0" encoding="UTF-8" standalone="no"?>
<!-- Generator: Adobe Illustrator 25.4.8, SVG Export Plug-In . SVG Version: 6.00 Build 0)  -->

<svg
   version="1.1"
   id="Layer_1"
   x="0px"
   y="0px"
   viewBox="0 0 22.68807 20.85476"
   enable-background="new 0 0 56.693 56.693"
   xml:space="preserve"
   sodipodi:docname="Bee.svg"
   width="22.68807"
   height="20.854761"
   inkscape:version="1.2 (dc2aedaf03, 2022-05-15)"
   xmlns:inkscape="http://www.inkscape.org/namespaces/inkscape"
   xmlns:sodipodi="http://sodipodi.sourceforge.net/DTD/sodipodi-0.dtd"
   xmlns="http://www.w3.org/2000/svg"
   xmlns:svg="http://www.w3.org/2000/svg"><defs
   id="defs99" /><sodipodi:namedview
   id="namedview97"
   pagecolor="#ffffff"
   bordercolor="#000000"
   borderopacity="0.25"
   inkscape:showpageshadow="2"
   inkscape:pageopacity="0.0"
   inkscape:pagecheckerboard="0"
   inkscape:deskcolor="#d1d1d1"
   showgrid="false"
   inkscape:zoom="8.1233004"
   inkscape:cx="79.462776"
   inkscape:cy="4.1854909"
   inkscape:window-width="2560"
   inkscape:window-height="1009"
   inkscape:window-x="-8"
   inkscape:window-y="-8"
   inkscape:window-maximized="1"
   inkscape:current-layer="Layer_1" />

<g
   id="g6"
   transform="translate(-10.867743,-8.2367639)">
	<path
   fill="#1d1d1b"
   d="m 14.105,26.69 c 0.252,0.688 0.071,1.048 -0.095,1.11 -0.228,0.086 -0.935,-0.364 -0.709,-1.051 0.164,-0.501 -0.368,-1.062 0.405,-1.06 0.53,0.003 1.028,-0.277 1.404,-0.465 1.537,-0.77 2.222,-1.8 2.545,-2.41 0.19,-0.358 0.627,-1.015 1.2,-0.707 0.771,0.414 0.343,1.149 0.155,1.461 -0.805,1.335 -1.683,1.783 -3.688,2.295 -0.949,0.242 -1.26,0.569 -1.217,0.827 z"
   id="path4" />
</g>
<path
   fill="#1d1d1b"
   stroke="#1d1d1b"
   stroke-width="0.1621"
   stroke-miterlimit="10"
   d="m 15.897257,13.750236 c 0.136,0.002 0.514,-0.064 0.83,-0.034 0.267,0.025 0.735,0.3 0.586,0.7 -0.149,0.4 -0.527,0.423 -0.755,0.297 -0.182,-0.101 -0.088,-0.478 -0.569,-0.452 -0.201,0.011 -0.319,0.065 -0.352,-0.135 -0.038,-0.229 -0.665,-0.323 -0.869,-0.384 -0.203,-0.061 -1.09,-0.138 -2.323,-0.28 -0.664,-0.078 -2.05,-0.317 -1.772,-1.117 0.201,-0.578 1.651,-0.153 2.672,0.307 0.976,0.439 2.416,1.096 2.552,1.098 z"
   id="path8" />
<g
   id="g24"
   transform="translate(-10.867743,-8.2367639)">
	<path
   fill="#fdc600"
   d="m 13.126,20.779 c -0.149,-0.567 -0.371,-1.08 -0.631,-1.538 0.267,-0.342 0.653,-0.812 0.97,-1.185 0.299,0.319 0.605,0.762 0.832,1.289 0.642,1.494 0.795,2.955 0.056,4.547 -0.384,-0.187 -0.971,-0.541 -1.309,-0.741 0.123,-0.858 0.301,-1.546 0.082,-2.372 z"
   id="path10" />
	<path
   fill="#fdc600"
   d="M 20.866,19.058 C 20.39,17.144 19.42,15.624 18.51,14.539 c 0.776,-0.123 1.491,-0.138 2.143,-0.059 1.109,1.24 2.282,3.177 2.566,4.634 0.297,1.532 0.202,3.77 -0.749,5.248 -0.488,0.214 -1.454,0.554 -2.057,0.681 0.726,-1.986 0.942,-4.024 0.453,-5.985 z"
   id="path12" />
	<path
   fill="#fdc600"
   d="m 14.853,16.599 c 0.478,-0.445 0.984,-0.853 1.513,-1.189 0.848,0.883 1.874,2.258 2.358,4.024 0.504,1.843 0.302,3.743 -0.592,5.664 -0.592,-0.077 -1.189,-0.216 -1.772,-0.399 1.724,-3.804 -0.118,-6.649 -1.507,-8.1 z"
   id="path14" />
	<path
   d="m 14.266,19.362 c -0.225,-0.492 -0.504,-0.986 -0.803,-1.304 0.45,-0.527 0.858,-0.964 1.39,-1.459 1.389,1.451 3.231,4.296 1.508,8.1 -0.699,-0.219 -1.378,-0.499 -2.008,-0.807 0.739,-1.593 0.59,-3.052 -0.087,-4.53 z"
   id="path16" />
	<path
   d="m 10.883,21.317 c -0.121,-0.402 0.499,-0.291 1.106,-1.218 0.072,-0.11 0.487,-0.835 0.573,-0.945 0.26,0.459 0.525,0.903 0.695,1.443 0.183,0.582 0.203,1.636 -0.187,2.574 -1.37,-0.805 -2.085,-1.514 -2.187,-1.854 z"
   id="path18" />
	<path
   d="m 18.725,19.434 c -0.484,-1.766 -1.511,-3.141 -2.358,-4.024 0.632,-0.401 1.295,-0.695 1.976,-0.816 0.057,-0.01 0.113,-0.017 0.169,-0.026 0.91,1.085 1.88,2.605 2.356,4.518 0.489,1.961 0.365,3.948 -0.362,5.933 -0.103,0.022 -0.205,0.042 -0.312,0.061 -0.661,0.116 -1.358,0.11 -2.06,0.017 0.893,-1.92 1.095,-3.82 0.591,-5.663 z"
   id="path20" />
	<path
   d="m 20.626,14.483 c 2.575,0.312 4.879,2.137 5.281,4.415 0.416,2.36 -0.789,4.588 -3.417,5.453 0.655,-1.349 0.79,-3.604 0.493,-5.136 -0.441,-2.284 -1.248,-3.491 -2.357,-4.732 z"
   id="path22" />
</g>
<path
   fill="#ffffff"
   stroke="#d3ecf8"
   stroke-width="0.1579"
   stroke-miterlimit="10"
   d="m 3.7282572,3.4812361 c 0.358,1.508 3.069,5.686 4.129,5.435 0.937,-0.223 1.691,-5.226 1.333,-6.736 -0.359,-1.50800003 -1.892,-2.38000003 -3.401,-2.02100003 -1.508,0.358 -2.42,1.81300003 -2.061,3.32200003 z"
   id="path26" />
<g
   id="g56"
   transform="translate(-10.867743,-8.2367639)">
	<path
   fill="#fdc600"
   d="m 22.901,16.508 c 0.113,2.841 2.583,4.943 5.425,4.91 2.367,-0.027 5.184,-2.191 5.229,-5.034 0.052,-3.186 -2.399,-5.11 -5.583,-4.986 -2.918,0.113 -5.195,1.927 -5.071,5.11 z"
   id="path28" />
	
		<path
   fill="none"
   stroke="#1d1d1b"
   stroke-width="0.4736"
   stroke-linecap="round"
   stroke-linejoin="round"
   stroke-miterlimit="10"
   d="m 30.147,18.345 c 0,0 -1.716,1.756 -3.394,0.039"
   id="path30" />
	<path
   fill="#ffffff"
   d="m 29.382,16.004 c 0.413,0.49 1.146,0.552 1.637,0.139 0.49,-0.413 0.552,-1.146 0.139,-1.636 -0.414,-0.491 -1.147,-0.553 -1.636,-0.138 -0.491,0.41 -0.553,1.145 -0.14,1.635 z"
   id="path32" />
	<path
   fill="#422918"
   d="m 29.598,16.1 c 0.299,0.353 0.824,0.4 1.179,0.102 0.35,-0.297 0.396,-0.825 0.097,-1.177 -0.297,-0.355 -0.825,-0.4 -1.179,-0.102 -0.35,0.297 -0.395,0.824 -0.097,1.177 z"
   id="path34" />
	<path
   fill="#1d1d1b"
   d="m 29.56,16.133 c 0.238,0.281 0.66,0.319 0.941,0.08 0.283,-0.238 0.319,-0.66 0.082,-0.943 -0.239,-0.282 -0.661,-0.318 -0.944,-0.08 -0.282,0.238 -0.318,0.662 -0.079,0.943 z"
   id="path36" />
	<path
   fill="#ffffff"
   d="m 29.699,15.614 c 10e-4,0.117 0.102,0.211 0.223,0.209 0.122,-0.001 0.218,-0.098 0.217,-0.215 -10e-4,-0.116 -0.1,-0.21 -0.222,-0.209 -0.121,0.002 -0.219,0.098 -0.218,0.215 z"
   id="path38" />
	<path
   fill="#ffffff"
   d="m 27.474,16.026 c -0.403,0.5 -1.134,0.579 -1.633,0.177 -0.5,-0.402 -0.58,-1.132 -0.177,-1.633 0.401,-0.5 1.133,-0.579 1.632,-0.176 0.5,0.4 0.578,1.132 0.178,1.632 z"
   id="path40" />
	<path
   fill="#422918"
   d="m 27.26,16.127 c -0.29,0.36 -0.816,0.419 -1.176,0.129 -0.358,-0.289 -0.415,-0.816 -0.124,-1.175 0.289,-0.362 0.815,-0.419 1.176,-0.129 0.356,0.289 0.413,0.815 0.124,1.175 z"
   id="path42" />
	<path
   fill="#1d1d1b"
   d="m 27.299,16.159 c -0.231,0.287 -0.653,0.335 -0.941,0.102 -0.287,-0.231 -0.333,-0.652 -0.103,-0.94 0.232,-0.288 0.654,-0.333 0.943,-0.102 0.287,0.231 0.333,0.653 0.101,0.94 z"
   id="path44" />
	<path
   fill="#ffffff"
   d="m 27.146,15.643 c 10e-4,0.117 -0.096,0.213 -0.217,0.215 -0.121,0.002 -0.221,-0.093 -0.223,-0.209 -0.001,-0.116 0.097,-0.213 0.218,-0.214 0.121,-0.002 0.22,0.092 0.222,0.208 z"
   id="path46" />
	
		<path
   fill="#1d1d1b"
   stroke="#1d1d1b"
   stroke-width="0.4201"
   stroke-linecap="round"
   stroke-linejoin="round"
   stroke-miterlimit="10"
   d="m 23.258,9.751 c 0.154,0.085 0.37,-0.018 0.485,-0.227 0.115,-0.209 0.084,-0.447 -0.069,-0.531 -0.152,-0.084 -0.37,0.018 -0.485,0.228 -0.115,0.208 -0.084,0.446 0.069,0.53 z"
   id="path48" />
	
		<path
   fill="none"
   stroke="#1d1d1b"
   stroke-width="0.4736"
   stroke-linecap="round"
   stroke-linejoin="round"
   stroke-miterlimit="10"
   d="m 26.633,12.571 c 0,0 -0.377,-2.969 -3.297,-3.254"
   id="path50" />
	
		<path
   fill="#1d1d1b"
   stroke="#1d1d1b"
   stroke-width="0.4201"
   stroke-linecap="round"
   stroke-linejoin="round"
   stroke-miterlimit="10"
   d="M 33.174,9.666 C 33.023,9.754 32.803,9.656 32.683,9.45 32.563,9.243 32.589,9.005 32.74,8.917 c 0.151,-0.088 0.37,0.009 0.49,0.216 0.12,0.208 0.095,0.446 -0.056,0.533 z"
   id="path52" />
	
		<path
   fill="none"
   stroke="#1d1d1b"
   stroke-width="0.4736"
   stroke-linecap="round"
   stroke-linejoin="round"
   stroke-miterlimit="10"
   d="m 29.946,12.533 c 0,0 0.307,-2.977 3.221,-3.33"
   id="path54" />
</g>
<path
   fill="#d3ecf8"
   d="m 8.6682572,3.0532361 c 0.114,2.034 -0.704,5.817 -0.704,5.817 0,0 0.065,-3.014 -0.456,-4.829 -0.333,-1.16 -1.405,-2.892 -0.441,-3.18100003 0.681,-0.206 1.53,0.93100003 1.601,2.19300003 z"
   id="path58" />
<path
   opacity="0.7"
   fill="#ffffff"
   stroke="#d3ecf8"
   stroke-width="0.1579"
   stroke-miterlimit="10"
   d="m 2.4862572,7.7472361 c 1.103,1.09 4.468,2.065 5.233,1.291 0.676,-0.686 -0.184,-4.197 -1.288,-5.286 -1.103,-1.089 -3.215,-1.274 -4.304,-0.17 -1.09,1.102 -0.744,3.076 0.359,4.165 z"
   id="path60" />
<path
   fill="#fdc600"
   d="m 12.423257,7.6482361 c 0,0 2.297,1.182 2.677,3.3979999 0.166,0.972 0.03,1.915 -0.408,2.723 -0.092,0.17 -0.87,0.915 -0.87,0.915 0,0 0.564,-2.577 -0.09,-3.909 -1.045,-2.1359999 -1.309,-3.1269999 -1.309,-3.1269999 z"
   id="path62" />
<g
   id="g66"
   transform="translate(-10.867743,-8.2367639)">
	<path
   fill="#3f5d63"
   d="m 23.603,18.216 -0.027,-0.002 -0.001,-0.076 0.013,-0.001 c 0.013,-0.001 0.028,-0.001 0.041,-0.003 l 0.01,0.076 z"
   id="path64" />
</g>
<path
   fill="#1d1d1b"
   stroke="#1d1d1b"
   stroke-width="0.1621"
   stroke-miterlimit="10"
   d="m 15.111257,15.592236 c 0.126,0.051 0.503,0.126 0.786,0.269 0.242,0.119 0.577,0.545 0.294,0.863 -0.283,0.32 -0.645,0.204 -0.811,0.004 -0.133,-0.161 0.09,-0.477 -0.366,-0.627 -0.192,-0.063 -0.321,-0.056 -0.279,-0.254 0.047,-0.227 -0.503,-0.542 -0.673,-0.673 -0.167,-0.13 -0.967,-0.522 -2.063,-1.102 -0.591,-0.313 -1.798,-1.037 -1.248,-1.683 0.396,-0.464 1.594,0.456 2.38,1.254 0.749,0.764 1.855,1.897 1.98,1.949 z"
   id="path68" />
<g
   id="g72"
   transform="translate(-10.867743,-8.2367639)">
	<path
   fill="#1d1d1b"
   d="m 17.217,28.14 c 0.581,0.302 0.679,0.648 0.607,0.789 -0.098,0.193 -0.838,0.323 -1.102,-0.266 -0.193,-0.43 -0.883,-0.479 -0.371,-0.943 0.351,-0.318 0.511,-0.803 0.645,-1.153 0.551,-1.436 0.381,-2.528 0.227,-3.124 -0.09,-0.35 -0.198,-1.048 0.366,-1.19 0.758,-0.191 0.919,0.55 0.983,0.87 0.275,1.365 -0.035,2.19 -1.052,3.737 -0.479,0.731 -0.488,1.135 -0.303,1.28 z"
   id="path70" />
</g>

<g
   id="g82"
   transform="translate(-10.867743,-8.2367639)">
	<g
   opacity="0.6"
   id="g80">
		<polygon
   fill="none"
   stroke="#004876"
   stroke-width="0.0464"
   stroke-miterlimit="10"
   points="16.21,26.911 16.209,26.909 16.208,26.91 "
   id="polygon78" />
	</g>
</g>
<g
   id="g84"
   transform="translate(-10.867743,-8.2367639)">
</g>
<g
   id="g86"
   transform="translate(-10.867743,-8.2367639)">
</g>
<g
   id="g88"
   transform="translate(-10.867743,-8.2367639)">
</g>
<g
   id="g90"
   transform="translate(-10.867743,-8.2367639)">
</g>
<g
   id="g92"
   transform="translate(-10.867743,-8.2367639)">
</g>
<g
   id="g94"
   transform="translate(-10.867743,-8.2367639)">
</g>
</svg>
