<?xml version="1.0" encoding="UTF-8" standalone="no"?>
<!-- Generator: Adobe Illustrator 25.4.1, SVG Export Plug-In . SVG Version: 6.00 Build 0)  -->

<svg
   xmlns:dc="http://purl.org/dc/elements/1.1/"
   xmlns:cc="http://creativecommons.org/ns#"
   xmlns:rdf="http://www.w3.org/1999/02/22-rdf-syntax-ns#"
   xmlns:svg="http://www.w3.org/2000/svg"
   xmlns="http://www.w3.org/2000/svg"
   xmlns:sodipodi="http://sodipodi.sourceforge.net/DTD/sodipodi-0.dtd"
   xmlns:inkscape="http://www.inkscape.org/namespaces/inkscape"
   version="1.1"
   id="Layer_1"
   x="0px"
   y="0px"
   viewBox="0 0 84.667 85.04"
   enable-background="new 0 0 84.667 85.04"
   xml:space="preserve"
   sodipodi:docname="Biology_Year_10.svg"
   inkscape:version="0.92.4 (5da689c313, 2019-01-14)"><metadata
   id="metadata95"><rdf:RDF><cc:Work
       rdf:about=""><dc:format>image/svg+xml</dc:format><dc:type
         rdf:resource="http://purl.org/dc/dcmitype/StillImage" /><dc:title></dc:title></cc:Work></rdf:RDF></metadata><defs
   id="defs93" /><sodipodi:namedview
   pagecolor="#ffffff"
   bordercolor="#666666"
   borderopacity="1"
   objecttolerance="10"
   gridtolerance="10"
   guidetolerance="10"
   inkscape:pageopacity="0"
   inkscape:pageshadow="2"
   inkscape:window-width="732"
   inkscape:window-height="480"
   id="namedview91"
   showgrid="false"
   inkscape:zoom="2.7751646"
   inkscape:cx="42.3335"
   inkscape:cy="42.52"
   inkscape:window-x="0"
   inkscape:window-y="0"
   inkscape:window-maximized="0"
   inkscape:current-layer="Layer_1" />
<path
   fill="#00A0DF"
   stroke="#00A0DF"
   stroke-miterlimit="10"
   d="M77.892,69.149c0,4.816-3.91,8.724-8.726,8.724H16.814  c-4.819,0-8.727-3.907-8.727-8.724V16.795c0-4.818,3.907-8.725,8.727-8.725h52.352c4.815,0,8.726,3.906,8.726,8.725V69.149z"
   id="path2" />

<g
   id="g52">
	<g
   id="g50">
		<path
   fill="#004876"
   d="M25.801,58.802h-1.969c-0.284,0-0.487-0.063-0.608-0.191c-0.122-0.127-0.183-0.33-0.183-0.608v-4.843    c0-0.284,0.062-0.488,0.187-0.613c0.125-0.124,0.326-0.187,0.604-0.187h2.087c0.308,0,0.574,0.02,0.8,0.058    s0.428,0.111,0.606,0.219c0.152,0.092,0.287,0.206,0.404,0.346c0.117,0.139,0.207,0.293,0.268,0.461    c0.062,0.169,0.092,0.347,0.092,0.534c0,0.645-0.322,1.116-0.967,1.415c0.847,0.27,1.27,0.794,1.27,1.573    c0,0.36-0.092,0.685-0.277,0.974c-0.185,0.288-0.434,0.502-0.747,0.639c-0.196,0.083-0.422,0.141-0.677,0.174    C26.438,58.785,26.141,58.802,25.801,58.802z M24.346,53.339v1.666h1.195c0.325,0,0.576-0.031,0.753-0.092    c0.177-0.062,0.313-0.179,0.407-0.352c0.073-0.123,0.11-0.261,0.11-0.414c0-0.324-0.116-0.541-0.347-0.647    c-0.231-0.107-0.584-0.161-1.059-0.161H24.346z M25.704,55.94h-1.358v1.881h1.402c0.882,0,1.323-0.317,1.323-0.953    c0-0.325-0.114-0.561-0.343-0.707S26.158,55.94,25.704,55.94z"
   id="path36" />
		<path
   fill="#004876"
   d="M29.576,58.116V53.04c0-0.264,0.06-0.461,0.18-0.593s0.275-0.198,0.466-0.198    c0.196,0,0.355,0.065,0.477,0.196c0.121,0.13,0.182,0.329,0.182,0.595v5.076c0,0.267-0.061,0.466-0.182,0.598    c-0.122,0.132-0.281,0.197-0.477,0.197c-0.188,0-0.342-0.066-0.463-0.199C29.636,58.578,29.576,58.38,29.576,58.116z"
   id="path38" />
		<path
   fill="#004876"
   d="M35.174,52.249c0.668,0,1.242,0.136,1.72,0.407c0.479,0.271,0.842,0.656,1.088,1.155    c0.246,0.5,0.369,1.087,0.369,1.76c0,0.499-0.067,0.951-0.202,1.358s-0.337,0.761-0.606,1.06s-0.601,0.527-0.993,0.686    s-0.842,0.236-1.349,0.236c-0.504,0-0.955-0.081-1.354-0.243c-0.398-0.163-0.731-0.392-0.998-0.688    c-0.267-0.295-0.468-0.651-0.604-1.067c-0.136-0.416-0.204-0.866-0.204-1.349c0-0.495,0.071-0.949,0.213-1.363    c0.142-0.412,0.348-0.764,0.618-1.055c0.27-0.289,0.598-0.512,0.984-0.665C34.243,52.326,34.682,52.249,35.174,52.249z     M37.029,55.563c0-0.472-0.076-0.881-0.229-1.227s-0.37-0.607-0.653-0.784c-0.283-0.178-0.607-0.267-0.973-0.267    c-0.261,0-0.502,0.05-0.723,0.147c-0.221,0.099-0.412,0.241-0.571,0.429s-0.285,0.427-0.378,0.719    c-0.092,0.291-0.138,0.619-0.138,0.982c0,0.366,0.046,0.697,0.138,0.992c0.093,0.297,0.223,0.542,0.392,0.736    c0.168,0.195,0.361,0.341,0.58,0.438c0.218,0.097,0.458,0.145,0.718,0.145c0.334,0,0.641-0.083,0.92-0.25s0.502-0.425,0.668-0.773    S37.029,56.073,37.029,55.563z"
   id="path40" />
		<path
   fill="#004876"
   d="M40.747,53.04v4.689h2.646c0.211,0,0.373,0.052,0.486,0.154c0.112,0.103,0.169,0.231,0.169,0.387    c0,0.158-0.056,0.286-0.167,0.384c-0.111,0.099-0.274,0.147-0.488,0.147h-3.151c-0.284,0-0.489-0.062-0.613-0.189    c-0.125-0.125-0.187-0.329-0.187-0.61V53.04c0-0.264,0.06-0.461,0.178-0.593c0.119-0.132,0.275-0.198,0.468-0.198    c0.196,0,0.355,0.065,0.477,0.196C40.686,52.575,40.747,52.774,40.747,53.04z"
   id="path42" />
		<path
   fill="#004876"
   d="M47.29,52.249c0.668,0,1.242,0.136,1.72,0.407c0.479,0.271,0.842,0.656,1.088,1.155    c0.246,0.5,0.369,1.087,0.369,1.76c0,0.499-0.067,0.951-0.202,1.358s-0.337,0.761-0.606,1.06s-0.601,0.527-0.993,0.686    s-0.842,0.236-1.349,0.236c-0.504,0-0.955-0.081-1.354-0.243c-0.398-0.163-0.731-0.392-0.998-0.688    c-0.267-0.295-0.468-0.651-0.604-1.067c-0.136-0.416-0.204-0.866-0.204-1.349c0-0.495,0.071-0.949,0.213-1.363    c0.142-0.412,0.348-0.764,0.618-1.055c0.27-0.289,0.598-0.512,0.984-0.665C46.358,52.326,46.798,52.249,47.29,52.249z     M49.145,55.563c0-0.472-0.076-0.881-0.229-1.227s-0.37-0.607-0.653-0.784c-0.283-0.178-0.607-0.267-0.973-0.267    c-0.261,0-0.502,0.05-0.723,0.147c-0.221,0.099-0.412,0.241-0.571,0.429s-0.285,0.427-0.378,0.719    c-0.092,0.291-0.138,0.619-0.138,0.982c0,0.366,0.046,0.697,0.138,0.992c0.093,0.297,0.223,0.542,0.392,0.736    c0.168,0.195,0.361,0.341,0.58,0.438c0.218,0.097,0.458,0.145,0.718,0.145c0.334,0,0.641-0.083,0.92-0.25s0.502-0.425,0.668-0.773    S49.145,56.073,49.145,55.563z"
   id="path44" />
		<path
   fill="#004876"
   d="M57.468,56.183v1.234c0,0.165-0.016,0.296-0.048,0.394c-0.032,0.099-0.092,0.187-0.178,0.267    c-0.087,0.078-0.197,0.155-0.332,0.229c-0.39,0.211-0.765,0.364-1.125,0.461s-0.753,0.145-1.178,0.145    c-0.495,0-0.946-0.076-1.354-0.229c-0.407-0.151-0.754-0.373-1.042-0.663s-0.507-0.642-0.662-1.055    c-0.153-0.413-0.23-0.874-0.23-1.384c0-0.502,0.075-0.96,0.224-1.376s0.369-0.769,0.659-1.06c0.29-0.289,0.643-0.512,1.059-0.665    c0.416-0.154,0.888-0.231,1.415-0.231c0.434,0,0.817,0.059,1.151,0.174c0.334,0.116,0.605,0.262,0.813,0.438    s0.365,0.362,0.47,0.559s0.158,0.37,0.158,0.522c0,0.164-0.061,0.304-0.183,0.42c-0.122,0.115-0.267,0.173-0.437,0.173    c-0.094,0-0.184-0.021-0.27-0.065c-0.087-0.044-0.159-0.105-0.218-0.185c-0.161-0.252-0.297-0.442-0.409-0.571    s-0.261-0.237-0.451-0.325c-0.188-0.088-0.43-0.132-0.723-0.132c-0.302,0-0.571,0.052-0.809,0.156    c-0.237,0.104-0.44,0.255-0.608,0.452c-0.169,0.198-0.298,0.44-0.387,0.728c-0.09,0.287-0.134,0.605-0.134,0.954    c0,0.756,0.173,1.337,0.521,1.744c0.347,0.407,0.831,0.611,1.452,0.611c0.302,0,0.585-0.04,0.851-0.119    c0.265-0.079,0.534-0.191,0.806-0.338v-1.047h-1.011c-0.243,0-0.427-0.036-0.551-0.109c-0.125-0.073-0.187-0.197-0.187-0.373    c0-0.144,0.052-0.263,0.156-0.356s0.246-0.141,0.424-0.141h1.481c0.182,0,0.335,0.017,0.461,0.048    c0.126,0.033,0.228,0.104,0.305,0.216S57.468,55.96,57.468,56.183z"
   id="path46" />
		<path
   fill="#004876"
   d="M60.148,58.116v-2.043l-1.573-2.439c-0.138-0.22-0.235-0.391-0.292-0.514    c-0.057-0.123-0.085-0.23-0.085-0.321c0-0.149,0.058-0.278,0.173-0.387s0.259-0.163,0.429-0.163c0.179,0,0.314,0.051,0.406,0.152    c0.093,0.101,0.231,0.303,0.416,0.604l1.204,1.956l1.217-1.956c0.073-0.119,0.135-0.221,0.185-0.303s0.104-0.159,0.165-0.23    c0.06-0.072,0.126-0.127,0.2-0.165s0.163-0.058,0.268-0.058c0.164,0,0.301,0.054,0.411,0.161c0.109,0.106,0.165,0.23,0.165,0.371    c0,0.114-0.028,0.229-0.083,0.343s-0.151,0.272-0.286,0.475l-1.613,2.475v2.043c0,0.267-0.062,0.466-0.185,0.598    s-0.28,0.197-0.47,0.197c-0.193,0-0.35-0.064-0.47-0.195C60.208,58.586,60.148,58.386,60.148,58.116z"
   id="path48" />
	</g>
</g>
<g
   id="g76">
	<g
   id="g74">
		<path
   fill="none"
   d="M46.755,31.667c0.006,0,0.009,0.005,0.012,0.005c0.169-0.316,0.294-0.641,0.394-0.971h-8.969    c0.1,0.33,0.227,0.655,0.394,0.971c0.005,0,0.008-0.005,0.011-0.005H46.755z"
   id="path54" />
		<path
   fill="none"
   d="M46.279,32.401h-7.205c0.266,0.367,0.575,0.714,0.931,1.041h5.34C45.703,33.115,46.012,32.768,46.279,32.401z    "
   id="path56" />
		<path
   fill="none"
   d="M46.77,27.2h-8.186c-0.175,0.331-0.311,0.671-0.413,1.016h9.012C47.081,27.87,46.945,27.531,46.77,27.2z"
   id="path58" />
		<path
   fill="none"
   d="M44.218,38.293c-0.489-0.395-1.01-0.814-1.542-1.243c-0.519,0.417-1.041,0.838-1.539,1.243H44.218z"
   id="path60" />
		<path
   fill="none"
   d="M46.351,40.044c-0.333-0.283-0.748-0.627-1.228-1.016h-4.892c-0.478,0.391-0.894,0.735-1.227,1.016H46.351z"
   id="path62" />
		<path
   fill="none"
   d="M44.729,20.161c0.438-0.355,0.835-0.68,1.178-0.966H39.45c0.346,0.286,0.744,0.613,1.179,0.966H44.729z"
   id="path64" />
		<path
   fill="none"
   d="M41.535,20.895c0.377,0.305,0.76,0.614,1.142,0.922c0.391-0.314,0.774-0.624,1.144-0.922H41.535z"
   id="path66" />
		<path
   fill="none"
   d="M38.049,29.966h9.255c0.025-0.178,0.075-0.355,0.078-0.533c-0.003-0.161-0.05-0.322-0.072-0.483h-9.268    c-0.022,0.161-0.069,0.322-0.072,0.483C37.974,29.611,38.024,29.788,38.049,29.966z"
   id="path68" />
		<path
   fill="none"
   d="M46.279,26.465c-0.267-0.367-0.577-0.714-0.933-1.041h-5.339c-0.356,0.327-0.666,0.674-0.933,1.041H46.279z"
   id="path70" />
		<path
   fill="#FFFFFF"
   d="M43.544,36.352c0.883-0.711,1.688-1.361,2.222-1.802c1.682-1.385,2.668-3.248,2.707-5.106    c0-0.005-0.003-0.008-0.003-0.011c0-0.003,0.003-0.006,0.003-0.011c-0.039-1.858-1.025-3.721-2.707-5.106    c-0.535-0.441-1.339-1.091-2.222-1.8c1.81-1.457,3.487-2.81,4.118-3.392c1.258-1.169,0.683-2.526,0.658-2.583    c-0.119-0.272-0.435-0.392-0.706-0.28c-0.275,0.116-0.403,0.435-0.292,0.71c0.03,0.075,0.27,0.735-0.398,1.353    c-0.041,0.037-0.1,0.091-0.153,0.136h-8.121c-0.017,0-0.028,0.017-0.044,0.019c-0.061-0.053-0.13-0.113-0.175-0.155    c-0.666-0.617-0.43-1.275-0.398-1.352c0.117-0.274-0.009-0.591-0.283-0.711c-0.275-0.122-0.595,0.005-0.716,0.28    c-0.025,0.058-0.6,1.414,0.66,2.583c0.656,0.606,2.844,2.368,4.776,3.923c0.753,0.606,1.466,1.18,2.036,1.643h-3.659    c0.119-0.099,0.256-0.208,0.461-0.374c0.234-0.189,0.27-0.531,0.083-0.766c-0.191-0.234-0.533-0.269-0.766-0.081    c-0.553,0.447-0.675,0.547-1.038,0.847c-1.682,1.385-2.668,3.244-2.707,5.106c0,0.005,0.003,0.008,0.003,0.011    c0,0.003-0.003,0.006-0.003,0.011c0.039,1.861,1.025,3.721,2.707,5.106l1.038,0.847c0.1,0.081,0.222,0.122,0.341,0.122    c0.159,0,0.316-0.069,0.425-0.203c0.188-0.234,0.152-0.575-0.081-0.766l-0.46-0.374h3.656c-0.57,0.463-1.283,1.036-2.036,1.643    c-1.932,1.555-4.12,3.316-4.779,3.923c-1.256,1.169-0.681,2.526-0.656,2.583c0.088,0.202,0.286,0.322,0.494,0.322    c0.072,0,0.144-0.014,0.213-0.042c0.275-0.116,0.403-0.435,0.292-0.71c-0.027-0.066-0.177-0.578,0.22-1.117h8.849    c0.394,0.538,0.247,1.049,0.22,1.116c-0.117,0.273,0.009,0.591,0.283,0.711c0.07,0.031,0.144,0.047,0.219,0.047    c0.209,0,0.408-0.122,0.497-0.327c0.025-0.058,0.6-1.414-0.66-2.583C47.026,39.156,45.354,37.809,43.544,36.352z M40.231,39.028    h4.892c0.48,0.389,0.895,0.733,1.228,1.016h-7.347C39.337,39.762,39.753,39.418,40.231,39.028z M42.675,37.051    c0.533,0.428,1.053,0.847,1.542,1.243h-3.082C41.635,37.888,42.157,37.468,42.675,37.051z M39.075,32.401h7.205    c-0.267,0.367-0.577,0.714-0.933,1.041h-5.34C39.65,33.115,39.34,32.768,39.075,32.401z M38.192,30.701h8.969    c-0.1,0.33-0.225,0.655-0.394,0.971c-0.003,0-0.006-0.005-0.012-0.005h-8.158c-0.003,0-0.006,0.005-0.011,0.005    C38.418,31.356,38.292,31.031,38.192,30.701z M38.584,27.2h8.186c0.175,0.331,0.311,0.671,0.413,1.016h-9.012    C38.273,27.87,38.409,27.531,38.584,27.2z M40.008,25.424h5.339c0.356,0.327,0.666,0.674,0.933,1.041h-7.205    C39.342,26.098,39.651,25.751,40.008,25.424z M47.311,28.95c0.022,0.161,0.069,0.322,0.072,0.483    c-0.003,0.178-0.053,0.355-0.078,0.533h-9.255c-0.025-0.178-0.075-0.355-0.078-0.533c0.003-0.161,0.05-0.322,0.072-0.483H47.311z     M41.535,20.895h2.286c-0.37,0.298-0.753,0.608-1.144,0.922C42.294,21.509,41.911,21.2,41.535,20.895z M45.907,19.195    c-0.344,0.286-0.741,0.611-1.178,0.966h-4.101c-0.435-0.353-0.833-0.68-1.179-0.966H45.907z"
   id="path72" />
	</g>
</g>
<g
   id="g78">
</g>
<g
   id="g80">
</g>
<g
   id="g82">
</g>
<g
   id="g84">
</g>
<g
   id="g86">
</g>
<g
   id="g88">
</g>
</svg>