<?xml version="1.0" encoding="utf-8"?>
<!-- Generator: Adobe Illustrator 16.0.0, SVG Export Plug-In . SVG Version: 6.00 Build 0)  -->
<!DOCTYPE svg PUBLIC "-//W3C//DTD SVG 1.1//EN" "http://www.w3.org/Graphics/SVG/1.1/DTD/svg11.dtd">
<svg version="1.1" id="Layer_1" xmlns="http://www.w3.org/2000/svg" xmlns:xlink="http://www.w3.org/1999/xlink" x="0px" y="0px"
	 width="84.667px" height="85.04px" viewBox="0 0 84.667 85.04" enable-background="new 0 0 84.667 85.04" xml:space="preserve">
<path fill="#00A1DF" stroke="#00A1DF" stroke-miterlimit="10" d="M77.061,69.143c0,4.816-3.91,8.723-8.726,8.723H15.983
	c-4.819,0-8.727-3.906-8.727-8.723V16.788c0-4.818,3.907-8.725,8.727-8.725h52.353c4.814,0,8.726,3.906,8.726,8.725V69.143z"/>
<g>
	<g>
		<path fill="#004876" d="M24.97,58.795h-1.969c-0.284,0-0.487-0.063-0.608-0.191c-0.122-0.127-0.183-0.33-0.183-0.607v-4.844
			c0-0.283,0.062-0.488,0.187-0.613c0.125-0.123,0.326-0.187,0.604-0.187h2.087c0.308,0,0.574,0.021,0.8,0.058
			c0.226,0.039,0.428,0.111,0.606,0.219c0.152,0.093,0.287,0.207,0.404,0.347c0.117,0.139,0.207,0.293,0.268,0.461
			c0.062,0.169,0.092,0.347,0.092,0.534c0,0.645-0.322,1.115-0.967,1.415c0.847,0.27,1.27,0.794,1.27,1.573
			c0,0.359-0.092,0.685-0.277,0.974c-0.185,0.288-0.434,0.502-0.747,0.639c-0.196,0.083-0.422,0.142-0.677,0.175
			C25.607,58.779,25.31,58.795,24.97,58.795z M23.516,53.333v1.666h1.195c0.325,0,0.576-0.03,0.753-0.092
			c0.177-0.062,0.313-0.179,0.407-0.352c0.073-0.123,0.11-0.262,0.11-0.414c0-0.324-0.116-0.541-0.347-0.646
			c-0.231-0.107-0.584-0.162-1.059-0.162H23.516z M24.874,55.934h-1.358v1.881h1.402c0.882,0,1.323-0.316,1.323-0.953
			c0-0.324-0.114-0.561-0.343-0.707S25.328,55.934,24.874,55.934z"/>
		<path fill="#004876" d="M28.745,58.11v-5.076c0-0.264,0.06-0.461,0.18-0.593c0.12-0.132,0.275-0.198,0.466-0.198
			c0.196,0,0.355,0.065,0.477,0.196c0.121,0.13,0.182,0.329,0.182,0.595v5.076c0,0.268-0.061,0.467-0.182,0.598
			c-0.122,0.133-0.281,0.197-0.477,0.197c-0.188,0-0.342-0.066-0.463-0.199C28.806,58.572,28.745,58.374,28.745,58.11z"/>
		<path fill="#004876" d="M34.344,52.243c0.668,0,1.242,0.137,1.72,0.407c0.479,0.271,0.842,0.656,1.088,1.155
			c0.246,0.5,0.369,1.087,0.369,1.76c0,0.499-0.067,0.951-0.202,1.357c-0.135,0.408-0.337,0.762-0.606,1.061
			s-0.601,0.527-0.993,0.686c-0.392,0.16-0.842,0.236-1.349,0.236c-0.504,0-0.955-0.08-1.354-0.242
			c-0.398-0.164-0.731-0.393-0.998-0.688c-0.267-0.295-0.468-0.651-0.604-1.067c-0.136-0.416-0.204-0.865-0.204-1.349
			c0-0.495,0.071-0.949,0.213-1.363c0.142-0.411,0.348-0.764,0.618-1.055c0.27-0.289,0.598-0.513,0.984-0.665
			C33.412,52.32,33.852,52.243,34.344,52.243z M36.198,55.557c0-0.473-0.076-0.881-0.229-1.227c-0.153-0.347-0.37-0.607-0.653-0.785
			c-0.283-0.178-0.607-0.267-0.973-0.267c-0.261,0-0.502,0.05-0.723,0.147c-0.221,0.099-0.412,0.24-0.571,0.429
			c-0.159,0.188-0.285,0.427-0.378,0.72c-0.092,0.29-0.138,0.618-0.138,0.981c0,0.366,0.046,0.696,0.138,0.991
			c0.093,0.298,0.223,0.543,0.392,0.736c0.168,0.195,0.361,0.342,0.58,0.438c0.218,0.097,0.458,0.146,0.718,0.146
			c0.334,0,0.641-0.084,0.92-0.25c0.279-0.168,0.502-0.426,0.668-0.773S36.198,56.067,36.198,55.557z"/>
		<path fill="#004876" d="M39.916,53.034v4.689h2.646c0.211,0,0.373,0.052,0.486,0.154c0.111,0.103,0.168,0.23,0.168,0.387
			c0,0.158-0.055,0.285-0.166,0.384s-0.274,0.147-0.488,0.147h-3.151c-0.284,0-0.489-0.062-0.613-0.189
			c-0.125-0.125-0.187-0.329-0.187-0.609v-4.963c0-0.264,0.06-0.461,0.178-0.593c0.119-0.132,0.275-0.198,0.468-0.198
			c0.196,0,0.355,0.065,0.477,0.196C39.855,52.569,39.916,52.768,39.916,53.034z"/>
		<path fill="#004876" d="M46.458,52.243c0.668,0,1.242,0.137,1.721,0.407s0.842,0.656,1.088,1.155
			c0.246,0.5,0.369,1.087,0.369,1.76c0,0.499-0.067,0.951-0.202,1.357c-0.136,0.408-0.337,0.762-0.606,1.061
			c-0.269,0.299-0.601,0.527-0.992,0.686c-0.393,0.16-0.842,0.236-1.35,0.236c-0.504,0-0.955-0.08-1.354-0.242
			c-0.398-0.164-0.731-0.393-0.998-0.688c-0.268-0.295-0.469-0.651-0.604-1.067s-0.204-0.865-0.204-1.349
			c0-0.495,0.071-0.949,0.213-1.363c0.144-0.411,0.35-0.764,0.619-1.055c0.27-0.289,0.598-0.513,0.983-0.665
			C45.528,52.32,45.966,52.243,46.458,52.243z M48.314,55.557c0-0.473-0.076-0.881-0.229-1.227
			c-0.153-0.347-0.371-0.607-0.653-0.785s-0.606-0.267-0.974-0.267c-0.261,0-0.502,0.05-0.724,0.147
			c-0.221,0.099-0.411,0.24-0.571,0.429c-0.158,0.188-0.285,0.427-0.377,0.72c-0.093,0.29-0.139,0.618-0.139,0.981
			c0,0.366,0.046,0.696,0.139,0.991c0.092,0.298,0.223,0.543,0.392,0.736c0.168,0.195,0.36,0.342,0.579,0.438
			s0.459,0.146,0.72,0.146c0.334,0,0.642-0.084,0.92-0.25c0.28-0.168,0.503-0.426,0.668-0.773
			C48.231,56.497,48.314,56.067,48.314,55.557z"/>
		<path fill="#004876" d="M56.637,56.176v1.234c0,0.164-0.017,0.295-0.05,0.394c-0.031,0.099-0.092,0.187-0.178,0.267
			c-0.087,0.078-0.197,0.155-0.332,0.229c-0.39,0.212-0.765,0.365-1.125,0.462c-0.359,0.097-0.752,0.145-1.178,0.145
			c-0.495,0-0.945-0.075-1.354-0.229c-0.407-0.151-0.754-0.373-1.041-0.663s-0.508-0.643-0.662-1.055
			c-0.153-0.414-0.23-0.875-0.23-1.385c0-0.502,0.075-0.96,0.225-1.375c0.15-0.416,0.369-0.77,0.66-1.061
			c0.289-0.289,0.643-0.512,1.059-0.665c0.416-0.154,0.888-0.231,1.415-0.231c0.434,0,0.817,0.06,1.151,0.174
			c0.334,0.117,0.604,0.263,0.812,0.438s0.363,0.362,0.47,0.56c0.106,0.196,0.158,0.369,0.158,0.521c0,0.164-0.062,0.304-0.183,0.42
			c-0.121,0.115-0.268,0.173-0.438,0.173c-0.094,0-0.186-0.021-0.271-0.065c-0.086-0.043-0.158-0.104-0.217-0.185
			c-0.162-0.252-0.297-0.442-0.408-0.571s-0.262-0.236-0.451-0.324c-0.188-0.088-0.43-0.133-0.723-0.133
			c-0.303,0-0.572,0.053-0.81,0.156c-0.237,0.104-0.44,0.256-0.608,0.452c-0.168,0.198-0.297,0.44-0.387,0.728
			s-0.134,0.605-0.134,0.955c0,0.756,0.173,1.336,0.521,1.744c0.348,0.406,0.832,0.61,1.453,0.61c0.301,0,0.584-0.04,0.85-0.119
			s0.535-0.19,0.808-0.338v-1.047h-1.011c-0.243,0-0.428-0.036-0.553-0.108c-0.125-0.074-0.187-0.197-0.187-0.373
			c0-0.145,0.052-0.264,0.155-0.356c0.104-0.095,0.246-0.142,0.425-0.142h1.479c0.183,0,0.336,0.018,0.463,0.049
			c0.125,0.033,0.228,0.104,0.305,0.216C56.598,55.788,56.637,55.954,56.637,56.176z"/>
		<path fill="#004876" d="M59.318,58.11v-2.043l-1.572-2.439c-0.139-0.219-0.236-0.391-0.293-0.514
			c-0.058-0.123-0.086-0.23-0.086-0.32c0-0.149,0.059-0.278,0.174-0.388c0.115-0.108,0.258-0.163,0.429-0.163
			c0.179,0,0.313,0.051,0.405,0.152c0.094,0.102,0.231,0.303,0.416,0.604l1.205,1.957l1.217-1.957
			c0.072-0.119,0.135-0.221,0.185-0.303s0.104-0.158,0.165-0.23c0.061-0.071,0.127-0.127,0.2-0.164
			c0.073-0.038,0.161-0.059,0.268-0.059c0.164,0,0.302,0.055,0.411,0.161s0.165,0.229,0.165,0.371c0,0.114-0.028,0.229-0.084,0.343
			c-0.056,0.114-0.149,0.272-0.285,0.475l-1.612,2.476v2.043c0,0.267-0.062,0.466-0.186,0.599c-0.123,0.131-0.279,0.196-0.47,0.196
			c-0.193,0-0.351-0.063-0.472-0.194S59.318,58.379,59.318,58.11z"/>
	</g>
</g>
<g>
	<g>
		<path fill="#FFFFFF" d="M51.291,34.149c0,5.826-4.722,10.551-10.554,10.551c-5.822,0-10.546-4.725-10.546-10.55
			c0-1.967-0.153-5.355,2.171-7.805c0.714-0.75,1.215-1.345,3.929-2.238C45.094,21.205,51.291,28.323,51.291,34.149z"/>
		<path fill="#00A1DF" d="M36.188,32.526c0.79,0.324,1.472,0.521,1.714,0.958c0.486,0.872,0.63,1.649,0.436,2.329
			c-0.48,1.703-2.523,3.695-4.371,2.43c-1.168-1.066-1.588-3.471,0.259-5.07C34.78,32.681,35.479,32.424,36.188,32.526z"/>
		<g>
			<g>
				<polygon fill="#FFFFFF" points="48.466,39.789 48.225,40.295 52.68,42.436 55.621,41.407 55.455,40.924 52.751,41.872 				"/>
				<polygon fill="#FFFFFF" points="52.776,41.725 55.399,40.805 55.235,40.322 52.614,41.245 				"/>
				<polygon fill="#FFFFFF" points="47.878,41.013 48.119,40.52 52.571,42.661 53.602,45.604 53.119,45.774 52.173,43.073 				"/>
				<polygon fill="#FFFFFF" points="52.08,43.18 52.992,45.807 52.509,45.975 51.606,43.34 				"/>
			</g>
			<g>
				<path fill="#FFFFFF" d="M55.93,40.976c-0.144,0.044-0.293-0.03-0.336-0.171c-0.048-0.141,0.028-0.289,0.17-0.334l0.211-0.067
					c-0.065-0.281-0.076-0.576-0.027-0.865c0,0-0.018,0-0.03,0.003L55.8,39.584c-0.082,0.028-0.123,0.115-0.098,0.195l0.034,0.096
					l-0.399,0.141c-0.107,0.037-0.166,0.155-0.127,0.264l0.401,1.15c0.039,0.109,0.154,0.166,0.265,0.127l0.401-0.139l0.031,0.094
					c0.028,0.08,0.112,0.121,0.192,0.092l0.123-0.041c0.01-0.006,0.019-0.008,0.027-0.018c-0.209-0.182-0.373-0.404-0.496-0.641
					L55.93,40.976z"/>
			</g>
			<g>
				<path fill="#FFFFFF" d="M52.944,46.309c-0.047-0.141,0.029-0.289,0.173-0.336c0.139-0.043,0.286,0.035,0.334,0.17l0.065,0.213
					c0.278-0.066,0.573-0.078,0.862-0.029c0-0.01,0-0.018-0.002-0.029l-0.045-0.118c-0.024-0.082-0.112-0.119-0.19-0.095
					l-0.097,0.033l-0.141-0.4c-0.039-0.108-0.156-0.163-0.262-0.127l-1.154,0.404c-0.107,0.037-0.162,0.152-0.127,0.262l0.141,0.4
					l-0.094,0.035c-0.08,0.023-0.123,0.113-0.094,0.193l0.043,0.119c0.002,0.012,0.014,0.018,0.014,0.026
					c0.187-0.204,0.404-0.37,0.644-0.493L52.944,46.309z"/>
			</g>
		</g>
		<g>
			<g>
				<polygon fill="#FFFFFF" points="39.939,23.938 40.499,23.938 40.488,18.996 38.278,16.796 37.916,17.159 39.947,19.177 				"/>
				<polygon fill="#FFFFFF" points="39.809,19.217 37.836,17.257 37.475,17.618 39.447,19.573 				"/>
				<polygon fill="#FFFFFF" points="41.296,23.936 40.745,23.938 40.741,18.996 42.941,16.787 43.3,17.148 41.281,19.175 				"/>
				<polygon fill="#FFFFFF" points="41.42,19.212 43.386,17.246 43.748,17.607 41.769,19.569 				"/>
			</g>
			<g>
				<path fill="#FFFFFF" d="M37.76,16.706c0.102,0.106,0.098,0.276-0.011,0.379c-0.104,0.102-0.27,0.097-0.372-0.011l-0.154-0.159
					c-0.224,0.18-0.482,0.318-0.766,0.401c0.005,0.006,0.007,0.017,0.016,0.022l0.092,0.094c0.059,0.058,0.154,0.058,0.214,0
					l0.072-0.072l0.302,0.3c0.081,0.078,0.213,0.078,0.289-0.003l0.861-0.864c0.081-0.078,0.081-0.21,0-0.29l-0.299-0.302l0.07-0.07
					c0.061-0.057,0.061-0.154,0-0.214l-0.092-0.092c-0.009-0.008-0.019-0.01-0.027-0.019c-0.074,0.268-0.2,0.511-0.363,0.727
					L37.76,16.706z"/>
			</g>
			<g>
				<path fill="#FFFFFF" d="M43.858,17.071c-0.104,0.104-0.274,0.1-0.376-0.008c-0.1-0.106-0.096-0.271,0.012-0.374l0.156-0.153
					c-0.178-0.225-0.314-0.483-0.398-0.767c-0.01,0.005-0.018,0.009-0.024,0.016l-0.093,0.093c-0.057,0.059-0.057,0.158,0,0.213
					l0.07,0.072l-0.297,0.303c-0.082,0.079-0.082,0.211,0,0.292l0.863,0.861c0.083,0.081,0.212,0.079,0.296-0.001l0.297-0.302
					l0.072,0.07c0.062,0.062,0.158,0.06,0.217,0l0.091-0.09c0.008-0.008,0.012-0.019,0.018-0.025
					c-0.268-0.079-0.51-0.204-0.725-0.365L43.858,17.071z"/>
			</g>
		</g>
	</g>
</g>
</svg>
