<?xml version="1.0" encoding="utf-8"?>
<!-- Generator: Adobe Illustrator 16.0.0, SVG Export Plug-In . SVG Version: 6.00 Build 0)  -->
<!DOCTYPE svg PUBLIC "-//W3C//DTD SVG 1.1//EN" "http://www.w3.org/Graphics/SVG/1.1/DTD/svg11.dtd">
<svg version="1.1" id="Layer_1" xmlns="http://www.w3.org/2000/svg" xmlns:xlink="http://www.w3.org/1999/xlink" x="0px" y="0px"
	 width="84.667px" height="85.04px" viewBox="0 0 84.667 85.04" enable-background="new 0 0 84.667 85.04" xml:space="preserve">
<path fill="#00A1DF" stroke="#00A1DF" stroke-miterlimit="10" d="M77.892,69.149c0,4.816-3.91,8.725-8.727,8.725H16.814
	c-4.819,0-8.727-3.908-8.727-8.725V16.795c0-4.818,3.907-8.725,8.727-8.725h52.354c4.814,0,8.726,3.906,8.726,8.725L77.892,69.149
	L77.892,69.149z"/>
<g>
	<g>
		<path fill="#004876" d="M25.801,58.802h-1.969c-0.284,0-0.487-0.063-0.608-0.191c-0.122-0.127-0.183-0.33-0.183-0.608v-4.842
			c0-0.285,0.062-0.488,0.187-0.613s0.326-0.188,0.604-0.188h2.087c0.308,0,0.574,0.02,0.8,0.059
			c0.226,0.037,0.428,0.11,0.606,0.219c0.152,0.092,0.287,0.205,0.404,0.346c0.117,0.139,0.207,0.293,0.268,0.461
			c0.062,0.169,0.092,0.348,0.092,0.534c0,0.646-0.322,1.116-0.967,1.415c0.847,0.27,1.27,0.794,1.27,1.572
			c0,0.361-0.092,0.686-0.277,0.975c-0.185,0.288-0.434,0.502-0.747,0.639c-0.196,0.084-0.422,0.142-0.677,0.174
			C26.438,58.786,26.141,58.802,25.801,58.802z M24.346,53.338v1.666h1.195c0.325,0,0.576-0.03,0.753-0.092
			c0.177-0.062,0.313-0.179,0.407-0.352c0.073-0.123,0.11-0.262,0.11-0.414c0-0.324-0.116-0.541-0.347-0.646
			c-0.231-0.107-0.584-0.162-1.059-0.162H24.346z M25.704,55.94h-1.358v1.881h1.402c0.882,0,1.323-0.316,1.323-0.953
			c0-0.324-0.114-0.561-0.343-0.707C26.499,56.015,26.158,55.94,25.704,55.94z"/>
		<path fill="#004876" d="M29.576,58.116V53.04c0-0.264,0.06-0.461,0.18-0.593c0.12-0.132,0.275-0.198,0.466-0.198
			c0.196,0,0.355,0.065,0.477,0.196c0.121,0.13,0.182,0.329,0.182,0.595v5.076c0,0.268-0.061,0.467-0.182,0.598
			c-0.122,0.133-0.281,0.197-0.477,0.197c-0.188,0-0.342-0.065-0.463-0.199C29.636,58.579,29.576,58.379,29.576,58.116z"/>
		<path fill="#004876" d="M35.174,52.249c0.668,0,1.242,0.137,1.72,0.407c0.479,0.271,0.842,0.656,1.088,1.155
			c0.246,0.5,0.369,1.087,0.369,1.76c0,0.499-0.067,0.951-0.202,1.358c-0.135,0.407-0.337,0.761-0.606,1.06
			s-0.601,0.527-0.993,0.686c-0.392,0.16-0.842,0.236-1.349,0.236c-0.504,0-0.955-0.08-1.354-0.242
			c-0.398-0.164-0.731-0.393-0.998-0.688c-0.267-0.295-0.468-0.651-0.604-1.067c-0.136-0.416-0.204-0.865-0.204-1.349
			c0-0.495,0.071-0.949,0.213-1.362c0.142-0.412,0.348-0.765,0.618-1.056c0.27-0.289,0.598-0.513,0.984-0.665
			C34.243,52.327,34.682,52.249,35.174,52.249z M37.029,55.563c0-0.473-0.076-0.881-0.229-1.227
			c-0.153-0.347-0.37-0.607-0.653-0.784c-0.283-0.179-0.607-0.267-0.973-0.267c-0.261,0-0.502,0.049-0.723,0.146
			c-0.221,0.099-0.412,0.24-0.571,0.429c-0.159,0.188-0.285,0.427-0.378,0.72c-0.092,0.291-0.138,0.619-0.138,0.981
			c0,0.366,0.046,0.696,0.138,0.992c0.093,0.297,0.223,0.542,0.392,0.735c0.168,0.195,0.361,0.342,0.58,0.438
			c0.218,0.097,0.458,0.146,0.718,0.146c0.334,0,0.641-0.084,0.92-0.25c0.279-0.168,0.502-0.426,0.668-0.773
			S37.029,56.073,37.029,55.563z"/>
		<path fill="#004876" d="M40.747,53.04v4.689h2.646c0.211,0,0.373,0.052,0.485,0.154c0.113,0.103,0.17,0.23,0.17,0.387
			c0,0.158-0.057,0.286-0.168,0.384c-0.11,0.099-0.273,0.147-0.487,0.147h-3.151c-0.284,0-0.489-0.062-0.613-0.189
			c-0.125-0.125-0.187-0.328-0.187-0.609V53.04c0-0.264,0.06-0.461,0.178-0.593c0.119-0.132,0.275-0.198,0.468-0.198
			c0.196,0,0.355,0.065,0.477,0.196C40.686,52.575,40.747,52.774,40.747,53.04z"/>
		<path fill="#004876" d="M47.291,52.249c0.668,0,1.242,0.137,1.719,0.407c0.479,0.271,0.843,0.656,1.089,1.155
			c0.246,0.5,0.368,1.087,0.368,1.76c0,0.499-0.066,0.951-0.201,1.358s-0.337,0.761-0.605,1.06c-0.27,0.299-0.602,0.527-0.994,0.686
			c-0.392,0.16-0.842,0.236-1.349,0.236c-0.504,0-0.955-0.08-1.354-0.242c-0.397-0.164-0.73-0.393-0.998-0.688
			c-0.266-0.295-0.467-0.651-0.604-1.067c-0.136-0.416-0.203-0.865-0.203-1.349c0-0.495,0.07-0.949,0.213-1.362
			c0.142-0.412,0.348-0.765,0.617-1.056c0.27-0.289,0.598-0.513,0.984-0.665C46.358,52.327,46.798,52.249,47.291,52.249z
			 M49.145,55.563c0-0.473-0.076-0.881-0.229-1.227c-0.152-0.347-0.369-0.607-0.652-0.784c-0.283-0.179-0.607-0.267-0.973-0.267
			c-0.262,0-0.502,0.049-0.724,0.146c-0.221,0.099-0.412,0.24-0.571,0.429c-0.158,0.188-0.285,0.427-0.377,0.72
			c-0.093,0.291-0.139,0.619-0.139,0.981c0,0.366,0.046,0.696,0.139,0.992c0.092,0.297,0.223,0.542,0.391,0.735
			c0.169,0.195,0.361,0.342,0.58,0.438s0.459,0.146,0.719,0.146c0.334,0,0.641-0.084,0.92-0.25c0.279-0.168,0.502-0.426,0.668-0.773
			S49.145,56.073,49.145,55.563z"/>
		<path fill="#004876" d="M57.468,56.183v1.233c0,0.166-0.016,0.297-0.049,0.395c-0.031,0.1-0.092,0.188-0.178,0.268
			c-0.087,0.077-0.197,0.154-0.332,0.229c-0.39,0.211-0.765,0.363-1.125,0.461c-0.359,0.097-0.752,0.145-1.178,0.145
			c-0.495,0-0.945-0.076-1.354-0.229c-0.407-0.15-0.754-0.373-1.043-0.663c-0.287-0.29-0.506-0.642-0.662-1.056
			c-0.152-0.412-0.229-0.873-0.229-1.383c0-0.502,0.075-0.961,0.224-1.377c0.149-0.416,0.369-0.769,0.66-1.06
			c0.289-0.289,0.643-0.513,1.059-0.665c0.416-0.154,0.888-0.23,1.414-0.23c0.435,0,0.818,0.059,1.152,0.174
			s0.604,0.262,0.812,0.438s0.365,0.362,0.47,0.559c0.104,0.197,0.158,0.371,0.158,0.522c0,0.164-0.062,0.304-0.183,0.42
			c-0.123,0.115-0.268,0.173-0.438,0.173c-0.094,0-0.184-0.021-0.27-0.064c-0.088-0.044-0.159-0.105-0.219-0.186
			c-0.16-0.252-0.297-0.441-0.408-0.57c-0.112-0.129-0.262-0.237-0.451-0.325c-0.188-0.088-0.43-0.132-0.723-0.132
			c-0.303,0-0.572,0.052-0.81,0.156c-0.237,0.104-0.44,0.254-0.608,0.451c-0.168,0.198-0.298,0.44-0.387,0.729
			c-0.09,0.287-0.134,0.605-0.134,0.953c0,0.757,0.173,1.338,0.521,1.744c0.348,0.408,0.832,0.611,1.452,0.611
			c0.302,0,0.585-0.04,0.851-0.119c0.266-0.078,0.535-0.191,0.807-0.338v-1.047h-1.012c-0.242,0-0.426-0.036-0.551-0.109
			c-0.125-0.072-0.187-0.197-0.187-0.373c0-0.144,0.052-0.263,0.155-0.355c0.104-0.094,0.246-0.141,0.425-0.141h1.481
			c0.182,0,0.334,0.017,0.461,0.047c0.125,0.033,0.228,0.104,0.305,0.217C57.423,55.795,57.468,55.959,57.468,56.183z"/>
		<path fill="#004876" d="M60.148,58.116v-2.043l-1.572-2.439c-0.139-0.219-0.236-0.391-0.293-0.514s-0.085-0.229-0.085-0.32
			c0-0.149,0.058-0.278,0.173-0.387c0.115-0.109,0.26-0.164,0.43-0.164c0.179,0,0.313,0.051,0.406,0.152
			c0.092,0.102,0.23,0.303,0.416,0.604l1.203,1.957l1.217-1.957c0.074-0.118,0.136-0.221,0.186-0.303s0.104-0.158,0.165-0.229
			c0.06-0.072,0.126-0.127,0.2-0.165s0.162-0.059,0.268-0.059c0.164,0,0.301,0.055,0.411,0.162c0.108,0.105,0.165,0.229,0.165,0.37
			c0,0.114-0.027,0.229-0.083,0.343c-0.056,0.114-0.151,0.272-0.286,0.476l-1.613,2.476v2.043c0,0.266-0.062,0.465-0.185,0.598
			c-0.123,0.132-0.28,0.197-0.47,0.197c-0.193,0-0.35-0.064-0.471-0.195S60.148,58.386,60.148,58.116z"/>
	</g>
</g>
<g>
	<path fill="#FFFFFF" d="M59.121,45.064c0,0.962-0.779,1.733-1.738,1.733H28.591c-0.954,0-1.732-0.771-1.732-1.733v-0.592
		c0-0.956,0.778-1.732,1.732-1.732h28.792c0.957,0,1.738,0.776,1.738,1.732V45.064L59.121,45.064z"/>
	<path fill="#FFFFFF" d="M46.762,29.808c-0.448,0.608-1.31,0.736-1.919,0.283l-3.363-2.499c-0.609-0.451-0.733-1.31-0.285-1.92
		l6.178-8.317c0.451-0.608,1.312-0.733,1.918-0.283l3.363,2.499c0.609,0.452,0.736,1.31,0.285,1.918L46.762,29.808z"/>
	<path fill="#FFFFFF" d="M47.033,40.651c0,0.562-0.455,1.018-1.019,1.018H30.316c-0.562,0-1.018-0.456-1.018-1.018l0,0
		c0-0.567,0.455-1.023,1.018-1.023h15.698C46.578,39.628,47.033,40.084,47.033,40.651L47.033,40.651z"/>
	<path fill="none" stroke="#FFFFFF" stroke-width="2.3441" stroke-linecap="round" stroke-miterlimit="10" d="M44.765,23.917
		c6.406,0,11.604,5.196,11.604,11.603c0,3.202-1.303,6.104-3.397,8.205"/>
	<circle fill="#00A1DF" cx="53.205" cy="44.418" r="1.018"/>
	<path fill="#FFFFFF" d="M43.98,30.989c-0.152,0.201-0.438,0.243-0.639,0.092l-2.375-1.762c-0.202-0.149-0.246-0.438-0.092-0.639
		l1.469-1.987c0.152-0.202,0.438-0.242,0.644-0.094l2.374,1.763c0.201,0.151,0.238,0.436,0.092,0.641L43.98,30.989z"/>
	<path fill="#FFFFFF" d="M51.529,19.779c-0.101,0.14-0.297,0.166-0.438,0.062l-1.609-1.197c-0.139-0.1-0.17-0.296-0.066-0.434
		l1.006-1.348c0.099-0.141,0.295-0.167,0.432-0.065l1.613,1.197c0.14,0.102,0.166,0.295,0.066,0.434L51.529,19.779z"/>
</g>
</svg>
