<?xml version="1.0" encoding="UTF-8" standalone="no"?>
<!-- Generator: Adobe Illustrator 25.4.1, SVG Export Plug-In . SVG Version: 6.00 Build 0)  -->

<svg
   xmlns:dc="http://purl.org/dc/elements/1.1/"
   xmlns:cc="http://creativecommons.org/ns#"
   xmlns:rdf="http://www.w3.org/1999/02/22-rdf-syntax-ns#"
   xmlns:svg="http://www.w3.org/2000/svg"
   xmlns="http://www.w3.org/2000/svg"
   xmlns:sodipodi="http://sodipodi.sourceforge.net/DTD/sodipodi-0.dtd"
   xmlns:inkscape="http://www.inkscape.org/namespaces/inkscape"
   version="1.1"
   id="Layer_1"
   x="0px"
   y="0px"
   viewBox="0 0 84.667 85.04"
   enable-background="new 0 0 84.667 85.04"
   xml:space="preserve"
   sodipodi:docname="Chemistry_Year_10.svg"
   inkscape:version="0.92.4 (5da689c313, 2019-01-14)"><metadata
   id="metadata97"><rdf:RDF><cc:Work
       rdf:about=""><dc:format>image/svg+xml</dc:format><dc:type
         rdf:resource="http://purl.org/dc/dcmitype/StillImage" /><dc:title></dc:title></cc:Work></rdf:RDF></metadata><defs
   id="defs95" /><sodipodi:namedview
   pagecolor="#ffffff"
   bordercolor="#666666"
   borderopacity="1"
   objecttolerance="10"
   gridtolerance="10"
   guidetolerance="10"
   inkscape:pageopacity="0"
   inkscape:pageshadow="2"
   inkscape:window-width="732"
   inkscape:window-height="480"
   id="namedview93"
   showgrid="false"
   inkscape:zoom="2.7751646"
   inkscape:cx="42.3335"
   inkscape:cy="42.52"
   inkscape:window-x="0"
   inkscape:window-y="0"
   inkscape:window-maximized="0"
   inkscape:current-layer="Layer_1" />
<path
   fill="#23A23E"
   stroke="#23A23E"
   stroke-miterlimit="10"
   d="M77.892,69.149c0,4.816-3.91,8.724-8.726,8.724H16.814  c-4.819,0-8.727-3.907-8.727-8.724V16.795c0-4.818,3.907-8.725,8.727-8.725h52.352c4.815,0,8.726,3.906,8.726,8.725V69.149z"
   id="path2" />

<g
   id="g56">
	<g
   id="g54">
		<path
   fill="#0A552A"
   d="M22.582,56.767c0,0.206-0.05,0.428-0.152,0.666c-0.101,0.239-0.26,0.474-0.477,0.703    c-0.217,0.23-0.494,0.417-0.831,0.561s-0.729,0.215-1.178,0.215c-0.34,0-0.649-0.032-0.927-0.096    c-0.278-0.064-0.531-0.165-0.758-0.302c-0.228-0.136-0.436-0.315-0.626-0.538c-0.17-0.202-0.315-0.429-0.435-0.679    c-0.12-0.251-0.21-0.518-0.271-0.802s-0.09-0.586-0.09-0.906c0-0.518,0.075-0.982,0.227-1.393c0.15-0.41,0.367-0.761,0.648-1.053    c0.281-0.291,0.611-0.513,0.989-0.666c0.378-0.151,0.781-0.229,1.208-0.229c0.521,0,0.986,0.104,1.393,0.312    s0.719,0.465,0.936,0.771c0.217,0.306,0.325,0.596,0.325,0.867c0,0.15-0.053,0.281-0.158,0.396    c-0.105,0.113-0.233,0.171-0.382,0.171c-0.167,0-0.292-0.04-0.376-0.118c-0.083-0.08-0.176-0.216-0.279-0.409    c-0.17-0.319-0.37-0.558-0.6-0.716s-0.513-0.238-0.85-0.238c-0.536,0-0.963,0.204-1.281,0.611    c-0.318,0.407-0.477,0.986-0.477,1.736c0,0.5,0.07,0.917,0.211,1.25c0.141,0.332,0.34,0.581,0.598,0.744    c0.258,0.165,0.56,0.246,0.905,0.246c0.375,0,0.692-0.093,0.952-0.278c0.259-0.187,0.455-0.46,0.586-0.819    c0.056-0.17,0.125-0.309,0.207-0.416c0.082-0.106,0.214-0.16,0.396-0.16c0.155,0,0.289,0.055,0.4,0.162    C22.526,56.472,22.582,56.606,22.582,56.767z"
   id="path36" />
		<path
   fill="#0A552A"
   d="M25.069,53.04v1.846h2.817V53.04c0-0.264,0.06-0.461,0.178-0.593c0.119-0.132,0.275-0.198,0.468-0.198    c0.196,0,0.355,0.065,0.477,0.196c0.121,0.13,0.182,0.329,0.182,0.595v5.076c0,0.267-0.062,0.466-0.185,0.598    s-0.281,0.197-0.475,0.197c-0.196,0-0.353-0.066-0.47-0.199c-0.117-0.134-0.176-0.332-0.176-0.596V55.95h-2.817v2.166    c0,0.267-0.062,0.466-0.185,0.598s-0.281,0.197-0.475,0.197c-0.196,0-0.353-0.066-0.47-0.199    c-0.117-0.134-0.176-0.332-0.176-0.596V53.04c0-0.264,0.058-0.461,0.174-0.593c0.115-0.132,0.273-0.198,0.472-0.198    c0.196,0,0.355,0.065,0.477,0.196C25.008,52.575,25.069,52.774,25.069,53.04z"
   id="path38" />
		<path
   fill="#0A552A"
   d="M34.838,53.366h-2.94v1.582h2.707c0.199,0,0.348,0.044,0.446,0.134c0.098,0.089,0.147,0.207,0.147,0.354    s-0.048,0.266-0.145,0.358c-0.097,0.092-0.246,0.139-0.448,0.139h-2.707v1.832h3.041c0.205,0,0.359,0.048,0.463,0.143    c0.104,0.096,0.156,0.223,0.156,0.381c0,0.152-0.052,0.275-0.156,0.371c-0.104,0.095-0.258,0.143-0.463,0.143h-3.546    c-0.284,0-0.489-0.062-0.613-0.189c-0.125-0.125-0.187-0.329-0.187-0.61v-4.843c0-0.188,0.028-0.341,0.083-0.459    c0.056-0.119,0.143-0.205,0.261-0.26c0.119-0.054,0.271-0.081,0.455-0.081h3.445c0.208,0,0.362,0.046,0.464,0.139    c0.101,0.092,0.151,0.213,0.151,0.362c0,0.152-0.051,0.274-0.151,0.367C35.201,53.319,35.046,53.366,34.838,53.366z"
   id="path40" />
		<path
   fill="#0A552A"
   d="M38.771,57.831l-1.033-4.105v4.447c0,0.246-0.055,0.432-0.165,0.555c-0.109,0.123-0.255,0.184-0.437,0.184    c-0.176,0-0.319-0.061-0.431-0.182c-0.111-0.122-0.167-0.307-0.167-0.557v-5.098c0-0.281,0.073-0.471,0.22-0.568    c0.146-0.099,0.344-0.147,0.593-0.147h0.404c0.243,0,0.42,0.022,0.529,0.065c0.11,0.045,0.191,0.123,0.244,0.238    c0.053,0.113,0.113,0.3,0.18,0.558l0.936,3.528l0.936-3.528c0.067-0.258,0.127-0.444,0.18-0.558    c0.053-0.115,0.134-0.193,0.244-0.238c0.109-0.043,0.286-0.065,0.529-0.065h0.404c0.249,0,0.447,0.049,0.593,0.147    c0.146,0.098,0.22,0.287,0.22,0.568v5.098c0,0.246-0.055,0.432-0.165,0.555c-0.11,0.123-0.257,0.184-0.442,0.184    c-0.173,0-0.315-0.061-0.426-0.184s-0.167-0.309-0.167-0.555v-4.447l-1.033,4.105c-0.067,0.267-0.123,0.462-0.165,0.586    c-0.043,0.125-0.121,0.238-0.235,0.341s-0.272,0.153-0.475,0.153c-0.152,0-0.281-0.032-0.387-0.099    c-0.105-0.065-0.188-0.149-0.246-0.253c-0.059-0.102-0.105-0.216-0.139-0.34C38.841,58.095,38.807,57.966,38.771,57.831z"
   id="path42" />
		<path
   fill="#0A552A"
   d="M44.146,58.116V53.04c0-0.264,0.06-0.461,0.18-0.593s0.275-0.198,0.466-0.198    c0.196,0,0.355,0.065,0.477,0.196c0.121,0.13,0.182,0.329,0.182,0.595v5.076c0,0.267-0.061,0.466-0.182,0.598    c-0.122,0.132-0.281,0.197-0.477,0.197c-0.188,0-0.342-0.066-0.463-0.199C44.207,58.578,44.146,58.38,44.146,58.116z"
   id="path44" />
		<path
   fill="#0A552A"
   d="M51.806,56.868c0,0.39-0.101,0.74-0.301,1.051c-0.201,0.311-0.495,0.553-0.881,0.729    s-0.845,0.264-1.375,0.264c-0.636,0-1.16-0.119-1.573-0.359c-0.293-0.173-0.531-0.404-0.714-0.692    c-0.184-0.289-0.275-0.569-0.275-0.842c0-0.158,0.055-0.294,0.165-0.406c0.11-0.113,0.25-0.169,0.42-0.169    c0.138,0,0.254,0.043,0.35,0.131c0.095,0.088,0.176,0.219,0.244,0.392c0.082,0.205,0.17,0.377,0.266,0.515    c0.095,0.138,0.229,0.251,0.402,0.34c0.173,0.09,0.4,0.135,0.681,0.135c0.387,0,0.701-0.091,0.942-0.271    c0.242-0.181,0.363-0.405,0.363-0.675c0-0.214-0.065-0.388-0.196-0.521c-0.13-0.134-0.299-0.235-0.505-0.306    c-0.207-0.07-0.483-0.145-0.829-0.225c-0.463-0.107-0.85-0.234-1.163-0.38c-0.312-0.145-0.56-0.343-0.742-0.593    c-0.184-0.251-0.275-0.562-0.275-0.934c0-0.354,0.097-0.67,0.29-0.945s0.473-0.487,0.839-0.635    c0.366-0.148,0.797-0.223,1.292-0.223c0.396,0,0.737,0.05,1.026,0.147c0.288,0.099,0.528,0.229,0.718,0.392    c0.19,0.162,0.33,0.333,0.417,0.512s0.132,0.354,0.132,0.523c0,0.155-0.055,0.295-0.165,0.419    c-0.109,0.125-0.247,0.187-0.411,0.187c-0.149,0-0.263-0.037-0.34-0.111c-0.078-0.075-0.162-0.197-0.253-0.367    c-0.117-0.243-0.258-0.433-0.422-0.569c-0.164-0.136-0.428-0.204-0.791-0.204c-0.337,0-0.608,0.074-0.815,0.222    c-0.206,0.148-0.31,0.326-0.31,0.534c0,0.129,0.035,0.24,0.105,0.334s0.167,0.175,0.29,0.242s0.248,0.12,0.374,0.158    s0.334,0.094,0.624,0.166c0.363,0.086,0.692,0.18,0.987,0.281c0.294,0.104,0.545,0.228,0.751,0.374    c0.207,0.146,0.368,0.332,0.483,0.556C51.748,56.269,51.806,56.543,51.806,56.868z"
   id="path46" />
		<path
   fill="#0A552A"
   d="M57.097,53.437h-1.424v4.68c0,0.27-0.06,0.47-0.18,0.6c-0.12,0.131-0.275,0.195-0.466,0.195    c-0.193,0-0.351-0.065-0.472-0.197c-0.122-0.132-0.183-0.331-0.183-0.598v-4.68h-1.424c-0.223,0-0.388-0.05-0.497-0.147    c-0.108-0.099-0.163-0.228-0.163-0.39c0-0.166,0.056-0.299,0.169-0.395c0.113-0.098,0.276-0.146,0.49-0.146h4.148    c0.226,0,0.394,0.05,0.503,0.149c0.11,0.1,0.165,0.23,0.165,0.391c0,0.162-0.056,0.291-0.167,0.39    C57.486,53.387,57.319,53.437,57.097,53.437z"
   id="path48" />
		<path
   fill="#0A552A"
   d="M60.292,56.046h-0.457v2.07c0,0.272-0.06,0.474-0.18,0.602c-0.12,0.129-0.277,0.193-0.47,0.193    c-0.208,0-0.369-0.067-0.483-0.201c-0.114-0.135-0.171-0.333-0.171-0.594v-4.957c0-0.281,0.063-0.484,0.189-0.611    c0.126-0.125,0.33-0.188,0.611-0.188h2.123c0.293,0,0.543,0.013,0.751,0.037c0.208,0.025,0.396,0.076,0.562,0.151    c0.202,0.086,0.381,0.207,0.536,0.365s0.273,0.342,0.354,0.552c0.081,0.209,0.121,0.432,0.121,0.665    c0,0.481-0.136,0.865-0.406,1.152c-0.271,0.287-0.682,0.49-1.233,0.61c0.231,0.123,0.453,0.305,0.664,0.545    s0.399,0.496,0.564,0.767c0.166,0.271,0.295,0.516,0.387,0.734c0.093,0.218,0.139,0.368,0.139,0.45    c0,0.085-0.027,0.169-0.081,0.253c-0.055,0.083-0.128,0.149-0.222,0.197c-0.094,0.049-0.202,0.072-0.325,0.072    c-0.146,0-0.27-0.034-0.369-0.103c-0.1-0.069-0.186-0.156-0.257-0.262s-0.169-0.261-0.292-0.466l-0.523-0.87    c-0.188-0.319-0.355-0.562-0.503-0.729s-0.298-0.281-0.45-0.343S60.523,56.046,60.292,56.046z M61.039,53.339h-1.204v1.771h1.169    c0.313,0,0.577-0.027,0.791-0.081c0.214-0.055,0.377-0.146,0.49-0.277c0.113-0.13,0.169-0.31,0.169-0.538    c0-0.179-0.045-0.336-0.136-0.473c-0.091-0.136-0.217-0.237-0.378-0.305C61.787,53.372,61.487,53.339,61.039,53.339z"
   id="path50" />
		<path
   fill="#0A552A"
   d="M66.105,58.116v-2.043l-1.573-2.439c-0.138-0.22-0.235-0.391-0.292-0.514    c-0.057-0.123-0.085-0.23-0.085-0.321c0-0.149,0.058-0.278,0.173-0.387s0.259-0.163,0.429-0.163c0.179,0,0.314,0.051,0.406,0.152    c0.093,0.101,0.231,0.303,0.416,0.604l1.204,1.956L68,53.005c0.073-0.119,0.135-0.221,0.185-0.303s0.104-0.159,0.165-0.23    c0.06-0.072,0.126-0.127,0.2-0.165s0.163-0.058,0.268-0.058c0.164,0,0.301,0.054,0.411,0.161c0.109,0.106,0.165,0.23,0.165,0.371    c0,0.114-0.028,0.229-0.083,0.343s-0.151,0.272-0.286,0.475l-1.613,2.475v2.043c0,0.267-0.062,0.466-0.185,0.598    s-0.28,0.197-0.47,0.197c-0.193,0-0.35-0.064-0.47-0.195C66.166,58.586,66.105,58.386,66.105,58.116z"
   id="path52" />
	</g>
</g>
<path
   fill="none"
   stroke="#FFFFFF"
   stroke-width="0.5"
   stroke-linecap="round"
   stroke-linejoin="round"
   stroke-miterlimit="10"
   d="  M45.386,19.487c-0.035,0.033-0.444,0.434-0.444,0.434l0.499-0.188l9.847,9.847c0.857,0.857,2.25,0.857,3.106-0.004  c0.857-0.857,0.86-2.246,0.004-3.106l-9.997-9.995c0,0-0.067,0.063-0.102,0.097L45.386,19.487z"
   id="path58" />
<g
   id="g62">
	<path
   fill="#FFFFFF"
   stroke="#FFFFFF"
   stroke-width="0.0898"
   stroke-miterlimit="10"
   d="M49.696,23.144l5.987,5.986   c0.633,0.633,1.659,0.633,2.292,0c0.633-0.633,0.633-1.659-0.1-2.393l-4.862-4.864c-0.439,0.111-0.899,0.264-1.519,0.299   C50.557,22.222,50.011,22.667,49.696,23.144z"
   id="path60" />
</g>
<path
   fill="none"
   stroke="#FFFFFF"
   stroke-width="0.5"
   stroke-linecap="round"
   stroke-linejoin="round"
   stroke-miterlimit="10"
   d="  M39.896,19.487c0.035,0.033,0.42,0.405,0.42,0.405l-0.539-0.092l-9.781,9.78c-0.857,0.857-2.25,0.857-3.106-0.004  c-0.857-0.857-0.86-2.246-0.003-3.106l9.996-9.995c0,0,0.067,0.063,0.102,0.097L39.896,19.487z"
   id="path64" />
<g
   id="g68">
	<path
   fill="#FFFFFF"
   stroke="#FFFFFF"
   stroke-width="0.0863"
   stroke-miterlimit="10"
   d="M38.37,20.316l-8.801,8.772   c-0.608,0.608-1.594,0.608-2.202,0c-0.608-0.608-0.608-1.594,0-2.202l7.913-7.888c0.325,0.203,0.767,0.35,1.363,0.384   C37.544,19.43,38.068,19.857,38.37,20.316z"
   id="path66" />
</g>
<g
   id="g72">
	<path
   fill="none"
   stroke="#FFFFFF"
   stroke-width="0.5"
   stroke-miterlimit="10"
   d="M36.997,42.369   c-2.092,0.003-2.948-1.477-1.902-3.289l5.443-9.432c1.046-1.812,2.764-1.816,3.819-0.01l5.502,9.423   c1.055,1.807,0.206,3.287-1.886,3.29L36.997,42.369z"
   id="path70" />
</g>
<polyline
   fill="#23A23E"
   stroke="#FFFFFF"
   stroke-width="0.5"
   stroke-linecap="round"
   stroke-linejoin="round"
   stroke-miterlimit="10"
   points="  39.482,31.515 39.477,25.675 39.216,25.393 39.697,25.402 45.14,25.393 45.817,25.393 45.436,25.732 45.436,31.543 "
   id="polyline74" />
<g
   id="g78">
	<path
   fill="#FFFFFF"
   d="M49.815,39.053l-2.44-4.231c-5.918,0-7.061,0-9.811,0l-2.442,4.231c-1.044,1.813-0.189,3.293,1.904,3.293   h10.888C50.009,42.347,50.862,40.866,49.815,39.053z"
   id="path76" />
</g>
<g
   id="g80">
</g>
<g
   id="g82">
</g>
<g
   id="g84">
</g>
<g
   id="g86">
</g>
<g
   id="g88">
</g>
<g
   id="g90">
</g>
</svg>