<?xml version="1.0" encoding="utf-8"?>
<!-- Generator: Adobe Illustrator 16.0.0, SVG Export Plug-In . SVG Version: 6.00 Build 0)  -->
<!DOCTYPE svg PUBLIC "-//W3C//DTD SVG 1.1//EN" "http://www.w3.org/Graphics/SVG/1.1/DTD/svg11.dtd">
<svg version="1.1" id="Layer_1" xmlns="http://www.w3.org/2000/svg" xmlns:xlink="http://www.w3.org/1999/xlink" x="0px" y="0px"
	 width="84.667px" height="85.04px" viewBox="0 0 84.667 85.04" enable-background="new 0 0 84.667 85.04" xml:space="preserve">
<path fill="#22A23E" d="M77.644,69.565c0,4.816-3.91,8.723-8.727,8.723H16.566c-4.82,0-8.727-3.906-8.727-8.723V17.21
	c0-4.818,3.906-8.725,8.727-8.725h52.352c4.816,0,8.728,3.906,8.728,8.725L77.644,69.565L77.644,69.565z"/>
<g>
	<path fill="#09562B" d="M22.333,57.182c0,0.205-0.05,0.428-0.152,0.666c-0.101,0.238-0.26,0.473-0.477,0.703
		c-0.217,0.229-0.494,0.416-0.831,0.561c-0.337,0.143-0.729,0.215-1.178,0.215c-0.34,0-0.649-0.033-0.927-0.096
		c-0.278-0.064-0.531-0.166-0.758-0.303c-0.228-0.135-0.436-0.314-0.626-0.537c-0.17-0.203-0.315-0.43-0.435-0.68
		c-0.12-0.25-0.21-0.519-0.271-0.801c-0.06-0.285-0.09-0.586-0.09-0.906c0-0.519,0.075-0.982,0.227-1.394
		c0.15-0.409,0.367-0.762,0.648-1.053c0.281-0.291,0.611-0.515,0.989-0.666c0.378-0.152,0.781-0.229,1.208-0.229
		c0.521,0,0.986,0.104,1.393,0.312c0.407,0.207,0.719,0.465,0.936,0.771c0.217,0.305,0.325,0.596,0.325,0.866
		c0,0.15-0.053,0.281-0.158,0.396c-0.105,0.113-0.233,0.171-0.382,0.171c-0.167,0-0.292-0.039-0.376-0.117
		c-0.083-0.08-0.176-0.217-0.279-0.41c-0.17-0.317-0.37-0.557-0.6-0.715s-0.513-0.237-0.85-0.237c-0.536,0-0.963,0.202-1.281,0.61
		c-0.318,0.405-0.477,0.985-0.477,1.735c0,0.5,0.07,0.916,0.211,1.25c0.141,0.332,0.34,0.58,0.598,0.744
		c0.258,0.164,0.56,0.246,0.905,0.246c0.375,0,0.692-0.094,0.952-0.279c0.259-0.186,0.455-0.459,0.586-0.817
		c0.056-0.17,0.125-0.31,0.207-0.416s0.214-0.16,0.396-0.16c0.155,0,0.289,0.056,0.4,0.162
		C22.278,56.887,22.333,57.022,22.333,57.182z"/>
	<path fill="#09562B" d="M24.821,53.456v1.847h2.817v-1.847c0-0.264,0.06-0.461,0.178-0.594c0.119-0.131,0.275-0.197,0.468-0.197
		c0.196,0,0.355,0.064,0.477,0.195c0.121,0.131,0.182,0.33,0.182,0.596v5.076c0,0.266-0.062,0.465-0.185,0.598
		c-0.123,0.132-0.281,0.197-0.475,0.197c-0.196,0-0.353-0.065-0.47-0.199c-0.117-0.135-0.176-0.332-0.176-0.596v-2.166H24.82v2.166
		c0,0.266-0.062,0.465-0.185,0.598c-0.123,0.132-0.281,0.197-0.475,0.197c-0.196,0-0.353-0.065-0.47-0.199
		c-0.117-0.135-0.176-0.332-0.176-0.596v-5.076c0-0.264,0.058-0.461,0.174-0.594c0.115-0.131,0.273-0.197,0.472-0.197
		c0.196,0,0.355,0.064,0.477,0.195C24.76,52.991,24.821,53.19,24.821,53.456z"/>
	<path fill="#09562B" d="M34.59,53.782h-2.94v1.582h2.707c0.199,0,0.348,0.043,0.446,0.133c0.098,0.09,0.147,0.207,0.147,0.354
		s-0.048,0.267-0.145,0.358c-0.097,0.093-0.246,0.14-0.448,0.14H31.65v1.832h3.041c0.205,0,0.359,0.047,0.463,0.144
		c0.104,0.096,0.156,0.223,0.156,0.381c0,0.151-0.052,0.274-0.156,0.371c-0.104,0.094-0.258,0.143-0.463,0.143h-3.546
		c-0.284,0-0.489-0.062-0.613-0.189c-0.125-0.125-0.187-0.33-0.187-0.611v-4.842c0-0.188,0.028-0.342,0.083-0.459
		c0.056-0.119,0.143-0.205,0.261-0.26c0.119-0.055,0.271-0.082,0.455-0.082h3.445c0.208,0,0.362,0.047,0.464,0.139
		c0.101,0.092,0.151,0.213,0.151,0.363c0,0.152-0.051,0.273-0.151,0.367C34.952,53.735,34.798,53.782,34.59,53.782z"/>
	<path fill="#09562B" d="M38.523,58.247l-1.033-4.104v4.446c0,0.246-0.055,0.433-0.165,0.556c-0.109,0.123-0.255,0.185-0.437,0.185
		c-0.176,0-0.319-0.062-0.431-0.183c-0.111-0.123-0.167-0.308-0.167-0.558v-5.098c0-0.281,0.073-0.471,0.22-0.568
		c0.146-0.1,0.344-0.147,0.593-0.147h0.404c0.243,0,0.42,0.022,0.529,0.065c0.11,0.046,0.191,0.123,0.244,0.238
		c0.053,0.113,0.113,0.299,0.18,0.558l0.936,3.528l0.936-3.528c0.067-0.259,0.127-0.443,0.18-0.558
		c0.053-0.115,0.134-0.192,0.244-0.238c0.109-0.043,0.286-0.065,0.529-0.065h0.404c0.249,0,0.447,0.05,0.593,0.147
		c0.146,0.099,0.22,0.287,0.22,0.568v5.098c0,0.246-0.055,0.433-0.165,0.556s-0.257,0.185-0.442,0.185
		c-0.173,0-0.315-0.062-0.426-0.185c-0.111-0.123-0.167-0.31-0.167-0.556v-4.446l-1.033,4.104c-0.067,0.267-0.123,0.461-0.165,0.586
		c-0.043,0.125-0.121,0.238-0.235,0.34c-0.114,0.104-0.272,0.154-0.475,0.154c-0.152,0-0.281-0.033-0.387-0.1
		c-0.105-0.064-0.188-0.148-0.246-0.252c-0.059-0.102-0.105-0.217-0.139-0.34C38.592,58.51,38.558,58.381,38.523,58.247z"/>
	<path fill="#09562B" d="M43.898,58.532v-5.076c0-0.264,0.061-0.461,0.18-0.594c0.12-0.131,0.275-0.197,0.467-0.197
		c0.195,0,0.354,0.064,0.478,0.195c0.121,0.131,0.183,0.33,0.183,0.596v5.076c0,0.266-0.062,0.465-0.183,0.598
		c-0.123,0.132-0.28,0.197-0.478,0.197c-0.188,0-0.344-0.065-0.465-0.199C43.958,58.993,43.898,58.795,43.898,58.532z"/>
	<path fill="#09562B" d="M51.557,57.284c0,0.389-0.101,0.74-0.302,1.051c-0.2,0.312-0.494,0.554-0.881,0.729
		C49.987,59.24,49.53,59.327,49,59.327c-0.636,0-1.16-0.119-1.572-0.359c-0.293-0.174-0.531-0.403-0.715-0.692
		s-0.274-0.567-0.274-0.842c0-0.158,0.056-0.293,0.165-0.406c0.109-0.112,0.25-0.168,0.42-0.168c0.139,0,0.254,0.043,0.35,0.131
		c0.096,0.089,0.178,0.22,0.244,0.392c0.081,0.205,0.17,0.377,0.266,0.516c0.096,0.137,0.229,0.25,0.402,0.34
		c0.174,0.09,0.399,0.135,0.682,0.135c0.387,0,0.701-0.092,0.941-0.271c0.242-0.181,0.362-0.404,0.362-0.674
		c0-0.216-0.063-0.39-0.194-0.521c-0.132-0.132-0.3-0.233-0.506-0.305c-0.207-0.07-0.482-0.146-0.828-0.226
		c-0.464-0.106-0.851-0.233-1.162-0.381c-0.312-0.145-0.561-0.342-0.742-0.592c-0.185-0.252-0.275-0.562-0.275-0.934
		c0-0.355,0.098-0.67,0.291-0.945s0.473-0.488,0.839-0.635c0.366-0.148,0.797-0.223,1.292-0.223c0.396,0,0.737,0.049,1.025,0.146
		c0.289,0.101,0.529,0.229,0.719,0.394c0.191,0.162,0.33,0.332,0.418,0.512c0.088,0.178,0.132,0.354,0.132,0.522
		c0,0.154-0.055,0.296-0.165,0.419c-0.109,0.125-0.246,0.188-0.41,0.188c-0.149,0-0.264-0.037-0.341-0.111
		c-0.077-0.076-0.161-0.197-0.253-0.367c-0.117-0.244-0.258-0.434-0.422-0.57c-0.164-0.135-0.428-0.202-0.791-0.202
		c-0.337,0-0.607,0.073-0.814,0.221s-0.311,0.326-0.311,0.535c0,0.129,0.035,0.239,0.105,0.334c0.069,0.094,0.166,0.174,0.289,0.242
		c0.123,0.065,0.248,0.118,0.375,0.157c0.125,0.037,0.334,0.095,0.623,0.166c0.362,0.086,0.691,0.181,0.986,0.281
		c0.294,0.104,0.545,0.227,0.751,0.373c0.207,0.146,0.367,0.332,0.483,0.557C51.5,56.687,51.557,56.958,51.557,57.284z"/>
	<path fill="#09562B" d="M56.848,53.852h-1.425v4.68c0,0.271-0.06,0.469-0.18,0.6c-0.119,0.132-0.275,0.195-0.466,0.195
		c-0.192,0-0.353-0.065-0.473-0.197c-0.122-0.133-0.183-0.332-0.183-0.598v-4.68h-1.422c-0.224,0-0.389-0.051-0.498-0.148
		c-0.106-0.098-0.162-0.227-0.162-0.389c0-0.166,0.058-0.299,0.17-0.395c0.111-0.099,0.275-0.146,0.49-0.146h4.147
		c0.226,0,0.394,0.051,0.503,0.15s0.165,0.229,0.165,0.391c0,0.162-0.056,0.291-0.167,0.389
		C57.238,53.802,57.071,53.852,56.848,53.852z"/>
	<path fill="#09562B" d="M60.042,56.461h-0.457v2.069c0,0.271-0.061,0.474-0.181,0.603s-0.276,0.193-0.471,0.193
		c-0.207,0-0.369-0.068-0.481-0.201c-0.115-0.136-0.173-0.334-0.173-0.595v-4.956c0-0.281,0.062-0.484,0.189-0.611
		c0.125-0.125,0.329-0.189,0.61-0.189h2.121c0.293,0,0.545,0.014,0.752,0.037c0.209,0.025,0.396,0.076,0.562,0.152
		c0.201,0.086,0.381,0.207,0.535,0.365c0.156,0.157,0.272,0.342,0.354,0.551s0.121,0.432,0.121,0.666
		c0,0.479-0.136,0.865-0.405,1.151c-0.271,0.287-0.684,0.49-1.233,0.609c0.231,0.123,0.452,0.305,0.663,0.545
		c0.212,0.239,0.398,0.496,0.564,0.769c0.166,0.271,0.295,0.516,0.387,0.733c0.094,0.217,0.14,0.367,0.14,0.449
		c0,0.086-0.027,0.17-0.081,0.254c-0.055,0.082-0.128,0.147-0.223,0.196c-0.094,0.05-0.203,0.072-0.325,0.072
		c-0.146,0-0.271-0.035-0.369-0.104c-0.099-0.069-0.187-0.156-0.257-0.262c-0.071-0.106-0.17-0.26-0.292-0.465l-0.523-0.871
		c-0.188-0.318-0.354-0.562-0.503-0.729c-0.146-0.168-0.298-0.281-0.449-0.345C60.466,56.493,60.275,56.461,60.042,56.461z
		 M60.791,53.754h-1.205v1.771h1.17c0.312,0,0.576-0.026,0.791-0.082c0.213-0.055,0.377-0.146,0.49-0.276
		c0.111-0.129,0.168-0.31,0.168-0.537c0-0.18-0.045-0.336-0.136-0.474c-0.091-0.137-0.217-0.237-0.378-0.305
		C61.539,53.788,61.238,53.754,60.791,53.754z"/>
	<path fill="#09562B" d="M65.857,58.532v-2.043l-1.572-2.439c-0.139-0.221-0.236-0.391-0.293-0.514s-0.086-0.229-0.086-0.322
		c0-0.147,0.059-0.276,0.174-0.387c0.115-0.106,0.258-0.162,0.428-0.162c0.181,0,0.314,0.051,0.406,0.152
		c0.094,0.1,0.231,0.303,0.416,0.604l1.205,1.955l1.217-1.955c0.072-0.118,0.136-0.221,0.185-0.303
		c0.051-0.082,0.104-0.16,0.166-0.229c0.06-0.072,0.126-0.127,0.198-0.166c0.074-0.037,0.162-0.058,0.269-0.058
		c0.164,0,0.302,0.054,0.412,0.16c0.108,0.107,0.164,0.23,0.164,0.371c0,0.115-0.026,0.229-0.084,0.344
		c-0.056,0.113-0.149,0.271-0.285,0.476l-1.612,2.475v2.044c0,0.266-0.062,0.465-0.185,0.598c-0.123,0.131-0.28,0.197-0.472,0.197
		c-0.192,0-0.35-0.064-0.471-0.195C65.917,59,65.857,58.801,65.857,58.532z"/>
</g>
<g>
	<path fill="#22A23E" d="M33.415,47.249c-3.67,0-5.171-2.601-3.337-5.777l9.55-16.543c1.834-3.178,4.836-3.178,6.67,0l9.554,16.544
		c1.835,3.179,0.334,5.778-3.336,5.778H33.415V47.249z"/>
	<path fill="none" stroke="#FFFFFF" stroke-width="1.194" stroke-miterlimit="10" d="M33.415,47.249
		c-3.67,0-5.171-2.601-3.337-5.777l9.55-16.543c1.834-3.178,4.836-3.178,6.67,0l9.554,16.544c1.835,3.179,0.334,5.778-3.336,5.778
		H33.415V47.249z"/>
</g>
<polyline fill="#22A23E" stroke="#FFFFFF" stroke-width="1.194" stroke-miterlimit="10" points="37.925,27.855 37.914,17.426 
	48.018,17.426 48.018,27.893 "/>
<path fill="#FFFFFF" stroke="#FFFFFF" stroke-width="0.0706" stroke-miterlimit="10" d="M49.347,17.426
	c0,0.583-0.508,1.055-1.133,1.055H37.716c-0.624,0-1.132-0.472-1.132-1.055l0,0c0-0.58,0.508-1.054,1.132-1.054h10.499
	C48.839,16.372,49.347,16.846,49.347,17.426L49.347,17.426z"/>
<path fill="#FFFFFF" d="M55.852,41.473l-4.284-7.423c-10.377,0-12.383,0-17.205,0l-4.285,7.421c-1.83,3.178-0.332,5.777,3.34,5.777
	H52.52C56.192,47.249,57.691,44.649,55.852,41.473z"/>
</svg>
