<?xml version="1.0" encoding="utf-8"?>
<!-- Generator: Adobe Illustrator 16.0.0, SVG Export Plug-In . SVG Version: 6.00 Build 0)  -->
<!DOCTYPE svg PUBLIC "-//W3C//DTD SVG 1.1//EN" "http://www.w3.org/Graphics/SVG/1.1/DTD/svg11.dtd">
<svg version="1.1" id="Layer_1" xmlns="http://www.w3.org/2000/svg" xmlns:xlink="http://www.w3.org/1999/xlink" x="0px" y="0px"
	 width="84.667px" height="85.04px" viewBox="0 0 84.667 85.04" enable-background="new 0 0 84.667 85.04" xml:space="preserve">
<path fill="#23A23E" d="M77.395,68.815c0,4.816-3.91,8.723-8.727,8.723H16.317c-4.82,0-8.727-3.906-8.727-8.723V16.46
	c0-4.818,3.907-8.725,8.727-8.725h52.351c4.816,0,8.727,3.906,8.727,8.725V68.815z"/>
<g>
	<path fill="#0A552A" d="M22.085,56.432c0,0.205-0.05,0.428-0.152,0.666c-0.101,0.238-0.26,0.473-0.477,0.703
		s-0.494,0.416-0.831,0.561c-0.337,0.143-0.729,0.215-1.178,0.215c-0.34,0-0.649-0.033-0.927-0.096
		c-0.278-0.064-0.531-0.166-0.758-0.303c-0.228-0.135-0.436-0.314-0.626-0.537c-0.17-0.203-0.315-0.43-0.435-0.68
		s-0.21-0.518-0.271-0.801c-0.06-0.285-0.09-0.586-0.09-0.906c0-0.518,0.075-0.982,0.227-1.393c0.15-0.41,0.367-0.762,0.648-1.053
		s0.611-0.514,0.989-0.666s0.781-0.229,1.208-0.229c0.521,0,0.986,0.104,1.393,0.312c0.407,0.207,0.719,0.465,0.936,0.771
		c0.217,0.305,0.325,0.596,0.325,0.867c0,0.15-0.053,0.281-0.158,0.396c-0.105,0.113-0.233,0.17-0.382,0.17
		c-0.167,0-0.292-0.039-0.376-0.117c-0.083-0.08-0.176-0.217-0.279-0.41c-0.17-0.318-0.37-0.557-0.6-0.715s-0.513-0.238-0.85-0.238
		c-0.536,0-0.963,0.203-1.281,0.611c-0.318,0.406-0.477,0.986-0.477,1.736c0,0.5,0.07,0.916,0.211,1.25
		c0.141,0.332,0.34,0.58,0.598,0.744s0.56,0.246,0.905,0.246c0.375,0,0.692-0.094,0.952-0.279c0.259-0.186,0.455-0.459,0.586-0.818
		c0.056-0.17,0.125-0.309,0.207-0.416s0.214-0.16,0.396-0.16c0.155,0,0.289,0.055,0.4,0.162
		C22.029,56.137,22.085,56.272,22.085,56.432z"/>
	<path fill="#0A552A" d="M24.572,52.706v1.846h2.817v-1.846c0-0.264,0.06-0.461,0.178-0.594c0.119-0.131,0.275-0.197,0.468-0.197
		c0.196,0,0.355,0.064,0.477,0.195c0.121,0.131,0.182,0.33,0.182,0.596v5.076c0,0.266-0.062,0.465-0.185,0.598
		c-0.123,0.131-0.281,0.197-0.475,0.197c-0.196,0-0.353-0.066-0.47-0.199c-0.117-0.135-0.176-0.332-0.176-0.596v-2.166h-2.817v2.166
		c0,0.266-0.062,0.465-0.185,0.598c-0.123,0.131-0.281,0.197-0.475,0.197c-0.196,0-0.353-0.066-0.47-0.199
		c-0.117-0.135-0.176-0.332-0.176-0.596v-5.076c0-0.264,0.058-0.461,0.174-0.594c0.115-0.131,0.273-0.197,0.472-0.197
		c0.196,0,0.355,0.064,0.477,0.195C24.511,52.241,24.572,52.44,24.572,52.706z"/>
	<path fill="#0A552A" d="M34.341,53.032h-2.94v1.582h2.707c0.199,0,0.348,0.043,0.446,0.133s0.147,0.207,0.147,0.354
		s-0.048,0.266-0.145,0.359c-0.097,0.092-0.246,0.139-0.448,0.139h-2.707v1.832h3.041c0.205,0,0.359,0.047,0.463,0.143
		s0.156,0.223,0.156,0.381c0,0.152-0.052,0.275-0.156,0.371c-0.104,0.094-0.258,0.143-0.463,0.143h-3.546
		c-0.284,0-0.489-0.062-0.613-0.189c-0.125-0.125-0.187-0.33-0.187-0.611v-4.842c0-0.188,0.028-0.342,0.083-0.459
		c0.056-0.119,0.143-0.205,0.261-0.26c0.119-0.055,0.271-0.082,0.455-0.082h3.445c0.208,0,0.362,0.047,0.464,0.139
		c0.101,0.092,0.151,0.213,0.151,0.363c0,0.152-0.051,0.273-0.151,0.367C34.704,52.985,34.549,53.032,34.341,53.032z"/>
	<path fill="#0A552A" d="M38.274,57.497l-1.033-4.105v4.447c0,0.246-0.055,0.432-0.165,0.555c-0.109,0.123-0.255,0.184-0.437,0.184
		c-0.176,0-0.319-0.061-0.431-0.182c-0.111-0.123-0.167-0.307-0.167-0.557v-5.098c0-0.281,0.073-0.471,0.22-0.568
		c0.146-0.1,0.344-0.148,0.593-0.148h0.404c0.243,0,0.42,0.023,0.529,0.066c0.11,0.045,0.191,0.123,0.244,0.238
		c0.053,0.113,0.113,0.299,0.18,0.557l0.936,3.529l0.936-3.529c0.067-0.258,0.127-0.443,0.18-0.557
		c0.053-0.115,0.134-0.193,0.244-0.238c0.109-0.043,0.286-0.066,0.529-0.066h0.404c0.249,0,0.447,0.049,0.593,0.148
		c0.146,0.098,0.22,0.287,0.22,0.568v5.098c0,0.246-0.055,0.432-0.165,0.555c-0.11,0.123-0.257,0.184-0.442,0.184
		c-0.173,0-0.315-0.061-0.426-0.184s-0.167-0.309-0.167-0.555v-4.447l-1.033,4.105c-0.067,0.266-0.123,0.461-0.165,0.586
		c-0.043,0.125-0.121,0.238-0.235,0.34c-0.114,0.104-0.272,0.154-0.475,0.154c-0.152,0-0.281-0.033-0.387-0.1
		c-0.105-0.064-0.188-0.148-0.246-0.252c-0.059-0.102-0.105-0.217-0.139-0.34C38.344,57.76,38.31,57.631,38.274,57.497z"/>
	<path fill="#0A552A" d="M43.649,57.782v-5.076c0-0.264,0.06-0.461,0.18-0.594c0.12-0.131,0.275-0.197,0.466-0.197
		c0.196,0,0.355,0.064,0.478,0.195c0.121,0.131,0.182,0.33,0.182,0.596v5.076c0,0.266-0.061,0.465-0.182,0.598
		c-0.122,0.131-0.281,0.197-0.478,0.197c-0.188,0-0.342-0.066-0.463-0.199C43.709,58.243,43.649,58.045,43.649,57.782z"/>
	<path fill="#0A552A" d="M51.308,56.534c0,0.389-0.101,0.74-0.301,1.051c-0.201,0.311-0.494,0.553-0.881,0.729
		s-0.846,0.264-1.376,0.264c-0.636,0-1.16-0.119-1.573-0.359c-0.293-0.174-0.531-0.404-0.714-0.693
		c-0.184-0.289-0.274-0.568-0.274-0.842c0-0.158,0.055-0.293,0.164-0.406c0.11-0.113,0.25-0.168,0.42-0.168
		c0.138,0,0.254,0.043,0.35,0.131c0.095,0.088,0.177,0.219,0.244,0.391c0.082,0.205,0.17,0.377,0.266,0.516
		c0.095,0.137,0.229,0.25,0.402,0.34s0.399,0.135,0.681,0.135c0.387,0,0.701-0.092,0.942-0.271c0.242-0.18,0.363-0.404,0.363-0.674
		c0-0.215-0.065-0.389-0.196-0.521c-0.13-0.133-0.299-0.234-0.505-0.305c-0.207-0.07-0.482-0.145-0.828-0.225
		c-0.463-0.107-0.851-0.234-1.163-0.381c-0.312-0.145-0.56-0.342-0.742-0.592c-0.184-0.252-0.274-0.562-0.274-0.934
		c0-0.355,0.097-0.67,0.29-0.945s0.473-0.488,0.839-0.635c0.366-0.148,0.797-0.223,1.292-0.223c0.396,0,0.737,0.049,1.026,0.146
		c0.288,0.1,0.528,0.229,0.719,0.393c0.19,0.162,0.329,0.332,0.417,0.512c0.088,0.178,0.132,0.354,0.132,0.523
		c0,0.154-0.055,0.295-0.165,0.418c-0.109,0.125-0.246,0.188-0.41,0.188c-0.149,0-0.264-0.037-0.341-0.111
		c-0.078-0.076-0.162-0.197-0.253-0.367c-0.117-0.244-0.258-0.434-0.422-0.57c-0.164-0.135-0.428-0.203-0.791-0.203
		c-0.337,0-0.608,0.074-0.815,0.221c-0.206,0.148-0.31,0.326-0.31,0.535c0,0.129,0.035,0.24,0.105,0.334s0.167,0.174,0.29,0.242
		c0.123,0.066,0.248,0.119,0.374,0.158c0.126,0.037,0.334,0.094,0.624,0.166c0.363,0.086,0.691,0.18,0.986,0.281
		c0.294,0.104,0.545,0.227,0.751,0.373c0.207,0.146,0.368,0.332,0.483,0.557C51.25,55.934,51.308,56.208,51.308,56.534z"/>
	<path fill="#0A552A" d="M56.599,53.102h-1.424v4.68c0,0.27-0.06,0.469-0.18,0.6s-0.275,0.195-0.466,0.195
		c-0.193,0-0.352-0.066-0.473-0.197c-0.122-0.133-0.183-0.332-0.183-0.598v-4.68h-1.424c-0.223,0-0.388-0.051-0.496-0.148
		s-0.163-0.227-0.163-0.389c0-0.166,0.057-0.299,0.169-0.395c0.113-0.098,0.276-0.146,0.49-0.146h4.148
		c0.226,0,0.394,0.051,0.503,0.15c0.11,0.1,0.165,0.23,0.165,0.391c0,0.162-0.056,0.291-0.167,0.389S56.822,53.102,56.599,53.102z"
		/>
	<path fill="#0A552A" d="M59.794,55.711h-0.457v2.07c0,0.271-0.061,0.473-0.181,0.602s-0.276,0.193-0.47,0.193
		c-0.208,0-0.369-0.068-0.483-0.201c-0.114-0.135-0.172-0.334-0.172-0.594v-4.957c0-0.281,0.063-0.484,0.189-0.611
		c0.126-0.125,0.329-0.189,0.61-0.189h2.123c0.293,0,0.543,0.014,0.751,0.037c0.208,0.025,0.396,0.076,0.562,0.152
		c0.202,0.086,0.381,0.207,0.536,0.365s0.273,0.342,0.354,0.551c0.081,0.209,0.121,0.432,0.121,0.666
		c0,0.48-0.136,0.865-0.406,1.152c-0.271,0.287-0.682,0.49-1.232,0.609c0.231,0.123,0.452,0.305,0.663,0.545
		s0.399,0.496,0.564,0.768c0.166,0.271,0.295,0.516,0.387,0.734c0.093,0.217,0.139,0.367,0.139,0.449
		c0,0.086-0.027,0.17-0.081,0.254c-0.055,0.082-0.128,0.148-0.222,0.197s-0.202,0.072-0.325,0.072c-0.146,0-0.27-0.035-0.369-0.104
		s-0.186-0.156-0.258-0.262c-0.071-0.105-0.169-0.26-0.292-0.465l-0.522-0.871c-0.188-0.318-0.355-0.562-0.504-0.729
		c-0.147-0.168-0.298-0.281-0.45-0.344C60.217,55.743,60.026,55.711,59.794,55.711z M60.542,53.004h-1.204v1.771h1.169
		c0.313,0,0.577-0.027,0.791-0.082s0.377-0.146,0.489-0.277c0.113-0.129,0.17-0.309,0.17-0.537c0-0.18-0.046-0.336-0.137-0.473
		s-0.217-0.238-0.378-0.305C61.29,53.038,60.99,53.004,60.542,53.004z"/>
	<path fill="#0A552A" d="M65.608,57.782v-2.043l-1.573-2.439c-0.138-0.221-0.234-0.391-0.292-0.514
		c-0.057-0.123-0.086-0.23-0.086-0.322c0-0.148,0.058-0.277,0.174-0.387c0.115-0.107,0.259-0.162,0.429-0.162
		c0.179,0,0.314,0.051,0.406,0.152c0.093,0.1,0.23,0.303,0.415,0.604l1.204,1.955l1.218-1.955c0.073-0.119,0.135-0.221,0.185-0.303
		s0.104-0.16,0.165-0.23c0.06-0.072,0.126-0.127,0.199-0.166c0.073-0.037,0.163-0.057,0.269-0.057c0.164,0,0.301,0.053,0.411,0.16
		c0.109,0.107,0.164,0.23,0.164,0.371c0,0.115-0.027,0.229-0.083,0.344c-0.056,0.113-0.151,0.271-0.286,0.475l-1.612,2.475v2.043
		c0,0.266-0.062,0.465-0.185,0.598c-0.123,0.131-0.28,0.197-0.471,0.197c-0.193,0-0.35-0.064-0.47-0.195
		S65.608,58.051,65.608,57.782z"/>
</g>
<path fill="none" stroke="#FFFFFF" stroke-miterlimit="10" d="M38.897,18.164c-0.086,0-0.244,0-0.244,0v25.454
	c0,2.186,1.771,3.955,3.956,3.955c2.186,0,3.958-1.77,3.958-3.955V18.164c0,0-0.16,0-0.246,0H38.897z"/>
<path fill="#FFFFFF" d="M47.948,15.801c0,0.573-0.467,1.037-1.037,1.037h-8.609c-0.572,0-1.037-0.464-1.037-1.037l0,0
	c0-0.572,0.465-1.036,1.037-1.036h8.609C47.481,14.765,47.948,15.229,47.948,15.801L47.948,15.801z"/>
<g>
	<path fill="#FFFFFF" d="M39.831,29.106v14.531c0,1.537,1.247,2.783,2.78,2.783c1.538,0,2.786-1.246,2.786-2.783l0.041-14.512
		L39.831,29.106z"/>
</g>
</svg>
