<?xml version="1.0" encoding="UTF-8" standalone="no"?>
<!-- Generator: Adobe Illustrator 25.4.8, SVG Export Plug-In . SVG Version: 6.00 Build 0)  -->

<svg
   version="1.1"
   x="0px"
   y="0px"
   viewBox="0 0 85.806002 85.804003"
   enable-background="new 0 0 71.365 71.073"
   xml:space="preserve"
   id="svg96"
   sodipodi:docname="Earth_Year_10.svg"
   width="85.806"
   height="85.804001"
   inkscape:version="1.2.2 (732a01da63, 2022-12-09)"
   xmlns:inkscape="http://www.inkscape.org/namespaces/inkscape"
   xmlns:sodipodi="http://sodipodi.sourceforge.net/DTD/sodipodi-0.dtd"
   xmlns="http://www.w3.org/2000/svg"
   xmlns:svg="http://www.w3.org/2000/svg"><defs
   id="defs100" /><sodipodi:namedview
   id="namedview98"
   pagecolor="#ffffff"
   bordercolor="#000000"
   borderopacity="0.25"
   inkscape:showpageshadow="2"
   inkscape:pageopacity="0.0"
   inkscape:pagecheckerboard="0"
   inkscape:deskcolor="#d1d1d1"
   showgrid="false"
   inkscape:zoom="11.664064"
   inkscape:cx="27.306092"
   inkscape:cy="35.665099"
   inkscape:window-width="2560"
   inkscape:window-height="1009"
   inkscape:window-x="-8"
   inkscape:window-y="-8"
   inkscape:window-maximized="1"
   inkscape:current-layer="svg96" />

<g
   id="g328"
   transform="translate(7.4999999,7.5000004)"><g
     id="Layer_1"
     transform="translate(-0.271,-0.032)">
	<path
   fill="#009490"
   stroke="#009490"
   stroke-miterlimit="10"
   d="m 70.576,61.612 c 0,4.816 -3.91,8.724 -8.726,8.724 H 9.498 c -4.819,0 -8.727,-3.907 -8.727,-8.724 V 9.257 c 0,-4.818 3.907,-8.725 8.727,-8.725 h 52.353 c 4.815,0 8.726,3.906 8.726,8.725 v 52.355 z"
   id="path2" />
	<g
   id="g44">
		<g
   id="g42">
			<path
   fill="#004e59"
   d="M 23.947,40.71 H 21.66 v 1.23 h 2.105 c 0.155,0 0.271,0.035 0.347,0.104 0.076,0.069 0.114,0.161 0.114,0.275 0,0.114 -0.038,0.207 -0.113,0.278 -0.075,0.072 -0.191,0.107 -0.349,0.107 h -2.105 v 1.426 h 2.365 c 0.16,0 0.28,0.037 0.361,0.111 0.081,0.074 0.121,0.172 0.121,0.295 0,0.119 -0.041,0.215 -0.121,0.289 -0.081,0.074 -0.201,0.111 -0.361,0.111 h -2.758 c -0.221,0 -0.38,-0.049 -0.477,-0.146 -0.097,-0.099 -0.146,-0.257 -0.146,-0.476 V 40.55 c 0,-0.146 0.021,-0.265 0.065,-0.357 0.043,-0.092 0.111,-0.159 0.204,-0.201 0.092,-0.042 0.21,-0.063 0.354,-0.063 h 2.68 c 0.162,0 0.282,0.036 0.36,0.107 0.079,0.072 0.118,0.166 0.118,0.282 0,0.118 -0.039,0.214 -0.118,0.285 -0.076,0.072 -0.197,0.107 -0.359,0.107 z"
   id="path4" />
			<path
   fill="#004e59"
   d="m 28.521,44.372 -0.239,-0.629 h -2.037 l -0.239,0.643 c -0.093,0.251 -0.173,0.42 -0.239,0.508 -0.066,0.088 -0.174,0.132 -0.325,0.132 -0.127,0 -0.24,-0.047 -0.338,-0.141 -0.098,-0.094 -0.147,-0.199 -0.147,-0.318 0,-0.068 0.011,-0.139 0.034,-0.211 0.023,-0.073 0.061,-0.175 0.113,-0.305 l 1.282,-3.254 c 0.037,-0.094 0.081,-0.206 0.131,-0.337 0.052,-0.131 0.106,-0.239 0.164,-0.326 0.059,-0.087 0.135,-0.156 0.229,-0.21 0.094,-0.054 0.211,-0.08 0.35,-0.08 0.141,0 0.259,0.026 0.354,0.08 0.094,0.054 0.171,0.122 0.229,0.207 0.059,0.084 0.107,0.175 0.147,0.271 0.04,0.097 0.09,0.226 0.152,0.388 l 1.309,3.233 c 0.103,0.246 0.154,0.425 0.154,0.537 0,0.115 -0.048,0.223 -0.145,0.319 -0.097,0.097 -0.214,0.146 -0.351,0.146 -0.08,0 -0.148,-0.015 -0.205,-0.043 -0.057,-0.028 -0.105,-0.067 -0.144,-0.116 -0.039,-0.049 -0.08,-0.124 -0.125,-0.226 -0.044,-0.101 -0.083,-0.191 -0.114,-0.268 z m -2.01,-1.392 h 1.497 l -0.755,-2.067 z"
   id="path6" />
			<path
   fill="#004e59"
   d="m 31.713,42.796 h -0.355 v 1.609 c 0,0.212 -0.047,0.368 -0.14,0.469 -0.093,0.1 -0.215,0.15 -0.366,0.15 -0.162,0 -0.287,-0.053 -0.376,-0.158 -0.089,-0.104 -0.133,-0.258 -0.133,-0.461 V 40.55 c 0,-0.219 0.049,-0.377 0.147,-0.475 0.098,-0.099 0.256,-0.147 0.475,-0.147 h 1.651 c 0.228,0 0.423,0.01 0.584,0.029 0.161,0.019 0.308,0.059 0.438,0.118 0.157,0.065 0.296,0.16 0.417,0.283 0.121,0.123 0.212,0.266 0.275,0.429 0.062,0.163 0.094,0.336 0.094,0.519 0,0.373 -0.105,0.672 -0.316,0.895 -0.21,0.224 -0.53,0.382 -0.958,0.476 0.18,0.096 0.352,0.237 0.516,0.424 0.164,0.187 0.311,0.386 0.439,0.597 0.128,0.211 0.229,0.4 0.301,0.57 0.071,0.17 0.107,0.287 0.107,0.351 0,0.066 -0.021,0.132 -0.063,0.196 -0.042,0.065 -0.1,0.116 -0.172,0.154 -0.073,0.037 -0.157,0.057 -0.253,0.057 -0.114,0 -0.209,-0.027 -0.287,-0.081 -0.078,-0.054 -0.144,-0.121 -0.2,-0.203 C 33.482,44.66 33.406,44.539 33.31,44.38 l -0.407,-0.677 c -0.146,-0.248 -0.276,-0.438 -0.391,-0.567 -0.115,-0.13 -0.232,-0.219 -0.351,-0.267 -0.119,-0.048 -0.268,-0.073 -0.448,-0.073 z m 0.581,-2.105 h -0.937 v 1.377 h 0.909 c 0.244,0 0.449,-0.021 0.615,-0.063 0.166,-0.042 0.293,-0.113 0.381,-0.215 0.087,-0.102 0.131,-0.241 0.131,-0.419 0,-0.139 -0.035,-0.262 -0.106,-0.367 -0.071,-0.106 -0.168,-0.186 -0.294,-0.238 -0.117,-0.051 -0.35,-0.075 -0.699,-0.075 z"
   id="path8" />
			<path
   fill="#004e59"
   d="m 38.289,40.765 h -1.107 v 3.641 c 0,0.21 -0.047,0.365 -0.14,0.467 -0.093,0.102 -0.214,0.152 -0.362,0.152 -0.15,0 -0.273,-0.052 -0.368,-0.154 -0.094,-0.103 -0.142,-0.258 -0.142,-0.465 v -3.641 h -1.107 c -0.173,0 -0.302,-0.038 -0.386,-0.114 -0.084,-0.076 -0.126,-0.177 -0.126,-0.302 0,-0.131 0.044,-0.232 0.132,-0.309 0.087,-0.074 0.214,-0.112 0.381,-0.112 h 3.227 c 0.175,0 0.306,0.039 0.392,0.116 0.085,0.077 0.128,0.179 0.128,0.305 0,0.125 -0.043,0.226 -0.13,0.302 -0.087,0.076 -0.219,0.114 -0.392,0.114 z"
   id="path10" />
			<path
   fill="#004e59"
   d="m 40.432,40.458 v 1.436 h 2.191 v -1.436 c 0,-0.205 0.046,-0.359 0.139,-0.462 0.092,-0.103 0.213,-0.153 0.364,-0.153 0.153,0 0.276,0.05 0.371,0.151 0.095,0.102 0.142,0.256 0.142,0.464 v 3.947 c 0,0.207 -0.048,0.362 -0.144,0.465 -0.096,0.103 -0.219,0.154 -0.369,0.154 -0.153,0 -0.274,-0.053 -0.366,-0.156 -0.092,-0.103 -0.137,-0.258 -0.137,-0.463 V 42.72 h -2.191 v 1.686 c 0,0.207 -0.048,0.362 -0.144,0.465 -0.096,0.103 -0.219,0.154 -0.369,0.154 -0.153,0 -0.274,-0.053 -0.366,-0.156 -0.092,-0.103 -0.137,-0.258 -0.137,-0.463 v -3.947 c 0,-0.205 0.045,-0.359 0.135,-0.462 0.09,-0.103 0.213,-0.153 0.368,-0.153 0.153,0 0.276,0.05 0.371,0.151 0.095,0.101 0.142,0.255 0.142,0.463 z"
   id="path12" />
			<path
   fill="#004e59"
   d="m 47.015,40.992 c 0,-0.213 0.055,-0.405 0.166,-0.58 0.111,-0.174 0.273,-0.312 0.487,-0.415 0.214,-0.103 0.466,-0.153 0.755,-0.153 0.287,0 0.536,0.053 0.745,0.16 0.209,0.107 0.366,0.247 0.47,0.42 0.104,0.174 0.155,0.354 0.155,0.541 0,0.255 -0.084,0.477 -0.253,0.666 -0.169,0.189 -0.417,0.382 -0.745,0.578 0.114,0.134 0.22,0.261 0.318,0.379 0.098,0.118 0.192,0.229 0.284,0.332 0.091,0.102 0.174,0.189 0.25,0.263 0.034,-0.063 0.087,-0.184 0.159,-0.358 0.072,-0.176 0.139,-0.303 0.202,-0.38 0.062,-0.077 0.151,-0.116 0.265,-0.116 0.107,0 0.202,0.038 0.284,0.114 0.082,0.076 0.123,0.169 0.123,0.278 0,0.101 -0.035,0.242 -0.106,0.426 -0.071,0.184 -0.173,0.387 -0.308,0.61 0.084,0.073 0.218,0.184 0.401,0.331 0.184,0.148 0.296,0.249 0.339,0.303 0.042,0.054 0.063,0.125 0.063,0.214 0,0.118 -0.042,0.218 -0.128,0.299 -0.085,0.081 -0.18,0.122 -0.285,0.122 -0.107,0 -0.211,-0.035 -0.311,-0.104 -0.1,-0.069 -0.313,-0.235 -0.639,-0.502 -0.148,0.139 -0.301,0.253 -0.46,0.342 -0.158,0.089 -0.328,0.155 -0.509,0.198 -0.182,0.043 -0.384,0.065 -0.607,0.065 -0.285,0 -0.541,-0.042 -0.767,-0.125 -0.227,-0.083 -0.416,-0.195 -0.566,-0.337 -0.15,-0.142 -0.262,-0.298 -0.335,-0.47 -0.073,-0.172 -0.109,-0.348 -0.109,-0.525 0,-0.17 0.027,-0.327 0.082,-0.47 0.055,-0.143 0.131,-0.271 0.231,-0.386 0.099,-0.115 0.221,-0.225 0.365,-0.328 0.145,-0.104 0.313,-0.205 0.504,-0.303 -0.171,-0.214 -0.3,-0.405 -0.388,-0.572 -0.088,-0.168 -0.132,-0.34 -0.132,-0.517 z m 0.967,1.636 c -0.232,0.135 -0.406,0.269 -0.521,0.403 -0.115,0.135 -0.172,0.294 -0.172,0.479 0,0.104 0.021,0.205 0.063,0.301 0.042,0.096 0.104,0.185 0.185,0.267 0.081,0.082 0.175,0.145 0.282,0.188 0.107,0.044 0.22,0.065 0.338,0.065 0.116,0 0.229,-0.019 0.338,-0.055 0.109,-0.036 0.213,-0.088 0.311,-0.155 0.098,-0.067 0.199,-0.151 0.304,-0.252 -0.203,-0.187 -0.385,-0.371 -0.547,-0.555 -0.162,-0.184 -0.355,-0.412 -0.581,-0.686 z m 0.349,-0.936 c 0.232,-0.148 0.4,-0.272 0.504,-0.374 0.104,-0.102 0.156,-0.225 0.156,-0.367 0,-0.142 -0.052,-0.26 -0.156,-0.355 -0.104,-0.096 -0.234,-0.145 -0.391,-0.145 -0.157,0 -0.289,0.05 -0.395,0.147 -0.105,0.098 -0.159,0.213 -0.159,0.345 0,0.068 0.02,0.143 0.06,0.221 0.04,0.079 0.089,0.157 0.148,0.234 0.059,0.077 0.137,0.176 0.233,0.294 z"
   id="path14" />
			<path
   fill="#004e59"
   d="M 8.57,47.71 H 6.283 v 1.23 h 2.105 c 0.155,0 0.271,0.035 0.347,0.104 0.076,0.069 0.114,0.161 0.114,0.275 0,0.114 -0.038,0.207 -0.113,0.278 -0.075,0.072 -0.191,0.107 -0.349,0.107 H 6.283 v 1.426 h 2.365 c 0.16,0 0.28,0.037 0.361,0.111 0.081,0.074 0.121,0.172 0.121,0.295 0,0.119 -0.041,0.215 -0.121,0.289 -0.081,0.074 -0.201,0.111 -0.361,0.111 H 5.89 C 5.669,51.936 5.51,51.887 5.413,51.79 5.316,51.691 5.267,51.533 5.267,51.314 V 47.55 c 0,-0.146 0.021,-0.265 0.065,-0.357 0.043,-0.092 0.111,-0.159 0.204,-0.201 0.092,-0.042 0.21,-0.063 0.354,-0.063 h 2.68 c 0.162,0 0.282,0.036 0.36,0.107 0.079,0.072 0.118,0.166 0.118,0.282 0,0.118 -0.039,0.214 -0.118,0.285 -0.078,0.072 -0.199,0.107 -0.36,0.107 z"
   id="path16" />
			<path
   fill="#004e59"
   d="m 11.26,47.451 1.952,2.953 v -2.98 c 0,-0.193 0.042,-0.339 0.125,-0.436 0.083,-0.097 0.195,-0.145 0.336,-0.145 0.146,0 0.261,0.048 0.345,0.145 0.084,0.097 0.126,0.242 0.126,0.436 v 3.941 c 0,0.439 -0.182,0.66 -0.547,0.66 -0.091,0 -0.173,-0.014 -0.246,-0.04 -0.073,-0.026 -0.141,-0.067 -0.205,-0.124 -0.064,-0.058 -0.123,-0.124 -0.178,-0.2 -0.055,-0.076 -0.109,-0.154 -0.164,-0.234 L 10.9,48.508 v 2.936 c 0,0.191 -0.044,0.337 -0.133,0.435 -0.089,0.098 -0.203,0.147 -0.342,0.147 -0.144,0 -0.259,-0.05 -0.345,-0.149 C 9.994,51.778 9.95,51.634 9.95,51.444 v -3.865 c 0,-0.164 0.018,-0.293 0.055,-0.387 0.043,-0.102 0.115,-0.186 0.215,-0.251 0.1,-0.064 0.208,-0.097 0.325,-0.097 0.091,0 0.169,0.015 0.234,0.044 0.064,0.029 0.122,0.069 0.171,0.12 0.049,0.05 0.099,0.114 0.15,0.194 0.052,0.08 0.105,0.163 0.16,0.249 z"
   id="path18" />
			<path
   fill="#004e59"
   d="m 15.997,47.509 1.135,3.359 1.138,-3.383 c 0.059,-0.178 0.104,-0.302 0.133,-0.371 0.029,-0.069 0.079,-0.133 0.147,-0.188 0.068,-0.055 0.162,-0.083 0.28,-0.083 0.086,0 0.167,0.021 0.241,0.064 0.074,0.043 0.132,0.101 0.174,0.173 0.042,0.071 0.063,0.144 0.063,0.217 0,0.05 -0.007,0.104 -0.021,0.162 -0.014,0.059 -0.031,0.115 -0.051,0.171 -0.02,0.056 -0.041,0.113 -0.062,0.173 l -1.213,3.274 c -0.043,0.125 -0.086,0.244 -0.13,0.357 -0.043,0.112 -0.093,0.212 -0.15,0.297 -0.057,0.086 -0.133,0.156 -0.228,0.211 -0.094,0.055 -0.21,0.082 -0.347,0.082 -0.137,0 -0.252,-0.027 -0.347,-0.081 -0.095,-0.054 -0.171,-0.124 -0.229,-0.212 -0.058,-0.088 -0.108,-0.188 -0.152,-0.299 -0.044,-0.111 -0.086,-0.23 -0.13,-0.355 L 15.055,47.83 c -0.021,-0.06 -0.042,-0.117 -0.063,-0.175 -0.021,-0.057 -0.04,-0.118 -0.055,-0.184 -0.015,-0.066 -0.022,-0.122 -0.022,-0.168 0,-0.116 0.047,-0.223 0.14,-0.318 0.093,-0.095 0.211,-0.143 0.352,-0.143 0.173,0 0.295,0.053 0.368,0.158 0.073,0.108 0.147,0.277 0.222,0.509 z"
   id="path20" />
			<path
   fill="#004e59"
   d="m 20.112,51.406 v -3.947 c 0,-0.205 0.047,-0.359 0.14,-0.462 0.093,-0.103 0.214,-0.153 0.362,-0.153 0.153,0 0.276,0.05 0.371,0.151 0.095,0.102 0.142,0.256 0.142,0.464 v 3.947 c 0,0.207 -0.047,0.362 -0.142,0.465 -0.094,0.103 -0.218,0.154 -0.371,0.154 -0.146,0 -0.266,-0.053 -0.361,-0.156 -0.093,-0.104 -0.141,-0.258 -0.141,-0.463 z"
   id="path22" />
			<path
   fill="#004e59"
   d="m 23.626,49.796 h -0.355 v 1.609 c 0,0.212 -0.047,0.368 -0.14,0.469 -0.093,0.1 -0.215,0.15 -0.366,0.15 -0.162,0 -0.287,-0.053 -0.376,-0.158 C 22.3,51.762 22.256,51.608 22.256,51.405 V 47.55 c 0,-0.219 0.049,-0.377 0.147,-0.475 0.098,-0.099 0.256,-0.147 0.475,-0.147 h 1.651 c 0.228,0 0.423,0.01 0.584,0.029 0.161,0.019 0.308,0.059 0.438,0.118 0.157,0.065 0.296,0.16 0.417,0.283 0.121,0.123 0.212,0.266 0.275,0.429 0.062,0.163 0.094,0.336 0.094,0.519 0,0.373 -0.105,0.672 -0.316,0.895 -0.21,0.224 -0.53,0.382 -0.958,0.476 0.18,0.096 0.352,0.237 0.516,0.424 0.164,0.187 0.311,0.386 0.439,0.597 0.128,0.211 0.229,0.4 0.301,0.57 0.071,0.17 0.107,0.287 0.107,0.351 0,0.066 -0.021,0.132 -0.063,0.196 -0.042,0.065 -0.1,0.116 -0.172,0.154 -0.073,0.037 -0.157,0.057 -0.253,0.057 -0.114,0 -0.209,-0.027 -0.287,-0.081 -0.078,-0.054 -0.144,-0.121 -0.2,-0.203 C 25.395,51.66 25.319,51.539 25.223,51.38 L 24.816,50.703 C 24.67,50.455 24.54,50.265 24.425,50.136 24.31,50.006 24.193,49.917 24.074,49.869 23.955,49.821 23.806,49.796 23.626,49.796 Z m 0.581,-2.105 H 23.27 v 1.377 h 0.909 c 0.244,0 0.449,-0.021 0.615,-0.063 0.166,-0.042 0.293,-0.113 0.381,-0.215 0.087,-0.102 0.131,-0.241 0.131,-0.419 0,-0.139 -0.035,-0.262 -0.106,-0.367 -0.071,-0.106 -0.168,-0.186 -0.294,-0.238 -0.117,-0.051 -0.35,-0.075 -0.699,-0.075 z"
   id="path24" />
			<path
   fill="#004e59"
   d="m 29.501,46.843 c 0.52,0 0.965,0.104 1.338,0.315 0.372,0.211 0.654,0.511 0.846,0.899 0.192,0.388 0.287,0.845 0.287,1.369 0,0.387 -0.052,0.739 -0.157,1.056 -0.105,0.317 -0.262,0.591 -0.472,0.823 -0.21,0.232 -0.467,0.41 -0.772,0.533 -0.305,0.123 -0.655,0.186 -1.049,0.186 -0.392,0 -0.743,-0.063 -1.053,-0.19 -0.31,-0.126 -0.568,-0.305 -0.776,-0.534 -0.208,-0.23 -0.364,-0.508 -0.47,-0.831 -0.106,-0.323 -0.159,-0.673 -0.159,-1.05 0,-0.385 0.055,-0.738 0.166,-1.059 0.11,-0.322 0.271,-0.596 0.48,-0.82 0.209,-0.227 0.465,-0.398 0.766,-0.519 0.301,-0.118 0.643,-0.178 1.025,-0.178 z m 1.443,2.576 c 0,-0.366 -0.059,-0.685 -0.178,-0.953 -0.119,-0.268 -0.288,-0.473 -0.507,-0.61 -0.22,-0.138 -0.473,-0.206 -0.757,-0.206 -0.203,0 -0.39,0.038 -0.562,0.114 -0.172,0.076 -0.32,0.188 -0.444,0.333 -0.125,0.146 -0.223,0.332 -0.294,0.559 -0.072,0.227 -0.108,0.481 -0.108,0.764 0,0.285 0.036,0.543 0.108,0.773 0.071,0.229 0.173,0.421 0.304,0.572 0.131,0.151 0.282,0.265 0.451,0.34 0.17,0.075 0.356,0.113 0.559,0.113 0.26,0 0.499,-0.065 0.716,-0.195 0.217,-0.13 0.391,-0.33 0.52,-0.602 0.127,-0.271 0.192,-0.605 0.192,-1.002 z"
   id="path26" />
			<path
   fill="#004e59"
   d="m 34.164,47.451 1.952,2.953 v -2.98 c 0,-0.193 0.042,-0.339 0.125,-0.436 0.083,-0.097 0.195,-0.145 0.336,-0.145 0.146,0 0.261,0.048 0.345,0.145 0.084,0.097 0.126,0.242 0.126,0.436 v 3.941 c 0,0.439 -0.182,0.66 -0.547,0.66 -0.091,0 -0.173,-0.014 -0.246,-0.04 -0.073,-0.026 -0.141,-0.067 -0.205,-0.124 -0.064,-0.058 -0.123,-0.124 -0.178,-0.2 -0.055,-0.076 -0.109,-0.154 -0.164,-0.234 l -1.904,-2.919 v 2.936 c 0,0.191 -0.044,0.337 -0.133,0.435 -0.089,0.098 -0.203,0.147 -0.342,0.147 -0.144,0 -0.259,-0.05 -0.345,-0.149 -0.086,-0.099 -0.13,-0.243 -0.13,-0.433 v -3.865 c 0,-0.164 0.018,-0.293 0.055,-0.387 0.043,-0.102 0.115,-0.186 0.215,-0.251 0.1,-0.064 0.208,-0.097 0.325,-0.097 0.091,0 0.169,0.015 0.234,0.044 0.064,0.029 0.122,0.069 0.171,0.12 0.049,0.05 0.099,0.114 0.15,0.194 0.052,0.08 0.105,0.163 0.16,0.249 z"
   id="path28" />
			<path
   fill="#004e59"
   d="m 39.851,51.183 -0.803,-3.191 v 3.459 c 0,0.191 -0.043,0.334 -0.128,0.43 -0.086,0.096 -0.199,0.145 -0.34,0.145 -0.137,0 -0.249,-0.048 -0.335,-0.143 -0.086,-0.095 -0.13,-0.238 -0.13,-0.432 v -3.965 c 0,-0.219 0.057,-0.367 0.171,-0.443 0.114,-0.076 0.268,-0.114 0.461,-0.114 h 0.314 c 0.189,0 0.326,0.017 0.412,0.052 0.085,0.033 0.148,0.096 0.189,0.184 0.041,0.09 0.088,0.234 0.14,0.435 l 0.728,2.745 0.728,-2.745 c 0.052,-0.2 0.099,-0.345 0.14,-0.435 0.041,-0.088 0.104,-0.15 0.189,-0.184 0.086,-0.035 0.223,-0.052 0.412,-0.052 h 0.314 c 0.194,0 0.348,0.038 0.461,0.114 0.113,0.076 0.171,0.225 0.171,0.443 v 3.965 c 0,0.191 -0.042,0.334 -0.128,0.43 -0.085,0.096 -0.2,0.145 -0.343,0.145 -0.134,0 -0.245,-0.049 -0.332,-0.145 -0.087,-0.096 -0.13,-0.238 -0.13,-0.43 v -3.459 l -0.803,3.191 c -0.052,0.208 -0.095,0.36 -0.128,0.457 -0.033,0.097 -0.094,0.185 -0.183,0.265 -0.089,0.08 -0.212,0.12 -0.369,0.12 -0.119,0 -0.219,-0.026 -0.301,-0.077 -0.082,-0.052 -0.146,-0.117 -0.191,-0.196 -0.045,-0.08 -0.082,-0.169 -0.107,-0.266 -0.025,-0.097 -0.052,-0.197 -0.079,-0.303 z"
   id="path30" />
			<path
   fill="#004e59"
   d="m 47.292,47.71 h -2.287 v 1.23 h 2.105 c 0.155,0 0.271,0.035 0.347,0.104 0.076,0.069 0.114,0.161 0.114,0.275 0,0.114 -0.038,0.207 -0.113,0.278 -0.075,0.072 -0.191,0.107 -0.349,0.107 h -2.105 v 1.426 h 2.365 c 0.16,0 0.28,0.037 0.361,0.111 0.081,0.074 0.121,0.172 0.121,0.295 0,0.119 -0.041,0.215 -0.121,0.289 -0.081,0.074 -0.201,0.111 -0.361,0.111 h -2.758 c -0.221,0 -0.38,-0.049 -0.477,-0.146 -0.097,-0.099 -0.146,-0.257 -0.146,-0.476 V 47.55 c 0,-0.146 0.021,-0.265 0.065,-0.357 0.043,-0.092 0.111,-0.159 0.204,-0.201 0.092,-0.042 0.21,-0.063 0.354,-0.063 h 2.68 c 0.162,0 0.282,0.036 0.36,0.107 0.079,0.072 0.118,0.166 0.118,0.282 0,0.118 -0.039,0.214 -0.118,0.285 -0.077,0.072 -0.197,0.107 -0.359,0.107 z"
   id="path32" />
			<path
   fill="#004e59"
   d="m 49.982,47.451 1.952,2.953 v -2.98 c 0,-0.193 0.042,-0.339 0.125,-0.436 0.083,-0.097 0.195,-0.145 0.336,-0.145 0.146,0 0.261,0.048 0.345,0.145 0.084,0.097 0.126,0.242 0.126,0.436 v 3.941 c 0,0.439 -0.182,0.66 -0.547,0.66 -0.091,0 -0.173,-0.014 -0.246,-0.04 C 52,51.959 51.932,51.918 51.868,51.861 51.804,51.803 51.745,51.737 51.69,51.661 51.635,51.585 51.581,51.507 51.526,51.427 l -1.904,-2.919 v 2.936 c 0,0.191 -0.044,0.337 -0.133,0.435 -0.089,0.098 -0.203,0.147 -0.342,0.147 -0.144,0 -0.259,-0.05 -0.345,-0.149 -0.086,-0.099 -0.13,-0.243 -0.13,-0.433 v -3.865 c 0,-0.164 0.018,-0.293 0.055,-0.387 0.043,-0.102 0.115,-0.186 0.215,-0.251 0.1,-0.064 0.208,-0.097 0.325,-0.097 0.091,0 0.169,0.015 0.234,0.044 0.064,0.029 0.122,0.069 0.171,0.12 0.049,0.05 0.099,0.114 0.15,0.194 0.052,0.08 0.105,0.163 0.16,0.249 z"
   id="path34" />
			<path
   fill="#004e59"
   d="m 57.231,47.765 h -1.107 v 3.641 c 0,0.21 -0.047,0.365 -0.14,0.467 -0.093,0.102 -0.214,0.152 -0.362,0.152 -0.15,0 -0.273,-0.052 -0.368,-0.154 -0.094,-0.103 -0.142,-0.258 -0.142,-0.465 v -3.641 h -1.107 c -0.173,0 -0.302,-0.038 -0.386,-0.114 -0.084,-0.076 -0.126,-0.177 -0.126,-0.302 0,-0.131 0.044,-0.232 0.132,-0.309 0.087,-0.074 0.214,-0.112 0.381,-0.112 h 3.227 c 0.175,0 0.306,0.039 0.392,0.116 0.085,0.077 0.128,0.179 0.128,0.305 0,0.125 -0.043,0.226 -0.13,0.302 -0.087,0.076 -0.218,0.114 -0.392,0.114 z"
   id="path36" />
			<path
   fill="#004e59"
   d="m 61.118,51.372 -0.239,-0.629 h -2.037 l -0.239,0.643 c -0.093,0.251 -0.173,0.42 -0.239,0.508 -0.066,0.088 -0.174,0.132 -0.325,0.132 -0.127,0 -0.24,-0.047 -0.338,-0.141 -0.098,-0.094 -0.147,-0.199 -0.147,-0.318 0,-0.068 0.011,-0.139 0.034,-0.211 0.023,-0.073 0.061,-0.175 0.113,-0.305 l 1.282,-3.254 c 0.037,-0.094 0.081,-0.206 0.131,-0.337 0.052,-0.131 0.106,-0.239 0.164,-0.326 0.059,-0.087 0.135,-0.156 0.229,-0.21 0.094,-0.054 0.211,-0.08 0.35,-0.08 0.141,0 0.259,0.026 0.354,0.08 0.094,0.054 0.171,0.122 0.229,0.207 0.059,0.084 0.107,0.175 0.147,0.271 0.04,0.097 0.09,0.226 0.152,0.388 l 1.309,3.233 c 0.103,0.246 0.154,0.425 0.154,0.537 0,0.115 -0.048,0.223 -0.145,0.319 -0.097,0.097 -0.214,0.146 -0.351,0.146 -0.08,0 -0.148,-0.015 -0.205,-0.043 -0.057,-0.028 -0.105,-0.067 -0.144,-0.116 -0.039,-0.049 -0.08,-0.124 -0.125,-0.226 -0.044,-0.101 -0.083,-0.191 -0.114,-0.268 z m -2.01,-1.392 h 1.497 L 59.85,47.913 Z"
   id="path38" />
			<path
   fill="#004e59"
   d="m 63.941,47.458 v 3.646 h 2.058 c 0.164,0 0.29,0.04 0.377,0.119 0.088,0.08 0.132,0.181 0.132,0.301 0,0.123 -0.043,0.224 -0.13,0.3 -0.087,0.076 -0.213,0.114 -0.379,0.114 h -2.451 c -0.221,0 -0.38,-0.049 -0.477,-0.146 -0.097,-0.099 -0.146,-0.257 -0.146,-0.476 v -3.858 c 0,-0.205 0.046,-0.359 0.139,-0.462 0.092,-0.103 0.213,-0.153 0.364,-0.153 0.153,0 0.276,0.05 0.371,0.151 0.095,0.102 0.142,0.256 0.142,0.464 z"
   id="path40" />
		</g>
	</g>
	<path
   fill="#ffffff"
   stroke="#ffffff"
   stroke-width="0.1486"
   stroke-miterlimit="10"
   d="m 39.599,15.281 c -0.004,-0.08 0.6,-0.444 0.626,-0.544 0.029,-0.111 -0.659,-0.31 -0.671,-0.395 -0.012,-0.088 0.688,-0.445 0.655,-0.593 -0.036,-0.161 -0.777,-0.028 -0.807,-0.165 -0.026,-0.118 0.407,-0.448 0.375,-0.564 -0.026,-0.092 -0.522,-0.012 -0.552,-0.1 -0.044,-0.13 0.286,-0.586 0.231,-0.703 -0.042,-0.088 -0.516,0.003 -0.564,-0.074 -0.143,-0.228 0.057,-0.53 -0.091,-0.708 -0.092,-0.111 -0.481,0.044 -0.576,-0.05 -0.098,-0.097 -0.04,-0.494 -0.141,-0.576 -0.148,-0.119 -0.457,0.085 -0.614,-0.006 -0.116,-0.067 -0.128,-0.433 -0.251,-0.488 -0.116,-0.052 -0.36,0.207 -0.504,0.164 -0.43,-0.128 -0.917,-0.23 -1.053,-0.403 -0.181,-0.231 -0.543,-0.988 -0.725,-0.988 -0.148,0 -0.247,0.296 -0.346,0.609 -0.08,0.254 -0.181,0.511 -0.363,0.642 -0.181,0.132 -0.972,0.379 -1.252,0.675 -0.28,0.296 -0.478,0.115 -0.857,1.153 0,0 -0.494,0.675 -1.17,1.137 -0.675,0.461 -0.692,0.494 -0.988,0.626 -0.296,0.132 -0.774,0.115 -1.021,0.099 -0.247,-0.016 -0.577,-0.066 0.231,0.659 0,0 0.478,0.577 0.774,0.198 0.296,-0.379 1.087,-0.807 1.367,-0.955 0.28,-0.148 1.038,-0.379 1.746,-0.099 0.543,0.215 0.972,0.445 1.482,0.362 0.511,-0.082 0.955,-0.494 1.104,-0.659 0.148,-0.165 0.4,-0.062 0.478,0.016 0.115,0.115 0.543,0.84 0.132,1.384 -0.412,0.544 -1.499,1.618 -2.009,2.652 -0.593,1.202 -0.692,3.789 -0.016,5.139 0.675,1.351 1.351,2.108 1.894,3.097 0.487,0.885 0.889,2.257 1.005,3.212 0.095,0.785 0.165,2.619 -0.56,4.102 -0.301,0.616 -1.038,0.955 -1.73,0.725 -0.692,-0.231 -0.955,-0.906 -0.955,-1.235 0,-0.329 0.033,-0.675 0.428,-0.939 0.258,-0.172 0.577,-0.231 0.906,-0.115 0.329,0.115 0.461,0.445 0.428,0.708 -0.039,0.312 -0.181,0.609 -0.609,0.544 -0.428,-0.065 -0.451,-0.373 -0.329,-0.494 0.132,-0.132 0.264,-0.049 0.395,0.033 0.132,0.082 0.286,-0.209 0.066,-0.362 -0.165,-0.115 -0.584,-0.169 -0.774,0.148 -0.148,0.247 -0.104,0.519 0,0.741 0.115,0.247 0.428,0.379 0.791,0.362 0.363,-0.017 0.758,-0.313 0.889,-0.741 0.098,-0.319 0.082,-1.054 -0.494,-1.351 -0.585,-0.301 -1.313,-0.193 -1.763,0.181 -0.468,0.389 -0.755,1.047 -0.445,1.944 0.292,0.842 0.955,1.351 1.614,1.4 0.659,0.049 1.911,-0.132 2.504,-1.367 0.204,-0.424 0.423,-1.181 0.57,-2.014 0.042,-0.236 0.078,-0.478 0.106,-0.721 0.024,-0.206 0.042,-0.412 0.053,-0.614 0.01,-0.183 0.015,-0.364 0.013,-0.539 -0.005,-0.457 -0.037,-0.992 -0.084,-1.547 -0.043,-0.515 -0.065,-1.08 -0.159,-1.547 -0.01,-0.052 -0.024,-0.105 -0.039,-0.157 -0.084,-0.297 -0.213,-0.598 -0.085,-0.817 0.201,-0.346 -0.062,-0.482 -0.112,-0.668 -0.074,-0.28 -0.247,-1.046 -0.016,-1.326 0.231,-0.28 0.702,-0.349 1.013,-0.082 0.692,0.593 1.565,1.211 1.211,0.272 -0.171,-0.452 0.139,-0.52 -0.025,-1.038 -0.148,-0.469 0.261,-0.658 0.148,-1.062 -0.124,-0.445 0.312,-0.546 0.216,-0.859 -0.068,-0.222 0.204,-0.327 0.352,-0.5 0.77,-0.898 -0.305,-0.675 -1.013,-0.148 -0.708,0.527 -1.097,1 -1.441,0.618 -0.222,-0.247 -0.006,-0.476 0.214,-0.741 0.073,-0.089 0.161,-0.156 0.214,-0.264 0.066,-0.132 -0.026,-0.246 0.033,-0.379 0.065,-0.148 0.321,-0.112 0.379,-0.296 0.026,-0.081 -0.144,-0.25 -0.115,-0.329 0.028,-0.078 0.781,0.011 0.807,-0.066 0.024,-0.072 -0.566,-0.555 -0.544,-0.626 0.026,-0.083 -0.04,0.048 -0.016,-0.033 0.032,-0.111 0.812,-0.189 0.84,-0.296 0.024,-0.092 -0.614,-0.505 -0.593,-0.593 0.027,-0.114 -0.039,0.058 -0.016,-0.049 0.018,-0.085 0.656,-0.188 0.671,-0.268 0.02,-0.107 -0.539,-0.442 -0.523,-0.539 0.017,-0.107 0.691,-0.245 0.708,-0.399 0.017,-0.147 -0.655,-0.353 -0.658,-0.411 z"
   id="path46" />
	<circle
   fill="#ffffff"
   stroke="#ffffff"
   stroke-width="0.1486"
   stroke-miterlimit="10"
   cx="37.951"
   cy="26.195999"
   r="0.132"
   id="circle48" />
	<circle
   fill="#ffffff"
   stroke="#ffffff"
   stroke-width="0.1486"
   stroke-miterlimit="10"
   cx="37.872002"
   cy="25.700001"
   r="0.132"
   id="circle50" />
	<circle
   fill="#ffffff"
   stroke="#ffffff"
   stroke-width="0.1486"
   stroke-miterlimit="10"
   cx="38.054001"
   cy="26.68"
   r="0.132"
   id="circle52" />
	<circle
   fill="#ffffff"
   stroke="#ffffff"
   stroke-width="0.1486"
   stroke-miterlimit="10"
   cx="38.112999"
   cy="27.195"
   r="0.132"
   id="circle54" />
	<circle
   fill="#ffffff"
   stroke="#ffffff"
   stroke-width="0.1486"
   stroke-miterlimit="10"
   cx="38.174"
   cy="27.709"
   r="0.132"
   id="circle56" />
	<circle
   fill="#ffffff"
   stroke="#ffffff"
   stroke-width="0.1486"
   stroke-miterlimit="10"
   cx="38.215"
   cy="28.195"
   r="0.132"
   id="circle58" />
	<circle
   fill="#ffffff"
   stroke="#ffffff"
   stroke-width="0.1486"
   stroke-miterlimit="10"
   cx="38.242001"
   cy="28.719"
   r="0.132"
   id="circle60" />
	<circle
   fill="#ffffff"
   stroke="#ffffff"
   stroke-width="0.1486"
   stroke-miterlimit="10"
   cx="38.275002"
   cy="29.229"
   r="0.132"
   id="circle62" />
	<circle
   fill="#ffffff"
   stroke="#ffffff"
   stroke-width="0.1486"
   stroke-miterlimit="10"
   cx="38.278"
   cy="29.712999"
   r="0.132"
   id="circle64" />
	<circle
   fill="#ffffff"
   stroke="#ffffff"
   stroke-width="0.1486"
   stroke-miterlimit="10"
   cx="38.237"
   cy="30.237"
   r="0.132"
   id="circle66" />
	<circle
   fill="#ffffff"
   stroke="#ffffff"
   stroke-width="0.1486"
   stroke-miterlimit="10"
   cx="38.195999"
   cy="30.747999"
   r="0.132"
   id="circle68" />
	<circle
   fill="#ffffff"
   stroke="#ffffff"
   stroke-width="0.1486"
   stroke-miterlimit="10"
   cx="38.130001"
   cy="31.25"
   r="0.132"
   id="circle70" />
	<circle
   fill="#ffffff"
   stroke="#ffffff"
   stroke-width="0.1486"
   stroke-miterlimit="10"
   cx="38.014999"
   cy="31.761"
   r="0.132"
   id="circle72" />
	<circle
   fill="#ffffff"
   stroke="#ffffff"
   stroke-width="0.1486"
   stroke-miterlimit="10"
   cx="37.884998"
   cy="32.272999"
   r="0.132"
   id="circle74" />
	<circle
   fill="#ffffff"
   stroke="#ffffff"
   stroke-width="0.1486"
   stroke-miterlimit="10"
   cx="37.716"
   cy="32.833"
   r="0.132"
   id="circle76" />
	<circle
   fill="#ffffff"
   stroke="#ffffff"
   stroke-width="0.1486"
   stroke-miterlimit="10"
   cx="37.486"
   cy="33.348"
   r="0.132"
   id="circle78" />
	<circle
   fill="#ffffff"
   stroke="#ffffff"
   stroke-width="0.1486"
   stroke-miterlimit="10"
   cx="37.164001"
   cy="33.776001"
   r="0.132"
   id="circle80" />
</g><g
     id="Layer_2"
     transform="translate(-0.271,-0.032)">
	<g
   id="g83">
	</g>
	<g
   id="g85">
	</g>
	<g
   id="g87">
	</g>
	<g
   id="g89">
	</g>
	<g
   id="g91">
	</g>
	<g
   id="g93">
	</g>
</g></g>
</svg>
