<?xml version="1.0" encoding="UTF-8" standalone="no"?>
<!-- Generator: Adobe Illustrator 25.4.1, SVG Export Plug-In . SVG Version: 6.00 Build 0)  -->

<svg
   xmlns:dc="http://purl.org/dc/elements/1.1/"
   xmlns:cc="http://creativecommons.org/ns#"
   xmlns:rdf="http://www.w3.org/1999/02/22-rdf-syntax-ns#"
   xmlns:svg="http://www.w3.org/2000/svg"
   xmlns="http://www.w3.org/2000/svg"
   xmlns:sodipodi="http://sodipodi.sourceforge.net/DTD/sodipodi-0.dtd"
   xmlns:inkscape="http://www.inkscape.org/namespaces/inkscape"
   version="1.1"
   id="Layer_1"
   x="0px"
   y="0px"
   viewBox="0 0 84.667 85.04"
   enable-background="new 0 0 84.667 85.04"
   xml:space="preserve"
   sodipodi:docname="Forensics_Year_10.svg"
   inkscape:version="0.92.4 (5da689c313, 2019-01-14)"><metadata
   id="metadata193"><rdf:RDF><cc:Work
       rdf:about=""><dc:format>image/svg+xml</dc:format><dc:type
         rdf:resource="http://purl.org/dc/dcmitype/StillImage" /><dc:title></dc:title></cc:Work></rdf:RDF></metadata><defs
   id="defs191" /><sodipodi:namedview
   pagecolor="#ffffff"
   bordercolor="#666666"
   borderopacity="1"
   objecttolerance="10"
   gridtolerance="10"
   guidetolerance="10"
   inkscape:pageopacity="0"
   inkscape:pageshadow="2"
   inkscape:window-width="732"
   inkscape:window-height="480"
   id="namedview189"
   showgrid="false"
   inkscape:zoom="2.7751646"
   inkscape:cx="42.3335"
   inkscape:cy="42.52"
   inkscape:window-x="0"
   inkscape:window-y="0"
   inkscape:window-maximized="0"
   inkscape:current-layer="Layer_1" />
<path
   fill="#A20F3B"
   stroke="#A20F3B"
   stroke-miterlimit="10"
   d="M77.892,69.149c0,4.816-3.91,8.724-8.726,8.724H16.814  c-4.819,0-8.727-3.907-8.727-8.724V16.795c0-4.818,3.907-8.725,8.727-8.725h52.352c4.815,0,8.726,3.906,8.726,8.725V69.149z"
   id="path2" />

<g
   id="g56">
	<g
   id="g54">
		<path
   fill="#4A162E"
   d="M20.861,53.366h-2.571v1.647h2.149c0.199,0,0.348,0.045,0.446,0.134c0.098,0.09,0.147,0.209,0.147,0.358    s-0.05,0.269-0.149,0.356s-0.248,0.131-0.444,0.131h-2.149v2.123c0,0.27-0.061,0.47-0.182,0.6    c-0.122,0.131-0.278,0.195-0.468,0.195c-0.193,0-0.351-0.065-0.472-0.197c-0.122-0.132-0.183-0.331-0.183-0.598v-4.957    c0-0.188,0.028-0.341,0.083-0.459c0.056-0.119,0.143-0.205,0.261-0.26c0.119-0.054,0.271-0.081,0.455-0.081h3.076    c0.208,0,0.362,0.046,0.464,0.139c0.101,0.092,0.151,0.213,0.151,0.362c0,0.152-0.051,0.274-0.151,0.367    C21.224,53.319,21.069,53.366,20.861,53.366z"
   id="path36" />
		<path
   fill="#4A162E"
   d="M25.282,52.249c0.668,0,1.242,0.136,1.72,0.407c0.479,0.271,0.842,0.656,1.088,1.155    c0.246,0.5,0.369,1.087,0.369,1.76c0,0.499-0.067,0.951-0.202,1.358s-0.337,0.761-0.606,1.06s-0.601,0.527-0.993,0.686    s-0.842,0.236-1.349,0.236c-0.504,0-0.955-0.081-1.354-0.243c-0.398-0.163-0.731-0.392-0.998-0.688    c-0.267-0.295-0.468-0.651-0.604-1.067c-0.136-0.416-0.204-0.866-0.204-1.349c0-0.495,0.071-0.949,0.213-1.363    c0.142-0.412,0.348-0.764,0.618-1.055c0.27-0.289,0.598-0.512,0.984-0.665C24.351,52.326,24.79,52.249,25.282,52.249z     M27.137,55.563c0-0.472-0.076-0.881-0.229-1.227s-0.37-0.607-0.653-0.784c-0.283-0.178-0.607-0.267-0.973-0.267    c-0.261,0-0.502,0.05-0.723,0.147c-0.221,0.099-0.412,0.241-0.571,0.429s-0.285,0.427-0.378,0.719    c-0.092,0.291-0.138,0.619-0.138,0.982c0,0.366,0.046,0.697,0.138,0.992c0.093,0.297,0.223,0.542,0.392,0.736    c0.168,0.195,0.361,0.341,0.58,0.438c0.218,0.097,0.458,0.145,0.718,0.145c0.334,0,0.641-0.083,0.92-0.25s0.502-0.425,0.668-0.773    S27.137,56.073,27.137,55.563z"
   id="path38" />
		<path
   fill="#4A162E"
   d="M31.329,56.046h-0.457v2.07c0,0.272-0.06,0.474-0.18,0.602c-0.12,0.129-0.277,0.193-0.47,0.193    c-0.208,0-0.369-0.067-0.483-0.201c-0.114-0.135-0.171-0.333-0.171-0.594v-4.957c0-0.281,0.063-0.484,0.189-0.611    c0.126-0.125,0.33-0.188,0.611-0.188h2.123c0.293,0,0.543,0.013,0.751,0.037c0.208,0.025,0.396,0.076,0.562,0.151    c0.202,0.086,0.381,0.207,0.536,0.365s0.273,0.342,0.354,0.552c0.081,0.209,0.121,0.432,0.121,0.665    c0,0.481-0.136,0.865-0.406,1.152c-0.271,0.287-0.682,0.49-1.233,0.61c0.231,0.123,0.453,0.305,0.664,0.545    s0.399,0.496,0.564,0.767c0.166,0.271,0.295,0.516,0.387,0.734c0.093,0.218,0.139,0.368,0.139,0.45    c0,0.085-0.027,0.169-0.081,0.253c-0.055,0.083-0.128,0.149-0.222,0.197c-0.094,0.049-0.202,0.072-0.325,0.072    c-0.146,0-0.27-0.034-0.369-0.103c-0.1-0.069-0.186-0.156-0.257-0.262s-0.169-0.261-0.292-0.466l-0.523-0.87    c-0.188-0.319-0.355-0.562-0.503-0.729s-0.298-0.281-0.45-0.343S31.561,56.046,31.329,56.046z M32.076,53.339h-1.204v1.771h1.169    c0.313,0,0.577-0.027,0.791-0.081c0.214-0.055,0.377-0.146,0.49-0.277c0.113-0.13,0.169-0.31,0.169-0.538    c0-0.179-0.045-0.336-0.136-0.473c-0.091-0.136-0.217-0.237-0.378-0.305C32.825,53.372,32.524,53.339,32.076,53.339z"
   id="path40" />
		<path
   fill="#4A162E"
   d="M40.294,53.366h-2.94v1.582h2.707c0.199,0,0.348,0.044,0.446,0.134c0.098,0.089,0.147,0.207,0.147,0.354    s-0.048,0.266-0.145,0.358c-0.097,0.092-0.246,0.139-0.448,0.139h-2.707v1.832h3.041c0.205,0,0.359,0.048,0.463,0.143    c0.104,0.096,0.156,0.223,0.156,0.381c0,0.152-0.052,0.275-0.156,0.371c-0.104,0.095-0.258,0.143-0.463,0.143h-3.546    c-0.284,0-0.489-0.062-0.613-0.189c-0.125-0.125-0.187-0.329-0.187-0.61v-4.843c0-0.188,0.028-0.341,0.083-0.459    c0.056-0.119,0.143-0.205,0.261-0.26c0.119-0.054,0.271-0.081,0.455-0.081h3.445c0.208,0,0.362,0.046,0.464,0.139    c0.101,0.092,0.151,0.213,0.151,0.362c0,0.152-0.051,0.274-0.151,0.367C40.656,53.319,40.502,53.366,40.294,53.366z"
   id="path42" />
		<path
   fill="#4A162E"
   d="M43.752,53.032l2.509,3.797v-3.832c0-0.249,0.053-0.437,0.16-0.561c0.107-0.125,0.251-0.188,0.433-0.188    c0.188,0,0.335,0.062,0.444,0.188c0.108,0.124,0.163,0.312,0.163,0.561v5.066c0,0.565-0.234,0.848-0.703,0.848    c-0.117,0-0.223-0.017-0.316-0.05c-0.094-0.034-0.182-0.087-0.264-0.161c-0.082-0.072-0.158-0.158-0.229-0.257    c-0.07-0.098-0.141-0.198-0.211-0.301l-2.448-3.753v3.775c0,0.246-0.057,0.432-0.171,0.558s-0.261,0.188-0.439,0.188    c-0.185,0-0.333-0.063-0.444-0.19c-0.111-0.128-0.167-0.312-0.167-0.556v-4.971c0-0.211,0.023-0.376,0.07-0.496    c0.056-0.133,0.148-0.24,0.277-0.323c0.129-0.084,0.268-0.126,0.417-0.126c0.117,0,0.218,0.02,0.301,0.058    c0.084,0.038,0.157,0.09,0.22,0.153c0.063,0.065,0.128,0.148,0.193,0.251C43.614,52.813,43.682,52.921,43.752,53.032z"
   id="path44" />
		<path
   fill="#4A162E"
   d="M53.785,56.868c0,0.39-0.101,0.74-0.301,1.051c-0.201,0.311-0.495,0.553-0.881,0.729    s-0.845,0.264-1.375,0.264c-0.636,0-1.16-0.119-1.573-0.359c-0.293-0.173-0.531-0.404-0.714-0.692    c-0.184-0.289-0.275-0.569-0.275-0.842c0-0.158,0.055-0.294,0.165-0.406c0.11-0.113,0.25-0.169,0.42-0.169    c0.138,0,0.254,0.043,0.35,0.131c0.095,0.088,0.176,0.219,0.244,0.392c0.082,0.205,0.17,0.377,0.266,0.515    c0.095,0.138,0.229,0.251,0.402,0.34c0.173,0.09,0.4,0.135,0.681,0.135c0.387,0,0.701-0.091,0.942-0.271    c0.242-0.181,0.363-0.405,0.363-0.675c0-0.214-0.065-0.388-0.196-0.521c-0.13-0.134-0.299-0.235-0.505-0.306    c-0.207-0.07-0.483-0.145-0.829-0.225c-0.463-0.107-0.85-0.234-1.163-0.38c-0.312-0.145-0.56-0.343-0.742-0.593    c-0.184-0.251-0.275-0.562-0.275-0.934c0-0.354,0.097-0.67,0.29-0.945s0.473-0.487,0.839-0.635    c0.366-0.148,0.797-0.223,1.292-0.223c0.396,0,0.737,0.05,1.026,0.147c0.288,0.099,0.528,0.229,0.718,0.392    c0.19,0.162,0.33,0.333,0.417,0.512s0.132,0.354,0.132,0.523c0,0.155-0.055,0.295-0.165,0.419    c-0.109,0.125-0.247,0.187-0.411,0.187c-0.149,0-0.263-0.037-0.34-0.111c-0.078-0.075-0.162-0.197-0.253-0.367    c-0.117-0.243-0.258-0.433-0.422-0.569c-0.164-0.136-0.428-0.204-0.791-0.204c-0.337,0-0.608,0.074-0.815,0.222    c-0.206,0.148-0.31,0.326-0.31,0.534c0,0.129,0.035,0.24,0.105,0.334s0.167,0.175,0.29,0.242s0.248,0.12,0.374,0.158    s0.334,0.094,0.624,0.166c0.363,0.086,0.692,0.18,0.987,0.281c0.294,0.104,0.545,0.228,0.751,0.374    c0.207,0.146,0.368,0.332,0.483,0.556C53.727,56.269,53.785,56.543,53.785,56.868z"
   id="path46" />
		<path
   fill="#4A162E"
   d="M54.945,58.116V53.04c0-0.264,0.06-0.461,0.18-0.593s0.275-0.198,0.466-0.198    c0.196,0,0.355,0.065,0.477,0.196c0.121,0.13,0.182,0.329,0.182,0.595v5.076c0,0.267-0.061,0.466-0.182,0.598    c-0.122,0.132-0.281,0.197-0.477,0.197c-0.188,0-0.342-0.066-0.463-0.199C55.006,58.578,54.945,58.38,54.945,58.116z"
   id="path48" />
		<path
   fill="#4A162E"
   d="M63.198,56.767c0,0.206-0.05,0.428-0.152,0.666c-0.101,0.239-0.26,0.474-0.477,0.703    c-0.217,0.23-0.494,0.417-0.831,0.561s-0.729,0.215-1.178,0.215c-0.34,0-0.649-0.032-0.927-0.096    c-0.278-0.064-0.531-0.165-0.758-0.302c-0.228-0.136-0.436-0.315-0.626-0.538c-0.17-0.202-0.315-0.429-0.435-0.679    c-0.12-0.251-0.21-0.518-0.271-0.802s-0.09-0.586-0.09-0.906c0-0.518,0.075-0.982,0.227-1.393c0.15-0.41,0.367-0.761,0.648-1.053    c0.281-0.291,0.611-0.513,0.989-0.666c0.378-0.151,0.781-0.229,1.208-0.229c0.521,0,0.986,0.104,1.393,0.312    s0.719,0.465,0.936,0.771c0.217,0.306,0.325,0.596,0.325,0.867c0,0.15-0.053,0.281-0.158,0.396    c-0.105,0.113-0.233,0.171-0.382,0.171c-0.167,0-0.292-0.04-0.376-0.118c-0.083-0.08-0.176-0.216-0.279-0.409    c-0.17-0.319-0.37-0.558-0.6-0.716s-0.513-0.238-0.85-0.238c-0.536,0-0.963,0.204-1.281,0.611    c-0.318,0.407-0.477,0.986-0.477,1.736c0,0.5,0.07,0.917,0.211,1.25c0.141,0.332,0.34,0.581,0.598,0.744    c0.258,0.165,0.56,0.246,0.905,0.246c0.375,0,0.692-0.093,0.952-0.278c0.259-0.187,0.455-0.46,0.586-0.819    c0.056-0.17,0.125-0.309,0.207-0.416c0.082-0.106,0.214-0.16,0.396-0.16c0.155,0,0.289,0.055,0.4,0.162    C63.143,56.472,63.198,56.606,63.198,56.767z"
   id="path50" />
		<path
   fill="#4A162E"
   d="M69.267,56.868c0,0.39-0.101,0.74-0.301,1.051c-0.201,0.311-0.495,0.553-0.881,0.729    s-0.845,0.264-1.375,0.264c-0.636,0-1.16-0.119-1.573-0.359c-0.293-0.173-0.531-0.404-0.714-0.692    c-0.184-0.289-0.275-0.569-0.275-0.842c0-0.158,0.055-0.294,0.165-0.406c0.11-0.113,0.25-0.169,0.42-0.169    c0.138,0,0.254,0.043,0.35,0.131c0.095,0.088,0.176,0.219,0.244,0.392c0.082,0.205,0.17,0.377,0.266,0.515    c0.095,0.138,0.229,0.251,0.402,0.34c0.173,0.09,0.4,0.135,0.681,0.135c0.387,0,0.701-0.091,0.942-0.271    c0.242-0.181,0.363-0.405,0.363-0.675c0-0.214-0.065-0.388-0.196-0.521c-0.13-0.134-0.299-0.235-0.505-0.306    c-0.207-0.07-0.483-0.145-0.829-0.225c-0.463-0.107-0.85-0.234-1.163-0.38c-0.312-0.145-0.56-0.343-0.742-0.593    c-0.184-0.251-0.275-0.562-0.275-0.934c0-0.354,0.097-0.67,0.29-0.945s0.473-0.487,0.839-0.635    c0.366-0.148,0.797-0.223,1.292-0.223c0.396,0,0.737,0.05,1.026,0.147c0.288,0.099,0.528,0.229,0.718,0.392    c0.19,0.162,0.33,0.333,0.417,0.512s0.132,0.354,0.132,0.523c0,0.155-0.055,0.295-0.165,0.419    c-0.109,0.125-0.247,0.187-0.411,0.187c-0.149,0-0.263-0.037-0.34-0.111c-0.078-0.075-0.162-0.197-0.253-0.367    c-0.117-0.243-0.258-0.433-0.422-0.569c-0.164-0.136-0.428-0.204-0.791-0.204c-0.337,0-0.608,0.074-0.815,0.222    c-0.206,0.148-0.31,0.326-0.31,0.534c0,0.129,0.035,0.24,0.105,0.334s0.167,0.175,0.29,0.242s0.248,0.12,0.374,0.158    s0.334,0.094,0.624,0.166c0.363,0.086,0.692,0.18,0.987,0.281c0.294,0.104,0.545,0.228,0.751,0.374    c0.207,0.146,0.368,0.332,0.483,0.556C69.209,56.269,69.267,56.543,69.267,56.868z"
   id="path52" />
	</g>
</g>
<g
   id="g62">
	<path
   fill="none"
   stroke="#FFFFFF"
   stroke-width="1.8512"
   stroke-miterlimit="10"
   d="M52.218,30.835   c-2.941,3.539-8.193,4.021-11.734,1.082c-3.535-2.942-4.021-8.195-1.079-11.732c2.942-3.537,8.194-4.024,11.733-1.08   C54.674,22.045,55.16,27.296,52.218,30.835z"
   id="path58" />
	
		<line
   fill="#FFFFFF"
   stroke="#FFFFFF"
   stroke-width="1.8512"
   stroke-linecap="round"
   stroke-miterlimit="10"
   x1="40.484"
   y1="31.916"
   x2="32.227"
   y2="41.851"
   id="line60" />
</g>
<g
   id="g174">
	<path
   fill="#FFFFFF"
   d="M49.961,25.541l-0.021,0.025c0.013,0.045-0.009,0.139,0.045,0.179   C49.976,25.676,49.968,25.607,49.961,25.541"
   id="path64" />
	<path
   fill="#FFFFFF"
   d="M50.998,25.829c-0.053,0.075-0.1,0.157-0.143,0.243c0.027-0.009,0.057-0.012,0.09-0.012   c0.043,0,0.09,0.006,0.136,0.011c0.046,0.006,0.093,0.011,0.136,0.011c0.026,0,0.052-0.002,0.075-0.008   c0.121-0.019,0.12-0.188,0.206-0.234C51.34,25.839,51.168,25.839,50.998,25.829 M48.284,24.803   c-0.013,0.075-0.209,0.049-0.124,0.157c0.13,0.044,0.129,0.198,0.254,0.267c-0.012,0.131,0.073,0.295-0.004,0.404   c-0.015-0.006-0.029-0.009-0.043-0.009c-0.047,0-0.082,0.037-0.115,0.073c-0.033,0.037-0.064,0.073-0.106,0.073   c-0.022,0-0.047-0.01-0.077-0.036l-0.208-0.105c0.086,0.221-0.148,0.419,0.063,0.651l-0.139,0.215l-0.295,0.095   c0.061,0.02,0.123,0.027,0.185,0.027c0.064,0,0.127-0.007,0.19-0.014c0.063-0.007,0.125-0.014,0.185-0.014   c0.092,0,0.18,0.017,0.261,0.075c-0.049,0.355-0.246,0.651-0.287,1.013l-0.108,0.001c-0.008,0.05-0.178,0.157-0.063,0.204   c0.017,0.062,0.037,0.086,0.058,0.086c0.038,0,0.082-0.074,0.131-0.148c0.049-0.074,0.104-0.148,0.164-0.148   c0.004,0,0.007,0,0.011,0.001c0.014,0.095,0.028,0.246,0.144,0.252c0.025-0.056,0.056-0.071,0.089-0.071   c0.022,0,0.045,0.007,0.068,0.013c0.024,0.007,0.048,0.013,0.071,0.013c0.019,0,0.038-0.004,0.056-0.016   c0.079,0.117-0.013,0.284,0.031,0.431c0.259-0.081,0.568-0.291,0.874-0.419c0.099-0.064,0.111-0.195,0.158-0.299   c0.257,0.016,0.317,0.329,0.56,0.404l0.263-0.049c0.079-0.472-0.537-0.513-0.425-0.974c0.157-0.074,0.306-0.184,0.424-0.32   c-0.043-0.049-0.09-0.098-0.076-0.171c0.024-0.204,0.314-0.472,0.015-0.599c-0.08-0.065-0.148-0.145-0.204-0.234   c-0.015-0.01-0.03-0.021-0.045-0.032l-0.107,0.113c-0.233-0.012-0.004-0.241-0.15-0.242c0.02-0.12,0.067-0.24,0.118-0.359   c-0.004-0.031-0.008-0.062-0.01-0.092c-0.015-0.011-0.031-0.02-0.046-0.028c-0.085,0.122-0.208,0.231-0.32,0.294l-0.025-0.174   l-0.085,0.159c-0.053-0.047-0.096-0.101-0.129-0.163c-0.067,0.031-0.136,0.055-0.21,0.055c-0.032,0-0.066-0.005-0.1-0.015   c0,0.027,0,0.053,0,0.078l-0.129,0.012l0.014,0.151c-0.017,0.042-0.032,0.057-0.047,0.057c-0.016,0-0.032-0.016-0.049-0.033   c-0.017-0.016-0.034-0.033-0.053-0.033c-0.017,0-0.034,0.013-0.054,0.049C48.581,25.313,48.46,25.01,48.284,24.803"
   id="path66" />
	<path
   fill="#FFFFFF"
   d="M55.076,37.194l0.075-0.082L55.076,37.194 M55.456,36.164l-0.066-0.03L55.456,36.164 M54.34,35.243   c-0.202,0.153-0.426,0.317-0.689,0.366c-0.209,0.428-0.612,0.58-0.872,0.967l0.086,0.22c-0.047,0.104-0.196,0.087-0.265,0.146   c0.005,0.055,0.025,0.069,0.051,0.069c0.013,0,0.027-0.004,0.042-0.007c0.015-0.004,0.029-0.007,0.043-0.007   c0.027,0,0.05,0.014,0.06,0.068c-0.012,0.187-0.188,0.304-0.245,0.442l0.216-0.058c0.083,0.092,0.108,0.266,0.128,0.351   l-0.12,0.188c0.016,0.015,0.033,0.021,0.051,0.021c0.03,0,0.061-0.017,0.091-0.034c0.03-0.017,0.059-0.034,0.086-0.034   c0.032,0,0.06,0.025,0.082,0.103c0.108,0.112-0.092,0.167-0.031,0.271c0.022,0.017,0.039,0.023,0.053,0.023   c0.055,0,0.07-0.097,0.136-0.101c0.162,0.055,0.017,0.223,0.075,0.311l0.111-0.138c0.014-0.002,0.027-0.003,0.039-0.003   c0.2,0-0.022,0.262,0.158,0.295c0.231-0.06,0.578-0.115,0.854-0.239c0.002,0,0.005,0,0.007,0c0.254,0,0.236,0.439,0.51,0.484   c0.187-0.094-0.1-0.162-0.052-0.306c0.126-0.52,0.296-0.949,0.724-1.25l0.533,0.215l0.077-0.109   c-0.235-0.181-0.533-0.215-0.739-0.416l0.101,0.008c-0.097-0.033-0.238-0.043-0.269-0.151c0.161-0.227,0.011-0.3,0.241-0.473   l-0.131-0.157l0.107-0.113c0.012-0.027,0.011-0.053,0.001-0.08l-0.021,0.01l-0.071-0.123c0.004-0.002,0.008-0.004,0.013-0.005   c-0.04-0.05-0.081-0.102-0.089-0.155l-0.016-0.167l-0.224,0.051c-0.108-0.056-0.12-0.191-0.175-0.303l-0.159,0.073l-0.111-0.128   l-0.203,0.096C54.414,35.441,54.385,35.349,54.34,35.243"
   id="path68" />
	<path
   fill="#FFFFFF"
   d="M53.605,33.895l0.006-0.066L53.605,33.895 M53.628,33.787l0.067-0.019L53.628,33.787 M54.101,33.745   l-0.043-0.034L54.101,33.745 M53.511,33.668l0-0.056L53.511,33.668 M53.571,33.602l0.004-0.081l0.009,0.063L53.571,33.602    M54,33.527l-0.016-0.054l0.026,0.02L54,33.527 M53.565,33.458l-0.005-0.032l0.074,0.029L53.565,33.458 M53.897,33.35l-0.009-0.007   l0.032-0.045l0.009,0.007L53.897,33.35 M53.808,33.267L53.808,33.267l-0.013,0.074l-0.009-0.007c0,0.05-0.007,0.064-0.017,0.064   c-0.007,0-0.015-0.006-0.025-0.012c-0.01-0.006-0.021-0.012-0.033-0.012c-0.002,0-0.005,0-0.007,0.001   c-0.005,0.007-0.016,0.018-0.038,0.034c0.013-0.022,0.026-0.032,0.038-0.034c0.022-0.032-0.096,0.008-0.077-0.081l0.096,0.074   L53.808,33.267 M53.733,33.069c-0.016,0.096-0.082,0.113-0.156,0.113c-0.02,0-0.04-0.001-0.06-0.002   c-0.02-0.001-0.04-0.002-0.059-0.002c-0.001,0-0.002,0-0.003,0l-0.038,0.167l-0.196,0.087c0.21,0.12-0.087,0.199,0.022,0.367   c0.052,0.363,0.395,0.333,0.582,0.449c0.045-0.096,0.108-0.108,0.172-0.108c0.011,0,0.021,0,0.032,0.001   c0.011,0,0.021,0.001,0.031,0.001c0.065,0,0.126-0.013,0.165-0.118c0.189-0.134-0.004-0.298,0.096-0.459   c-0.091-0.042,0.021-0.181-0.107-0.209c0.035-0.239-0.29-0.027-0.239-0.269c-0.044,0.032-0.092,0.056-0.137,0.056   C53.797,33.144,53.76,33.123,53.733,33.069"
   id="path70" />
	<polyline
   fill="#FFFFFF"
   points="53.921,33.298 53.889,33.343 53.897,33.35 53.929,33.304 53.921,33.298  "
   id="polyline72" />
	<path
   fill="#FFFFFF"
   d="M53.704,33.376c-0.012,0.003-0.025,0.012-0.038,0.034C53.688,33.394,53.7,33.383,53.704,33.376    M53.808,33.267l-0.086,0.102l-0.096-0.074c-0.019,0.089,0.099,0.048,0.077,0.081c0.002-0.001,0.005-0.001,0.007-0.001   c0.012,0,0.023,0.006,0.033,0.012c0.01,0.006,0.018,0.012,0.025,0.012c0.01,0,0.017-0.014,0.017-0.064l0.009,0.007L53.808,33.267"
   id="path74" />
	<polyline
   fill="#FFFFFF"
   points="53.984,33.473 54,33.527 54.01,33.493 53.984,33.473  "
   id="polyline76" />
	<polyline
   fill="#FFFFFF"
   points="54.057,33.712 54.101,33.745 54.057,33.712  "
   id="polyline78" />
	<polyline
   fill="#FFFFFF"
   points="53.561,33.426 53.565,33.458 53.634,33.455 53.561,33.426  "
   id="polyline80" />
	<polyline
   fill="#FFFFFF"
   points="53.575,33.521 53.571,33.602 53.584,33.584 53.575,33.521  "
   id="polyline82" />
	<polyline
   fill="#FFFFFF"
   points="53.51,33.612 53.511,33.668 53.51,33.612  "
   id="polyline84" />
	<polyline
   fill="#FFFFFF"
   points="53.695,33.768 53.628,33.787 53.695,33.768  "
   id="polyline86" />
	<polyline
   fill="#FFFFFF"
   points="53.611,33.83 53.605,33.895 53.611,33.83  "
   id="polyline88" />
	<path
   fill="#FFFFFF"
   d="M49.376,34.234l-0.048,0.201c-0.024,0.023-0.043,0.031-0.059,0.031c-0.027,0-0.044-0.026-0.064-0.052   c-0.019-0.026-0.041-0.052-0.077-0.052c-0.006,0-0.012,0.001-0.019,0.002c-0.151,0.051-0.317,0.151-0.467,0.151   c-0.026,0-0.052-0.003-0.076-0.01l0.066,0.135c0.025,0.117-0.122,0.116-0.141,0.2c-0.028,0.052-0.057,0.069-0.085,0.069   c-0.027,0-0.055-0.015-0.084-0.031c-0.029-0.015-0.059-0.031-0.09-0.031c-0.011,0-0.021,0.002-0.032,0.006l0.122,0.094   c-0.232,0.101,0.035,0.462-0.26,0.557c0.02,0.086,0.166,0.24-0.017,0.309c0.09,0.106,0.242,0.153,0.376,0.153   c0.019,0,0.037-0.001,0.055-0.003c0.128,0.141-0.099,0.33,0.063,0.442c0.016,0.009,0.036,0.011,0.06,0.011   c0.014,0,0.028-0.001,0.043-0.002c0.015-0.001,0.03-0.002,0.045-0.002c0.057,0,0.114,0.011,0.142,0.076   c-0.063,0.204,0.108,0.322,0.15,0.509c0.003,0,0.006,0,0.009,0c0.112,0,0.047-0.227,0.188-0.241l0.08,0.076   c0.035,0.035,0.062,0.049,0.085,0.049c0.095,0,0.105-0.247,0.209-0.257l0.118,0.231c-0.054-0.242,0.051-0.277,0.191-0.277   c0.029,0,0.059,0.001,0.089,0.003c0.031,0.001,0.061,0.003,0.092,0.003c0.083,0,0.161-0.011,0.213-0.062   c-0.016-0.11-0.045-0.259-0.007-0.37c0.017-0.058,0.053-0.072,0.092-0.072c0.017,0,0.035,0.002,0.052,0.005   c0.017,0.002,0.034,0.005,0.048,0.005c0.011,0,0.021-0.001,0.029-0.005l-0.135-0.132c0.022-0.045,0.057-0.054,0.094-0.054   c0.011,0,0.022,0.001,0.033,0.002c0.011,0.001,0.022,0.002,0.033,0.002c0.039,0,0.072-0.01,0.086-0.068   c0.048-0.314-0.304-0.557-0.135-0.834c0.023-0.108,0.007-0.219-0.075-0.311c-0.017,0.001-0.033,0.002-0.049,0.002   C49.945,34.694,49.649,34.377,49.376,34.234"
   id="path90" />
	<path
   fill="#FFFFFF"
   d="M52.099,32.539l0.112-0.082c-0.026,0.037,0.001,0.16-0.047,0.16c-0.011,0-0.027-0.007-0.049-0.024   l0.006-0.066L52.099,32.539 M51.85,32.417l0.049-0.088l0.019-0.027c0.102,0.065-0.04,0.095-0.051,0.185   c0.007-0.01,0.058-0.032,0.109-0.032c0.042,0,0.083,0.015,0.097,0.064c-0.023-0.037-0.039-0.051-0.051-0.051   c-0.02,0-0.03,0.036-0.044,0.072c-0.014,0.036-0.031,0.072-0.065,0.072c-0.004,0-0.008,0-0.012-0.001l0.045-0.063   c-0.021,0.011-0.038,0.016-0.05,0.016c-0.061,0-0.034-0.113-0.053-0.162l-0.003-0.007c0.001,0.002,0.002,0.004,0.003,0.007   L51.85,32.417 M52.106,32.321l0.043-0.023L52.106,32.321 M51.83,32.331l-0.028-0.036l0.076-0.012L51.83,32.331 M52.031,32.217   c0.014,0,0.026-0.008,0.038-0.016c0.012-0.008,0.025-0.016,0.039-0.016c0.013,0,0.028,0.008,0.045,0.031l-0.142,0.087l-0.025-0.117   C52.003,32.209,52.018,32.217,52.031,32.217 M52.094,32.111c-0.089,0-0.19,0.059-0.267,0.092c-0.088,0.086-0.063,0.204-0.056,0.307   l0.103,0.177c0.021-0.017,0.041-0.023,0.061-0.023c0.025,0,0.048,0.01,0.072,0.02c0.024,0.01,0.049,0.02,0.075,0.02   c0.013,0,0.026-0.002,0.04-0.008c0.125-0.044,0.168-0.123,0.204-0.249c-0.029-0.092-0.014-0.208-0.11-0.281   C52.181,32.126,52.139,32.111,52.094,32.111"
   id="path92" />
	<path
   fill="#FFFFFF"
   d="M52.108,32.185c-0.014,0-0.026,0.008-0.039,0.016c-0.012,0.008-0.025,0.016-0.038,0.016   c-0.013,0-0.028-0.008-0.045-0.031l0.025,0.117l0.142-0.087C52.136,32.193,52.122,32.185,52.108,32.185"
   id="path94" />
	<polyline
   fill="#FFFFFF"
   points="52.149,32.298 52.106,32.321 52.149,32.298  "
   id="polyline96" />
	<path
   fill="#FFFFFF"
   d="M52.211,32.457l-0.112,0.082l0.021-0.012l-0.006,0.066c0.022,0.017,0.037,0.024,0.049,0.024   C52.212,32.617,52.185,32.494,52.211,32.457"
   id="path98" />
	<path
   fill="#FFFFFF"
   d="M51.839,32.395l0.003,0.007C51.841,32.399,51.84,32.397,51.839,32.395 M51.918,32.302l-0.019,0.027   l-0.049,0.088l-0.007-0.015c0.019,0.048-0.008,0.162,0.053,0.162c0.013,0,0.029-0.005,0.05-0.016l-0.045,0.063   c0.004,0.001,0.009,0.001,0.012,0.001c0.034,0,0.051-0.036,0.065-0.072c0.014-0.036,0.024-0.072,0.044-0.072   c0.012,0,0.028,0.014,0.051,0.051c-0.014-0.049-0.055-0.064-0.097-0.064c-0.05,0-0.102,0.022-0.109,0.032   C51.878,32.397,52.02,32.366,51.918,32.302"
   id="path100" />
	<polyline
   fill="#FFFFFF"
   points="51.877,32.284 51.801,32.295 51.83,32.331 51.877,32.284  "
   id="polyline102" />
	<path
   fill="#FFFFFF"
   d="M58.407,32.013c-0.103,0.295-0.215,0.662-0.454,0.832L58,32.946c-0.018,0.047-0.039,0.061-0.06,0.061   c-0.018,0-0.036-0.011-0.054-0.021c-0.017-0.011-0.033-0.021-0.047-0.021c-0.012,0-0.021,0.008-0.029,0.029   c-0.134-0.078-0.245-0.221-0.368-0.326L57.4,32.717c0.119,0.07,0.209,0.265,0.231,0.413l-0.117-0.023l0.081,0.096   c-0.061,0.038-0.128,0.057-0.198,0.057c-0.05,0-0.101-0.01-0.153-0.03l0.104,0.09l-0.088,0.12l0.203,0.058l-0.023,0.093   l0.099,0.026c0.094,0.088-0.103,0.054-0.022,0.15c-0.129,0.147-0.343,0.163-0.514,0.233c0.032,0.04,0.064,0.079,0.079,0.118   l0.209-0.104l0.256,0.097c-0.078,0.093,0.109,0.182-0.015,0.261l-0.115,0.12c0.003,0,0.006,0,0.009,0   c0.063,0,0.112,0.033,0.162,0.066c0.049,0.033,0.099,0.066,0.163,0.066c0.029,0,0.061-0.007,0.096-0.024l0.105,0.147l-0.009,0.227   c0.125-0.175,0.073-0.427,0.239-0.554c0.214,0.117,0.358,0.324,0.578,0.437l-0.025,0.075l0.115,0.092c0.005,0,0.01,0,0.015,0   c0.17,0-0.115-0.201-0.064-0.302l0.194-0.042l0.028-0.212c0.011-0.003,0.022-0.005,0.032-0.005c0.081,0,0.158,0.081,0.249,0.084   c0.009-0.199-0.052-0.463-0.063-0.706l-0.153-0.18c0.07-0.175,0.284-0.144,0.389-0.295l0.03-0.194   c-0.048-0.028-0.094-0.04-0.136-0.04c-0.08,0-0.152,0.039-0.224,0.078c-0.071,0.039-0.142,0.078-0.218,0.078   c-0.045,0-0.092-0.013-0.142-0.048c-0.019-0.227-0.118-0.465-0.29-0.602c-0.214-0.089-0.009-0.283,0.007-0.428L58.407,32.013"
   id="path104" />
	<path
   fill="#FFFFFF"
   d="M57.006,34c-0.004,0.002-0.009,0.004-0.013,0.005l0.071,0.123l0.021-0.01   C57.071,34.079,57.039,34.04,57.006,34"
   id="path106" />
	<polyline
   fill="#FFFFFF"
   points="56.887,34.139 56.953,34.169 56.887,34.139  "
   id="polyline108" />
	<path
   fill="#FFFFFF"
   d="M61.797,40.24c-0.17,0.121-0.262,0.32-0.438,0.416l0.029-0.069l-0.159,0.151   c-0.107-0.165-0.189-0.078-0.245-0.278l-0.131,0.054l-0.047-0.101l-0.264,0.033l-0.11-0.028l-0.02,0.168l-0.234,0.051l0.01,0.128   l-0.107,0.047l0.014,0.163l-0.185,0.083c0.05,0.176,0.102,0.37,0.072,0.565c0.224,0.245,0.226,0.561,0.412,0.833l0.161-0.008   l0.031,0.218c0.009,0.002,0.017,0.003,0.024,0.003c0.034,0,0.035-0.028,0.038-0.056c0.003-0.028,0.007-0.056,0.046-0.056   c0.005,0,0.01,0,0.016,0.001c0.117,0.052,0.15,0.202,0.224,0.274l0.014-0.163l0.254-0.007l0.092,0.127   c0.083-0.05-0.055-0.202,0.091-0.202c0.005,0,0.011,0,0.017,0.001c0.014-0.007,0.025-0.01,0.035-0.01   c0.028,0,0.043,0.024,0.059,0.048c0.015,0.024,0.031,0.048,0.059,0.048c0.004,0,0.008,0,0.013-0.002l-0.006-0.15   c0.02-0.027,0.039-0.036,0.059-0.036c0.024,0,0.048,0.015,0.072,0.029c0.024,0.015,0.047,0.029,0.071,0.029   c0.005,0,0.01-0.001,0.015-0.002l-0.062-0.11c0.012-0.058,0.032-0.076,0.056-0.076c0.019,0,0.04,0.011,0.061,0.022   c0.022,0.011,0.043,0.022,0.064,0.022c0.019,0,0.036-0.009,0.051-0.036c0.016-0.175,0.062-0.429,0.048-0.649   c0.056-0.184,0.336-0.065,0.429-0.246c-0.005-0.047-0.019-0.062-0.039-0.062c-0.016,0-0.037,0.01-0.058,0.021   c-0.022,0.01-0.045,0.021-0.068,0.021c-0.015,0-0.029-0.004-0.042-0.016c-0.302-0.209-0.536-0.428-0.627-0.796l0.262-0.32   L61.797,40.24"
   id="path110" />
	<polyline
   fill="#FFFFFF"
   points="56.647,35.116 56.572,35.199 56.647,35.116  "
   id="polyline112" />
	<path
   fill="#FFFFFF"
   d="M62.376,34.807c-0.074,0.283-0.362,0.42-0.524,0.583l0.117,0.081c0.041,0.106-0.086,0.051-0.096,0.136   c-0.003,0.137,0.032,0.304-0.037,0.411l0.101-0.014l0.094,0.145c0.085,0.103-0.06,0.12-0.06,0.206l0.088-0.063   c0.01,0.185,0.303,0.084,0.294,0.311c0.003,0,0.006,0,0.009,0c0.014,0,0.03-0.003,0.047-0.005c0.017-0.003,0.036-0.005,0.053-0.005   c0.045,0,0.083,0.017,0.084,0.094c0.101-0.043,0.172-0.16,0.197-0.264c0.015-0.007,0.029-0.01,0.043-0.01   c0.038,0,0.07,0.023,0.102,0.046c0.032,0.023,0.062,0.046,0.096,0.046c0.018,0,0.036-0.006,0.056-0.022   c0.04-0.038,0.026-0.173,0.121-0.182c0.039,0.031,0.079,0.041,0.119,0.041c0.034,0,0.068-0.007,0.103-0.014   c0.035-0.007,0.071-0.014,0.108-0.014c0.01,0,0.019,0,0.029,0.002c0.037-0.084-0.132-0.089-0.107-0.193l0.067-0.038   c0.158-0.083-0.086-0.16-0.063-0.253l0.175-0.028c-0.328-0.037-0.002-0.316-0.076-0.485l-0.237-0.082l0.009-0.17l-0.116,0.063   l-0.018-0.199c-0.048-0.027-0.099-0.035-0.151-0.035c-0.039,0-0.078,0.004-0.116,0.009c-0.038,0.004-0.076,0.009-0.112,0.009   c-0.07,0-0.134-0.017-0.184-0.084L62.376,34.807"
   id="path114" />
	<path
   fill="#FFFFFF"
   d="M50.019,24.635c-0.066,0.021-0.111,0.074-0.116,0.194c-0.042,0.136-0.117,0.26-0.211,0.368   c0.03,0.034,0.058,0.067,0.062,0.107C49.832,25.091,49.913,24.85,50.019,24.635 M49.208,21.059c-0.013,0-0.026,0.007-0.041,0.026   c-0.009-0.001-0.016-0.001-0.024-0.001c-0.232,0,0.16,0.283,0.089,0.424c-0.041-0.009-0.093-0.021-0.141-0.021   c-0.056,0-0.107,0.017-0.131,0.077c0.115,0.12-0.065,0.179-0.041,0.296c-0.015,0.004-0.029,0.006-0.044,0.006   c-0.113,0-0.221-0.115-0.35-0.121c-0.006,0.109,0.003,0.233,0.017,0.364l0.071-0.086c0.1,0.049,0.083,0.148,0.049,0.234   l-0.051,0.072c-0.019-0.003-0.034-0.009-0.045-0.017c0.017,0.14,0.033,0.283,0.038,0.421c0.024,0.117,0.136,0.173,0.213,0.254   c-0.101,0.244-0.399,0.197-0.547,0.407c-0.053,0.077-0.08,0.176-0.044,0.272c0.032,0.019,0.063,0.033,0.094,0.042   c-0.001-0.077-0.005-0.158-0.022-0.233l0.195,0.066l0.066-0.188l0,0c-0.002,0.116,0.023,0.223,0.071,0.314   c0.034-0.016,0.067-0.034,0.101-0.051c0.099-0.053,0.197-0.106,0.303-0.106c0.05,0,0.102,0.012,0.156,0.041   c0.05-0.072,0.087-0.149,0.099-0.223l0.082,0.036c-0.035,0.103-0.082,0.205-0.126,0.308c0.026,0.183,0.088,0.366,0.185,0.52   c0.202,0.135,0.466,0.182,0.734,0.199c0.069-0.097,0.147-0.182,0.239-0.245l-0.065-0.142c0.026-0.065,0.055-0.085,0.084-0.085   c0.025,0,0.051,0.015,0.075,0.03c0.024,0.015,0.047,0.03,0.066,0.03c0.016,0,0.03-0.01,0.04-0.04   c0.186,0.111,0.34,0.312,0.511,0.461l0.059-0.068c-0.166-0.099-0.29-0.374-0.319-0.581l0.163,0.034l-0.112-0.136   c0.085-0.051,0.177-0.077,0.273-0.077c0.071,0,0.145,0.014,0.218,0.043l-0.145-0.127l0.124-0.167   c-0.098-0.012-0.198-0.05-0.284-0.084l0.033-0.13l-0.139-0.037c-0.13-0.124,0.145-0.074,0.033-0.21   c0.187-0.21,0.497-0.225,0.74-0.327c-0.055-0.033,0.009-0.181-0.063-0.181c-0.009,0-0.02,0.002-0.034,0.007   c-0.083,0.111-0.219,0.058-0.323,0.157c-0.112-0.056-0.287-0.028-0.358-0.139c0.11-0.13-0.15-0.257,0.024-0.364l0.163-0.167   c-0.003,0-0.007,0-0.01,0c-0.089,0-0.158-0.047-0.228-0.095c-0.069-0.047-0.139-0.095-0.229-0.095c-0.04,0-0.083,0.009-0.133,0.032   l-0.145-0.207c-0.027-0.102,0.062-0.244,0.015-0.318c-0.178,0.244-0.107,0.596-0.34,0.772c-0.299-0.167-0.496-0.458-0.804-0.618   l0.036-0.105C49.293,21.195,49.261,21.059,49.208,21.059"
   id="path116" />
	<path
   fill="#FFFFFF"
   d="M50.032,25.455l-0.071,0.086c0.007,0.066,0.016,0.135,0.024,0.204c0.011,0.008,0.026,0.014,0.045,0.017   l0.051-0.072C50.115,25.603,50.132,25.504,50.032,25.455"
   id="path118" />
	<path
   fill="#FFFFFF"
   d="M50.846,27.625c0.056,0.09,0.124,0.17,0.204,0.234c0.299,0.127,0.009,0.395-0.015,0.599   c-0.014,0.073,0.033,0.123,0.076,0.171c0.094-0.108,0.168-0.233,0.211-0.368c0.005-0.12,0.05-0.173,0.116-0.194   c0.043-0.086,0.09-0.168,0.143-0.243C51.313,27.807,51.049,27.76,50.846,27.625 M49.976,26.786l-0.066,0.188l-0.195-0.066   c0.017,0.075,0.021,0.156,0.022,0.233c0.034,0.01,0.067,0.015,0.1,0.015c0.074,0,0.143-0.023,0.21-0.055   C49.999,27.009,49.974,26.903,49.976,26.786 M50.706,26.761c-0.012,0.074-0.049,0.151-0.099,0.223   c0.015,0.008,0.03,0.018,0.046,0.028c0.002,0.031,0.006,0.061,0.01,0.092c0.044-0.103,0.091-0.206,0.126-0.308L50.706,26.761"
   id="path120" />
	<path
   fill="#FFFFFF"
   d="M47.773,30.071l-0.097-0.012L47.773,30.071 M47.286,29.585c-0.005-0.006-0.01-0.013-0.016-0.021   C47.276,29.571,47.282,29.578,47.286,29.585c0.054,0.07,0.07,0.093,0.138,0.18c-0.003,0.025-0.01,0.033-0.02,0.033   c-0.01,0-0.021-0.008-0.033-0.017c-0.011-0.008-0.023-0.017-0.032-0.017c-0.01,0-0.017,0.011-0.017,0.043l0.047,0.034l-0.03-0.006   l0.142,0.102l0.023-0.049c-0.014-0.029-0.007-0.061,0.042-0.09l-0.042,0.09c0.018,0.037,0.072,0.07,0.123,0.088l-0.004-0.017   l0.071,0.031c-0.019-0.001-0.043-0.006-0.067-0.014l0.013,0.051c-0.015-0.019-0.028-0.025-0.04-0.025   c-0.014,0-0.026,0.009-0.036,0.017s-0.019,0.017-0.025,0.017c-0.007,0-0.012-0.012-0.014-0.05   c-0.003,0.096-0.133,0.093-0.115,0.161l-0.068-0.087l0.044,0.009l-0.124-0.034l0.036-0.145l0.035,0.056   c0.062-0.123-0.101-0.077-0.133-0.108C47.279,29.773,47.349,29.678,47.286,29.585 M47.464,29.514l-0.019-0.017   C47.455,29.499,47.461,29.505,47.464,29.514l0.132,0.119l0.107-0.074l0,0c-0.024,0.083,0.009,0.114,0.101,0.158l-0.068-0.006   l0.05,0.059l-0.035-0.015c-0.062,0.124,0.068,0.086,0.118,0.105l-0.118,0.055l0.053,0.083l-0.107-0.046   c0.118-0.096-0.041-0.145-0.056-0.269l-0.074,0.105c-0.021-0.093,0.089-0.102-0.018-0.148l-0.047,0.127   C47.386,29.741,47.483,29.57,47.464,29.514 M47.539,29.498c0.022,0,0.037-0.01,0.048-0.02c0.012-0.01,0.02-0.02,0.028-0.02   c0.011,0,0.021,0.015,0.039,0.065l-0.054,0.037c0.011-0.038,0.014-0.05,0.013-0.05c-0.002,0-0.008,0.011-0.018,0.023   c-0.009,0.011-0.021,0.023-0.034,0.023c-0.014,0-0.029-0.015-0.041-0.061C47.528,29.498,47.534,29.498,47.539,29.498    M47.517,29.325c-0.036,0-0.073,0.031-0.113,0.061c-0.04,0.031-0.084,0.061-0.133,0.061c-0.019,0-0.039-0.005-0.06-0.016   c-0.089,0.102-0.065,0.3-0.116,0.442c0.122,0.232,0.213,0.433,0.482,0.433c0.004,0,0.008,0,0.012,0   c0.006-0.151,0.172-0.093,0.254-0.123c-0.003-0.105,0.068-0.154,0.113-0.225c0.024-0.123,0.039-0.281-0.047-0.395   c-0.065-0.056-0.138-0.206-0.22-0.206c-0.026,0-0.053,0.015-0.082,0.055C47.577,29.347,47.548,29.325,47.517,29.325"
   id="path122" />
	<polyline
   fill="#FFFFFF"
   points="47.675,30.059 47.773,30.071 47.675,30.059  "
   id="polyline124" />
	<path
   fill="#FFFFFF"
   d="M47.687,29.716l-0.053-0.084l0.08,0.065L47.687,29.716 M47.464,29.514c0.019,0.056-0.078,0.227,0.037,0.251   l0.047-0.127c0.107,0.046-0.003,0.055,0.018,0.148l0.074-0.105c0.015,0.124,0.175,0.173,0.056,0.269l0.107,0.046l-0.053-0.083   l0.118-0.055c-0.05-0.019-0.181,0.018-0.118-0.105l0.035,0.015l-0.05-0.059l0.068,0.006c-0.092-0.043-0.124-0.074-0.101-0.158   l-0.107,0.074L47.464,29.514 M47.445,29.497l0.019,0.017C47.461,29.505,47.455,29.499,47.445,29.497"
   id="path126" />
	<path
   fill="#FFFFFF"
   d="M47.625,29.96l0.004,0.017c0.024,0.008,0.048,0.013,0.067,0.014L47.625,29.96 M47.548,29.799   c-0.049,0.029-0.056,0.061-0.042,0.09L47.548,29.799 M47.456,30.077l0.003-0.055L47.456,30.077 M47.286,29.585   c0.062,0.093-0.007,0.188-0.084,0.254c0.032,0.031,0.195-0.015,0.133,0.108L47.3,29.892l-0.036,0.145l0.124,0.034l-0.044-0.009   l0.068,0.087c-0.018-0.068,0.113-0.065,0.115-0.161c0.002,0.038,0.006,0.05,0.014,0.05c0.006,0,0.015-0.009,0.025-0.017   s0.022-0.017,0.036-0.017c0.012,0,0.025,0.006,0.04,0.025l-0.013-0.051c-0.051-0.018-0.105-0.051-0.123-0.088l-0.023,0.049   l-0.142-0.102l0.03,0.006l-0.047-0.034c0-0.033,0.007-0.043,0.017-0.043c0.009,0,0.02,0.008,0.032,0.017   c0.011,0.008,0.023,0.017,0.033,0.017c0.01,0,0.017-0.008,0.02-0.033C47.356,29.678,47.341,29.655,47.286,29.585 M47.27,29.564   c0.006,0.007,0.011,0.014,0.016,0.021C47.282,29.578,47.276,29.571,47.27,29.564"
   id="path128" />
	<polyline
   fill="#FFFFFF"
   points="47.459,30.022 47.456,30.077 47.459,30.022  "
   id="polyline130" />
	<polyline
   fill="#FFFFFF"
   points="47.634,29.633 47.687,29.716 47.714,29.697 47.634,29.633  "
   id="polyline132" />
	<path
   fill="#FFFFFF"
   d="M47.615,29.459c-0.008,0-0.017,0.01-0.028,0.02c-0.012,0.01-0.027,0.02-0.048,0.02   c-0.005,0-0.011-0.001-0.017-0.002c0.012,0.046,0.027,0.061,0.041,0.061c0.012,0,0.024-0.011,0.034-0.023   c0.009-0.011,0.016-0.023,0.018-0.023c0.002,0-0.001,0.012-0.013,0.05l0.054-0.037C47.637,29.475,47.626,29.459,47.615,29.459"
   id="path134" />
	<path
   fill="#FFFFFF"
   d="M42.277,25.573l-0.021,0.229c-0.044,0.02-0.096,0.026-0.148,0.026c-0.079,0-0.157-0.015-0.207-0.02   l-0.127-0.179c-0.117,0.068,0.073,0.282-0.128,0.282c-0.008,0-0.017,0-0.026-0.001c-0.019,0.009-0.035,0.013-0.048,0.013   c-0.04,0-0.061-0.034-0.082-0.068c-0.021-0.034-0.043-0.068-0.082-0.068c-0.005,0-0.011,0.001-0.018,0.002   c-0.106,0.074,0.029,0.127,0.006,0.21c-0.027,0.037-0.055,0.05-0.082,0.05c-0.034,0-0.068-0.021-0.101-0.042   c-0.033-0.021-0.066-0.042-0.099-0.042c-0.007,0-0.013,0.001-0.02,0.003l0.086,0.155c-0.018,0.081-0.046,0.106-0.079,0.106   c-0.026,0-0.056-0.016-0.086-0.032c-0.03-0.016-0.061-0.032-0.09-0.032c-0.026,0-0.05,0.013-0.07,0.05   c-0.024,0.244-0.092,0.599-0.074,0.908c-0.08,0.256-0.471,0.086-0.604,0.339c0.006,0.067,0.026,0.087,0.054,0.087   c0.023,0,0.051-0.014,0.081-0.028c0.03-0.014,0.063-0.028,0.095-0.028c0.021,0,0.041,0.006,0.06,0.022   c0.42,0.297,0.745,0.606,0.869,1.122l-0.37,0.444l0.071,0.111c0.24-0.167,0.37-0.444,0.618-0.577l-0.041,0.096   c0.061-0.082,0.116-0.21,0.218-0.21c0.002,0,0.005,0,0.007,0c0.148,0.232,0.263,0.111,0.34,0.392l0.184-0.074l0.065,0.142   c0.019,0.02,0.042,0.028,0.068,0.028c0.04,0,0.087-0.018,0.135-0.037c0.048-0.018,0.096-0.037,0.14-0.037   c0.009,0,0.018,0.001,0.027,0.003l0.154,0.04c0-0.08-0.065-0.182,0.029-0.235c0.086-0.087,0.21-0.052,0.328-0.068l-0.012-0.179   l0.151-0.065l-0.018-0.229c0.059-0.108,0.151-0.105,0.26-0.114c-0.068-0.247-0.139-0.519-0.094-0.791   c-0.31-0.346-0.31-0.788-0.567-1.171l-0.225,0.009l-0.041-0.306c-0.013-0.003-0.024-0.005-0.034-0.005   c-0.046,0-0.049,0.039-0.053,0.078c-0.004,0.039-0.01,0.078-0.064,0.078c-0.007,0-0.015-0.001-0.023-0.002   C42.425,25.885,42.381,25.675,42.277,25.573"
   id="path136" />
	<path
   fill="#FFFFFF"
   d="M45.497,28.711l-0.026-0.022l0.053,0.003L45.497,28.711 M45.242,28.714l0.044-0.031L45.242,28.714    M45.692,28.695l-0.03-0.046l0.009-0.006l0.03,0.046L45.692,28.695 M45.711,28.458c0.007,0,0.012-0.016,0.021-0.032   c0.009-0.016,0.021-0.032,0.04-0.032c0.008,0,0.018,0.003,0.03,0.011c-0.001,0.038-0.012,0.046-0.026,0.046   c-0.005,0-0.01-0.001-0.016-0.002c-0.006-0.001-0.012-0.002-0.018-0.002c-0.013,0-0.027,0.005-0.038,0.025l0.062,0.117   l-0.062-0.037l0.009-0.006c-0.108-0.042-0.015-0.046-0.009-0.094c-0.005-0.007-0.01-0.022-0.018-0.048   c0.015,0.02,0.02,0.036,0.018,0.048C45.706,28.457,45.709,28.458,45.711,28.458 M45.657,28.359l0.021-0.068l0.03,0.006   L45.657,28.359 M45.618,28.278l-0.059-0.012l-0.012-0.019L45.618,28.278 M45.358,28.312l0.006-0.071L45.358,28.312 M45.332,28.21   l-0.056-0.028L45.332,28.21 M45.559,28.186l-0.05-0.019L45.559,28.186 M45.394,27.855c-0.269,0-0.356,0.294-0.507,0.423   c0.166,0.179-0.118,0.296,0.065,0.463c0.056,0.229,0.266,0.096,0.375,0.247c0.014-0.016,0.029-0.021,0.045-0.021   c0.018,0,0.038,0.008,0.057,0.016c0.019,0.008,0.038,0.015,0.057,0.015c0.022,0,0.043-0.01,0.063-0.044   c0.027,0.015,0.048,0.021,0.066,0.021c0.049,0,0.072-0.048,0.093-0.095c0.022-0.048,0.043-0.095,0.089-0.095   c0.019,0,0.042,0.008,0.071,0.027c-0.027-0.102-0.021-0.213,0.098-0.229c-0.124-0.074-0.038-0.201-0.003-0.306l-0.136-0.093   l-0.012-0.219c-0.037,0.034-0.065,0.048-0.088,0.048c-0.039,0-0.063-0.039-0.091-0.077c-0.028-0.039-0.061-0.078-0.117-0.078   c-0.012,0-0.024,0.002-0.038,0.005C45.451,27.858,45.422,27.855,45.394,27.855"
   id="path138" />
	<polyline
   fill="#FFFFFF"
   points="45.671,28.643 45.662,28.649 45.692,28.695 45.701,28.689 45.671,28.643  "
   id="polyline140" />
	<path
   fill="#FFFFFF"
   d="M45.686,28.405c0.007,0.026,0.013,0.041,0.018,0.048C45.706,28.441,45.701,28.425,45.686,28.405    M45.771,28.394c-0.019,0-0.031,0.016-0.04,0.032c-0.009,0.016-0.014,0.032-0.021,0.032c-0.002,0-0.004-0.002-0.007-0.005   c-0.007,0.048-0.099,0.052,0.009,0.094l-0.009,0.006l0.062,0.037l-0.062-0.117c0.011-0.021,0.025-0.025,0.038-0.025   c0.006,0,0.012,0.001,0.018,0.002c0.006,0.001,0.011,0.002,0.016,0.002c0.014,0,0.025-0.008,0.026-0.046   C45.79,28.397,45.78,28.394,45.771,28.394"
   id="path142" />
	<polyline
   fill="#FFFFFF"
   points="45.47,28.689 45.497,28.711 45.523,28.692 45.47,28.689  "
   id="polyline144" />
	<polyline
   fill="#FFFFFF"
   points="45.287,28.683 45.242,28.714 45.287,28.683  "
   id="polyline146" />
	<polyline
   fill="#FFFFFF"
   points="45.677,28.291 45.657,28.359 45.707,28.297 45.677,28.291  "
   id="polyline148" />
	<polyline
   fill="#FFFFFF"
   points="45.547,28.248 45.559,28.266 45.618,28.278 45.547,28.248  "
   id="polyline150" />
	<polyline
   fill="#FFFFFF"
   points="45.509,28.167 45.559,28.186 45.509,28.167  "
   id="polyline152" />
	<polyline
   fill="#FFFFFF"
   points="45.364,28.241 45.358,28.312 45.364,28.241  "
   id="polyline154" />
	<polyline
   fill="#FFFFFF"
   points="45.275,28.182 45.332,28.21 45.275,28.182  "
   id="polyline156" />
	<path
   fill="#FFFFFF"
   d="M44.854,20.232c-0.142,0.059-0.243,0.222-0.278,0.367c-0.021,0.009-0.04,0.013-0.059,0.013   c-0.053,0-0.099-0.033-0.143-0.065c-0.044-0.033-0.087-0.065-0.135-0.065c-0.024,0-0.05,0.009-0.077,0.03   c-0.057,0.053-0.039,0.241-0.172,0.253c-0.056-0.045-0.112-0.059-0.169-0.059c-0.046,0-0.094,0.009-0.142,0.019   c-0.048,0.009-0.097,0.018-0.148,0.018c-0.015,0-0.029-0.001-0.044-0.003c-0.053,0.117,0.183,0.127,0.148,0.272l-0.095,0.052   c-0.222,0.114,0.118,0.225,0.086,0.355l-0.245,0.037c0.458,0.056,0,0.442,0.1,0.679c0.103,0.022,0.245,0.043,0.331,0.118   c0.1,0.077-0.018,0.173-0.015,0.238l0.163-0.086c0.089,0.099-0.092,0.198,0.023,0.278c0.069,0.04,0.142,0.051,0.217,0.051   c0.052,0,0.104-0.006,0.156-0.011c0.052-0.006,0.102-0.011,0.151-0.011c0.1,0,0.192,0.024,0.262,0.12   c0.055,0.036,0.115,0.058,0.179,0.058c0.04,0,0.08-0.008,0.122-0.027c0.107-0.395,0.512-0.583,0.74-0.809   c-0.021-0.093-0.118-0.065-0.163-0.114c-0.056-0.148,0.121-0.071,0.136-0.188c0.006-0.191-0.041-0.426,0.056-0.574l-0.142,0.018   c-0.112-0.015-0.062-0.157-0.13-0.204c-0.118-0.145,0.086-0.167,0.086-0.287l-0.124,0.086c-0.012-0.259-0.423-0.121-0.408-0.439   c-0.004,0-0.009-0.001-0.014-0.001c-0.019,0-0.041,0.003-0.065,0.006c-0.024,0.003-0.048,0.006-0.072,0.006   C44.909,20.365,44.854,20.342,44.854,20.232"
   id="path158" />
	<path
   fill="#FFFFFF"
   d="M58.944,26.259c-0.094,0.039-0.16,0.147-0.184,0.243c-0.014,0.006-0.027,0.009-0.039,0.009   c-0.035,0-0.065-0.022-0.094-0.043c-0.029-0.022-0.058-0.043-0.089-0.043c-0.016,0-0.033,0.006-0.051,0.02   c-0.037,0.035-0.026,0.159-0.113,0.167c-0.037-0.03-0.074-0.039-0.112-0.039c-0.031,0-0.062,0.006-0.094,0.012   c-0.032,0.006-0.064,0.012-0.097,0.012c-0.01,0-0.019-0.001-0.029-0.002c-0.035,0.077,0.121,0.084,0.097,0.179l-0.063,0.035   c-0.146,0.075,0.078,0.149,0.057,0.234l-0.162,0.024c0.302,0.037,0,0.291,0.066,0.449c0.068,0.014,0.162,0.029,0.219,0.078   c0.066,0.051-0.012,0.114-0.01,0.157l0.107-0.057c0.059,0.065-0.061,0.131,0.016,0.184c0.045,0.026,0.094,0.034,0.143,0.034   c0.034,0,0.069-0.004,0.103-0.007s0.068-0.007,0.1-0.007c0.066,0,0.127,0.016,0.173,0.079c0.036,0.024,0.076,0.039,0.118,0.039   c0.026,0,0.053-0.006,0.081-0.018c0.071-0.261,0.338-0.385,0.488-0.534c-0.014-0.061-0.078-0.043-0.107-0.075   c-0.037-0.098,0.08-0.047,0.09-0.124c0.004-0.126-0.027-0.281,0.037-0.379l-0.094,0.012c-0.074-0.01-0.041-0.104-0.086-0.135   c-0.078-0.096,0.057-0.11,0.057-0.19l-0.082,0.057c-0.008-0.171-0.279-0.08-0.269-0.29c-0.003,0-0.006,0-0.009,0   c-0.012,0-0.027,0.002-0.043,0.004c-0.016,0.002-0.032,0.004-0.047,0.004C58.98,26.347,58.943,26.332,58.944,26.259"
   id="path160" />
	<path
   fill="#FFFFFF"
   d="M47.184,27.306l-0.006-0.049L47.184,27.306 M47.021,27.313c-0.03-0.046-0.204-0.059-0.089-0.139   l0.056,0.028l-0.003-0.025L47.021,27.313 M47.255,27.338l-0.029-0.167l0.112,0.015C47.232,27.22,47.362,27.304,47.255,27.338    M47.288,27.047l-0.026-0.062l0.041-0.015L47.288,27.047 M47.031,27.025c-0.007-0.062,0.011-0.079,0.04-0.079   c0.018,0,0.04,0.007,0.062,0.014c0.022,0.007,0.043,0.014,0.06,0.014c0.001,0,0.002,0,0.003,0l0.007-0.001l0,0   c-0.002,0.001-0.005,0.001-0.007,0.001l-0.016,0.002l0.062,0.077l0.018,0.028c-0.018,0.016-0.032,0.022-0.043,0.022   c-0.044,0-0.043-0.101-0.104-0.133c0.012,0.018,0.009,0.189-0.092,0.189c-0.002,0-0.004,0-0.005,0   c0.177-0.043-0.08-0.105-0.024-0.198L47.031,27.025 M47.122,26.868l-0.192,0.04c0.032,0.111-0.095,0.133-0.092,0.238   c-0.003,0.136,0.053,0.204,0.153,0.281c0.056,0.002,0.115,0.022,0.174,0.022c0.037,0,0.075-0.008,0.113-0.035   c0.142-0.059,0.104-0.259,0.098-0.389C47.329,26.911,47.217,26.896,47.122,26.868"
   id="path162" />
	<path
   fill="#FFFFFF"
   d="M47.226,27.171l0.029,0.167c0.106-0.034-0.023-0.117,0.083-0.151L47.226,27.171"
   id="path164" />
	<polyline
   fill="#FFFFFF"
   points="47.178,27.257 47.184,27.306 47.178,27.257  "
   id="polyline166" />
	<path
   fill="#FFFFFF"
   d="M46.933,27.174c-0.115,0.08,0.059,0.093,0.089,0.139l-0.035-0.136l0.003,0.025L46.933,27.174"
   id="path168" />
	<path
   fill="#FFFFFF"
   d="M47.202,26.973l-0.007,0.001C47.197,26.974,47.2,26.974,47.202,26.973 M47.07,26.946   c-0.028,0-0.047,0.017-0.04,0.079l-0.041-0.065c-0.056,0.093,0.201,0.154,0.024,0.198c0.002,0,0.004,0,0.005,0   c0.101,0,0.104-0.17,0.092-0.189c0.061,0.032,0.06,0.133,0.104,0.133c0.011,0,0.025-0.006,0.043-0.022l-0.018-0.028l-0.062-0.077   l0.016-0.002c-0.001,0-0.002,0-0.003,0c-0.017,0-0.038-0.007-0.06-0.014C47.11,26.953,47.089,26.946,47.07,26.946"
   id="path170" />
	<polyline
   fill="#FFFFFF"
   points="47.303,26.97 47.261,26.985 47.288,27.047 47.303,26.97  "
   id="polyline172" />
</g>
<g
   id="g176">
</g>
<g
   id="g178">
</g>
<g
   id="g180">
</g>
<g
   id="g182">
</g>
<g
   id="g184">
</g>
<g
   id="g186">
</g>
</svg>