<?xml version="1.0" encoding="UTF-8" standalone="no"?>
<!-- Generator: Adobe Illustrator 25.4.8, SVG Export Plug-In . SVG Version: 6.00 Build 0)  -->

<svg
   version="1.1"
   id="Layer_1"
   x="0px"
   y="0px"
   viewBox="0 0 85.806002 85.803003"
   enable-background="new 0 0 71.365 71.406"
   xml:space="preserve"
   sodipodi:docname="Life_Science_Year_10.svg"
   width="85.806"
   height="85.803001"
   inkscape:version="1.2.2 (732a01da63, 2022-12-09)"
   xmlns:inkscape="http://www.inkscape.org/namespaces/inkscape"
   xmlns:sodipodi="http://sodipodi.sourceforge.net/DTD/sodipodi-0.dtd"
   xmlns="http://www.w3.org/2000/svg"
   xmlns:svg="http://www.w3.org/2000/svg"><defs
   id="defs69" /><sodipodi:namedview
   id="namedview67"
   pagecolor="#ffffff"
   bordercolor="#000000"
   borderopacity="0.25"
   inkscape:showpageshadow="2"
   inkscape:pageopacity="0.0"
   inkscape:pagecheckerboard="0"
   inkscape:deskcolor="#d1d1d1"
   showgrid="false"
   inkscape:zoom="11.609669"
   inkscape:cx="27.261759"
   inkscape:cy="56.160085"
   inkscape:window-width="2560"
   inkscape:window-height="1009"
   inkscape:window-x="-8"
   inkscape:window-y="-8"
   inkscape:window-maximized="1"
   inkscape:current-layer="Layer_1" />








<g
   id="g296"
   transform="translate(7.4999999,7.5000007)"><path
     fill="#00a0df"
     stroke="#00a0df"
     stroke-miterlimit="10"
     d="m 70.305,61.579 c 0,4.816 -3.91,8.724 -8.726,8.724 H 9.227 C 4.408,70.303 0.5,66.396 0.5,61.579 V 9.225 C 0.5,4.407 4.407,0.5 9.227,0.5 H 61.58 c 4.815,0 8.726,3.906 8.726,8.725 v 52.354 z"
     id="path2" /><g
     id="g28"
     transform="translate(-0.271,-0.254)">
	<g
   id="g26">
		<path
   fill="#004876"
   d="m 6.035,45.724 v 4.689 H 8.68 c 0.211,0 0.373,0.052 0.486,0.154 0.112,0.103 0.169,0.231 0.169,0.387 0,0.158 -0.056,0.286 -0.167,0.384 -0.111,0.099 -0.274,0.147 -0.488,0.147 H 5.529 C 5.245,51.485 5.04,51.423 4.916,51.296 4.791,51.171 4.729,50.967 4.729,50.686 v -4.962 c 0,-0.264 0.06,-0.461 0.178,-0.593 0.119,-0.131 0.275,-0.198 0.469,-0.198 0.196,0 0.355,0.065 0.477,0.196 0.121,0.13 0.182,0.33 0.182,0.595 z"
   id="path4" />
		<path
   fill="#004876"
   d="m 10.245,50.8 v -5.076 c 0,-0.264 0.06,-0.461 0.18,-0.593 0.12,-0.132 0.275,-0.198 0.466,-0.198 0.196,0 0.355,0.065 0.477,0.196 0.121,0.13 0.182,0.329 0.182,0.595 V 50.8 c 0,0.267 -0.061,0.466 -0.182,0.598 -0.122,0.132 -0.281,0.197 -0.477,0.197 -0.188,0 -0.342,-0.066 -0.463,-0.199 -0.123,-0.134 -0.183,-0.332 -0.183,-0.596 z"
   id="path6" />
		<path
   fill="#004876"
   d="m 16.858,46.05 h -2.571 v 1.647 h 2.149 c 0.199,0 0.348,0.045 0.446,0.134 0.098,0.09 0.147,0.209 0.147,0.358 0,0.149 -0.05,0.269 -0.149,0.356 -0.099,0.087 -0.248,0.131 -0.444,0.131 H 14.287 V 50.8 c 0,0.27 -0.061,0.47 -0.182,0.6 -0.122,0.131 -0.278,0.195 -0.468,0.195 -0.193,0 -0.351,-0.065 -0.472,-0.197 -0.122,-0.132 -0.183,-0.331 -0.183,-0.598 v -4.957 c 0,-0.188 0.028,-0.341 0.083,-0.459 0.056,-0.119 0.143,-0.205 0.261,-0.26 0.119,-0.054 0.271,-0.081 0.455,-0.081 h 3.076 c 0.208,0 0.362,0.046 0.464,0.139 0.101,0.092 0.151,0.213 0.151,0.362 0,0.152 -0.051,0.274 -0.151,0.367 -0.1,0.092 -0.255,0.139 -0.463,0.139 z"
   id="path8" />
		<path
   fill="#004876"
   d="m 22.69,46.05 h -2.94 v 1.582 h 2.707 c 0.199,0 0.348,0.044 0.446,0.134 0.098,0.089 0.147,0.207 0.147,0.354 0,0.147 -0.048,0.266 -0.145,0.358 -0.097,0.092 -0.246,0.139 -0.448,0.139 H 19.75 v 1.832 h 3.041 c 0.205,0 0.359,0.048 0.463,0.143 0.104,0.096 0.156,0.223 0.156,0.381 0,0.152 -0.052,0.275 -0.156,0.371 -0.104,0.095 -0.258,0.143 -0.463,0.143 h -3.546 c -0.284,0 -0.489,-0.062 -0.613,-0.189 -0.125,-0.125 -0.187,-0.329 -0.187,-0.61 v -4.843 c 0,-0.188 0.028,-0.341 0.083,-0.459 0.056,-0.119 0.143,-0.205 0.261,-0.26 0.119,-0.054 0.271,-0.081 0.455,-0.081 h 3.445 c 0.208,0 0.362,0.046 0.464,0.139 0.101,0.092 0.151,0.213 0.151,0.362 0,0.152 -0.051,0.274 -0.151,0.367 -0.101,0.09 -0.255,0.137 -0.463,0.137 z"
   id="path10" />
		<path
   fill="#004876"
   d="m 31.593,49.552 c 0,0.39 -0.101,0.74 -0.301,1.051 -0.201,0.311 -0.495,0.553 -0.881,0.729 -0.386,0.176 -0.845,0.264 -1.375,0.264 -0.636,0 -1.16,-0.119 -1.573,-0.359 -0.293,-0.173 -0.531,-0.404 -0.714,-0.692 -0.184,-0.289 -0.275,-0.569 -0.275,-0.842 0,-0.158 0.055,-0.294 0.165,-0.406 0.11,-0.113 0.25,-0.169 0.42,-0.169 0.138,0 0.254,0.043 0.35,0.131 0.095,0.088 0.176,0.219 0.244,0.392 0.082,0.205 0.17,0.377 0.266,0.515 0.095,0.138 0.229,0.251 0.402,0.34 0.173,0.09 0.4,0.135 0.681,0.135 0.387,0 0.701,-0.091 0.942,-0.271 0.242,-0.181 0.363,-0.405 0.363,-0.675 0,-0.214 -0.065,-0.388 -0.196,-0.521 -0.13,-0.134 -0.299,-0.235 -0.505,-0.306 -0.207,-0.07 -0.483,-0.145 -0.829,-0.225 -0.463,-0.107 -0.85,-0.234 -1.163,-0.38 -0.312,-0.145 -0.56,-0.343 -0.742,-0.593 -0.184,-0.251 -0.275,-0.562 -0.275,-0.934 0,-0.354 0.097,-0.67 0.29,-0.945 0.193,-0.275 0.473,-0.487 0.839,-0.635 0.366,-0.148 0.797,-0.223 1.292,-0.223 0.396,0 0.737,0.05 1.026,0.147 0.288,0.099 0.528,0.229 0.718,0.392 0.19,0.162 0.33,0.333 0.417,0.512 0.087,0.179 0.132,0.354 0.132,0.523 0,0.155 -0.055,0.295 -0.165,0.419 -0.109,0.125 -0.247,0.187 -0.411,0.187 -0.149,0 -0.263,-0.037 -0.34,-0.111 -0.078,-0.075 -0.162,-0.197 -0.253,-0.367 -0.117,-0.243 -0.258,-0.433 -0.422,-0.569 -0.164,-0.136 -0.428,-0.204 -0.791,-0.204 -0.337,0 -0.608,0.074 -0.815,0.222 -0.206,0.148 -0.31,0.326 -0.31,0.534 0,0.129 0.035,0.24 0.105,0.334 0.07,0.094 0.167,0.175 0.29,0.242 0.123,0.067 0.248,0.12 0.374,0.158 0.126,0.038 0.334,0.094 0.624,0.166 0.363,0.086 0.692,0.18 0.987,0.281 0.294,0.104 0.545,0.228 0.751,0.374 0.207,0.146 0.368,0.332 0.483,0.556 0.117,0.224 0.175,0.498 0.175,0.823 z"
   id="path12" />
		<path
   fill="#004876"
   d="m 38.189,49.451 c 0,0.206 -0.05,0.428 -0.152,0.666 -0.101,0.239 -0.26,0.474 -0.477,0.703 -0.217,0.23 -0.494,0.417 -0.831,0.561 -0.337,0.144 -0.729,0.215 -1.178,0.215 -0.34,0 -0.649,-0.032 -0.927,-0.096 -0.278,-0.064 -0.531,-0.165 -0.758,-0.302 -0.228,-0.136 -0.436,-0.315 -0.626,-0.538 -0.17,-0.202 -0.315,-0.429 -0.435,-0.679 -0.12,-0.251 -0.21,-0.518 -0.271,-0.802 -0.061,-0.284 -0.09,-0.586 -0.09,-0.906 0,-0.518 0.075,-0.982 0.227,-1.393 0.15,-0.41 0.367,-0.761 0.648,-1.053 0.281,-0.291 0.611,-0.513 0.989,-0.666 0.378,-0.151 0.781,-0.229 1.208,-0.229 0.521,0 0.986,0.104 1.393,0.312 0.407,0.208 0.719,0.465 0.936,0.771 0.217,0.306 0.325,0.596 0.325,0.867 0,0.15 -0.053,0.281 -0.158,0.396 -0.105,0.113 -0.233,0.171 -0.382,0.171 -0.167,0 -0.292,-0.04 -0.376,-0.118 -0.083,-0.08 -0.176,-0.216 -0.279,-0.409 -0.17,-0.319 -0.37,-0.558 -0.6,-0.716 -0.23,-0.158 -0.513,-0.238 -0.85,-0.238 -0.536,0 -0.963,0.204 -1.281,0.611 -0.318,0.407 -0.477,0.986 -0.477,1.736 0,0.5 0.07,0.917 0.211,1.25 0.141,0.332 0.34,0.581 0.598,0.744 0.258,0.165 0.56,0.246 0.905,0.246 0.375,0 0.692,-0.093 0.952,-0.278 0.259,-0.187 0.455,-0.46 0.586,-0.819 0.056,-0.17 0.125,-0.309 0.207,-0.416 0.082,-0.106 0.214,-0.16 0.396,-0.16 0.155,0 0.289,0.055 0.4,0.162 0.112,0.112 0.167,0.247 0.167,0.407 z"
   id="path14" />
		<path
   fill="#004876"
   d="m 39.416,50.8 v -5.076 c 0,-0.264 0.06,-0.461 0.18,-0.593 0.12,-0.132 0.275,-0.198 0.466,-0.198 0.196,0 0.355,0.065 0.477,0.196 0.121,0.13 0.182,0.329 0.182,0.595 V 50.8 c 0,0.267 -0.061,0.466 -0.182,0.598 -0.122,0.132 -0.281,0.197 -0.477,0.197 -0.188,0 -0.342,-0.066 -0.463,-0.199 -0.123,-0.134 -0.183,-0.332 -0.183,-0.596 z"
   id="path16" />
		<path
   fill="#004876"
   d="m 46.425,46.05 h -2.94 v 1.582 h 2.707 c 0.199,0 0.348,0.044 0.446,0.134 0.098,0.089 0.147,0.207 0.147,0.354 0,0.147 -0.048,0.266 -0.145,0.358 -0.097,0.092 -0.246,0.139 -0.448,0.139 h -2.707 v 1.832 h 3.041 c 0.205,0 0.359,0.048 0.463,0.143 0.104,0.096 0.156,0.223 0.156,0.381 0,0.152 -0.052,0.275 -0.156,0.371 -0.104,0.095 -0.258,0.143 -0.463,0.143 H 42.98 c -0.284,0 -0.489,-0.062 -0.613,-0.189 -0.125,-0.125 -0.187,-0.329 -0.187,-0.61 v -4.843 c 0,-0.188 0.028,-0.341 0.083,-0.459 0.056,-0.119 0.143,-0.205 0.261,-0.26 0.119,-0.054 0.271,-0.081 0.455,-0.081 h 3.445 c 0.208,0 0.362,0.046 0.464,0.139 0.101,0.092 0.151,0.213 0.151,0.362 0,0.152 -0.051,0.274 -0.151,0.367 -0.101,0.09 -0.255,0.137 -0.463,0.137 z"
   id="path18" />
		<path
   fill="#004876"
   d="m 49.883,45.716 2.509,3.797 v -3.832 c 0,-0.249 0.053,-0.437 0.16,-0.561 0.107,-0.125 0.251,-0.188 0.433,-0.188 0.188,0 0.335,0.062 0.444,0.188 0.108,0.124 0.163,0.312 0.163,0.561 v 5.066 c 0,0.565 -0.234,0.848 -0.703,0.848 -0.117,0 -0.223,-0.017 -0.316,-0.05 -0.094,-0.034 -0.182,-0.087 -0.264,-0.161 -0.082,-0.072 -0.158,-0.158 -0.229,-0.257 -0.07,-0.098 -0.141,-0.198 -0.211,-0.301 l -2.448,-3.753 v 3.775 c 0,0.246 -0.057,0.432 -0.171,0.558 -0.114,0.126 -0.261,0.188 -0.439,0.188 -0.185,0 -0.333,-0.063 -0.444,-0.19 C 48.256,51.276 48.2,51.092 48.2,50.848 v -4.971 c 0,-0.211 0.023,-0.376 0.07,-0.496 0.056,-0.133 0.148,-0.24 0.277,-0.323 0.129,-0.084 0.268,-0.126 0.417,-0.126 0.117,0 0.218,0.02 0.301,0.058 0.084,0.038 0.157,0.09 0.22,0.153 0.063,0.065 0.128,0.148 0.193,0.251 0.067,0.104 0.135,0.211 0.205,0.322 z"
   id="path20" />
		<path
   fill="#004876"
   d="m 60.509,49.451 c 0,0.206 -0.05,0.428 -0.152,0.666 -0.101,0.239 -0.26,0.474 -0.477,0.703 -0.217,0.23 -0.494,0.417 -0.831,0.561 -0.337,0.144 -0.729,0.215 -1.178,0.215 -0.34,0 -0.649,-0.032 -0.927,-0.096 -0.278,-0.064 -0.531,-0.165 -0.758,-0.302 -0.228,-0.136 -0.436,-0.315 -0.626,-0.538 -0.17,-0.202 -0.315,-0.429 -0.435,-0.679 -0.12,-0.251 -0.21,-0.518 -0.271,-0.802 -0.061,-0.284 -0.09,-0.586 -0.09,-0.906 0,-0.518 0.075,-0.982 0.227,-1.393 0.15,-0.41 0.367,-0.761 0.648,-1.053 0.281,-0.291 0.611,-0.513 0.989,-0.666 0.378,-0.151 0.781,-0.229 1.208,-0.229 0.521,0 0.986,0.104 1.393,0.312 0.407,0.208 0.719,0.465 0.936,0.771 0.217,0.306 0.325,0.596 0.325,0.867 0,0.15 -0.053,0.281 -0.158,0.396 -0.105,0.113 -0.233,0.171 -0.382,0.171 -0.167,0 -0.292,-0.04 -0.376,-0.118 -0.083,-0.08 -0.176,-0.216 -0.279,-0.409 -0.17,-0.319 -0.37,-0.558 -0.6,-0.716 -0.23,-0.158 -0.513,-0.238 -0.85,-0.238 -0.536,0 -0.963,0.204 -1.281,0.611 -0.318,0.407 -0.477,0.986 -0.477,1.736 0,0.5 0.07,0.917 0.211,1.25 0.141,0.332 0.34,0.581 0.598,0.744 0.258,0.165 0.56,0.246 0.905,0.246 0.375,0 0.692,-0.093 0.952,-0.278 0.259,-0.187 0.455,-0.46 0.586,-0.819 0.056,-0.17 0.125,-0.309 0.207,-0.416 0.082,-0.106 0.214,-0.16 0.396,-0.16 0.155,0 0.289,0.055 0.4,0.162 0.112,0.112 0.167,0.247 0.167,0.407 z"
   id="path22" />
		<path
   fill="#004876"
   d="m 65.928,46.05 h -2.94 v 1.582 h 2.707 c 0.199,0 0.348,0.044 0.446,0.134 0.098,0.089 0.147,0.207 0.147,0.354 0,0.147 -0.048,0.266 -0.145,0.358 -0.097,0.092 -0.246,0.139 -0.448,0.139 h -2.707 v 1.832 h 3.041 c 0.205,0 0.359,0.048 0.463,0.143 0.104,0.096 0.156,0.223 0.156,0.381 0,0.152 -0.052,0.275 -0.156,0.371 -0.104,0.095 -0.258,0.143 -0.463,0.143 h -3.546 c -0.284,0 -0.489,-0.062 -0.613,-0.189 -0.125,-0.125 -0.187,-0.329 -0.187,-0.61 v -4.843 c 0,-0.188 0.028,-0.341 0.083,-0.459 0.056,-0.119 0.143,-0.205 0.261,-0.26 0.119,-0.054 0.271,-0.081 0.455,-0.081 h 3.445 c 0.208,0 0.362,0.046 0.464,0.139 0.101,0.092 0.151,0.213 0.151,0.362 0,0.152 -0.051,0.274 -0.151,0.367 -0.101,0.09 -0.255,0.137 -0.463,0.137 z"
   id="path24" />
	</g>
</g><g
     id="g52"
     transform="translate(-0.271,-0.254)">
	<g
   id="g50">
		<path
   fill="none"
   d="m 39.595,24.351 c 0.006,0 0.009,0.005 0.012,0.005 0.169,-0.316 0.294,-0.641 0.394,-0.971 h -8.969 c 0.1,0.33 0.227,0.655 0.394,0.971 0.005,0 0.008,-0.005 0.011,-0.005 z"
   id="path30" />
		<path
   fill="none"
   d="m 39.12,25.085 h -7.205 c 0.266,0.367 0.575,0.714 0.931,1.041 h 5.34 c 0.357,-0.327 0.667,-0.674 0.934,-1.041 z"
   id="path32" />
		<path
   fill="none"
   d="m 39.611,19.884 h -8.186 c -0.175,0.331 -0.311,0.671 -0.413,1.016 h 9.012 c -0.102,-0.345 -0.238,-0.685 -0.413,-1.016 z"
   id="path34" />
		<path
   fill="none"
   d="m 37.059,30.977 c -0.489,-0.395 -1.01,-0.814 -1.542,-1.243 -0.519,0.417 -1.041,0.838 -1.539,1.243 z"
   id="path36" />
		<path
   fill="none"
   d="m 39.192,32.728 c -0.333,-0.283 -0.748,-0.627 -1.228,-1.016 h -4.892 c -0.478,0.391 -0.894,0.735 -1.227,1.016 z"
   id="path38" />
		<path
   fill="none"
   d="m 37.57,12.845 c 0.438,-0.355 0.835,-0.68 1.178,-0.966 H 32.29 c 0.346,0.286 0.744,0.613 1.179,0.966 z"
   id="path40" />
		<path
   fill="none"
   d="m 34.375,13.579 c 0.377,0.305 0.76,0.614 1.142,0.922 0.391,-0.314 0.774,-0.624 1.144,-0.922 z"
   id="path42" />
		<path
   fill="none"
   d="m 30.89,22.65 h 9.255 c 0.025,-0.178 0.075,-0.355 0.078,-0.533 -0.003,-0.161 -0.05,-0.322 -0.072,-0.483 h -9.268 c -0.022,0.161 -0.069,0.322 -0.072,0.483 0.004,0.178 0.054,0.355 0.079,0.533 z"
   id="path44" />
		<path
   fill="none"
   d="m 39.12,19.149 c -0.267,-0.367 -0.577,-0.714 -0.933,-1.041 h -5.339 c -0.356,0.327 -0.666,0.674 -0.933,1.041 z"
   id="path46" />
		<path
   fill="#ffffff"
   d="m 36.385,29.036 c 0.883,-0.711 1.688,-1.361 2.222,-1.802 1.682,-1.385 2.668,-3.248 2.707,-5.106 0,-0.005 -0.003,-0.008 -0.003,-0.011 0,-0.003 0.003,-0.006 0.003,-0.011 -0.039,-1.858 -1.025,-3.721 -2.707,-5.106 -0.535,-0.441 -1.339,-1.091 -2.222,-1.8 1.81,-1.457 3.487,-2.81 4.118,-3.392 1.258,-1.169 0.683,-2.526 0.658,-2.583 -0.119,-0.272 -0.435,-0.392 -0.706,-0.28 -0.275,0.116 -0.403,0.435 -0.292,0.71 0.03,0.075 0.27,0.735 -0.398,1.353 -0.041,0.037 -0.1,0.091 -0.153,0.136 H 31.49 c -0.017,0 -0.028,0.017 -0.044,0.019 C 31.385,11.11 31.316,11.05 31.271,11.008 30.605,10.391 30.841,9.733 30.873,9.656 30.99,9.382 30.864,9.065 30.59,8.945 30.315,8.823 29.995,8.95 29.874,9.225 c -0.025,0.058 -0.6,1.414 0.66,2.583 0.656,0.606 2.844,2.368 4.776,3.923 0.753,0.606 1.466,1.18 2.036,1.643 h -3.659 c 0.119,-0.099 0.256,-0.208 0.461,-0.374 0.234,-0.189 0.27,-0.531 0.083,-0.766 C 34.04,16 33.698,15.965 33.465,16.153 32.912,16.6 32.79,16.7 32.427,17 c -1.682,1.385 -2.668,3.244 -2.707,5.106 0,0.005 0.003,0.008 0.003,0.011 0,0.003 -0.003,0.006 -0.003,0.011 0.039,1.861 1.025,3.721 2.707,5.106 l 1.038,0.847 c 0.1,0.081 0.222,0.122 0.341,0.122 0.159,0 0.316,-0.069 0.425,-0.203 0.188,-0.234 0.152,-0.575 -0.081,-0.766 L 33.69,26.86 h 3.656 c -0.57,0.463 -1.283,1.036 -2.036,1.643 -1.932,1.555 -4.12,3.316 -4.779,3.923 -1.256,1.169 -0.681,2.526 -0.656,2.583 0.088,0.202 0.286,0.322 0.494,0.322 0.072,0 0.144,-0.014 0.213,-0.042 0.275,-0.116 0.403,-0.435 0.292,-0.71 -0.027,-0.066 -0.177,-0.578 0.22,-1.117 h 8.849 c 0.394,0.538 0.247,1.049 0.22,1.116 -0.117,0.273 0.009,0.591 0.283,0.711 0.07,0.031 0.144,0.047 0.219,0.047 0.209,0 0.408,-0.122 0.497,-0.327 0.025,-0.058 0.6,-1.414 -0.66,-2.583 -0.635,-0.586 -2.307,-1.933 -4.117,-3.39 z m -3.313,2.676 h 4.892 c 0.48,0.389 0.895,0.733 1.228,1.016 h -7.347 c 0.333,-0.282 0.749,-0.625 1.227,-1.016 z m 2.444,-1.977 c 0.533,0.428 1.053,0.847 1.542,1.243 h -3.082 c 0.499,-0.406 1.021,-0.826 1.54,-1.243 z m -3.601,-4.65 h 7.205 c -0.267,0.367 -0.577,0.714 -0.933,1.041 h -5.34 C 32.49,25.799 32.181,25.452 31.915,25.085 Z m -0.883,-1.7 h 8.969 c -0.1,0.33 -0.225,0.655 -0.394,0.971 -0.003,0 -0.006,-0.005 -0.012,-0.005 h -8.158 c -0.003,0 -0.006,0.005 -0.011,0.005 -0.167,-0.316 -0.294,-0.641 -0.394,-0.971 z m 0.393,-3.501 h 8.186 c 0.175,0.331 0.311,0.671 0.413,1.016 h -9.012 c 0.102,-0.345 0.238,-0.685 0.413,-1.016 z m 1.423,-1.775 h 5.339 c 0.356,0.327 0.666,0.674 0.933,1.041 h -7.205 c 0.268,-0.368 0.577,-0.715 0.933,-1.041 z m 7.304,3.525 c 0.022,0.161 0.069,0.322 0.072,0.483 -0.003,0.178 -0.053,0.355 -0.078,0.533 H 30.89 c -0.025,-0.178 -0.075,-0.355 -0.078,-0.533 0.003,-0.161 0.05,-0.322 0.072,-0.483 z m -5.777,-8.055 h 2.286 c -0.37,0.298 -0.753,0.608 -1.144,0.922 -0.382,-0.307 -0.765,-0.617 -1.142,-0.922 z m 4.373,-1.7 c -0.344,0.286 -0.741,0.611 -1.178,0.966 h -4.101 c -0.435,-0.353 -0.833,-0.68 -1.179,-0.966 z"
   id="path48" />
	</g>
</g><g
     id="g54"
     transform="translate(-0.271,-0.254)">
</g><g
     id="g56"
     transform="translate(-0.271,-0.254)">
</g><g
     id="g58"
     transform="translate(-0.271,-0.254)">
</g><g
     id="g60"
     transform="translate(-0.271,-0.254)">
</g><g
     id="g62"
     transform="translate(-0.271,-0.254)">
</g><g
     id="g64"
     transform="translate(-0.271,-0.254)">
</g></g>
</svg>
