<?xml version="1.0" encoding="UTF-8" standalone="no"?>
<!-- Generator: Adobe Illustrator 25.4.1, SVG Export Plug-In . SVG Version: 6.00 Build 0)  -->

<svg
   version="1.1"
   id="Layer_1"
   x="0px"
   y="0px"
   viewBox="0 0 84.667 85.04"
   enable-background="new 0 0 84.667 85.04"
   xml:space="preserve"
   sodipodi:docname="Live_Year_10.svg"
   inkscape:version="1.2.2 (732a01da63, 2022-12-09)"
   xmlns:inkscape="http://www.inkscape.org/namespaces/inkscape"
   xmlns:sodipodi="http://sodipodi.sourceforge.net/DTD/sodipodi-0.dtd"
   xmlns="http://www.w3.org/2000/svg"
   xmlns:svg="http://www.w3.org/2000/svg"
   xmlns:rdf="http://www.w3.org/1999/02/22-rdf-syntax-ns#"
   xmlns:cc="http://creativecommons.org/ns#"
   xmlns:dc="http://purl.org/dc/elements/1.1/"><metadata
   id="metadata95"><rdf:RDF><cc:Work
       rdf:about=""><dc:format>image/svg+xml</dc:format><dc:type
         rdf:resource="http://purl.org/dc/dcmitype/StillImage" /></cc:Work></rdf:RDF></metadata><defs
   id="defs93" /><sodipodi:namedview
   pagecolor="#ffffff"
   bordercolor="#666666"
   borderopacity="1"
   objecttolerance="10"
   gridtolerance="10"
   guidetolerance="10"
   inkscape:pageopacity="0"
   inkscape:pageshadow="2"
   inkscape:window-width="2560"
   inkscape:window-height="1009"
   id="namedview91"
   showgrid="false"
   inkscape:zoom="7.8493508"
   inkscape:cx="18.536565"
   inkscape:cy="46.373262"
   inkscape:window-x="-8"
   inkscape:window-y="-8"
   inkscape:window-maximized="1"
   inkscape:current-layer="Layer_1"
   inkscape:showpageshadow="2"
   inkscape:pagecheckerboard="0"
   inkscape:deskcolor="#d1d1d1" />
<path
   fill="#00A0DF"
   stroke="#00A0DF"
   stroke-miterlimit="10"
   d="M77.892,69.149c0,4.816-3.91,8.724-8.726,8.724H16.814  c-4.819,0-8.727-3.907-8.727-8.724V16.795c0-4.818,3.907-8.725,8.727-8.725h52.352c4.815,0,8.726,3.906,8.726,8.725V69.149z"
   id="path2" />


<g
   id="g76">
	<g
   id="g74">
		<path
   fill="none"
   d="M46.755,31.667c0.006,0,0.009,0.005,0.012,0.005c0.169-0.316,0.294-0.641,0.394-0.971h-8.969    c0.1,0.33,0.227,0.655,0.394,0.971c0.005,0,0.008-0.005,0.011-0.005H46.755z"
   id="path54" />
		<path
   fill="none"
   d="M46.279,32.401h-7.205c0.266,0.367,0.575,0.714,0.931,1.041h5.34C45.703,33.115,46.012,32.768,46.279,32.401z    "
   id="path56" />
		<path
   fill="none"
   d="M46.77,27.2h-8.186c-0.175,0.331-0.311,0.671-0.413,1.016h9.012C47.081,27.87,46.945,27.531,46.77,27.2z"
   id="path58" />
		<path
   fill="none"
   d="M44.218,38.293c-0.489-0.395-1.01-0.814-1.542-1.243c-0.519,0.417-1.041,0.838-1.539,1.243H44.218z"
   id="path60" />
		<path
   fill="none"
   d="M46.351,40.044c-0.333-0.283-0.748-0.627-1.228-1.016h-4.892c-0.478,0.391-0.894,0.735-1.227,1.016H46.351z"
   id="path62" />
		<path
   fill="none"
   d="M44.729,20.161c0.438-0.355,0.835-0.68,1.178-0.966H39.45c0.346,0.286,0.744,0.613,1.179,0.966H44.729z"
   id="path64" />
		<path
   fill="none"
   d="M41.535,20.895c0.377,0.305,0.76,0.614,1.142,0.922c0.391-0.314,0.774-0.624,1.144-0.922H41.535z"
   id="path66" />
		<path
   fill="none"
   d="M38.049,29.966h9.255c0.025-0.178,0.075-0.355,0.078-0.533c-0.003-0.161-0.05-0.322-0.072-0.483h-9.268    c-0.022,0.161-0.069,0.322-0.072,0.483C37.974,29.611,38.024,29.788,38.049,29.966z"
   id="path68" />
		<path
   fill="none"
   d="M46.279,26.465c-0.267-0.367-0.577-0.714-0.933-1.041h-5.339c-0.356,0.327-0.666,0.674-0.933,1.041H46.279z"
   id="path70" />
		<path
   fill="#FFFFFF"
   d="M43.544,36.352c0.883-0.711,1.688-1.361,2.222-1.802c1.682-1.385,2.668-3.248,2.707-5.106    c0-0.005-0.003-0.008-0.003-0.011c0-0.003,0.003-0.006,0.003-0.011c-0.039-1.858-1.025-3.721-2.707-5.106    c-0.535-0.441-1.339-1.091-2.222-1.8c1.81-1.457,3.487-2.81,4.118-3.392c1.258-1.169,0.683-2.526,0.658-2.583    c-0.119-0.272-0.435-0.392-0.706-0.28c-0.275,0.116-0.403,0.435-0.292,0.71c0.03,0.075,0.27,0.735-0.398,1.353    c-0.041,0.037-0.1,0.091-0.153,0.136h-8.121c-0.017,0-0.028,0.017-0.044,0.019c-0.061-0.053-0.13-0.113-0.175-0.155    c-0.666-0.617-0.43-1.275-0.398-1.352c0.117-0.274-0.009-0.591-0.283-0.711c-0.275-0.122-0.595,0.005-0.716,0.28    c-0.025,0.058-0.6,1.414,0.66,2.583c0.656,0.606,2.844,2.368,4.776,3.923c0.753,0.606,1.466,1.18,2.036,1.643h-3.659    c0.119-0.099,0.256-0.208,0.461-0.374c0.234-0.189,0.27-0.531,0.083-0.766c-0.191-0.234-0.533-0.269-0.766-0.081    c-0.553,0.447-0.675,0.547-1.038,0.847c-1.682,1.385-2.668,3.244-2.707,5.106c0,0.005,0.003,0.008,0.003,0.011    c0,0.003-0.003,0.006-0.003,0.011c0.039,1.861,1.025,3.721,2.707,5.106l1.038,0.847c0.1,0.081,0.222,0.122,0.341,0.122    c0.159,0,0.316-0.069,0.425-0.203c0.188-0.234,0.152-0.575-0.081-0.766l-0.46-0.374h3.656c-0.57,0.463-1.283,1.036-2.036,1.643    c-1.932,1.555-4.12,3.316-4.779,3.923c-1.256,1.169-0.681,2.526-0.656,2.583c0.088,0.202,0.286,0.322,0.494,0.322    c0.072,0,0.144-0.014,0.213-0.042c0.275-0.116,0.403-0.435,0.292-0.71c-0.027-0.066-0.177-0.578,0.22-1.117h8.849    c0.394,0.538,0.247,1.049,0.22,1.116c-0.117,0.273,0.009,0.591,0.283,0.711c0.07,0.031,0.144,0.047,0.219,0.047    c0.209,0,0.408-0.122,0.497-0.327c0.025-0.058,0.6-1.414-0.66-2.583C47.026,39.156,45.354,37.809,43.544,36.352z M40.231,39.028    h4.892c0.48,0.389,0.895,0.733,1.228,1.016h-7.347C39.337,39.762,39.753,39.418,40.231,39.028z M42.675,37.051    c0.533,0.428,1.053,0.847,1.542,1.243h-3.082C41.635,37.888,42.157,37.468,42.675,37.051z M39.075,32.401h7.205    c-0.267,0.367-0.577,0.714-0.933,1.041h-5.34C39.65,33.115,39.34,32.768,39.075,32.401z M38.192,30.701h8.969    c-0.1,0.33-0.225,0.655-0.394,0.971c-0.003,0-0.006-0.005-0.012-0.005h-8.158c-0.003,0-0.006,0.005-0.011,0.005    C38.418,31.356,38.292,31.031,38.192,30.701z M38.584,27.2h8.186c0.175,0.331,0.311,0.671,0.413,1.016h-9.012    C38.273,27.87,38.409,27.531,38.584,27.2z M40.008,25.424h5.339c0.356,0.327,0.666,0.674,0.933,1.041h-7.205    C39.342,26.098,39.651,25.751,40.008,25.424z M47.311,28.95c0.022,0.161,0.069,0.322,0.072,0.483    c-0.003,0.178-0.053,0.355-0.078,0.533h-9.255c-0.025-0.178-0.075-0.355-0.078-0.533c0.003-0.161,0.05-0.322,0.072-0.483H47.311z     M41.535,20.895h2.286c-0.37,0.298-0.753,0.608-1.144,0.922C42.294,21.509,41.911,21.2,41.535,20.895z M45.907,19.195    c-0.344,0.286-0.741,0.611-1.178,0.966h-4.101c-0.435-0.353-0.833-0.68-1.179-0.966H45.907z"
   id="path72" />
	</g>
</g>
<g
   id="g78">
</g>
<g
   id="g80">
</g>
<g
   id="g82">
</g>
<g
   id="g84">
</g>
<g
   id="g86">
</g>
<g
   id="g88">
</g>
<text
   xml:space="preserve"
   style="font-weight:bold;font-size:9.33333px;font-family:Arial;-inkscape-font-specification:'Arial Bold';fill:#ffffff;stroke:#293740;stroke-width:6.094"
   x="26.665085"
   y="64.861015"
   id="text369"><tspan
     sodipodi:role="line"
     id="tspan367" /></text><text
   xml:space="preserve"
   style="font-weight:bold;font-size:9.33333px;font-family:Arial;-inkscape-font-specification:'Arial Bold';fill:#004876;fill-opacity:1;stroke:none;stroke-width:6.094;stroke-opacity:1"
   x="10.056492"
   y="58.949467"
   id="text3875"><tspan
     sodipodi:role="line"
     id="tspan3873"
     x="10.056492"
     y="58.949467">LIFE SCIENCE</tspan></text></svg>
