<?xml version="1.0" encoding="UTF-8" standalone="no"?>
<!-- Generator: Adobe Illustrator 25.4.1, SVG Export Plug-In . SVG Version: 6.00 Build 0)  -->

<svg
   xmlns:dc="http://purl.org/dc/elements/1.1/"
   xmlns:cc="http://creativecommons.org/ns#"
   xmlns:rdf="http://www.w3.org/1999/02/22-rdf-syntax-ns#"
   xmlns:svg="http://www.w3.org/2000/svg"
   xmlns="http://www.w3.org/2000/svg"
   xmlns:sodipodi="http://sodipodi.sourceforge.net/DTD/sodipodi-0.dtd"
   xmlns:inkscape="http://www.inkscape.org/namespaces/inkscape"
   version="1.1"
   x="0px"
   y="0px"
   viewBox="0 0 84.667 85.04"
   enable-background="new 0 0 84.667 85.04"
   xml:space="preserve"
   id="svg152"
   sodipodi:docname="Marine_Year_10.svg"
   inkscape:version="0.92.4 (5da689c313, 2019-01-14)"><metadata
   id="metadata158"><rdf:RDF><cc:Work
       rdf:about=""><dc:format>image/svg+xml</dc:format><dc:type
         rdf:resource="http://purl.org/dc/dcmitype/StillImage" /><dc:title></dc:title></cc:Work></rdf:RDF></metadata><defs
   id="defs156">
	
	
	
	
	
	
	
	
	
	
	
	
	
	
	
	
	
	
	
	
	
	
	
	
	
	
	
	
	
	
	
	
	
	
	
	
	
	
	
</defs><sodipodi:namedview
   pagecolor="#ffffff"
   bordercolor="#666666"
   borderopacity="1"
   objecttolerance="10"
   gridtolerance="10"
   guidetolerance="10"
   inkscape:pageopacity="0"
   inkscape:pageshadow="2"
   inkscape:window-width="732"
   inkscape:window-height="480"
   id="namedview154"
   showgrid="false"
   inkscape:zoom="0.086723894"
   inkscape:cx="-529.95438"
   inkscape:cy="1013.8568"
   inkscape:window-x="962"
   inkscape:window-y="78"
   inkscape:window-maximized="0"
   inkscape:current-layer="svg152" />
<path
   style="fill:#009490;stroke:#009490;stroke-miterlimit:10"
   inkscape:connector-curvature="0"
   id="path2"
   d="m 77.892,69.149 c 0,4.816 -3.91,8.724 -8.726,8.724 H 16.814 c -4.819,0 -8.727,-3.907 -8.727,-8.724 V 16.795 c 0,-4.818 3.907,-8.725 8.727,-8.725 h 52.352 c 4.815,0 8.726,3.906 8.726,8.725 z"
   stroke-miterlimit="10" /><g
   id="g64">
		<g
   id="g62">
			<path
   style="fill:#004e59"
   inkscape:connector-curvature="0"
   id="path36"
   d="m 13.149,58.014 l -0.838,-3.329 v 3.607 c 0,0.199 -0.044,0.35 -0.134,0.449 c -0.089,0.1 -0.207,0.149 -0.354,0.149 c -0.143,0 -0.259,-0.049 -0.35,-0.147 c -0.091,-0.098 -0.135,-0.249 -0.135,-0.451 v -4.135 c 0,-0.229 0.06,-0.382 0.178,-0.462 c 0.119,-0.079 0.279,-0.119 0.481,-0.119 h 0.328 c 0.197,0 0.34,0.018 0.43,0.054 c 0.089,0.035 0.155,0.1 0.198,0.192 c 0.043,0.092 0.091,0.243 0.146,0.452 l 0.759,2.862 l 0.759,-2.862 c 0.055,-0.209 0.104,-0.359 0.146,-0.452 c 0.043,-0.093 0.109,-0.157 0.198,-0.192 c 0.089,-0.036 0.232,-0.054 0.429,-0.054 h 0.328 c 0.202,0 0.362,0.04 0.481,0.119 c 0.119,0.08 0.178,0.233 0.178,0.462 v 4.135 c 0,0.199 -0.044,0.35 -0.133,0.449 c -0.089,0.1 -0.209,0.149 -0.358,0.149 c -0.14,0 -0.255,-0.05 -0.346,-0.149 c -0.091,-0.099 -0.136,-0.25 -0.136,-0.449 v -3.607 l -0.837,3.329 c -0.055,0.217 -0.099,0.375 -0.134,0.477 c -0.034,0.101 -0.098,0.192 -0.19,0.276 c -0.093,0.083 -0.221,0.124 -0.385,0.124 c -0.124,0 -0.228,-0.026 -0.313,-0.08 c -0.085,-0.054 -0.152,-0.122 -0.2,-0.205 C 13.297,58.523 13.26,58.431 13.233,58.33 c -0.028,-0.101 -0.056,-0.207 -0.084,-0.316 z" />
			<path
   style="fill:#004e59"
   inkscape:connector-curvature="0"
   id="path38"
   d="m 20.809,58.21 l -0.25,-0.656 h -2.124 l -0.25,0.671 c -0.098,0.261 -0.181,0.438 -0.25,0.529 c -0.069,0.091 -0.182,0.137 -0.339,0.137 c -0.133,0 -0.25,-0.049 -0.353,-0.146 C 17.141,58.647 17.09,58.537 17.09,58.413 c 0,-0.071 0.012,-0.145 0.035,-0.221 c 0.024,-0.076 0.063,-0.182 0.118,-0.317 l 1.337,-3.394 c 0.038,-0.098 0.083,-0.214 0.137,-0.351 c 0.053,-0.137 0.11,-0.25 0.171,-0.341 c 0.061,-0.09 0.14,-0.163 0.239,-0.219 c 0.099,-0.057 0.221,-0.084 0.366,-0.084 c 0.147,0 0.27,0.027 0.369,0.084 c 0.099,0.056 0.178,0.127 0.239,0.215 c 0.061,0.089 0.112,0.183 0.153,0.284 c 0.042,0.101 0.095,0.235 0.159,0.404 l 1.365,3.372 c 0.107,0.257 0.161,0.443 0.161,0.56 c 0,0.121 -0.051,0.232 -0.152,0.333 c -0.101,0.102 -0.223,0.151 -0.365,0.151 c -0.083,0 -0.154,-0.015 -0.214,-0.044 c -0.06,-0.03 -0.109,-0.07 -0.15,-0.121 c -0.04,-0.052 -0.083,-0.13 -0.13,-0.235 C 20.882,58.384 20.842,58.291 20.809,58.21 Z m -2.096,-1.45 h 1.561 l -0.788,-2.157 z" />
			<path
   style="fill:#004e59"
   inkscape:connector-curvature="0"
   id="path40"
   d="m 24.138,56.566 h -0.371 v 1.68 c 0,0.221 -0.049,0.384 -0.146,0.488 c -0.097,0.104 -0.225,0.156 -0.381,0.156 c -0.169,0 -0.299,-0.055 -0.392,-0.164 c -0.093,-0.109 -0.139,-0.27 -0.139,-0.48 v -4.021 c 0,-0.228 0.051,-0.393 0.153,-0.495 c 0.102,-0.102 0.268,-0.153 0.496,-0.153 h 1.722 c 0.237,0 0.441,0.01 0.609,0.03 c 0.169,0.021 0.321,0.062 0.457,0.123 c 0.164,0.069 0.309,0.168 0.435,0.296 c 0.126,0.128 0.222,0.277 0.287,0.447 c 0.065,0.17 0.098,0.35 0.098,0.54 c 0,0.39 -0.11,0.701 -0.33,0.934 c -0.22,0.233 -0.553,0.398 -1,0.496 c 0.188,0.1 0.367,0.247 0.538,0.441 c 0.171,0.195 0.324,0.402 0.458,0.622 c 0.134,0.22 0.239,0.419 0.313,0.596 c 0.075,0.177 0.112,0.299 0.112,0.365 c 0,0.069 -0.022,0.137 -0.066,0.205 c -0.044,0.067 -0.104,0.121 -0.18,0.16 c -0.076,0.039 -0.164,0.059 -0.264,0.059 c -0.119,0 -0.219,-0.027 -0.3,-0.084 c -0.081,-0.056 -0.15,-0.126 -0.208,-0.212 C 25.981,58.51 25.902,58.384 25.802,58.217 L 25.378,57.512 C 25.226,57.253 25.09,57.056 24.97,56.92 c -0.12,-0.136 -0.242,-0.229 -0.365,-0.278 c -0.123,-0.049 -0.279,-0.076 -0.467,-0.076 z m 0.606,-2.195 h -0.977 v 1.437 h 0.948 c 0.254,0 0.468,-0.021 0.642,-0.066 c 0.173,-0.044 0.306,-0.118 0.397,-0.224 c 0.092,-0.106 0.137,-0.252 0.137,-0.438 c 0,-0.145 -0.037,-0.272 -0.11,-0.383 c -0.073,-0.111 -0.176,-0.193 -0.307,-0.248 c -0.123,-0.052 -0.367,-0.078 -0.73,-0.078 z" />
			<path
   style="fill:#004e59"
   inkscape:connector-curvature="0"
   id="path42"
   d="m 28.009,58.246 v -4.117 c 0,-0.214 0.048,-0.374 0.146,-0.481 c 0.097,-0.106 0.223,-0.16 0.378,-0.16 c 0.159,0 0.288,0.053 0.387,0.158 c 0.099,0.106 0.148,0.267 0.148,0.483 v 4.117 c 0,0.216 -0.049,0.378 -0.148,0.484 c -0.099,0.106 -0.228,0.16 -0.387,0.16 c -0.152,0 -0.278,-0.054 -0.376,-0.162 C 28.059,58.62 28.009,58.46 28.009,58.246 Z" />
			<path
   style="fill:#004e59"
   inkscape:connector-curvature="0"
   id="path44"
   d="m 31.63,54.122 l 2.035,3.079 v -3.108 c 0,-0.201 0.043,-0.354 0.13,-0.454 c 0.086,-0.101 0.204,-0.151 0.351,-0.151 c 0.152,0 0.272,0.051 0.36,0.151 c 0.088,0.1 0.132,0.253 0.132,0.454 v 4.11 c 0,0.458 -0.19,0.688 -0.57,0.688 c -0.095,0 -0.181,-0.014 -0.256,-0.041 C 33.736,58.823 33.665,58.78 33.598,58.72 C 33.531,58.66 33.47,58.591 33.412,58.512 c -0.057,-0.08 -0.114,-0.161 -0.171,-0.245 l -1.985,-3.044 v 3.062 c 0,0.199 -0.046,0.351 -0.139,0.452 c -0.093,0.103 -0.211,0.153 -0.356,0.153 c -0.15,0 -0.27,-0.052 -0.36,-0.155 c -0.09,-0.103 -0.136,-0.253 -0.136,-0.45 v -4.031 c 0,-0.172 0.019,-0.306 0.057,-0.403 c 0.045,-0.106 0.12,-0.194 0.225,-0.262 c 0.105,-0.068 0.217,-0.102 0.338,-0.102 c 0.095,0 0.177,0.016 0.244,0.046 c 0.068,0.031 0.127,0.073 0.178,0.125 c 0.051,0.053 0.104,0.12 0.157,0.203 c 0.054,0.083 0.109,0.17 0.166,0.261 z" />
			<path
   style="fill:#004e59"
   inkscape:connector-curvature="0"
   id="path46"
   d="m 39.241,54.393 h -2.385 v 1.283 h 2.196 c 0.162,0 0.282,0.036 0.362,0.108 c 0.08,0.073 0.119,0.168 0.119,0.287 c 0,0.119 -0.039,0.216 -0.117,0.291 c -0.079,0.074 -0.2,0.112 -0.364,0.112 h -2.196 v 1.486 h 2.467 c 0.166,0 0.292,0.038 0.376,0.115 c 0.084,0.077 0.126,0.181 0.126,0.309 c 0,0.124 -0.042,0.224 -0.126,0.301 c -0.084,0.077 -0.21,0.116 -0.376,0.116 h -2.876 c -0.231,0 -0.396,-0.051 -0.498,-0.153 C 35.847,58.546 35.798,58.38 35.798,58.153 v -3.929 c 0,-0.151 0.022,-0.275 0.068,-0.372 c 0.045,-0.097 0.116,-0.166 0.212,-0.21 c 0.096,-0.044 0.219,-0.066 0.369,-0.066 h 2.794 c 0.168,0 0.294,0.037 0.376,0.112 c 0.082,0.075 0.123,0.173 0.123,0.294 c 0,0.124 -0.041,0.223 -0.123,0.298 c -0.082,0.075 -0.208,0.113 -0.376,0.113 z" />
			<path
   style="fill:#004e59"
   inkscape:connector-curvature="0"
   id="path48"
   d="m 46.462,57.233 c 0,0.316 -0.082,0.6 -0.244,0.852 c -0.162,0.252 -0.401,0.449 -0.715,0.592 c -0.313,0.143 -0.686,0.214 -1.115,0.214 c -0.516,0 -0.941,-0.097 -1.276,-0.292 C 42.874,58.458 42.681,58.272 42.533,58.037 C 42.385,57.802 42.31,57.575 42.31,57.354 c 0,-0.128 0.044,-0.238 0.133,-0.33 c 0.089,-0.091 0.203,-0.137 0.341,-0.137 c 0.111,0 0.206,0.035 0.283,0.106 c 0.077,0.071 0.143,0.178 0.198,0.317 c 0.066,0.167 0.139,0.306 0.216,0.417 c 0.077,0.112 0.186,0.204 0.326,0.276 c 0.14,0.072 0.324,0.109 0.552,0.109 c 0.314,0 0.569,-0.073 0.765,-0.22 c 0.196,-0.146 0.294,-0.328 0.294,-0.547 c 0,-0.174 -0.053,-0.314 -0.159,-0.423 c -0.105,-0.107 -0.242,-0.19 -0.41,-0.247 c -0.167,-0.058 -0.392,-0.118 -0.672,-0.183 c -0.375,-0.088 -0.69,-0.19 -0.943,-0.308 C 42.981,56.066 42.78,55.906 42.631,55.703 C 42.482,55.5 42.408,55.247 42.408,54.945 c 0,-0.287 0.079,-0.543 0.235,-0.766 c 0.157,-0.224 0.384,-0.396 0.681,-0.516 c 0.297,-0.12 0.646,-0.18 1.048,-0.18 c 0.321,0 0.599,0.04 0.833,0.119 c 0.234,0.08 0.428,0.186 0.583,0.317 c 0.155,0.132 0.268,0.271 0.339,0.415 c 0.071,0.146 0.107,0.286 0.107,0.425 c 0,0.126 -0.044,0.239 -0.134,0.34 c -0.089,0.102 -0.2,0.151 -0.333,0.151 c -0.122,0 -0.213,-0.03 -0.276,-0.091 C 45.428,55.098 45.36,55 45.286,54.861 C 45.191,54.664 45.077,54.51 44.944,54.4 c -0.133,-0.11 -0.347,-0.166 -0.642,-0.166 c -0.273,0 -0.494,0.06 -0.661,0.18 c -0.167,0.12 -0.251,0.265 -0.251,0.434 c 0,0.104 0.028,0.194 0.085,0.271 c 0.057,0.077 0.135,0.142 0.235,0.196 c 0.1,0.055 0.201,0.098 0.303,0.128 c 0.102,0.031 0.271,0.076 0.506,0.136 c 0.294,0.069 0.561,0.146 0.8,0.229 c 0.239,0.083 0.442,0.184 0.609,0.303 c 0.167,0.119 0.298,0.269 0.392,0.451 c 0.096,0.185 0.142,0.408 0.142,0.671 z" />
			<path
   style="fill:#004e59"
   inkscape:connector-curvature="0"
   id="path50"
   d="m 51.813,57.151 c 0,0.166 -0.041,0.347 -0.123,0.54 c -0.082,0.193 -0.211,0.384 -0.387,0.57 c -0.176,0.186 -0.4,0.338 -0.674,0.454 c -0.273,0.117 -0.592,0.175 -0.955,0.175 c -0.276,0 -0.526,-0.026 -0.752,-0.078 c -0.226,-0.053 -0.431,-0.134 -0.615,-0.244 c -0.184,-0.11 -0.354,-0.256 -0.508,-0.437 C 47.661,57.967 47.544,57.783 47.446,57.58 c -0.097,-0.203 -0.17,-0.42 -0.219,-0.65 C 47.178,56.7 47.154,56.454 47.154,56.196 c 0,-0.421 0.061,-0.797 0.184,-1.13 c 0.122,-0.333 0.297,-0.617 0.525,-0.854 c 0.228,-0.237 0.496,-0.417 0.802,-0.54 c 0.307,-0.124 0.633,-0.186 0.98,-0.186 c 0.423,0 0.8,0.084 1.13,0.253 c 0.331,0.169 0.583,0.377 0.759,0.626 c 0.176,0.248 0.264,0.482 0.264,0.703 c 0,0.122 -0.042,0.229 -0.128,0.321 c -0.086,0.093 -0.189,0.139 -0.31,0.139 c -0.136,0 -0.237,-0.032 -0.305,-0.096 C 50.988,55.368 50.912,55.257 50.829,55.1 c -0.138,-0.259 -0.3,-0.452 -0.487,-0.581 c -0.187,-0.128 -0.417,-0.192 -0.689,-0.192 c -0.435,0 -0.781,0.165 -1.039,0.496 c -0.258,0.33 -0.387,0.799 -0.387,1.407 c 0,0.406 0.057,0.745 0.171,1.015 c 0.114,0.27 0.276,0.471 0.485,0.604 c 0.209,0.134 0.454,0.2 0.734,0.2 c 0.304,0 0.562,-0.075 0.771,-0.227 c 0.21,-0.15 0.369,-0.372 0.476,-0.665 c 0.045,-0.138 0.101,-0.25 0.167,-0.337 c 0.066,-0.086 0.173,-0.13 0.321,-0.13 c 0.126,0 0.234,0.044 0.324,0.132 c 0.09,0.088 0.137,0.199 0.137,0.329 z" />
			<path
   style="fill:#004e59"
   inkscape:connector-curvature="0"
   id="path52"
   d="m 52.808,58.246 v -4.117 c 0,-0.214 0.048,-0.374 0.146,-0.481 c 0.097,-0.106 0.223,-0.16 0.378,-0.16 c 0.159,0 0.288,0.053 0.387,0.158 c 0.099,0.106 0.148,0.267 0.148,0.483 v 4.117 c 0,0.216 -0.049,0.378 -0.148,0.484 c -0.099,0.106 -0.228,0.16 -0.387,0.16 c -0.152,0 -0.278,-0.054 -0.376,-0.162 C 52.857,58.62 52.808,58.46 52.808,58.246 Z" />
			<path
   style="fill:#004e59"
   inkscape:connector-curvature="0"
   id="path54"
   d="m 58.493,54.393 h -2.385 v 1.283 h 2.196 c 0.162,0 0.282,0.036 0.362,0.108 c 0.08,0.073 0.119,0.168 0.119,0.287 c 0,0.119 -0.039,0.216 -0.117,0.291 c -0.079,0.074 -0.2,0.112 -0.364,0.112 h -2.196 v 1.486 h 2.467 c 0.166,0 0.292,0.038 0.376,0.115 c 0.084,0.077 0.126,0.181 0.126,0.309 c 0,0.124 -0.042,0.224 -0.126,0.301 c -0.084,0.077 -0.21,0.116 -0.376,0.116 h -2.876 c -0.231,0 -0.396,-0.051 -0.498,-0.153 C 55.099,58.546 55.05,58.38 55.05,58.153 v -3.929 c 0,-0.151 0.022,-0.275 0.068,-0.372 c 0.045,-0.097 0.116,-0.166 0.212,-0.21 c 0.096,-0.044 0.219,-0.066 0.369,-0.066 h 2.794 c 0.168,0 0.294,0.037 0.376,0.112 c 0.082,0.075 0.123,0.173 0.123,0.294 c 0,0.124 -0.041,0.223 -0.123,0.298 c -0.082,0.075 -0.208,0.113 -0.376,0.113 z" />
			<path
   style="fill:#004e59"
   inkscape:connector-curvature="0"
   id="path56"
   d="m 61.298,54.122 l 2.035,3.079 v -3.108 c 0,-0.201 0.043,-0.354 0.13,-0.454 c 0.086,-0.101 0.204,-0.151 0.351,-0.151 c 0.152,0 0.272,0.051 0.36,0.151 c 0.088,0.1 0.132,0.253 0.132,0.454 v 4.11 c 0,0.458 -0.19,0.688 -0.57,0.688 c -0.095,0 -0.181,-0.014 -0.256,-0.041 C 63.404,58.823 63.333,58.78 63.266,58.72 C 63.199,58.66 63.138,58.591 63.08,58.512 c -0.057,-0.08 -0.114,-0.161 -0.171,-0.245 l -1.985,-3.044 v 3.062 c 0,0.199 -0.046,0.351 -0.139,0.452 c -0.093,0.103 -0.211,0.153 -0.356,0.153 c -0.15,0 -0.27,-0.052 -0.36,-0.155 c -0.09,-0.103 -0.136,-0.253 -0.136,-0.45 v -4.031 c 0,-0.172 0.019,-0.306 0.057,-0.403 c 0.045,-0.106 0.12,-0.194 0.225,-0.262 c 0.105,-0.068 0.217,-0.102 0.338,-0.102 c 0.095,0 0.177,0.016 0.244,0.046 c 0.068,0.031 0.127,0.073 0.178,0.125 c 0.051,0.053 0.104,0.12 0.157,0.203 c 0.054,0.083 0.109,0.17 0.166,0.261 z" />
			<path
   style="fill:#004e59"
   inkscape:connector-curvature="0"
   id="path58"
   d="m 69.917,57.151 c 0,0.166 -0.041,0.347 -0.123,0.54 c -0.082,0.193 -0.211,0.384 -0.387,0.57 c -0.176,0.186 -0.4,0.338 -0.674,0.454 c -0.273,0.117 -0.592,0.175 -0.955,0.175 c -0.276,0 -0.526,-0.026 -0.752,-0.078 C 66.8,58.759 66.595,58.678 66.411,58.568 c -0.184,-0.11 -0.354,-0.256 -0.508,-0.437 C 65.765,57.967 65.648,57.783 65.55,57.58 C 65.453,57.377 65.38,57.16 65.331,56.93 C 65.282,56.7 65.258,56.454 65.258,56.196 c 0,-0.421 0.061,-0.797 0.184,-1.13 c 0.122,-0.333 0.297,-0.617 0.525,-0.854 c 0.228,-0.237 0.496,-0.417 0.802,-0.54 c 0.307,-0.124 0.633,-0.186 0.98,-0.186 c 0.423,0 0.8,0.084 1.13,0.253 c 0.331,0.169 0.583,0.377 0.759,0.626 c 0.176,0.248 0.264,0.482 0.264,0.703 c 0,0.122 -0.042,0.229 -0.128,0.321 c -0.086,0.093 -0.189,0.139 -0.31,0.139 c -0.136,0 -0.237,-0.032 -0.305,-0.096 C 69.092,55.368 69.016,55.257 68.933,55.1 c -0.138,-0.259 -0.3,-0.452 -0.487,-0.581 c -0.187,-0.128 -0.417,-0.192 -0.689,-0.192 c -0.435,0 -0.781,0.165 -1.039,0.496 c -0.258,0.33 -0.387,0.799 -0.387,1.407 c 0,0.406 0.057,0.745 0.171,1.015 c 0.114,0.27 0.276,0.471 0.485,0.604 c 0.209,0.134 0.454,0.2 0.734,0.2 c 0.304,0 0.562,-0.075 0.771,-0.227 c 0.21,-0.15 0.369,-0.372 0.476,-0.665 c 0.045,-0.138 0.101,-0.25 0.167,-0.337 c 0.066,-0.086 0.173,-0.13 0.321,-0.13 c 0.126,0 0.234,0.044 0.324,0.132 c 0.09,0.088 0.137,0.199 0.137,0.329 z" />
			<path
   style="fill:#004e59"
   inkscape:connector-curvature="0"
   id="path60"
   d="m 74.312,54.393 h -2.385 v 1.283 h 2.196 c 0.162,0 0.282,0.036 0.362,0.108 c 0.08,0.073 0.119,0.168 0.119,0.287 c 0,0.119 -0.039,0.216 -0.117,0.291 c -0.079,0.074 -0.2,0.112 -0.364,0.112 h -2.196 v 1.486 h 2.467 c 0.166,0 0.292,0.038 0.376,0.115 c 0.084,0.077 0.126,0.181 0.126,0.309 c 0,0.124 -0.042,0.224 -0.126,0.301 c -0.084,0.077 -0.21,0.116 -0.376,0.116 h -2.876 c -0.231,0 -0.396,-0.051 -0.498,-0.153 C 70.918,58.546 70.869,58.38 70.869,58.153 v -3.929 c 0,-0.151 0.022,-0.275 0.068,-0.372 c 0.045,-0.097 0.116,-0.166 0.212,-0.21 c 0.096,-0.044 0.219,-0.066 0.369,-0.066 h 2.794 c 0.168,0 0.294,0.037 0.376,0.112 c 0.082,0.075 0.123,0.173 0.123,0.294 c 0,0.124 -0.041,0.223 -0.123,0.298 c -0.082,0.075 -0.208,0.113 -0.376,0.113 z" />
		</g>
	</g><path
   style="fill:#ffffff;stroke:#ffffff;stroke-width:0.1771;stroke-miterlimit:10"
   inkscape:connector-curvature="0"
   id="path102"
   d="M 48.375,23.676 C 48.37,23.58 49.09,23.147 49.121,23.028 c 0.034,-0.133 -0.786,-0.369 -0.8,-0.471 c -0.015,-0.105 0.82,-0.53 0.78,-0.707 c -0.043,-0.192 -0.926,-0.033 -0.962,-0.196 c -0.031,-0.141 0.485,-0.534 0.447,-0.672 c -0.031,-0.11 -0.622,-0.014 -0.658,-0.12 c -0.053,-0.155 0.34,-0.699 0.275,-0.837 c -0.05,-0.105 -0.615,0.003 -0.672,-0.088 c -0.171,-0.271 0.068,-0.632 -0.108,-0.844 c -0.11,-0.133 -0.573,0.053 -0.686,-0.06 C 46.621,18.917 46.69,18.444 46.569,18.347 c -0.176,-0.142 -0.544,0.102 -0.732,-0.007 c -0.138,-0.08 -0.152,-0.516 -0.299,-0.582 c -0.138,-0.062 -0.429,0.246 -0.6,0.195 C 44.425,17.8 43.845,17.679 43.683,17.473 c -0.216,-0.275 -0.647,-1.178 -0.864,-1.178 c -0.177,0 -0.294,0.353 -0.412,0.726 c -0.096,0.302 -0.216,0.609 -0.432,0.766 c -0.216,0.157 -1.158,0.451 -1.492,0.805 c -0.334,0.354 -0.569,0.137 -1.021,1.374 c 0,0 -0.589,0.805 -1.394,1.354 c -0.805,0.55 -0.824,0.589 -1.178,0.746 c -0.353,0.157 -0.923,0.137 -1.217,0.118 c -0.294,-0.02 -0.687,-0.079 0.275,0.785 c 0,0 0.569,0.687 0.923,0.236 c 0.353,-0.451 1.296,-0.962 1.629,-1.139 c 0.334,-0.177 1.237,-0.451 2.081,-0.118 c 0.647,0.256 1.158,0.53 1.767,0.432 c 0.609,-0.098 1.139,-0.589 1.315,-0.785 c 0.177,-0.196 0.476,-0.073 0.569,0.02 c 0.137,0.137 0.648,1.001 0.157,1.649 c -0.491,0.648 -1.787,1.928 -2.395,3.16 c -0.707,1.433 -0.824,4.515 -0.02,6.125 c 0.804,1.61 1.61,2.513 2.257,3.69 c 0.58,1.055 1.06,2.689 1.197,3.828 c 0.113,0.935 0.196,3.121 -0.667,4.888 c -0.359,0.734 -1.237,1.139 -2.061,0.864 c -0.824,-0.275 -1.139,-1.08 -1.139,-1.472 c 0,-0.392 0.039,-0.805 0.51,-1.119 c 0.307,-0.205 0.687,-0.275 1.08,-0.137 c 0.393,0.138 0.55,0.53 0.51,0.844 c -0.047,0.372 -0.216,0.726 -0.726,0.648 c -0.51,-0.079 -0.538,-0.444 -0.393,-0.589 c 0.157,-0.157 0.314,-0.059 0.471,0.039 c 0.157,0.098 0.34,-0.249 0.079,-0.432 c -0.196,-0.137 -0.696,-0.202 -0.923,0.177 c -0.177,0.294 -0.123,0.619 0,0.883 c 0.137,0.294 0.51,0.451 0.942,0.432 c 0.432,-0.019 0.903,-0.373 1.06,-0.883 c 0.117,-0.38 0.098,-1.256 -0.589,-1.61 c -0.698,-0.359 -1.565,-0.229 -2.1,0.216 c -0.557,0.464 -0.9,1.248 -0.53,2.316 c 0.348,1.004 1.139,1.61 1.924,1.669 c 0.785,0.059 2.277,-0.157 2.984,-1.629 c 0.243,-0.505 0.504,-1.407 0.679,-2.4 c 0.05,-0.281 0.092,-0.57 0.126,-0.859 c 0.028,-0.245 0.05,-0.491 0.063,-0.732 c 0.012,-0.218 0.017,-0.433 0.015,-0.642 c -0.006,-0.544 -0.044,-1.182 -0.1,-1.843 c -0.051,-0.613 -0.077,-1.288 -0.189,-1.843 c -0.012,-0.062 -0.029,-0.125 -0.046,-0.187 c -0.1,-0.354 -0.254,-0.712 -0.101,-0.974 c 0.24,-0.413 -0.074,-0.574 -0.133,-0.796 c -0.088,-0.334 -0.294,-1.247 -0.02,-1.58 c 0.274,-0.333 0.837,-0.415 1.207,-0.098 c 0.824,0.707 1.865,1.443 1.443,0.324 c -0.203,-0.539 0.165,-0.62 -0.029,-1.237 c -0.177,-0.559 0.311,-0.784 0.177,-1.266 c -0.147,-0.53 0.372,-0.651 0.258,-1.023 c -0.081,-0.265 0.243,-0.39 0.42,-0.596 c 0.918,-1.071 -0.363,-0.805 -1.207,-0.177 c -0.844,0.628 -1.307,1.192 -1.718,0.736 C 46.44,29.685 46.698,29.412 46.96,29.096 c 0.087,-0.106 0.191,-0.186 0.255,-0.314 c 0.079,-0.157 -0.031,-0.293 0.039,-0.451 c 0.078,-0.177 0.383,-0.134 0.451,-0.353 c 0.03,-0.097 -0.171,-0.298 -0.137,-0.393 c 0.033,-0.093 0.931,0.013 0.962,-0.079 C 48.559,27.42 47.856,26.845 47.882,26.76 c 0.031,-0.099 -0.048,0.058 -0.02,-0.039 c 0.038,-0.133 0.968,-0.225 1.001,-0.353 c 0.028,-0.109 -0.732,-0.601 -0.707,-0.707 c 0.032,-0.136 -0.046,0.07 -0.02,-0.059 c 0.021,-0.101 0.782,-0.224 0.8,-0.319 C 48.96,25.156 48.294,24.756 48.313,24.64 c 0.021,-0.127 0.823,-0.292 0.844,-0.476 C 49.18,23.99 48.379,23.745 48.375,23.676 Z"
   stroke-miterlimit="10" /><circle
   style="fill:#ffffff;stroke:#ffffff;stroke-width:0.1771;stroke-miterlimit:10"
   id="circle104"
   r="0.15700001"
   cy="36.682999"
   cx="46.410999"
   stroke-miterlimit="10" /><circle
   style="fill:#ffffff;stroke:#ffffff;stroke-width:0.1771;stroke-miterlimit:10"
   id="circle106"
   r="0.15700001"
   cy="36.092999"
   cx="46.317001"
   stroke-miterlimit="10" /><circle
   style="fill:#ffffff;stroke:#ffffff;stroke-width:0.1771;stroke-miterlimit:10"
   id="circle108"
   r="0.15700001"
   cy="37.259998"
   cx="46.533001"
   stroke-miterlimit="10" /><circle
   style="fill:#ffffff;stroke:#ffffff;stroke-width:0.1771;stroke-miterlimit:10"
   id="circle110"
   r="0.15700001"
   cy="37.874001"
   cx="46.604"
   stroke-miterlimit="10" /><circle
   style="fill:#ffffff;stroke:#ffffff;stroke-width:0.1771;stroke-miterlimit:10"
   id="circle112"
   r="0.15700001"
   cy="38.487"
   cx="46.676998"
   stroke-miterlimit="10" /><circle
   style="fill:#ffffff;stroke:#ffffff;stroke-width:0.1771;stroke-miterlimit:10"
   id="circle114"
   r="0.15700001"
   cy="39.066002"
   cx="46.726002"
   stroke-miterlimit="10" /><circle
   style="fill:#ffffff;stroke:#ffffff;stroke-width:0.1771;stroke-miterlimit:10"
   id="circle116"
   r="0.15700001"
   cy="39.689999"
   cx="46.757999"
   stroke-miterlimit="10" /><circle
   style="fill:#ffffff;stroke:#ffffff;stroke-width:0.1771;stroke-miterlimit:10"
   id="circle118"
   r="0.15700001"
   cy="40.298"
   cx="46.797001"
   stroke-miterlimit="10" /><circle
   style="fill:#ffffff;stroke:#ffffff;stroke-width:0.1771;stroke-miterlimit:10"
   id="circle120"
   r="0.15700001"
   cy="40.874001"
   cx="46.800999"
   stroke-miterlimit="10" /><circle
   style="fill:#ffffff;stroke:#ffffff;stroke-width:0.1771;stroke-miterlimit:10"
   id="circle122"
   r="0.15700001"
   cy="41.5"
   cx="46.751999"
   stroke-miterlimit="10" /><circle
   style="fill:#ffffff;stroke:#ffffff;stroke-width:0.1771;stroke-miterlimit:10"
   id="circle124"
   r="0.15700001"
   cy="42.108002"
   cx="46.702999"
   stroke-miterlimit="10" /><circle
   style="fill:#ffffff;stroke:#ffffff;stroke-width:0.1771;stroke-miterlimit:10"
   id="circle126"
   r="0.15700001"
   cy="42.707001"
   cx="46.625"
   stroke-miterlimit="10" /><circle
   style="fill:#ffffff;stroke:#ffffff;stroke-width:0.1771;stroke-miterlimit:10"
   id="circle128"
   r="0.15700001"
   cy="43.316002"
   cx="46.487"
   stroke-miterlimit="10" /><circle
   style="fill:#ffffff;stroke:#ffffff;stroke-width:0.1771;stroke-miterlimit:10"
   id="circle130"
   r="0.15700001"
   cy="43.924999"
   cx="46.333"
   stroke-miterlimit="10" /><circle
   style="fill:#ffffff;stroke:#ffffff;stroke-width:0.1771;stroke-miterlimit:10"
   id="circle132"
   r="0.15700001"
   cy="44.592999"
   cx="46.132"
   stroke-miterlimit="10" /><circle
   style="fill:#ffffff;stroke:#ffffff;stroke-width:0.1771;stroke-miterlimit:10"
   id="circle134"
   r="0.15700001"
   cy="45.206001"
   cx="45.856998"
   stroke-miterlimit="10" /><circle
   style="fill:#ffffff;stroke:#ffffff;stroke-width:0.1771;stroke-miterlimit:10"
   id="circle136"
   r="0.15700001"
   cy="45.716999"
   cx="45.473999"
   stroke-miterlimit="10" />
<g
   id="Layer_2">
	<g
   id="g139">
	</g>
	<g
   id="g141">
	</g>
	<g
   id="g143">
	</g>
	<g
   id="g145">
	</g>
	<g
   id="g147">
	</g>
	<g
   id="g149">
	</g>
</g>
</svg>