<?xml version="1.0" encoding="UTF-8" standalone="no"?>
<!-- Generator: Adobe Illustrator 25.4.1, SVG Export Plug-In . SVG Version: 6.00 Build 0)  -->

<svg
   xmlns:dc="http://purl.org/dc/elements/1.1/"
   xmlns:cc="http://creativecommons.org/ns#"
   xmlns:rdf="http://www.w3.org/1999/02/22-rdf-syntax-ns#"
   xmlns:svg="http://www.w3.org/2000/svg"
   xmlns="http://www.w3.org/2000/svg"
   xmlns:sodipodi="http://sodipodi.sourceforge.net/DTD/sodipodi-0.dtd"
   xmlns:inkscape="http://www.inkscape.org/namespaces/inkscape"
   version="1.1"
   id="Layer_1"
   x="0px"
   y="0px"
   viewBox="0 0 84.667 85.04"
   enable-background="new 0 0 84.667 85.04"
   xml:space="preserve"
   sodipodi:docname="Physics_Year_10.svg"
   inkscape:version="0.92.4 (5da689c313, 2019-01-14)"><metadata
   id="metadata113"><rdf:RDF><cc:Work
       rdf:about=""><dc:format>image/svg+xml</dc:format><dc:type
         rdf:resource="http://purl.org/dc/dcmitype/StillImage" /><dc:title></dc:title></cc:Work></rdf:RDF></metadata><defs
   id="defs111" /><sodipodi:namedview
   pagecolor="#ffffff"
   bordercolor="#666666"
   borderopacity="1"
   objecttolerance="10"
   gridtolerance="10"
   guidetolerance="10"
   inkscape:pageopacity="0"
   inkscape:pageshadow="2"
   inkscape:window-width="732"
   inkscape:window-height="480"
   id="namedview109"
   showgrid="false"
   inkscape:zoom="2.7751646"
   inkscape:cx="42.3335"
   inkscape:cy="42.52"
   inkscape:window-x="0"
   inkscape:window-y="0"
   inkscape:window-maximized="0"
   inkscape:current-layer="Layer_1" />
<path
   fill="#277A85"
   stroke="#277A85"
   stroke-miterlimit="10"
   d="M77.892,69.149c0,4.816-3.91,8.724-8.726,8.724H16.814  c-4.819,0-8.727-3.907-8.727-8.724V16.795c0-4.818,3.907-8.725,8.727-8.725h52.352c4.815,0,8.726,3.906,8.726,8.725V69.149z"
   id="path2" />

<g
   id="g52">
	<g
   id="g50">
		<path
   fill="#183E47"
   d="M26.331,56.292h-1.195v1.824c0,0.261-0.062,0.459-0.185,0.594c-0.123,0.134-0.278,0.201-0.466,0.201    c-0.196,0-0.354-0.066-0.475-0.199c-0.12-0.134-0.18-0.329-0.18-0.587v-4.966c0-0.287,0.066-0.492,0.198-0.615    s0.341-0.185,0.628-0.185h1.674c0.495,0,0.876,0.038,1.143,0.114c0.264,0.073,0.491,0.195,0.683,0.365s0.338,0.377,0.438,0.623    s0.149,0.523,0.149,0.831c0,0.656-0.202,1.153-0.606,1.492C27.732,56.123,27.13,56.292,26.331,56.292z M26.014,53.339h-0.879    v1.969h0.879c0.308,0,0.565-0.031,0.771-0.096c0.207-0.064,0.364-0.17,0.473-0.316s0.163-0.339,0.163-0.576    c0-0.284-0.083-0.516-0.25-0.694C26.982,53.435,26.597,53.339,26.014,53.339z"
   id="path36" />
		<path
   fill="#183E47"
   d="M31.147,53.04v1.846h2.817V53.04c0-0.264,0.06-0.461,0.178-0.593c0.119-0.132,0.275-0.198,0.468-0.198    c0.196,0,0.355,0.065,0.477,0.196c0.121,0.13,0.182,0.329,0.182,0.595v5.076c0,0.267-0.062,0.466-0.185,0.598    s-0.281,0.197-0.475,0.197c-0.196,0-0.353-0.066-0.47-0.199c-0.117-0.134-0.176-0.332-0.176-0.596V55.95h-2.817v2.166    c0,0.267-0.062,0.466-0.185,0.598s-0.281,0.197-0.475,0.197c-0.196,0-0.353-0.066-0.47-0.199    c-0.117-0.134-0.176-0.332-0.176-0.596V53.04c0-0.264,0.058-0.461,0.174-0.593c0.115-0.132,0.273-0.198,0.472-0.198    c0.196,0,0.355,0.065,0.477,0.196C31.086,52.575,31.147,52.774,31.147,53.04z"
   id="path38" />
		<path
   fill="#183E47"
   d="M38.108,58.116v-2.043l-1.573-2.439c-0.138-0.22-0.235-0.391-0.292-0.514    c-0.057-0.123-0.085-0.23-0.085-0.321c0-0.149,0.058-0.278,0.173-0.387s0.259-0.163,0.429-0.163c0.179,0,0.314,0.051,0.406,0.152    c0.093,0.101,0.231,0.303,0.416,0.604l1.204,1.956l1.217-1.956c0.073-0.119,0.135-0.221,0.185-0.303s0.104-0.159,0.165-0.23    c0.06-0.072,0.126-0.127,0.2-0.165s0.163-0.058,0.268-0.058c0.164,0,0.301,0.054,0.411,0.161c0.109,0.106,0.165,0.23,0.165,0.371    c0,0.114-0.028,0.229-0.083,0.343s-0.151,0.272-0.286,0.475l-1.613,2.475v2.043c0,0.267-0.062,0.466-0.185,0.598    s-0.28,0.197-0.47,0.197c-0.193,0-0.35-0.064-0.47-0.195C38.168,58.586,38.108,58.386,38.108,58.116z"
   id="path40" />
		<path
   fill="#183E47"
   d="M46.967,56.868c0,0.39-0.101,0.74-0.301,1.051c-0.201,0.311-0.495,0.553-0.881,0.729    s-0.845,0.264-1.375,0.264c-0.636,0-1.16-0.119-1.573-0.359c-0.293-0.173-0.531-0.404-0.714-0.692    c-0.184-0.289-0.275-0.569-0.275-0.842c0-0.158,0.055-0.294,0.165-0.406c0.11-0.113,0.25-0.169,0.42-0.169    c0.138,0,0.254,0.043,0.35,0.131c0.095,0.088,0.176,0.219,0.244,0.392c0.082,0.205,0.17,0.377,0.266,0.515    c0.095,0.138,0.229,0.251,0.402,0.34c0.173,0.09,0.4,0.135,0.681,0.135c0.387,0,0.701-0.091,0.942-0.271    c0.242-0.181,0.363-0.405,0.363-0.675c0-0.214-0.065-0.388-0.196-0.521c-0.13-0.134-0.299-0.235-0.505-0.306    c-0.207-0.07-0.483-0.145-0.829-0.225c-0.463-0.107-0.85-0.234-1.163-0.38c-0.312-0.145-0.56-0.343-0.742-0.593    c-0.184-0.251-0.275-0.562-0.275-0.934c0-0.354,0.097-0.67,0.29-0.945s0.473-0.487,0.839-0.635    c0.366-0.148,0.797-0.223,1.292-0.223c0.396,0,0.737,0.05,1.026,0.147c0.288,0.099,0.528,0.229,0.718,0.392    c0.19,0.162,0.33,0.333,0.417,0.512s0.132,0.354,0.132,0.523c0,0.155-0.055,0.295-0.165,0.419    c-0.109,0.125-0.247,0.187-0.411,0.187c-0.149,0-0.263-0.037-0.34-0.111c-0.078-0.075-0.162-0.197-0.253-0.367    c-0.117-0.243-0.258-0.433-0.422-0.569c-0.164-0.136-0.428-0.204-0.791-0.204c-0.337,0-0.608,0.074-0.815,0.222    c-0.206,0.148-0.31,0.326-0.31,0.534c0,0.129,0.035,0.24,0.105,0.334s0.167,0.175,0.29,0.242s0.248,0.12,0.374,0.158    s0.334,0.094,0.624,0.166c0.363,0.086,0.692,0.18,0.987,0.281c0.294,0.104,0.545,0.228,0.751,0.374    c0.207,0.146,0.368,0.332,0.483,0.556C46.909,56.269,46.967,56.543,46.967,56.868z"
   id="path42" />
		<path
   fill="#183E47"
   d="M48.127,58.116V53.04c0-0.264,0.06-0.461,0.18-0.593s0.275-0.198,0.466-0.198    c0.196,0,0.355,0.065,0.477,0.196c0.121,0.13,0.182,0.329,0.182,0.595v5.076c0,0.267-0.061,0.466-0.182,0.598    c-0.122,0.132-0.281,0.197-0.477,0.197c-0.188,0-0.342-0.066-0.463-0.199C48.188,58.578,48.127,58.38,48.127,58.116z"
   id="path44" />
		<path
   fill="#183E47"
   d="M56.38,56.767c0,0.206-0.05,0.428-0.152,0.666c-0.101,0.239-0.26,0.474-0.477,0.703    c-0.217,0.23-0.494,0.417-0.831,0.561s-0.729,0.215-1.178,0.215c-0.34,0-0.649-0.032-0.927-0.096    c-0.278-0.064-0.531-0.165-0.758-0.302c-0.228-0.136-0.436-0.315-0.626-0.538c-0.17-0.202-0.315-0.429-0.435-0.679    c-0.12-0.251-0.21-0.518-0.271-0.802s-0.09-0.586-0.09-0.906c0-0.518,0.075-0.982,0.227-1.393c0.15-0.41,0.367-0.761,0.648-1.053    c0.281-0.291,0.611-0.513,0.989-0.666c0.378-0.151,0.781-0.229,1.208-0.229c0.521,0,0.986,0.104,1.393,0.312    s0.719,0.465,0.936,0.771c0.217,0.306,0.325,0.596,0.325,0.867c0,0.15-0.053,0.281-0.158,0.396    c-0.105,0.113-0.233,0.171-0.382,0.171c-0.167,0-0.292-0.04-0.376-0.118c-0.083-0.08-0.176-0.216-0.279-0.409    c-0.17-0.319-0.37-0.558-0.6-0.716s-0.513-0.238-0.85-0.238c-0.536,0-0.963,0.204-1.281,0.611    c-0.318,0.407-0.477,0.986-0.477,1.736c0,0.5,0.07,0.917,0.211,1.25c0.141,0.332,0.34,0.581,0.598,0.744    c0.258,0.165,0.56,0.246,0.905,0.246c0.375,0,0.692-0.093,0.952-0.278c0.259-0.187,0.455-0.46,0.586-0.819    c0.056-0.17,0.125-0.309,0.207-0.416c0.082-0.106,0.214-0.16,0.396-0.16c0.155,0,0.289,0.055,0.4,0.162    C56.325,56.472,56.38,56.606,56.38,56.767z"
   id="path46" />
		<path
   fill="#183E47"
   d="M62.449,56.868c0,0.39-0.101,0.74-0.301,1.051c-0.201,0.311-0.495,0.553-0.881,0.729    s-0.845,0.264-1.375,0.264c-0.636,0-1.16-0.119-1.573-0.359c-0.293-0.173-0.531-0.404-0.714-0.692    c-0.184-0.289-0.275-0.569-0.275-0.842c0-0.158,0.055-0.294,0.165-0.406c0.11-0.113,0.25-0.169,0.42-0.169    c0.138,0,0.254,0.043,0.35,0.131c0.095,0.088,0.176,0.219,0.244,0.392c0.082,0.205,0.17,0.377,0.266,0.515    c0.095,0.138,0.229,0.251,0.402,0.34c0.173,0.09,0.4,0.135,0.681,0.135c0.387,0,0.701-0.091,0.942-0.271    c0.242-0.181,0.363-0.405,0.363-0.675c0-0.214-0.065-0.388-0.196-0.521c-0.13-0.134-0.299-0.235-0.505-0.306    c-0.207-0.07-0.483-0.145-0.829-0.225c-0.463-0.107-0.85-0.234-1.163-0.38c-0.312-0.145-0.56-0.343-0.742-0.593    c-0.184-0.251-0.275-0.562-0.275-0.934c0-0.354,0.097-0.67,0.29-0.945s0.473-0.487,0.839-0.635    c0.366-0.148,0.797-0.223,1.292-0.223c0.396,0,0.737,0.05,1.026,0.147c0.288,0.099,0.528,0.229,0.718,0.392    c0.19,0.162,0.33,0.333,0.417,0.512s0.132,0.354,0.132,0.523c0,0.155-0.055,0.295-0.165,0.419    c-0.109,0.125-0.247,0.187-0.411,0.187c-0.149,0-0.263-0.037-0.34-0.111c-0.078-0.075-0.162-0.197-0.253-0.367    c-0.117-0.243-0.258-0.433-0.422-0.569c-0.164-0.136-0.428-0.204-0.791-0.204c-0.337,0-0.608,0.074-0.815,0.222    c-0.206,0.148-0.31,0.326-0.31,0.534c0,0.129,0.035,0.24,0.105,0.334s0.167,0.175,0.29,0.242s0.248,0.12,0.374,0.158    s0.334,0.094,0.624,0.166c0.363,0.086,0.692,0.18,0.987,0.281c0.294,0.104,0.545,0.228,0.751,0.374    c0.207,0.146,0.368,0.332,0.483,0.556C62.391,56.269,62.449,56.543,62.449,56.868z"
   id="path48" />
	</g>
</g>
<path
   fill="#277A85"
   stroke="#FFFFFF"
   stroke-width="1.5"
   stroke-miterlimit="10"
   d="M58,31.499C58,40.061,51.061,47,42.499,47  c-8.559,0-15.498-6.939-15.498-15.501C27.001,22.939,33.94,16,42.499,16C51.061,16,58,22.939,58,31.499z"
   id="path54" />
<g
   id="g68">
	
		<line
   fill="#FFFFFF"
   stroke="#FFFFFF"
   stroke-width="1.5614"
   stroke-linecap="round"
   stroke-linejoin="round"
   stroke-miterlimit="10"
   x1="39.219"
   y1="31.931"
   x2="30.173"
   y2="31.924"
   id="line56" />
	<g
   id="g66">
		<g
   id="g64">
			<g
   id="g62">
				<g
   id="g60">
					<polygon
   fill="#FFFFFF"
   points="37.171,33.965 38.035,31.931 37.171,29.897 41.992,31.931      "
   id="polygon58" />
				</g>
			</g>
		</g>
	</g>
</g>
<g
   id="g82">
	
		<line
   fill="#FFFFFF"
   stroke="#FFFFFF"
   stroke-width="1.5614"
   stroke-linecap="round"
   stroke-linejoin="round"
   stroke-miterlimit="10"
   x1="45.768"
   y1="31.931"
   x2="54.883"
   y2="31.931"
   id="line70" />
	<g
   id="g80">
		<g
   id="g78">
			<g
   id="g76">
				<g
   id="g74">
					<polygon
   fill="#FFFFFF"
   points="47.816,29.897 46.952,31.931 47.816,33.965 42.995,31.931      "
   id="polygon72" />
				</g>
			</g>
		</g>
	</g>
</g>
<line
   fill="#FFFFFF"
   stroke="#FFFFFF"
   stroke-width="0.9243"
   stroke-linecap="round"
   stroke-linejoin="round"
   stroke-miterlimit="10"
   x1="42.5"
   y1="18.983"
   x2="42.5"
   y2="29.512"
   id="line84" />
<line
   fill="#FFFFFF"
   stroke="#FFFFFF"
   stroke-width="0.9243"
   stroke-linecap="round"
   stroke-linejoin="round"
   stroke-miterlimit="10"
   x1="36.168"
   y1="24.811"
   x2="40.552"
   y2="29.196"
   id="line86" />
<line
   fill="#FFFFFF"
   stroke="#FFFFFF"
   stroke-width="0.9243"
   stroke-linecap="round"
   stroke-linejoin="round"
   stroke-miterlimit="10"
   x1="48.815"
   y1="24.811"
   x2="44.432"
   y2="29.196"
   id="line88" />
<line
   fill="#FFFFFF"
   stroke="#FFFFFF"
   stroke-width="0.9243"
   stroke-linecap="round"
   stroke-linejoin="round"
   stroke-miterlimit="10"
   x1="36.168"
   y1="38.576"
   x2="40.552"
   y2="34.192"
   id="line90" />
<line
   fill="#FFFFFF"
   stroke="#FFFFFF"
   stroke-width="0.9243"
   stroke-linecap="round"
   stroke-linejoin="round"
   stroke-miterlimit="10"
   x1="48.815"
   y1="38.576"
   x2="44.432"
   y2="34.192"
   id="line92" />
<line
   fill="#FFFFFF"
   stroke="#FFFFFF"
   stroke-width="0.9243"
   stroke-linecap="round"
   stroke-linejoin="round"
   stroke-miterlimit="10"
   x1="42.5"
   y1="34.454"
   x2="42.5"
   y2="44.682"
   id="line94" />
<g
   id="g96">
</g>
<g
   id="g98">
</g>
<g
   id="g100">
</g>
<g
   id="g102">
</g>
<g
   id="g104">
</g>
<g
   id="g106">
</g>
</svg>