<?xml version="1.0" encoding="utf-8"?>
<!-- Generator: Adobe Illustrator 16.0.0, SVG Export Plug-In . SVG Version: 6.00 Build 0)  -->
<!DOCTYPE svg PUBLIC "-//W3C//DTD SVG 1.1//EN" "http://www.w3.org/Graphics/SVG/1.1/DTD/svg11.dtd">
<svg version="1.1" id="Layer_1" xmlns="http://www.w3.org/2000/svg" xmlns:xlink="http://www.w3.org/1999/xlink" x="0px" y="0px"
	 width="84.667px" height="85.04px" viewBox="0 0 84.667 85.04" enable-background="new 0 0 84.667 85.04" xml:space="preserve">
<path fill="#277A85" d="M77.394,69.146c0,4.816-3.91,8.723-8.727,8.723H16.315c-4.819,0-8.727-3.906-8.727-8.723V16.791
	c0-4.818,3.907-8.725,8.727-8.725h52.352c4.816,0,8.727,3.906,8.727,8.725V69.146z"/>
<g>
	<path fill="#213F48" d="M25.832,56.289h-1.195v1.824c0,0.261-0.062,0.459-0.185,0.594c-0.123,0.134-0.278,0.201-0.466,0.201
		c-0.196,0-0.354-0.066-0.475-0.199c-0.12-0.134-0.18-0.329-0.18-0.587v-4.966c0-0.287,0.066-0.492,0.198-0.615
		s0.341-0.185,0.628-0.185h1.674c0.495,0,0.876,0.038,1.143,0.114c0.264,0.073,0.491,0.195,0.683,0.365s0.338,0.377,0.438,0.623
		s0.149,0.523,0.149,0.831c0,0.656-0.202,1.153-0.606,1.492C27.234,56.12,26.632,56.289,25.832,56.289z M25.516,53.335h-0.879v1.969
		h0.879c0.308,0,0.565-0.031,0.771-0.096c0.207-0.064,0.364-0.17,0.473-0.316s0.163-0.339,0.163-0.576
		c0-0.284-0.083-0.516-0.25-0.694C26.484,53.431,26.099,53.335,25.516,53.335z"/>
	<path fill="#213F48" d="M30.648,53.037v1.846h2.817v-1.846c0-0.264,0.06-0.461,0.178-0.593c0.119-0.132,0.275-0.198,0.468-0.198
		c0.196,0,0.355,0.065,0.477,0.196c0.121,0.13,0.182,0.329,0.182,0.595v5.076c0,0.267-0.062,0.466-0.185,0.598
		s-0.281,0.197-0.475,0.197c-0.196,0-0.353-0.066-0.47-0.199c-0.117-0.134-0.176-0.332-0.176-0.596v-2.166h-2.817v2.166
		c0,0.267-0.062,0.466-0.185,0.598s-0.281,0.197-0.475,0.197c-0.196,0-0.353-0.066-0.47-0.199c-0.117-0.134-0.176-0.332-0.176-0.596
		v-5.076c0-0.264,0.058-0.461,0.174-0.593c0.115-0.132,0.273-0.198,0.472-0.198c0.196,0,0.355,0.065,0.477,0.196
		C30.587,52.572,30.648,52.771,30.648,53.037z"/>
	<path fill="#213F48" d="M37.609,58.113V56.07l-1.573-2.439c-0.138-0.22-0.235-0.391-0.292-0.514
		c-0.057-0.123-0.085-0.23-0.085-0.321c0-0.149,0.058-0.278,0.173-0.387s0.259-0.163,0.429-0.163c0.179,0,0.314,0.051,0.406,0.152
		c0.093,0.101,0.231,0.303,0.416,0.604l1.204,1.956l1.217-1.956c0.073-0.119,0.135-0.221,0.185-0.303s0.104-0.159,0.165-0.23
		c0.06-0.072,0.126-0.127,0.2-0.165s0.163-0.058,0.268-0.058c0.164,0,0.301,0.054,0.411,0.161c0.109,0.106,0.165,0.23,0.165,0.371
		c0,0.114-0.028,0.229-0.083,0.343s-0.151,0.272-0.286,0.475l-1.613,2.475v2.043c0,0.267-0.062,0.466-0.185,0.598
		s-0.28,0.197-0.47,0.197c-0.193,0-0.35-0.064-0.47-0.195C37.669,58.583,37.609,58.382,37.609,58.113z"/>
	<path fill="#213F48" d="M46.468,56.865c0,0.39-0.1,0.74-0.301,1.051s-0.494,0.553-0.881,0.729s-0.846,0.264-1.375,0.264
		c-0.637,0-1.161-0.119-1.574-0.359c-0.293-0.173-0.531-0.404-0.714-0.692c-0.184-0.289-0.275-0.569-0.275-0.842
		c0-0.158,0.055-0.294,0.165-0.406c0.11-0.113,0.25-0.169,0.42-0.169c0.138,0,0.254,0.043,0.35,0.131
		c0.095,0.088,0.176,0.219,0.244,0.392c0.082,0.205,0.17,0.377,0.266,0.515c0.095,0.138,0.229,0.251,0.402,0.34
		c0.173,0.09,0.4,0.135,0.682,0.135c0.387,0,0.701-0.091,0.941-0.271c0.242-0.181,0.363-0.405,0.363-0.675
		c0-0.214-0.065-0.388-0.195-0.521c-0.131-0.134-0.299-0.235-0.506-0.306s-0.482-0.145-0.828-0.225
		c-0.463-0.107-0.85-0.234-1.163-0.38c-0.312-0.145-0.56-0.343-0.742-0.593c-0.184-0.251-0.275-0.562-0.275-0.934
		c0-0.354,0.097-0.67,0.29-0.945s0.473-0.487,0.839-0.635c0.367-0.148,0.796-0.223,1.292-0.223c0.395,0,0.736,0.05,1.025,0.147
		c0.289,0.099,0.528,0.229,0.719,0.392c0.19,0.162,0.33,0.333,0.418,0.512s0.131,0.354,0.131,0.523c0,0.155-0.055,0.295-0.164,0.419
		c-0.109,0.125-0.247,0.187-0.411,0.187c-0.149,0-0.263-0.037-0.341-0.111c-0.078-0.075-0.162-0.197-0.252-0.367
		c-0.117-0.243-0.258-0.433-0.422-0.569c-0.164-0.136-0.428-0.204-0.791-0.204c-0.338,0-0.609,0.074-0.816,0.222
		c-0.206,0.148-0.309,0.326-0.309,0.534c0,0.129,0.035,0.24,0.105,0.334c0.071,0.094,0.167,0.175,0.29,0.242s0.248,0.12,0.374,0.158
		s0.334,0.094,0.624,0.166c0.363,0.086,0.691,0.18,0.986,0.281c0.295,0.104,0.545,0.228,0.752,0.374s0.367,0.332,0.482,0.556
		C46.411,56.265,46.468,56.54,46.468,56.865z"/>
	<path fill="#213F48" d="M47.628,58.113v-5.076c0-0.264,0.061-0.461,0.181-0.593s0.275-0.198,0.466-0.198
		c0.196,0,0.355,0.065,0.477,0.196c0.121,0.13,0.183,0.329,0.183,0.595v5.076c0,0.267-0.062,0.466-0.183,0.598
		s-0.28,0.197-0.477,0.197c-0.188,0-0.342-0.066-0.463-0.199C47.689,58.575,47.628,58.376,47.628,58.113z"/>
	<path fill="#213F48" d="M55.882,56.763c0,0.206-0.051,0.428-0.152,0.666c-0.101,0.239-0.26,0.474-0.477,0.703
		c-0.217,0.23-0.494,0.417-0.83,0.561c-0.338,0.144-0.73,0.215-1.178,0.215c-0.34,0-0.649-0.032-0.928-0.096
		c-0.278-0.064-0.531-0.165-0.758-0.302c-0.228-0.136-0.436-0.315-0.627-0.538c-0.17-0.202-0.314-0.429-0.435-0.679
		c-0.12-0.251-0.21-0.518-0.271-0.802s-0.09-0.586-0.09-0.906c0-0.518,0.075-0.982,0.227-1.393c0.15-0.41,0.367-0.761,0.648-1.053
		c0.281-0.291,0.61-0.513,0.988-0.666c0.378-0.151,0.781-0.229,1.209-0.229c0.521,0,0.985,0.104,1.393,0.312
		s0.719,0.465,0.936,0.771c0.217,0.306,0.326,0.596,0.326,0.867c0,0.15-0.053,0.281-0.158,0.396
		c-0.105,0.113-0.233,0.171-0.383,0.171c-0.167,0-0.292-0.04-0.376-0.118c-0.083-0.08-0.177-0.216-0.278-0.409
		c-0.17-0.319-0.371-0.558-0.601-0.716s-0.513-0.238-0.851-0.238c-0.535,0-0.963,0.204-1.28,0.611
		c-0.318,0.407-0.478,0.986-0.478,1.736c0,0.5,0.07,0.917,0.211,1.25c0.141,0.332,0.34,0.581,0.598,0.744
		c0.258,0.165,0.561,0.246,0.906,0.246c0.375,0,0.691-0.093,0.951-0.278c0.259-0.187,0.455-0.46,0.586-0.819
		c0.057-0.17,0.125-0.309,0.207-0.416c0.082-0.106,0.214-0.16,0.396-0.16c0.155,0,0.288,0.055,0.399,0.162
		C55.826,56.468,55.882,56.603,55.882,56.763z"/>
	<path fill="#213F48" d="M61.951,56.865c0,0.39-0.101,0.74-0.301,1.051c-0.201,0.311-0.494,0.553-0.881,0.729
		s-0.846,0.264-1.376,0.264c-0.636,0-1.16-0.119-1.573-0.359c-0.293-0.173-0.531-0.404-0.714-0.692
		c-0.184-0.289-0.274-0.569-0.274-0.842c0-0.158,0.055-0.294,0.164-0.406c0.11-0.113,0.25-0.169,0.42-0.169
		c0.138,0,0.254,0.043,0.35,0.131c0.095,0.088,0.176,0.219,0.244,0.392c0.082,0.205,0.17,0.377,0.266,0.515
		c0.095,0.138,0.229,0.251,0.402,0.34c0.172,0.09,0.399,0.135,0.681,0.135c0.387,0,0.701-0.091,0.942-0.271
		c0.242-0.181,0.363-0.405,0.363-0.675c0-0.214-0.066-0.388-0.196-0.521c-0.13-0.134-0.299-0.235-0.505-0.306
		c-0.207-0.07-0.482-0.145-0.828-0.225c-0.463-0.107-0.851-0.234-1.163-0.38c-0.312-0.145-0.56-0.343-0.742-0.593
		c-0.184-0.251-0.274-0.562-0.274-0.934c0-0.354,0.096-0.67,0.289-0.945s0.474-0.487,0.84-0.635
		c0.366-0.148,0.797-0.223,1.292-0.223c0.396,0,0.737,0.05,1.026,0.147c0.288,0.099,0.527,0.229,0.719,0.392
		c0.189,0.162,0.329,0.333,0.417,0.512s0.132,0.354,0.132,0.523c0,0.155-0.055,0.295-0.165,0.419
		c-0.109,0.125-0.247,0.187-0.411,0.187c-0.148,0-0.263-0.037-0.34-0.111c-0.078-0.075-0.162-0.197-0.253-0.367
		c-0.117-0.243-0.258-0.433-0.422-0.569c-0.164-0.136-0.428-0.204-0.791-0.204c-0.337,0-0.608,0.074-0.815,0.222
		c-0.206,0.148-0.31,0.326-0.31,0.534c0,0.129,0.035,0.24,0.105,0.334s0.167,0.175,0.29,0.242s0.248,0.12,0.373,0.158
		c0.127,0.038,0.334,0.094,0.625,0.166c0.363,0.086,0.691,0.18,0.986,0.281c0.294,0.104,0.545,0.228,0.751,0.374
		c0.207,0.146,0.368,0.332,0.483,0.556C61.892,56.265,61.951,56.54,61.951,56.865z"/>
</g>
<path fill="none" stroke="#FFFFFF" stroke-width="0.588" stroke-miterlimit="10" d="M47.484,39.194c0,0,0.832,0.61,0.123,1.956"/>
<path fill="none" stroke="#FFFFFF" stroke-width="0.588" stroke-miterlimit="10" d="M47.484,39.123c0,0,0.832,0.609,0.123,1.955"/>
<path fill="none" stroke="#FFFFFF" stroke-width="0.588" stroke-miterlimit="10" d="M47.646,36.986c0,0,0.67,0.62-0.039,1.964"/>
<path fill="none" stroke="#FFFFFF" stroke-width="0.588" stroke-miterlimit="10" d="M47.484,34.77c0,0,0.832,0.611,0.123,1.955"/>
<path fill="none" stroke="#FFFFFF" stroke-width="0.588" stroke-miterlimit="10" d="M47.484,32.645c0,0,0.832,0.61,0.123,1.956"/>
<path fill="none" stroke="#FFFFFF" stroke-width="0.588" stroke-miterlimit="10" d="M47.484,30.541c0,0,0.832,0.61,0.123,1.956"/>
<path fill="none" stroke="#FFFFFF" stroke-width="0.588" stroke-miterlimit="10" d="M47.386,27.891c0,0,1.107,1.305,0.228,2.739"/>
<path fill="none" stroke="#FFFFFF" stroke-width="0.588" stroke-miterlimit="10" d="M46.832,25.515c0,0,1.826,0.553,0.775,2.558"/>
<path fill="none" stroke="#FFFFFF" stroke-width="0.588" stroke-miterlimit="10" d="M47.484,41.298c0,0,1.043,0.869,0.162,2.207"/>
<path fill="none" stroke="#FFFFFF" stroke-width="0.588" stroke-miterlimit="10" d="M47.63,41.248c0,0,0.668,1.215,0.074,2.104"/>
<g>
	
		<ellipse fill="none" stroke="#FFFFFF" stroke-width="0.588" stroke-miterlimit="10" cx="41.495" cy="26.02" rx="6.136" ry="1.074"/>
	
		<ellipse fill="none" stroke="#FFFFFF" stroke-width="0.588" stroke-miterlimit="10" cx="41.495" cy="28.219" rx="6.136" ry="1.075"/>
	
		<ellipse fill="none" stroke="#FFFFFF" stroke-width="0.588" stroke-miterlimit="10" cx="41.495" cy="30.468" rx="6.136" ry="1.075"/>
	
		<ellipse fill="none" stroke="#FFFFFF" stroke-width="0.588" stroke-miterlimit="10" cx="41.495" cy="32.767" rx="6.136" ry="1.075"/>
	
		<ellipse fill="none" stroke="#FFFFFF" stroke-width="0.588" stroke-miterlimit="10" cx="41.495" cy="34.868" rx="6.136" ry="1.074"/>
	
		<ellipse fill="none" stroke="#FFFFFF" stroke-width="0.588" stroke-miterlimit="10" cx="41.495" cy="37.02" rx="6.136" ry="1.075"/>
	
		<ellipse fill="none" stroke="#FFFFFF" stroke-width="0.588" stroke-miterlimit="10" cx="41.495" cy="39.22" rx="6.136" ry="1.075"/>
	<path fill="none" stroke="#FFFFFF" stroke-width="0.588" stroke-miterlimit="10" d="M47.63,41.324c0,0.592-2.746,1.072-6.137,1.072
		c-3.388,0-6.135-0.48-6.135-1.072c0-0.596,2.747-1.078,6.135-1.078C44.884,40.246,47.63,40.728,47.63,41.324z"/>
	
		<ellipse fill="none" stroke="#FFFFFF" stroke-width="0.588" stroke-miterlimit="10" cx="41.495" cy="43.472" rx="6.136" ry="1.078"/>
	
		<path fill="none" stroke="#FFFFFF" stroke-width="0.588" stroke-linecap="round" stroke-linejoin="round" stroke-miterlimit="10" d="
		M47.566,43.347c0.477,0.592-0.007,1.703-0.504,2.174c-0.64,0.605-2.178,1.545-5.568,1.545c-3.388,0-6.135-0.482-6.135-1.078
		c0-0.594,4.419-1.133,8.256-0.258"/>
	<path fill="none" stroke="#FFFFFF" stroke-width="0.588" stroke-miterlimit="10" d="M42.203,23.215
		c0.832,0.457,1.663,0.718,1.174,2.136"/>
	
		<path fill="none" stroke="#FFFFFF" stroke-width="0.588" stroke-linecap="round" stroke-linejoin="round" stroke-miterlimit="10" d="
		M43.474,25.188c-0.521,0.944-1.825,1.222-2.623,1.369c-1.574,0.288-3.067,0.315-3.903,0.193"/>
	
		<path fill="none" stroke="#FFFFFF" stroke-width="0.588" stroke-linecap="round" stroke-linejoin="round" stroke-miterlimit="10" d="
		M44.729,18.815c0,0,0-3.128-3.03-3.128c-3.031,0-3.031,3.029-3.031,3.029v2.738l3.662,1.834"/>
</g>
</svg>
