<?xml version="1.0" encoding="utf-8"?>
<!-- Generator: Adobe Illustrator 16.0.0, SVG Export Plug-In . SVG Version: 6.00 Build 0)  -->
<!DOCTYPE svg PUBLIC "-//W3C//DTD SVG 1.1//EN" "http://www.w3.org/Graphics/SVG/1.1/DTD/svg11.dtd">
<svg version="1.1" id="Layer_1" xmlns="http://www.w3.org/2000/svg" xmlns:xlink="http://www.w3.org/1999/xlink" x="0px" y="0px"
	 width="84.667px" height="85.04px" viewBox="0 0 84.667 85.04" enable-background="new 0 0 84.667 85.04" xml:space="preserve">
<pattern  x="-99.167" y="184.02" width="69.803" height="69.804" patternUnits="userSpaceOnUse" id="SVGID_1_" viewBox="0 -69.804 69.803 69.804" overflow="visible">
	<g>
		<polygon fill="none" points="0,0 69.803,0 69.803,-69.805 0,-69.805 		"/>
		<g>
			<polygon fill="none" points="0,-69.805 69.803,-69.805 69.803,0 0,0 			"/>
			<path fill="#277A85" d="M69.803-61.08c0-4.817-3.909-8.725-8.727-8.725H8.725C3.905-69.805,0-65.897,0-61.08v52.354
				C0-3.908,3.905,0,8.725,0h52.352c4.817,0,8.727-3.907,8.727-8.727L69.803-61.08L69.803-61.08z"/>
		</g>
	</g>
</pattern>
<path fill="#277A85" d="M77.227,68.814c0,4.815-3.91,8.724-8.728,8.724H16.148c-4.819,0-8.727-3.906-8.727-8.724V16.459
	c0-4.818,3.907-8.725,8.727-8.725H68.5c4.816,0,8.728,3.906,8.728,8.725V68.814z"/>
<g>
	<path fill="#213F48" d="M25.665,55.958H24.47v1.823c0,0.261-0.062,0.459-0.185,0.595c-0.123,0.133-0.278,0.201-0.466,0.201
		c-0.196,0-0.354-0.066-0.475-0.199c-0.12-0.135-0.18-0.33-0.18-0.588v-4.965c0-0.287,0.066-0.492,0.198-0.615
		c0.132-0.123,0.341-0.186,0.628-0.186h1.674c0.495,0,0.876,0.038,1.143,0.114c0.264,0.073,0.491,0.194,0.683,0.364
		c0.192,0.17,0.338,0.377,0.438,0.623c0.1,0.246,0.149,0.523,0.149,0.832c0,0.655-0.202,1.152-0.606,1.492
		C27.067,55.788,26.465,55.958,25.665,55.958z M25.349,53.002H24.47v1.97h0.879c0.308,0,0.565-0.031,0.771-0.097
		c0.207-0.063,0.364-0.17,0.473-0.315c0.109-0.146,0.163-0.339,0.163-0.576c0-0.284-0.083-0.517-0.25-0.694
		C26.317,53.099,25.932,53.002,25.349,53.002z"/>
	<path fill="#213F48" d="M30.481,52.706v1.846h2.817v-1.846c0-0.265,0.06-0.461,0.178-0.594c0.119-0.132,0.275-0.197,0.468-0.197
		c0.196,0,0.355,0.064,0.477,0.195c0.121,0.13,0.182,0.329,0.182,0.596v5.075c0,0.267-0.062,0.466-0.185,0.599
		c-0.123,0.132-0.281,0.197-0.475,0.197c-0.196,0-0.353-0.066-0.47-0.199c-0.117-0.135-0.176-0.332-0.176-0.597v-2.166H30.48v2.166
		c0,0.267-0.062,0.466-0.185,0.599c-0.123,0.132-0.281,0.197-0.475,0.197c-0.196,0-0.353-0.066-0.47-0.199
		c-0.117-0.135-0.176-0.332-0.176-0.597v-5.075c0-0.265,0.058-0.461,0.174-0.594c0.115-0.132,0.273-0.197,0.472-0.197
		c0.196,0,0.355,0.064,0.477,0.195C30.42,52.24,30.481,52.439,30.481,52.706z"/>
	<path fill="#213F48" d="M37.442,57.781v-2.043l-1.573-2.438c-0.138-0.221-0.235-0.391-0.292-0.514
		c-0.057-0.123-0.085-0.23-0.085-0.322c0-0.148,0.058-0.277,0.173-0.387c0.115-0.109,0.259-0.162,0.429-0.162
		c0.179,0,0.314,0.051,0.406,0.151c0.093,0.101,0.231,0.304,0.416,0.604l1.204,1.955l1.217-1.955
		c0.073-0.119,0.135-0.221,0.185-0.303s0.104-0.16,0.165-0.23c0.06-0.072,0.126-0.127,0.2-0.165
		c0.074-0.038,0.163-0.058,0.268-0.058c0.164,0,0.301,0.054,0.411,0.16c0.109,0.106,0.165,0.23,0.165,0.371
		c0,0.114-0.028,0.229-0.083,0.344c-0.055,0.113-0.151,0.271-0.286,0.475l-1.613,2.475v2.043c0,0.268-0.062,0.467-0.185,0.598
		c-0.123,0.133-0.28,0.197-0.47,0.197c-0.193,0-0.35-0.063-0.47-0.195C37.502,58.25,37.442,58.049,37.442,57.781z"/>
	<path fill="#213F48" d="M46.302,56.534c0,0.389-0.102,0.739-0.301,1.051c-0.201,0.311-0.496,0.553-0.883,0.729
		s-0.845,0.264-1.375,0.264c-0.636,0-1.161-0.119-1.574-0.359c-0.293-0.172-0.531-0.403-0.714-0.691
		c-0.184-0.289-0.275-0.568-0.275-0.842c0-0.158,0.055-0.294,0.165-0.406c0.11-0.113,0.25-0.169,0.42-0.169
		c0.138,0,0.254,0.043,0.35,0.131c0.095,0.089,0.176,0.22,0.244,0.392c0.082,0.205,0.17,0.377,0.266,0.516
		c0.095,0.139,0.229,0.251,0.402,0.34c0.173,0.09,0.399,0.135,0.681,0.135c0.388,0,0.701-0.091,0.943-0.271
		c0.242-0.181,0.362-0.405,0.362-0.675c0-0.215-0.065-0.389-0.196-0.521c-0.13-0.134-0.299-0.234-0.504-0.306
		c-0.207-0.07-0.482-0.146-0.829-0.226c-0.463-0.106-0.85-0.233-1.163-0.379c-0.312-0.146-0.56-0.344-0.742-0.594
		c-0.184-0.251-0.275-0.562-0.275-0.934c0-0.354,0.097-0.67,0.29-0.945c0.193-0.275,0.473-0.486,0.839-0.635
		c0.366-0.148,0.797-0.223,1.292-0.223c0.396,0,0.738,0.049,1.027,0.146c0.287,0.1,0.526,0.229,0.718,0.393
		c0.19,0.161,0.329,0.332,0.417,0.512c0.088,0.179,0.133,0.354,0.133,0.522c0,0.155-0.055,0.296-0.166,0.419
		c-0.109,0.125-0.246,0.188-0.41,0.188c-0.148,0-0.264-0.037-0.34-0.111c-0.078-0.074-0.162-0.197-0.254-0.367
		c-0.117-0.242-0.258-0.433-0.422-0.568c-0.164-0.137-0.428-0.204-0.791-0.204c-0.336,0-0.607,0.073-0.815,0.222
		c-0.206,0.148-0.31,0.326-0.31,0.534c0,0.129,0.035,0.239,0.105,0.334c0.07,0.094,0.167,0.175,0.292,0.241
		c0.123,0.068,0.246,0.121,0.373,0.158c0.125,0.039,0.334,0.095,0.623,0.166c0.363,0.086,0.692,0.181,0.987,0.281
		c0.293,0.104,0.545,0.229,0.75,0.374c0.207,0.146,0.368,0.332,0.483,0.556C46.244,55.933,46.302,56.208,46.302,56.534z"/>
	<path fill="#213F48" d="M47.462,57.781v-5.075c0-0.265,0.06-0.461,0.18-0.594c0.12-0.132,0.275-0.197,0.466-0.197
		c0.196,0,0.354,0.064,0.478,0.195c0.121,0.13,0.183,0.329,0.183,0.596v5.075c0,0.267-0.062,0.466-0.183,0.599
		c-0.123,0.132-0.28,0.197-0.478,0.197c-0.188,0-0.343-0.066-0.464-0.199C47.523,58.243,47.462,58.043,47.462,57.781z"/>
	<path fill="#213F48" d="M55.714,56.431c0,0.206-0.051,0.428-0.151,0.666c-0.101,0.239-0.26,0.474-0.478,0.702
		c-0.217,0.23-0.492,0.418-0.83,0.562c-0.336,0.144-0.729,0.216-1.178,0.216c-0.341,0-0.648-0.033-0.928-0.097
		c-0.277-0.063-0.531-0.165-0.758-0.302c-0.229-0.137-0.438-0.315-0.626-0.538c-0.17-0.202-0.315-0.429-0.437-0.679
		c-0.119-0.252-0.211-0.519-0.271-0.803c-0.06-0.283-0.09-0.586-0.09-0.906c0-0.518,0.075-0.981,0.227-1.393
		c0.15-0.41,0.366-0.761,0.647-1.053c0.281-0.291,0.611-0.514,0.988-0.666c0.379-0.151,0.78-0.229,1.209-0.229
		c0.521,0,0.985,0.104,1.394,0.312c0.407,0.208,0.72,0.465,0.937,0.771c0.217,0.307,0.324,0.596,0.324,0.867
		c0,0.15-0.053,0.281-0.158,0.396c-0.104,0.113-0.231,0.171-0.382,0.171c-0.167,0-0.292-0.04-0.376-0.118
		c-0.083-0.08-0.176-0.216-0.279-0.409c-0.17-0.319-0.369-0.558-0.6-0.716s-0.514-0.238-0.85-0.238
		c-0.537,0-0.965,0.204-1.281,0.611c-0.318,0.406-0.477,0.986-0.477,1.736c0,0.5,0.069,0.916,0.211,1.25
		c0.141,0.332,0.34,0.58,0.598,0.744s0.559,0.246,0.904,0.246c0.375,0,0.691-0.094,0.951-0.279c0.26-0.187,0.455-0.459,0.588-0.818
		c0.055-0.17,0.123-0.309,0.205-0.416c0.082-0.105,0.215-0.16,0.396-0.16c0.154,0,0.289,0.055,0.4,0.162
		C55.66,56.136,55.714,56.271,55.714,56.431z"/>
	<path fill="#213F48" d="M61.785,56.534c0,0.389-0.102,0.739-0.302,1.051c-0.2,0.311-0.495,0.553-0.882,0.729
		s-0.846,0.264-1.375,0.264c-0.637,0-1.16-0.119-1.573-0.359c-0.293-0.172-0.53-0.403-0.714-0.691
		c-0.184-0.289-0.275-0.568-0.275-0.842c0-0.158,0.057-0.294,0.166-0.406c0.109-0.113,0.25-0.169,0.42-0.169
		c0.138,0,0.254,0.043,0.35,0.131c0.095,0.089,0.177,0.22,0.242,0.392c0.082,0.205,0.172,0.377,0.268,0.516s0.229,0.251,0.4,0.34
		c0.175,0.09,0.4,0.135,0.683,0.135c0.388,0,0.701-0.091,0.942-0.271c0.242-0.181,0.361-0.405,0.361-0.675
		c0-0.215-0.063-0.389-0.195-0.521c-0.131-0.134-0.299-0.234-0.504-0.306c-0.207-0.07-0.483-0.146-0.83-0.226
		c-0.463-0.106-0.85-0.233-1.161-0.379s-0.56-0.344-0.742-0.594c-0.185-0.251-0.274-0.562-0.274-0.934
		c0-0.354,0.098-0.67,0.291-0.945c0.192-0.275,0.473-0.486,0.838-0.635c0.367-0.148,0.797-0.223,1.293-0.223
		c0.396,0,0.736,0.049,1.025,0.146c0.288,0.1,0.528,0.229,0.719,0.393c0.19,0.161,0.33,0.332,0.418,0.512
		c0.088,0.179,0.131,0.354,0.131,0.522c0,0.155-0.055,0.296-0.164,0.419c-0.109,0.125-0.246,0.188-0.41,0.188
		c-0.15,0-0.264-0.037-0.342-0.111s-0.162-0.197-0.252-0.367c-0.117-0.242-0.258-0.433-0.422-0.568
		c-0.164-0.137-0.429-0.204-0.791-0.204c-0.338,0-0.608,0.073-0.815,0.222c-0.206,0.148-0.31,0.326-0.31,0.534
		c0,0.129,0.035,0.239,0.104,0.334c0.069,0.094,0.167,0.175,0.29,0.241c0.123,0.068,0.247,0.121,0.374,0.158
		c0.125,0.039,0.334,0.095,0.623,0.166c0.362,0.086,0.692,0.181,0.987,0.281c0.293,0.104,0.545,0.229,0.75,0.374
		c0.207,0.146,0.367,0.332,0.483,0.556S61.785,56.208,61.785,56.534z"/>
</g>
<g>
	<circle fill="#FFFFFF" stroke="#FFFFFF" stroke-width="0.8748" stroke-miterlimit="10" cx="45.509" cy="26.527" r="4.792"/>
	<g>
		<g>
			<polygon fill="#FFFFFF" points="35.386,22.404 37.271,21.156 37.669,18.908 40.671,23.443 			"/>
		</g>
	</g>
	
		<line fill="none" stroke="#FFFFFF" stroke-width="0.7535" stroke-linecap="round" stroke-linejoin="round" stroke-miterlimit="10" x1="30.549" y1="16.385" x2="36.986" y2="20.983"/>
	<g>
		<g>
			<polygon fill="#FFFFFF" points="55.11,31.076 53.251,32.365 52.899,34.62 49.805,30.146 			"/>
		</g>
	</g>
	
		<line fill="none" stroke="#FFFFFF" stroke-width="0.7535" stroke-linecap="round" stroke-linejoin="round" stroke-miterlimit="10" x1="60.071" y1="36.995" x2="53.541" y2="32.531"/>
	<pattern  id="SVGID_2_" xlink:href="#SVGID_1_" patternTransform="matrix(1 0 0 -1 -219.8511 -16709.2402)">
	</pattern>
	
		<polygon fill="url(#SVGID_2_)" stroke="#FFFFFF" stroke-width="1.5" stroke-linecap="round" stroke-linejoin="round" stroke-miterlimit="10" points="
		62.022,45.788 23.034,45.788 23.034,18.337 	"/>
	<g>
		<g>
			<polygon fill="#FFFFFF" points="35.074,36.804 36.265,38.725 38.499,39.19 33.876,42.054 			"/>
		</g>
	</g>
	
		<line fill="none" stroke="#FFFFFF" stroke-width="0.7535" stroke-linecap="round" stroke-linejoin="round" stroke-miterlimit="10" x1="41.235" y1="32.15" x2="36.446" y2="38.446"/>
</g>
</svg>
