<?xml version="1.0" encoding="UTF-8" standalone="no"?>
<!-- Generator: Adobe Illustrator 25.4.1, SVG Export Plug-In . SVG Version: 6.00 Build 0)  -->

<svg
   xmlns:dc="http://purl.org/dc/elements/1.1/"
   xmlns:cc="http://creativecommons.org/ns#"
   xmlns:rdf="http://www.w3.org/1999/02/22-rdf-syntax-ns#"
   xmlns:svg="http://www.w3.org/2000/svg"
   xmlns="http://www.w3.org/2000/svg"
   xmlns:sodipodi="http://sodipodi.sourceforge.net/DTD/sodipodi-0.dtd"
   xmlns:inkscape="http://www.inkscape.org/namespaces/inkscape"
   version="1.0"
   id="Layer_1"
   x="0px"
   y="0px"
   viewBox="0 0 84.67 85.04"
   enable-background="new 0 0 84.67 85.04"
   xml:space="preserve"
   sodipodi:docname="Psychology 9-10 Science - Copy.svg"
   inkscape:version="0.92.4 (5da689c313, 2019-01-14)"><metadata
   id="metadata91"><rdf:RDF><cc:Work
       rdf:about=""><dc:format>image/svg+xml</dc:format><dc:type
         rdf:resource="http://purl.org/dc/dcmitype/StillImage" /><dc:title></dc:title></cc:Work></rdf:RDF></metadata><defs
   id="defs89" /><sodipodi:namedview
   pagecolor="#ffffff"
   bordercolor="#666666"
   borderopacity="1"
   objecttolerance="10"
   gridtolerance="10"
   guidetolerance="10"
   inkscape:pageopacity="0"
   inkscape:pageshadow="2"
   inkscape:window-width="732"
   inkscape:window-height="480"
   id="namedview87"
   showgrid="false"
   inkscape:zoom="2.7751646"
   inkscape:cx="42.334999"
   inkscape:cy="42.52"
   inkscape:window-x="1201"
   inkscape:window-y="146"
   inkscape:window-maximized="0"
   inkscape:current-layer="Layer_1" />
<path
   fill="#9473B2"
   stroke="#9473B2"
   stroke-miterlimit="10"
   d="M77.89,69.15c0,4.82-3.91,8.72-8.73,8.72H16.81  c-4.82,0-8.73-3.91-8.73-8.72V16.79c0-4.82,3.91-8.72,8.73-8.72h52.35c4.82,0,8.73,3.91,8.73,8.72V69.15z"
   id="path2" />

<g
   id="g58">
	<g
   id="g56">
		<path
   fill="#3B2564"
   d="M14.74,56.29h-1.2v1.82c0,0.26-0.06,0.46-0.18,0.59c-0.12,0.13-0.28,0.2-0.47,0.2    c-0.2,0-0.35-0.07-0.47-0.2c-0.12-0.13-0.18-0.33-0.18-0.59v-4.97c0-0.29,0.07-0.49,0.2-0.62s0.34-0.18,0.63-0.18h1.67    c0.5,0,0.88,0.04,1.14,0.11c0.26,0.07,0.49,0.2,0.68,0.37s0.34,0.38,0.44,0.62s0.15,0.52,0.15,0.83c0,0.66-0.2,1.15-0.61,1.49    C16.14,56.12,15.54,56.29,14.74,56.29z M14.43,53.34h-0.88v1.97h0.88c0.31,0,0.56-0.03,0.77-0.1c0.21-0.06,0.36-0.17,0.47-0.32    s0.16-0.34,0.16-0.58c0-0.28-0.08-0.52-0.25-0.69C15.39,53.43,15.01,53.34,14.43,53.34z"
   id="path36" />
		<path
   fill="#3B2564"
   d="M23.14,56.87c0,0.39-0.1,0.74-0.3,1.05c-0.2,0.31-0.49,0.55-0.88,0.73s-0.85,0.26-1.38,0.26    c-0.64,0-1.16-0.12-1.57-0.36c-0.29-0.17-0.53-0.4-0.71-0.69c-0.18-0.29-0.27-0.57-0.27-0.84c0-0.16,0.06-0.29,0.16-0.41    c0.11-0.11,0.25-0.17,0.42-0.17c0.14,0,0.25,0.04,0.35,0.13c0.09,0.09,0.18,0.22,0.24,0.39c0.08,0.21,0.17,0.38,0.27,0.51    c0.09,0.14,0.23,0.25,0.4,0.34c0.17,0.09,0.4,0.13,0.68,0.13c0.39,0,0.7-0.09,0.94-0.27c0.24-0.18,0.36-0.41,0.36-0.67    c0-0.21-0.07-0.39-0.2-0.52c-0.13-0.13-0.3-0.24-0.5-0.31c-0.21-0.07-0.48-0.14-0.83-0.22c-0.46-0.11-0.85-0.23-1.16-0.38    c-0.31-0.14-0.56-0.34-0.74-0.59c-0.18-0.25-0.27-0.56-0.27-0.93c0-0.35,0.1-0.67,0.29-0.95s0.47-0.49,0.84-0.63    c0.37-0.15,0.8-0.22,1.29-0.22c0.4,0,0.74,0.05,1.03,0.15c0.29,0.1,0.53,0.23,0.72,0.39c0.19,0.16,0.33,0.33,0.42,0.51    s0.13,0.35,0.13,0.52c0,0.16-0.05,0.29-0.17,0.42c-0.11,0.12-0.25,0.19-0.41,0.19c-0.15,0-0.26-0.04-0.34-0.11    c-0.08-0.08-0.16-0.2-0.25-0.37c-0.12-0.24-0.26-0.43-0.42-0.57c-0.16-0.14-0.43-0.2-0.79-0.2c-0.34,0-0.61,0.07-0.82,0.22    c-0.21,0.15-0.31,0.33-0.31,0.53c0,0.13,0.04,0.24,0.11,0.33s0.17,0.17,0.29,0.24s0.25,0.12,0.37,0.16s0.33,0.09,0.62,0.17    c0.36,0.09,0.69,0.18,0.99,0.28c0.29,0.1,0.54,0.23,0.75,0.37c0.21,0.15,0.37,0.33,0.48,0.56C23.08,56.27,23.14,56.54,23.14,56.87    z"
   id="path38" />
		<path
   fill="#3B2564"
   d="M25.68,58.12v-2.04l-1.57-2.44c-0.14-0.22-0.23-0.39-0.29-0.51c-0.06-0.12-0.09-0.23-0.09-0.32    c0-0.15,0.06-0.28,0.17-0.39s0.26-0.16,0.43-0.16c0.18,0,0.31,0.05,0.41,0.15c0.09,0.1,0.23,0.3,0.42,0.6l1.2,1.96L27.58,53    c0.07-0.12,0.13-0.22,0.18-0.3s0.1-0.16,0.17-0.23c0.06-0.07,0.13-0.13,0.2-0.17s0.16-0.06,0.27-0.06c0.16,0,0.3,0.05,0.41,0.16    c0.11,0.11,0.16,0.23,0.16,0.37c0,0.11-0.03,0.23-0.08,0.34s-0.15,0.27-0.29,0.47l-1.61,2.47v2.04c0,0.27-0.06,0.47-0.18,0.6    s-0.28,0.2-0.47,0.2c-0.19,0-0.35-0.06-0.47-0.2C25.74,58.59,25.68,58.39,25.68,58.12z"
   id="path40" />
		<path
   fill="#3B2564"
   d="M35.14,56.77c0,0.21-0.05,0.43-0.15,0.67c-0.1,0.24-0.26,0.47-0.48,0.7c-0.22,0.23-0.49,0.42-0.83,0.56    s-0.73,0.21-1.18,0.21c-0.34,0-0.65-0.03-0.93-0.1c-0.28-0.06-0.53-0.17-0.76-0.3c-0.23-0.14-0.44-0.32-0.63-0.54    c-0.17-0.2-0.31-0.43-0.44-0.68c-0.12-0.25-0.21-0.52-0.27-0.8s-0.09-0.59-0.09-0.91c0-0.52,0.08-0.98,0.23-1.39    c0.15-0.41,0.37-0.76,0.65-1.05c0.28-0.29,0.61-0.51,0.99-0.67c0.38-0.15,0.78-0.23,1.21-0.23c0.52,0,0.99,0.1,1.39,0.31    s0.72,0.46,0.94,0.77c0.22,0.31,0.33,0.6,0.33,0.87c0,0.15-0.05,0.28-0.16,0.4c-0.11,0.11-0.23,0.17-0.38,0.17    c-0.17,0-0.29-0.04-0.38-0.12c-0.08-0.08-0.18-0.22-0.28-0.41c-0.17-0.32-0.37-0.56-0.6-0.72s-0.51-0.24-0.85-0.24    c-0.54,0-0.96,0.2-1.28,0.61c-0.32,0.41-0.48,0.99-0.48,1.74c0,0.5,0.07,0.92,0.21,1.25c0.14,0.33,0.34,0.58,0.6,0.74    c0.26,0.17,0.56,0.25,0.91,0.25c0.38,0,0.69-0.09,0.95-0.28c0.26-0.19,0.45-0.46,0.59-0.82c0.06-0.17,0.12-0.31,0.21-0.42    c0.08-0.11,0.21-0.16,0.4-0.16c0.16,0,0.29,0.05,0.4,0.16C35.08,56.47,35.14,56.61,35.14,56.77z"
   id="path42" />
		<path
   fill="#3B2564"
   d="M37.62,53.04v1.85h2.82v-1.85c0-0.26,0.06-0.46,0.18-0.59c0.12-0.13,0.27-0.2,0.47-0.2    c0.2,0,0.35,0.07,0.48,0.2c0.12,0.13,0.18,0.33,0.18,0.59v5.08c0,0.27-0.06,0.47-0.18,0.6s-0.28,0.2-0.47,0.2    c-0.2,0-0.35-0.07-0.47-0.2c-0.12-0.13-0.18-0.33-0.18-0.6v-2.17h-2.82v2.17c0,0.27-0.06,0.47-0.18,0.6s-0.28,0.2-0.47,0.2    c-0.2,0-0.35-0.07-0.47-0.2c-0.12-0.13-0.18-0.33-0.18-0.6v-5.08c0-0.26,0.06-0.46,0.17-0.59c0.12-0.13,0.27-0.2,0.47-0.2    c0.2,0,0.35,0.07,0.48,0.2C37.56,52.58,37.62,52.77,37.62,53.04z"
   id="path44" />
		<path
   fill="#3B2564"
   d="M45.98,52.25c0.67,0,1.24,0.14,1.72,0.41c0.48,0.27,0.84,0.66,1.09,1.16c0.25,0.5,0.37,1.09,0.37,1.76    c0,0.5-0.07,0.95-0.2,1.36s-0.34,0.76-0.61,1.06s-0.6,0.53-0.99,0.69s-0.84,0.24-1.35,0.24c-0.5,0-0.96-0.08-1.35-0.24    c-0.4-0.16-0.73-0.39-1-0.69c-0.27-0.29-0.47-0.65-0.6-1.07c-0.14-0.42-0.2-0.87-0.2-1.35c0-0.5,0.07-0.95,0.21-1.36    c0.14-0.41,0.35-0.76,0.62-1.05c0.27-0.29,0.6-0.51,0.98-0.67C45.05,52.33,45.49,52.25,45.98,52.25z M47.84,55.56    c0-0.47-0.08-0.88-0.23-1.23s-0.37-0.61-0.65-0.78c-0.28-0.18-0.61-0.27-0.97-0.27c-0.26,0-0.5,0.05-0.72,0.15    c-0.22,0.1-0.41,0.24-0.57,0.43s-0.29,0.43-0.38,0.72c-0.09,0.29-0.14,0.62-0.14,0.98c0,0.37,0.05,0.7,0.14,0.99    c0.09,0.3,0.22,0.54,0.39,0.74c0.17,0.2,0.36,0.34,0.58,0.44c0.22,0.1,0.46,0.14,0.72,0.14c0.33,0,0.64-0.08,0.92-0.25    s0.5-0.42,0.67-0.77S47.84,56.07,47.84,55.56z"
   id="path46" />
		<path
   fill="#3B2564"
   d="M51.56,53.04v4.69h2.65c0.21,0,0.37,0.05,0.49,0.15c0.11,0.1,0.17,0.23,0.17,0.39    c0,0.16-0.06,0.29-0.17,0.38c-0.11,0.1-0.27,0.15-0.49,0.15h-3.15c-0.28,0-0.49-0.06-0.61-0.19c-0.12-0.12-0.19-0.33-0.19-0.61    v-4.96c0-0.26,0.06-0.46,0.18-0.59c0.12-0.13,0.27-0.2,0.47-0.2c0.2,0,0.35,0.07,0.48,0.2C51.49,52.58,51.56,52.77,51.56,53.04z"
   id="path48" />
		<path
   fill="#3B2564"
   d="M58.1,52.25c0.67,0,1.24,0.14,1.72,0.41c0.48,0.27,0.84,0.66,1.09,1.16c0.25,0.5,0.37,1.09,0.37,1.76    c0,0.5-0.07,0.95-0.2,1.36s-0.34,0.76-0.61,1.06s-0.6,0.53-0.99,0.69s-0.84,0.24-1.35,0.24c-0.5,0-0.96-0.08-1.35-0.24    c-0.4-0.16-0.73-0.39-1-0.69c-0.27-0.29-0.47-0.65-0.6-1.07c-0.14-0.42-0.2-0.87-0.2-1.35c0-0.5,0.07-0.95,0.21-1.36    c0.14-0.41,0.35-0.76,0.62-1.05c0.27-0.29,0.6-0.51,0.98-0.67C57.17,52.33,57.61,52.25,58.1,52.25z M59.95,55.56    c0-0.47-0.08-0.88-0.23-1.23s-0.37-0.61-0.65-0.78c-0.28-0.18-0.61-0.27-0.97-0.27c-0.26,0-0.5,0.05-0.72,0.15    c-0.22,0.1-0.41,0.24-0.57,0.43s-0.29,0.43-0.38,0.72c-0.09,0.29-0.14,0.62-0.14,0.98c0,0.37,0.05,0.7,0.14,0.99    c0.09,0.3,0.22,0.54,0.39,0.74c0.17,0.2,0.36,0.34,0.58,0.44c0.22,0.1,0.46,0.14,0.72,0.14c0.33,0,0.64-0.08,0.92-0.25    s0.5-0.42,0.67-0.77S59.95,56.07,59.95,55.56z"
   id="path50" />
		<path
   fill="#3B2564"
   d="M68.28,56.18v1.23c0,0.17-0.02,0.3-0.05,0.39c-0.03,0.1-0.09,0.19-0.18,0.27    c-0.09,0.08-0.2,0.16-0.33,0.23c-0.39,0.21-0.76,0.36-1.12,0.46s-0.75,0.14-1.18,0.14c-0.5,0-0.95-0.08-1.35-0.23    c-0.41-0.15-0.75-0.37-1.04-0.66s-0.51-0.64-0.66-1.05c-0.15-0.41-0.23-0.87-0.23-1.38c0-0.5,0.07-0.96,0.22-1.38    s0.37-0.77,0.66-1.06c0.29-0.29,0.64-0.51,1.06-0.67c0.42-0.15,0.89-0.23,1.42-0.23c0.43,0,0.82,0.06,1.15,0.17    c0.33,0.12,0.6,0.26,0.81,0.44s0.36,0.36,0.47,0.56s0.16,0.37,0.16,0.52c0,0.16-0.06,0.3-0.18,0.42    c-0.12,0.12-0.27,0.17-0.44,0.17c-0.09,0-0.18-0.02-0.27-0.07c-0.09-0.04-0.16-0.11-0.22-0.18c-0.16-0.25-0.3-0.44-0.41-0.57    s-0.26-0.24-0.45-0.33c-0.19-0.09-0.43-0.13-0.72-0.13c-0.3,0-0.57,0.05-0.81,0.16c-0.24,0.1-0.44,0.25-0.61,0.45    c-0.17,0.2-0.3,0.44-0.39,0.73c-0.09,0.29-0.13,0.61-0.13,0.95c0,0.76,0.17,1.34,0.52,1.74c0.35,0.41,0.83,0.61,1.45,0.61    c0.3,0,0.58-0.04,0.85-0.12c0.26-0.08,0.53-0.19,0.81-0.34V56.4h-1.01c-0.24,0-0.43-0.04-0.55-0.11c-0.12-0.07-0.19-0.2-0.19-0.37    c0-0.14,0.05-0.26,0.16-0.36s0.25-0.14,0.42-0.14h1.48c0.18,0,0.34,0.02,0.46,0.05c0.13,0.03,0.23,0.1,0.31,0.22    S68.28,55.96,68.28,56.18z"
   id="path52" />
		<path
   fill="#3B2564"
   d="M70.96,58.12v-2.04l-1.57-2.44c-0.14-0.22-0.23-0.39-0.29-0.51c-0.06-0.12-0.09-0.23-0.09-0.32    c0-0.15,0.06-0.28,0.17-0.39s0.26-0.16,0.43-0.16c0.18,0,0.31,0.05,0.41,0.15c0.09,0.1,0.23,0.3,0.42,0.6l1.2,1.96L72.85,53    c0.07-0.12,0.13-0.22,0.18-0.3s0.1-0.16,0.17-0.23c0.06-0.07,0.13-0.13,0.2-0.17s0.16-0.06,0.27-0.06c0.16,0,0.3,0.05,0.41,0.16    c0.11,0.11,0.16,0.23,0.16,0.37c0,0.11-0.03,0.23-0.08,0.34s-0.15,0.27-0.29,0.47l-1.61,2.47v2.04c0,0.27-0.06,0.47-0.18,0.6    s-0.28,0.2-0.47,0.2c-0.19,0-0.35-0.06-0.47-0.2C71.02,58.59,70.96,58.39,70.96,58.12z"
   id="path54" />
	</g>
</g>
<path
   fill="#FFFFFF"
   d="M30.82,20.69c0,0,1.91-4.99,8.37-3.25c0,0,5.16-3.15,9.56,0.77c0,0,7.33,0.18,8.5,6.7  c0,0,5.68,4.76,0.52,12.64c0,0-0.06,6.17-7.18,6.29c0,0-5.28,1.38-6.71-3.25c0,0-2.67-0.19-2.9-1.78c0,0-5.35,1.59-6.66-4.39  c0,0-6.71,0.16-8.01-4.27C25.07,25.92,26.55,22.06,30.82,20.69z"
   id="path60" />
<g
   id="g72">
	<g
   id="g70">
		
			<path
   fill="none"
   stroke="#9473B2"
   stroke-width="0.9795"
   stroke-linecap="round"
   stroke-linejoin="round"
   stroke-miterlimit="10"
   d="    M35.37,27.3c0,0-3.51-0.5-2.5-2.98c1-2.48,2.98-1.84,3.61-1.26c0.63,0.59,2.5,3.39,2.41,5.74c0,0,1.78-3.2,4.57-1.43    c0,0,2.54-1.84,5.01,1.21"
   id="path62" />
		
			<path
   fill="none"
   stroke="#9473B2"
   stroke-width="0.9795"
   stroke-linecap="round"
   stroke-linejoin="round"
   stroke-miterlimit="10"
   d="    M36.48,23.07c0,0,1.39-3.19,5.28-1.76c0,0,1.91-1.76,3.73-0.59c1.82,1.19,2.24,2.76,2.24,2.76s-2.52,1.3-1.96,3.22"
   id="path64" />
		
			<path
   fill="none"
   stroke="#9473B2"
   stroke-width="0.9795"
   stroke-linecap="round"
   stroke-linejoin="round"
   stroke-miterlimit="10"
   d="    M47.73,23.48c0,0,6.38,0.22,4.52,4.61c0,0,1.69,1.89,0.3,3.55"
   id="path66" />
		
			<path
   fill="none"
   stroke="#9473B2"
   stroke-width="0.9795"
   stroke-linecap="round"
   stroke-linejoin="round"
   stroke-miterlimit="10"
   d="    M52.25,28.09c0,0,3.61-0.21,3.5,2.48c-0.12,2.68-1.69,7.99-7.78,4.29c0,0-3.75,4.42-8.17,0.42c0,0-3.77,0.19-4.28-2.9    c-0.54-3.2,3.16-3.33,3.16-3.33"
   id="path68" />
	</g>
</g>
<g
   id="g74">
</g>
<g
   id="g76">
</g>
<g
   id="g78">
</g>
<g
   id="g80">
</g>
<g
   id="g82">
</g>
<g
   id="g84">
</g>
</svg>