<?xml version="1.0" encoding="UTF-8" standalone="no"?>
<svg
   xmlns:dc="http://purl.org/dc/elements/1.1/"
   xmlns:cc="http://creativecommons.org/ns#"
   xmlns:rdf="http://www.w3.org/1999/02/22-rdf-syntax-ns#"
   xmlns:svg="http://www.w3.org/2000/svg"
   xmlns="http://www.w3.org/2000/svg"
   xmlns:sodipodi="http://sodipodi.sourceforge.net/DTD/sodipodi-0.dtd"
   xmlns:inkscape="http://www.inkscape.org/namespaces/inkscape"
   version="1.1"
   id="svg2"
   xml:space="preserve"
   width="112.54667"
   height="112.54667"
   viewBox="0 0 112.54667 112.54667"
   sodipodi:docname="Save_42_ (1).eps"><metadata
     id="metadata8"><rdf:RDF><cc:Work
         rdf:about=""><dc:format>image/svg+xml</dc:format><dc:type
           rdf:resource="http://purl.org/dc/dcmitype/StillImage" /></cc:Work></rdf:RDF></metadata><defs
     id="defs6" /><sodipodi:namedview
     pagecolor="#ffffff"
     bordercolor="#666666"
     borderopacity="1"
     objecttolerance="10"
     gridtolerance="10"
     guidetolerance="10"
     inkscape:pageopacity="0"
     inkscape:pageshadow="2"
     inkscape:window-width="640"
     inkscape:window-height="480"
     id="namedview4" /><g
     id="g10"
     inkscape:groupmode="layer"
     inkscape:label="ink_ext_XXXXXX"
     transform="matrix(1.3333333,0,0,-1.3333333,0,112.54667)"><g
       id="g12"
       transform="scale(0.1)"><path
         d="m 832.789,422.059 c 0,-226.836 -183.891,-410.727 -410.726,-410.727 -226.84,0 -410.731,183.891 -410.731,410.727 0,226.839 183.891,410.73 410.731,410.73 226.835,0 410.726,-183.891 410.726,-410.73"
         style="fill:#1f4676;fill-opacity:1;fill-rule:nonzero;stroke:none"
         id="path14" /><path
         d="m 832.789,422.059 c 0,-226.836 -183.891,-410.727 -410.726,-410.727 -226.84,0 -410.731,183.891 -410.731,410.727 0,226.839 183.891,410.73 410.731,410.73 226.835,0 410.726,-183.891 410.726,-410.73 z"
         style="fill:none;stroke:#1f4676;stroke-width:22.6654;stroke-linecap:butt;stroke-linejoin:miter;stroke-miterlimit:10;stroke-dasharray:none;stroke-opacity:1"
         id="path16" /><g
         id="g18"
         transform="scale(10)"><text
           transform="matrix(1,0,0,-1,14.2949,48.0258)"
           style="font-variant:normal;font-weight:normal;font-size:12px;font-family:Arial;-inkscape-font-specification:ArialRoundedMTBold;writing-mode:lr-tb;fill:#ffffff;fill-opacity:1;fill-rule:nonzero;stroke:none"
           id="text22"><tspan
             x="0 8.0039997 14.836031 21.18173 28.31259 31.31259 38.443451 45.574314"
             y="0"
             sodipodi:role="line"
             id="tspan20">Save 58%</tspan></text><text
           transform="matrix(1,0,0,-1,5.18045,35.1)"
           style="font-variant:normal;font-weight:normal;font-size:12px;font-family:Helvetica;-inkscape-font-specification:Helvetica;writing-mode:lr-tb;fill:#ffffff;fill-opacity:1;fill-rule:nonzero;stroke:none"
           id="text28"><tspan
             x="0 8.6639996 15.336 22.007999 28.68 32.015999 38.015999 44.688 51.360001 54.703518 61.375519 68.047516"
             y="0"
             sodipodi:role="line"
             id="tspan24">when you pay</tspan><tspan
             x="14.675 21.347 28.018999 34.691002 41.362999 48.035 50.699001 53.362999"
             y="12"
             sodipodi:role="line"
             id="tspan26">annually</tspan></text></g></g></g></svg>
