<?xml version="1.0" encoding="UTF-8" standalone="no"?>
<svg
   xmlns:dc="http://purl.org/dc/elements/1.1/"
   xmlns:cc="http://creativecommons.org/ns#"
   xmlns:rdf="http://www.w3.org/1999/02/22-rdf-syntax-ns#"
   xmlns:svg="http://www.w3.org/2000/svg"
   xmlns="http://www.w3.org/2000/svg"
   xmlns:sodipodi="http://sodipodi.sourceforge.net/DTD/sodipodi-0.dtd"
   xmlns:inkscape="http://www.inkscape.org/namespaces/inkscape"
   version="1.1"
   id="svg2"
   xml:space="preserve"
   width="115.57333"
   height="115.57333"
   viewBox="0 0 115.57333 115.57333"
   sodipodi:docname="Current_Offer_USA.eps"><metadata
     id="metadata8"><rdf:RDF><cc:Work
         rdf:about=""><dc:format>image/svg+xml</dc:format><dc:type
           rdf:resource="http://purl.org/dc/dcmitype/StillImage" /></cc:Work></rdf:RDF></metadata><defs
     id="defs6" /><sodipodi:namedview
     pagecolor="#ffffff"
     bordercolor="#666666"
     borderopacity="1"
     objecttolerance="10"
     gridtolerance="10"
     guidetolerance="10"
     inkscape:pageopacity="0"
     inkscape:pageshadow="2"
     inkscape:window-width="640"
     inkscape:window-height="480"
     id="namedview4" /><g
     id="g10"
     inkscape:groupmode="layer"
     inkscape:label="ink_ext_XXXXXX"
     transform="matrix(1.3333333,0,0,-1.3333333,0,115.57333)"><g
       id="g12"
       transform="scale(0.1)"><path
         d="m 855.496,433.414 c 0,-233.109 -188.973,-422.082 -422.082,-422.082 -233.109,0 -422.082,188.973 -422.082,422.082 0,233.109 188.973,422.082 422.082,422.082 233.109,0 422.082,-188.973 422.082,-422.082"
         style="fill:#37a2e1;fill-opacity:1;fill-rule:nonzero;stroke:none"
         id="path14" /><path
         d="m 855.496,433.414 c 0,-233.109 -188.973,-422.082 -422.082,-422.082 -233.109,0 -422.082,188.973 -422.082,422.082 0,233.109 188.973,422.082 422.082,422.082 233.109,0 422.082,-188.973 422.082,-422.082 z"
         style="fill:none;stroke:#37a2e1;stroke-width:22.6654;stroke-linecap:butt;stroke-linejoin:miter;stroke-miterlimit:10;stroke-dasharray:none;stroke-opacity:1"
         id="path16" /><g
         id="g18"
         transform="scale(10)"><text
           transform="matrix(1,0,0,-1,11.1453,62.1473)"
           style="font-variant:normal;font-weight:normal;font-size:10px;font-family:Arial;-inkscape-font-specification:ArialRoundedMTBold;writing-mode:lr-tb;fill:#ffffff;fill-opacity:1;fill-rule:nonzero;stroke:none"
           id="text24"><tspan
             x="0 7.4000001 13.44 17.690624 21.821486 27.763865 33.803864 37.343864 39.843864 45.883865 49.585037 52.783276 58.725655"
             y="0"
             sodipodi:role="line"
             id="tspan20">Current offer</tspan><tspan
             x="16.3016 22.2416 24.7416 27.942225 33.982224 38.362225 40.862225"
             y="12"
             sodipodi:role="line"
             id="tspan22">3 for 1</tspan></text><text
           transform="matrix(1,0,0,-1,10.5782,36.5848)"
           style="font-variant:normal;font-weight:normal;font-size:9px;font-family:Helvetica;-inkscape-font-specification:Helvetica;writing-mode:lr-tb;fill:#ffffff;fill-opacity:1;fill-rule:nonzero;stroke:none"
           id="text32"><tspan
             x="0 6.0029998 11.00837 15.50837 18.00886 20.509352 27.00886 32.014229 34.514721 39.519894 44.522285 49.526283 52.523285 55.025284 60.029285 65.033287"
             y="0"
             sodipodi:role="line"
             id="tspan26">Any two 9 or 10 </tspan><tspan
             x="-5.2540007 1.7479995 4.7449994 9.7489996 14.752999 19.757 22.258999 26.758999 31.762999 36.766998 38.764999 43.769001 48.269001 50.771 55.271 57.772999 60.274998 65.278999 68.276001"
             y="10"
             sodipodi:role="line"
             id="tspan28">Grade subjects for </tspan><tspan
             x="1.7420895 4.2440896 9.2480898 14.25209 16.754089 21.758089 24.755089 26.75309 31.25309 36.257088 38.75909 43.763088 46.265091 48.76709 53.771088 58.775089"
             y="20"
             sodipodi:role="line"
             id="tspan30">the price of one</tspan></text><text
           transform="matrix(1,0,0,-1,50.09409,39.1825)"
           style="font-variant:normal;font-weight:normal;font-size:5px;font-family:Helvetica;-inkscape-font-specification:Helvetica;writing-mode:lr-tb;fill:#ffffff;fill-opacity:1;fill-rule:nonzero;stroke:none"
           id="text36"><tspan
             x="0 1.3891578 25.824608 27.213766"
             y="0"
             sodipodi:role="line"
             id="tspan34">thth</tspan></text></g></g></g></svg>
