<?xml version="1.0" encoding="UTF-8" standalone="no"?>
<!-- Generator: Adobe Illustrator 25.4.1, SVG Export Plug-In . SVG Version: 6.00 Build 0)  -->

<svg
   xmlns:dc="http://purl.org/dc/elements/1.1/"
   xmlns:cc="http://creativecommons.org/ns#"
   xmlns:rdf="http://www.w3.org/1999/02/22-rdf-syntax-ns#"
   xmlns:svg="http://www.w3.org/2000/svg"
   xmlns="http://www.w3.org/2000/svg"
   xmlns:sodipodi="http://sodipodi.sourceforge.net/DTD/sodipodi-0.dtd"
   xmlns:inkscape="http://www.inkscape.org/namespaces/inkscape"
   version="1.1"
   x="0px"
   y="0px"
   viewBox="0 0 14.786865 30.691709"
   enable-background="new 0 0 84.667 85.04"
   xml:space="preserve"
   id="svg152"
   sodipodi:docname="Biobrain_Icon_Marine10.svg"
   width="14.786865"
   height="30.69171"
   inkscape:version="0.92.4 (5da689c313, 2019-01-14)"><metadata
   id="metadata158"><rdf:RDF><cc:Work
       rdf:about=""><dc:format>image/svg+xml</dc:format><dc:type
         rdf:resource="http://purl.org/dc/dcmitype/StillImage" /><dc:title></dc:title></cc:Work></rdf:RDF></metadata><defs
   id="defs156">
	
	
	
	
	
	
	
	
	
	
	
	
	
	
	
	
	
	
	
	
	
	
	
	
	
	
	
	
	
	
	
	
	
	
	
	
	
	
	
</defs><sodipodi:namedview
   pagecolor="#ffffff"
   bordercolor="#666666"
   borderopacity="1"
   objecttolerance="10"
   gridtolerance="10"
   guidetolerance="10"
   inkscape:pageopacity="0"
   inkscape:pageshadow="2"
   inkscape:window-width="732"
   inkscape:window-height="480"
   id="namedview154"
   showgrid="false"
   fit-margin-top="0"
   fit-margin-left="0"
   fit-margin-right="0"
   fit-margin-bottom="0"
   inkscape:zoom="0.24529221"
   inkscape:cx="178.2833"
   inkscape:cy="-422.1551"
   inkscape:window-x="1000"
   inkscape:window-y="191"
   inkscape:window-maximized="0"
   inkscape:current-layer="svg152" />
<path
   style="fill:#ffffff;stroke:#ffffff;stroke-width:0.1771;stroke-miterlimit:10"
   inkscape:connector-curvature="0"
   id="path102"
   d="m 13.125764,7.46955 c -0.005,-0.096 0.715,-0.529 0.746,-0.648 c 0.034,-0.133 -0.786,-0.369 -0.8,-0.471 c -0.015,-0.105 0.82,-0.53 0.78,-0.707 c -0.043,-0.192 -0.926,-0.033 -0.962,-0.196 c -0.031,-0.141 0.485,-0.534 0.447,-0.672 c -0.031,-0.11 -0.622,-0.014 -0.658,-0.12 c -0.053,-0.155 0.34,-0.699 0.275,-0.837 c -0.05,-0.105 -0.615,0.003 -0.672,-0.088 c -0.171,-0.271 0.068,-0.632 -0.108,-0.844 c -0.11,-0.133 -0.573,0.053 -0.686,-0.06 c -0.116,-0.116 -0.047,-0.589 -0.168,-0.686 c -0.176,-0.142 -0.544,0.102 -0.732,-0.007 c -0.138,-0.08 -0.152,-0.516 -0.299,-0.582 c -0.138,-0.062 -0.4289997,0.246 -0.5999997,0.195 c -0.513,-0.153 -1.093,-0.274 -1.255,-0.48 c -0.216,-0.275 -0.647,-1.178 -0.864,-1.178 c -0.177,0 -0.294,0.353 -0.412,0.726 c -0.096,0.302 -0.216,0.609 -0.432,0.766 c -0.216,0.157 -1.158,0.451 -1.492,0.805 c -0.334,0.354 -0.569,0.137 -1.021,1.374 c 0,0 -0.589,0.805 -1.394,1.354 c -0.805,0.55 -0.824,0.589 -1.178,0.746 c -0.353,0.157 -0.92299995,0.137 -1.21699995,0.118 c -0.294,-0.02 -0.687,-0.079 0.275,0.785 c 0,0 0.56899995,0.687 0.92299995,0.236 c 0.353,-0.451 1.296,-0.962 1.629,-1.139 c 0.334,-0.177 1.237,-0.451 2.081,-0.118 c 0.647,0.256 1.158,0.53 1.767,0.432 c 0.609,-0.098 1.139,-0.589 1.315,-0.785 c 0.177,-0.196 0.476,-0.073 0.569,0.02 c 0.137,0.137 0.648,1.001 0.157,1.649 c -0.491,0.648 -1.787,1.928 -2.395,3.16 c -0.707,1.433 -0.824,4.515 -0.02,6.125 c 0.804,1.61 1.61,2.513 2.257,3.69 c 0.58,1.055 1.0599997,2.689 1.1969997,3.828 c 0.113,0.935 0.196,3.121 -0.6669997,4.888 c -0.359,0.734 -1.237,1.139 -2.061,0.864 c -0.824,-0.275 -1.139,-1.08 -1.139,-1.472 c 0,-0.392 0.039,-0.805 0.51,-1.119 c 0.307,-0.205 0.687,-0.275 1.08,-0.137 c 0.393,0.138 0.55,0.53 0.51,0.844 c -0.047,0.372 -0.216,0.726 -0.726,0.648 c -0.51,-0.079 -0.538,-0.444 -0.393,-0.589 c 0.157,-0.157 0.314,-0.059 0.471,0.039 c 0.157,0.098 0.34,-0.249 0.079,-0.432 c -0.196,-0.137 -0.696,-0.202 -0.923,0.177 c -0.177,0.294 -0.123,0.619 0,0.883 c 0.137,0.294 0.51,0.451 0.942,0.432 c 0.432,-0.019 0.903,-0.373 1.06,-0.883 c 0.117,-0.38 0.098,-1.256 -0.589,-1.61 c -0.698,-0.359 -1.565,-0.229 -2.1,0.216 c -0.557,0.464 -0.9,1.248 -0.53,2.316 c 0.348,1.004 1.139,1.61 1.924,1.669 c 0.785,0.059 2.277,-0.157 2.9839997,-1.629 c 0.243,-0.505 0.504,-1.407 0.679,-2.4 c 0.05,-0.281 0.092,-0.57 0.126,-0.859 c 0.028,-0.245 0.05,-0.491 0.063,-0.732 c 0.012,-0.218 0.017,-0.433 0.015,-0.642 c -0.006,-0.544 -0.044,-1.182 -0.1,-1.843 c -0.051,-0.613 -0.077,-1.288 -0.189,-1.843 c -0.012,-0.062 -0.029,-0.125 -0.046,-0.187 c -0.1,-0.354 -0.254,-0.712 -0.101,-0.974 c 0.24,-0.413 -0.074,-0.574 -0.133,-0.796 c -0.088,-0.334 -0.294,-1.247 -0.02,-1.58 c 0.274,-0.333 0.837,-0.415 1.207,-0.098 c 0.824,0.707 1.865,1.443 1.443,0.324 c -0.203,-0.539 0.165,-0.62 -0.029,-1.237 c -0.177,-0.559 0.311,-0.784 0.177,-1.266 c -0.147,-0.53 0.372,-0.651 0.258,-1.023 c -0.081,-0.265 0.243,-0.39 0.42,-0.596 c 0.918,-1.071 -0.363,-0.805 -1.207,-0.177 c -0.844,0.628 -1.307,1.192 -1.718,0.736 c -0.265,-0.294 -0.007,-0.567 0.255,-0.883 c 0.087,-0.106 0.191,-0.186 0.255,-0.314 c 0.079,-0.157 -0.031,-0.293 0.039,-0.451 c 0.078,-0.177 0.383,-0.134 0.451,-0.353 c 0.03,-0.097 -0.171,-0.298 -0.137,-0.393 c 0.033,-0.093 0.931,0.013 0.962,-0.079 c 0.029,-0.086 -0.674,-0.661 -0.648,-0.746 c 0.031,-0.099 -0.048,0.058 -0.02,-0.039 c 0.038,-0.133 0.968,-0.225 1.001,-0.353 c 0.028,-0.109 -0.732,-0.601 -0.707,-0.707 c 0.032,-0.136 -0.046,0.07 -0.02,-0.059 c 0.021,-0.101 0.782,-0.224 0.8,-0.319 c 0.024,-0.127 -0.642,-0.527 -0.623,-0.643 c 0.021,-0.127 0.823,-0.292 0.844,-0.476 c 0.023,-0.174 -0.778,-0.419 -0.782,-0.488 z"
   stroke-miterlimit="10" /><circle
   style="fill:#ffffff;stroke:#ffffff;stroke-width:0.1771;stroke-miterlimit:10"
   id="circle104"
   r="0.15700001"
   cy="20.476549"
   cx="11.161756"
   stroke-miterlimit="10" /><circle
   style="fill:#ffffff;stroke:#ffffff;stroke-width:0.1771;stroke-miterlimit:10"
   id="circle106"
   r="0.15700001"
   cy="19.886549"
   cx="11.067761"
   stroke-miterlimit="10" /><circle
   style="fill:#ffffff;stroke:#ffffff;stroke-width:0.1771;stroke-miterlimit:10"
   id="circle108"
   r="0.15700001"
   cy="21.053549"
   cx="11.283765"
   stroke-miterlimit="10" /><circle
   style="fill:#ffffff;stroke:#ffffff;stroke-width:0.1771;stroke-miterlimit:10"
   id="circle110"
   r="0.15700001"
   cy="21.667551"
   cx="11.354764"
   stroke-miterlimit="10" /><circle
   style="fill:#ffffff;stroke:#ffffff;stroke-width:0.1771;stroke-miterlimit:10"
   id="circle112"
   r="0.15700001"
   cy="22.28055"
   cx="11.427762"
   stroke-miterlimit="10" /><circle
   style="fill:#ffffff;stroke:#ffffff;stroke-width:0.1771;stroke-miterlimit:10"
   id="circle114"
   r="0.15700001"
   cy="22.859552"
   cx="11.476758"
   stroke-miterlimit="10" /><circle
   style="fill:#ffffff;stroke:#ffffff;stroke-width:0.1771;stroke-miterlimit:10"
   id="circle116"
   r="0.15700001"
   cy="23.483549"
   cx="11.508756"
   stroke-miterlimit="10" /><circle
   style="fill:#ffffff;stroke:#ffffff;stroke-width:0.1771;stroke-miterlimit:10"
   id="circle118"
   r="0.15700001"
   cy="24.091551"
   cx="11.547757"
   stroke-miterlimit="10" /><circle
   style="fill:#ffffff;stroke:#ffffff;stroke-width:0.1771;stroke-miterlimit:10"
   id="circle120"
   r="0.15700001"
   cy="24.667551"
   cx="11.551755"
   stroke-miterlimit="10" /><circle
   style="fill:#ffffff;stroke:#ffffff;stroke-width:0.1771;stroke-miterlimit:10"
   id="circle122"
   r="0.15700001"
   cy="25.29355"
   cx="11.502759"
   stroke-miterlimit="10" /><circle
   style="fill:#ffffff;stroke:#ffffff;stroke-width:0.1771;stroke-miterlimit:10"
   id="circle124"
   r="0.15700001"
   cy="25.901552"
   cx="11.453763"
   stroke-miterlimit="10" /><circle
   style="fill:#ffffff;stroke:#ffffff;stroke-width:0.1771;stroke-miterlimit:10"
   id="circle126"
   r="0.15700001"
   cy="26.500551"
   cx="11.37576"
   stroke-miterlimit="10" /><circle
   style="fill:#ffffff;stroke:#ffffff;stroke-width:0.1771;stroke-miterlimit:10"
   id="circle128"
   r="0.15700001"
   cy="27.109552"
   cx="11.23776"
   stroke-miterlimit="10" /><circle
   style="fill:#ffffff;stroke:#ffffff;stroke-width:0.1771;stroke-miterlimit:10"
   id="circle130"
   r="0.15700001"
   cy="27.71855"
   cx="11.083768"
   stroke-miterlimit="10" /><circle
   style="fill:#ffffff;stroke:#ffffff;stroke-width:0.1771;stroke-miterlimit:10"
   id="circle132"
   r="0.15700001"
   cy="28.386549"
   cx="10.882764"
   stroke-miterlimit="10" /><circle
   style="fill:#ffffff;stroke:#ffffff;stroke-width:0.1771;stroke-miterlimit:10"
   id="circle134"
   r="0.15700001"
   cy="28.999552"
   cx="10.607755"
   stroke-miterlimit="10" /><circle
   style="fill:#ffffff;stroke:#ffffff;stroke-width:0.1771;stroke-miterlimit:10"
   id="circle136"
   r="0.15700001"
   cy="29.51055"
   cx="10.224759"
   stroke-miterlimit="10" />
<g
   id="Layer_2"
   transform="translate(-35.249236,-16.20645)">
	<g
   id="g139">
	</g>
	<g
   id="g141">
	</g>
	<g
   id="g143">
	</g>
	<g
   id="g145">
	</g>
	<g
   id="g147">
	</g>
	<g
   id="g149">
	</g>
</g>
</svg>