<?xml version="1.0" encoding="UTF-8" standalone="no"?>
<!-- Generator: Adobe Illustrator 25.4.1, SVG Export Plug-In . SVG Version: 6.00 Build 0)  -->

<svg
   xmlns:dc="http://purl.org/dc/elements/1.1/"
   xmlns:cc="http://creativecommons.org/ns#"
   xmlns:rdf="http://www.w3.org/1999/02/22-rdf-syntax-ns#"
   xmlns:svg="http://www.w3.org/2000/svg"
   xmlns="http://www.w3.org/2000/svg"
   xmlns:sodipodi="http://sodipodi.sourceforge.net/DTD/sodipodi-0.dtd"
   xmlns:inkscape="http://www.inkscape.org/namespaces/inkscape"
   version="1.1"
   id="Layer_1"
   x="0px"
   y="0px"
   viewBox="0 0 11.594414 32.437439"
   enable-background="new 0 0 84.667 85.04"
   xml:space="preserve"
   sodipodi:docname="Biobrain_Icon_Biology10.svg"
   inkscape:version="0.92.4 (5da689c313, 2019-01-14)"
   width="11.594414"
   height="32.437439"><metadata
   id="metadata95"><rdf:RDF><cc:Work
       rdf:about=""><dc:format>image/svg+xml</dc:format><dc:type
         rdf:resource="http://purl.org/dc/dcmitype/StillImage" /><dc:title></dc:title></cc:Work></rdf:RDF></metadata><defs
   id="defs93" /><sodipodi:namedview
   pagecolor="#ffffff"
   bordercolor="#666666"
   borderopacity="1"
   objecttolerance="10"
   gridtolerance="10"
   guidetolerance="10"
   inkscape:pageopacity="0"
   inkscape:pageshadow="2"
   inkscape:window-width="1920"
   inkscape:window-height="1017"
   id="namedview91"
   showgrid="false"
   inkscape:zoom="2.7751646"
   inkscape:cx="-124.83201"
   inkscape:cy="30.63228"
   inkscape:window-x="-8"
   inkscape:window-y="-8"
   inkscape:window-maximized="1"
   inkscape:current-layer="Layer_1"
   fit-margin-top="3"
   fit-margin-left="0"
   fit-margin-right="0"
   fit-margin-bottom="3" />




<g
   id="g78"
   transform="translate(-44.289912,-40.714841)">
</g>
<g
   id="g80"
   transform="translate(-44.289912,-40.714841)">
</g>
<g
   id="g82"
   transform="translate(-44.289912,-40.714841)">
</g>
<g
   id="g84"
   transform="translate(-44.289912,-40.714841)">
</g>
<g
   id="g86"
   transform="translate(-44.289912,-40.714841)">
</g>
<g
   id="g88"
   transform="translate(-44.289912,-40.714841)">
</g>
<g
   transform="translate(-36.88,-13.214561)"
   id="g76"><g
     id="g74"><path
       style="fill:none"
       inkscape:connector-curvature="0"
       d="m 46.755,31.667 c 0.006,0 0.009,0.005 0.012,0.005 c 0.169,-0.316 0.294,-0.641 0.394,-0.971 h -8.969 c 0.1,0.33 0.227,0.655 0.394,0.971 c 0.005,0 0.008,-0.005 0.011,-0.005 z"
       id="path54" /><path
       style="fill:none"
       inkscape:connector-curvature="0"
       d="m 46.279,32.401 h -7.205 c 0.266,0.367 0.575,0.714 0.931,1.041 h 5.34 c 0.358,-0.327 0.667,-0.674 0.934,-1.041 z"
       id="path56" /><path
       style="fill:none"
       inkscape:connector-curvature="0"
       d="m 46.77,27.2 h -8.186 c -0.175,0.331 -0.311,0.671 -0.413,1.016 h 9.012 C 47.081,27.87 46.945,27.531 46.77,27.2 Z"
       id="path58" /><path
       style="fill:none"
       inkscape:connector-curvature="0"
       d="m 44.218,38.293 c -0.489,-0.395 -1.01,-0.814 -1.542,-1.243 c -0.519,0.417 -1.041,0.838 -1.539,1.243 z"
       id="path60" /><path
       style="fill:none"
       inkscape:connector-curvature="0"
       d="m 46.351,40.044 c -0.333,-0.283 -0.748,-0.627 -1.228,-1.016 h -4.892 c -0.478,0.391 -0.894,0.735 -1.227,1.016 z"
       id="path62" /><path
       style="fill:none"
       inkscape:connector-curvature="0"
       d="m 44.729,20.161 c 0.438,-0.355 0.835,-0.68 1.178,-0.966 H 39.45 c 0.346,0.286 0.744,0.613 1.179,0.966 z"
       id="path64" /><path
       style="fill:none"
       inkscape:connector-curvature="0"
       d="m 41.535,20.895 c 0.377,0.305 0.76,0.614 1.142,0.922 c 0.391,-0.314 0.774,-0.624 1.144,-0.922 z"
       id="path66" /><path
       style="fill:none"
       inkscape:connector-curvature="0"
       d="m 38.049,29.966 h 9.255 c 0.025,-0.178 0.075,-0.355 0.078,-0.533 C 47.379,29.272 47.332,29.111 47.31,28.95 h -9.268 c -0.022,0.161 -0.069,0.322 -0.072,0.483 c 0.004,0.178 0.054,0.355 0.079,0.533 z"
       id="path68" /><path
       style="fill:none"
       inkscape:connector-curvature="0"
       d="m 46.279,26.465 c -0.267,-0.367 -0.577,-0.714 -0.933,-1.041 h -5.339 c -0.356,0.327 -0.666,0.674 -0.933,1.041 z"
       id="path70" /><path
       style="fill:#ffffff"
       inkscape:connector-curvature="0"
       d="m 43.544,36.352 c 0.883,-0.711 1.688,-1.361 2.222,-1.802 c 1.682,-1.385 2.668,-3.248 2.707,-5.106 c 0,-0.005 -0.003,-0.008 -0.003,-0.011 c 0,-0.003 0.003,-0.006 0.003,-0.011 c -0.039,-1.858 -1.025,-3.721 -2.707,-5.106 c -0.535,-0.441 -1.339,-1.091 -2.222,-1.8 c 1.81,-1.457 3.487,-2.81 4.118,-3.392 c 1.258,-1.169 0.683,-2.526 0.658,-2.583 c -0.119,-0.272 -0.435,-0.392 -0.706,-0.28 c -0.275,0.116 -0.403,0.435 -0.292,0.71 c 0.03,0.075 0.27,0.735 -0.398,1.353 c -0.041,0.037 -0.1,0.091 -0.153,0.136 H 38.65 c -0.017,0 -0.028,0.017 -0.044,0.019 c -0.061,-0.053 -0.13,-0.113 -0.175,-0.155 c -0.666,-0.617 -0.43,-1.275 -0.398,-1.352 C 38.15,16.698 38.024,16.381 37.75,16.261 c -0.275,-0.122 -0.595,0.005 -0.716,0.28 c -0.025,0.058 -0.6,1.414 0.66,2.583 c 0.656,0.606 2.844,2.368 4.776,3.923 c 0.753,0.606 1.466,1.18 2.036,1.643 h -3.659 c 0.119,-0.099 0.256,-0.208 0.461,-0.374 c 0.234,-0.189 0.27,-0.531 0.083,-0.766 C 41.2,23.316 40.858,23.281 40.625,23.469 c -0.553,0.447 -0.675,0.547 -1.038,0.847 c -1.682,1.385 -2.668,3.244 -2.707,5.106 c 0,0.005 0.003,0.008 0.003,0.011 c 0,0.003 -0.003,0.006 -0.003,0.011 c 0.039,1.861 1.025,3.721 2.707,5.106 l 1.038,0.847 c 0.1,0.081 0.222,0.122 0.341,0.122 c 0.159,0 0.316,-0.069 0.425,-0.203 c 0.188,-0.234 0.152,-0.575 -0.081,-0.766 l -0.46,-0.374 h 3.656 c -0.57,0.463 -1.283,1.036 -2.036,1.643 c -1.932,1.555 -4.12,3.316 -4.779,3.923 c -1.256,1.169 -0.681,2.526 -0.656,2.583 c 0.088,0.202 0.286,0.322 0.494,0.322 c 0.072,0 0.144,-0.014 0.213,-0.042 c 0.275,-0.116 0.403,-0.435 0.292,-0.71 c -0.027,-0.066 -0.177,-0.578 0.22,-1.117 h 8.849 c 0.394,0.538 0.247,1.049 0.22,1.116 c -0.117,0.273 0.009,0.591 0.283,0.711 c 0.07,0.031 0.144,0.047 0.219,0.047 c 0.209,0 0.408,-0.122 0.497,-0.327 c 0.025,-0.058 0.6,-1.414 -0.66,-2.583 c -0.636,-0.586 -2.308,-1.933 -4.118,-3.39 z m -3.313,2.676 h 4.892 c 0.48,0.389 0.895,0.733 1.228,1.016 h -7.347 c 0.333,-0.282 0.749,-0.626 1.227,-1.016 z m 2.444,-1.977 c 0.533,0.428 1.053,0.847 1.542,1.243 h -3.082 c 0.5,-0.406 1.022,-0.826 1.54,-1.243 z m -3.6,-4.65 h 7.205 c -0.267,0.367 -0.577,0.714 -0.933,1.041 h -5.34 C 39.65,33.115 39.34,32.768 39.075,32.401 Z m -0.883,-1.7 h 8.969 c -0.1,0.33 -0.225,0.655 -0.394,0.971 c -0.003,0 -0.006,-0.005 -0.012,-0.005 h -8.158 c -0.003,0 -0.006,0.005 -0.011,0.005 C 38.418,31.356 38.292,31.031 38.192,30.701 Z M 38.584,27.2 h 8.186 c 0.175,0.331 0.311,0.671 0.413,1.016 h -9.012 c 0.102,-0.346 0.238,-0.685 0.413,-1.016 z m 1.424,-1.776 h 5.339 c 0.356,0.327 0.666,0.674 0.933,1.041 h -7.205 c 0.267,-0.367 0.576,-0.714 0.933,-1.041 z m 7.303,3.526 c 0.022,0.161 0.069,0.322 0.072,0.483 c -0.003,0.178 -0.053,0.355 -0.078,0.533 H 38.05 c -0.025,-0.178 -0.075,-0.355 -0.078,-0.533 c 0.003,-0.161 0.05,-0.322 0.072,-0.483 z m -5.776,-8.055 h 2.286 c -0.37,0.298 -0.753,0.608 -1.144,0.922 C 42.294,21.509 41.911,21.2 41.535,20.895 Z m 4.372,-1.7 c -0.344,0.286 -0.741,0.611 -1.178,0.966 h -4.101 c -0.435,-0.353 -0.833,-0.68 -1.179,-0.966 z"
       id="path72" /></g></g></svg>