<?xml version="1.0" encoding="UTF-8" standalone="no"?>
<!-- Generator: Adobe Illustrator 25.4.1, SVG Export Plug-In . SVG Version: 6.00 Build 0)  -->

<svg
   xmlns:dc="http://purl.org/dc/elements/1.1/"
   xmlns:cc="http://creativecommons.org/ns#"
   xmlns:rdf="http://www.w3.org/1999/02/22-rdf-syntax-ns#"
   xmlns:svg="http://www.w3.org/2000/svg"
   xmlns="http://www.w3.org/2000/svg"
   xmlns:sodipodi="http://sodipodi.sourceforge.net/DTD/sodipodi-0.dtd"
   xmlns:inkscape="http://www.inkscape.org/namespaces/inkscape"
   version="1.1"
   id="Layer_1"
   x="0px"
   y="0px"
   viewBox="0 0 33.289402 26.393995"
   enable-background="new 0 0 84.667 85.04"
   xml:space="preserve"
   sodipodi:docname="Biobrain_Icon_Chemistry10.svg"
   inkscape:version="0.92.4 (5da689c313, 2019-01-14)"
   width="33.289402"
   height="26.393995"><metadata
   id="metadata97"><rdf:RDF><cc:Work
       rdf:about=""><dc:format>image/svg+xml</dc:format><dc:type
         rdf:resource="http://purl.org/dc/dcmitype/StillImage" /><dc:title></dc:title></cc:Work></rdf:RDF></metadata><defs
   id="defs95" /><sodipodi:namedview
   pagecolor="#ffffff"
   bordercolor="#666666"
   borderopacity="1"
   objecttolerance="10"
   gridtolerance="10"
   guidetolerance="10"
   inkscape:pageopacity="0"
   inkscape:pageshadow="2"
   inkscape:window-width="1569"
   inkscape:window-height="480"
   id="namedview93"
   showgrid="false"
   inkscape:zoom="2.7751646"
   inkscape:cx="-106.53947"
   inkscape:cy="0.099004614"
   inkscape:window-x="-11"
   inkscape:window-y="102"
   inkscape:window-maximized="0"
   inkscape:current-layer="Layer_1"
   fit-margin-top="0"
   fit-margin-left="0"
   fit-margin-bottom="0"
   fit-margin-right="0" />



<path
   stroke-miterlimit="10"
   d="m 19.388623,3.2619902 c -0.035,0.033 -0.444,0.434 -0.444,0.434 l 0.499,-0.188 l 9.847,9.8469998 c 0.857,0.857 2.25,0.857 3.106,-0.004 c 0.857,-0.857 0.86,-2.246 0.004,-3.106 l -9.997,-9.99499982 c 0,0 -0.067,0.063 -0.102,0.097 z"
   id="path58"
   inkscape:connector-curvature="0"
   style="fill:none;stroke:#ffffff;stroke-width:0.5;stroke-linecap:round;stroke-linejoin:round;stroke-miterlimit:10" />
<g
   id="g62"
   transform="translate(-25.997377,-16.22501)">
	<path
   stroke-miterlimit="10"
   d="m 49.696,23.144 l 5.987,5.986 c 0.633,0.633 1.659,0.633 2.292,0 c 0.633,-0.633 0.633,-1.659 -0.1,-2.393 l -4.862,-4.864 c -0.439,0.111 -0.899,0.264 -1.519,0.299 c -0.937,0.05 -1.483,0.495 -1.798,0.972 z"
   id="path60"
   inkscape:connector-curvature="0"
   style="fill:#ffffff;stroke:#ffffff;stroke-width:0.0898;stroke-miterlimit:10" />
</g>
<path
   stroke-miterlimit="10"
   d="m 13.898623,3.2619902 c 0.035,0.033 0.42,0.405 0.42,0.405 l -0.539,-0.092 L 3.9986233,13.35499 c -0.857,0.857 -2.25,0.857 -3.10600002,-0.004 c -0.857,-0.857 -0.86,-2.246 -0.003,-3.106 L 10.885623,0.24999018 c 0,0 0.067,0.063 0.102,0.097 z"
   id="path64"
   inkscape:connector-curvature="0"
   style="fill:none;stroke:#ffffff;stroke-width:0.5;stroke-linecap:round;stroke-linejoin:round;stroke-miterlimit:10" />
<g
   id="g68"
   transform="translate(-25.997377,-16.22501)">
	<path
   stroke-miterlimit="10"
   d="m 38.37,20.316 l -8.801,8.772 c -0.608,0.608 -1.594,0.608 -2.202,0 c -0.608,-0.608 -0.608,-1.594 0,-2.202 l 7.913,-7.888 c 0.325,0.203 0.767,0.35 1.363,0.384 c 0.901,0.048 1.425,0.475 1.727,0.934 z"
   id="path66"
   inkscape:connector-curvature="0"
   style="fill:#ffffff;stroke:#ffffff;stroke-width:0.0863;stroke-miterlimit:10" />
</g>
<g
   id="g72"
   transform="translate(-25.997377,-16.22501)">
	<path
   stroke-miterlimit="10"
   d="m 36.997,42.369 c -2.092,0.003 -2.948,-1.477 -1.902,-3.289 l 5.443,-9.432 c 1.046,-1.812 2.764,-1.816 3.819,-0.01 l 5.502,9.423 c 1.055,1.807 0.206,3.287 -1.886,3.29 z"
   id="path70"
   inkscape:connector-curvature="0"
   style="fill:none;stroke:#ffffff;stroke-width:0.5;stroke-miterlimit:10" />
</g>
<polyline
   stroke-miterlimit="10"
   points="  39.482,31.515 39.477,25.675 39.216,25.393 39.697,25.402 45.14,25.393 45.817,25.393 45.436,25.732 45.436,31.543 "
   id="polyline74"
   style="fill:#22a23e;fill-opacity:1;stroke:#ffffff;stroke-width:0.5;stroke-linecap:round;stroke-linejoin:round;stroke-miterlimit:10"
   transform="translate(-25.997377,-16.22501)" />
<g
   id="g78"
   transform="translate(-25.997377,-16.22501)">
	<path
   d="m 49.815,39.053 l -2.44,-4.231 c -5.918,0 -7.061,0 -9.811,0 l -2.442,4.231 c -1.044,1.813 -0.189,3.293 1.904,3.293 h 10.888 c 2.095,0.001 2.948,-1.48 1.901,-3.293 z"
   id="path76"
   inkscape:connector-curvature="0"
   style="fill:#ffffff" />
</g>
<g
   id="g80"
   transform="translate(-25.997377,-16.22501)">
</g>
<g
   id="g82"
   transform="translate(-25.997377,-16.22501)">
</g>
<g
   id="g84"
   transform="translate(-25.997377,-16.22501)">
</g>
<g
   id="g86"
   transform="translate(-25.997377,-16.22501)">
</g>
<g
   id="g88"
   transform="translate(-25.997377,-16.22501)">
</g>
<g
   id="g90"
   transform="translate(-25.997377,-16.22501)">
</g>
</svg>