<?xml version="1.0" encoding="UTF-8" standalone="no"?>
<!-- Generator: Adobe Illustrator 25.4.1, SVG Export Plug-In . SVG Version: 6.00 Build 0)  -->

<svg
   xmlns:dc="http://purl.org/dc/elements/1.1/"
   xmlns:cc="http://creativecommons.org/ns#"
   xmlns:rdf="http://www.w3.org/1999/02/22-rdf-syntax-ns#"
   xmlns:svg="http://www.w3.org/2000/svg"
   xmlns="http://www.w3.org/2000/svg"
   xmlns:sodipodi="http://sodipodi.sourceforge.net/DTD/sodipodi-0.dtd"
   xmlns:inkscape="http://www.inkscape.org/namespaces/inkscape"
   version="1.1"
   id="Layer_1"
   x="0px"
   y="0px"
   viewBox="0 0 32.299057 26.572719"
   enable-background="new 0 0 84.667 85.04"
   xml:space="preserve"
   sodipodi:docname="Biobrain_Icon_Forensics.svg"
   inkscape:version="0.92.4 (5da689c313, 2019-01-14)"
   width="32.299057"
   height="26.57272"><metadata
   id="metadata193"><rdf:RDF><cc:Work
       rdf:about=""><dc:format>image/svg+xml</dc:format><dc:type
         rdf:resource="http://purl.org/dc/dcmitype/StillImage" /><dc:title></dc:title></cc:Work></rdf:RDF></metadata><defs
   id="defs191" /><sodipodi:namedview
   pagecolor="#ffffff"
   bordercolor="#666666"
   borderopacity="1"
   objecttolerance="10"
   gridtolerance="10"
   guidetolerance="10"
   inkscape:pageopacity="0"
   inkscape:pageshadow="2"
   inkscape:window-width="1920"
   inkscape:window-height="1017"
   id="namedview189"
   showgrid="false"
   inkscape:zoom="2.7751646"
   inkscape:cx="-60.969345"
   inkscape:cy="28.420597"
   inkscape:window-x="-8"
   inkscape:window-y="-8"
   inkscape:window-maximized="1"
   inkscape:current-layer="Layer_1"
   fit-margin-top="0"
   fit-margin-left="0"
   fit-margin-right="0"
   fit-margin-bottom="0" />











<g
   transform="translate(-31.292942,-16.259281)"
   id="g62"><path
     style="fill:none;stroke:#ffffff;stroke-width:1.85119998;stroke-miterlimit:10"
     inkscape:connector-curvature="0"
     stroke-miterlimit="10"
     d="m 52.218,30.835 c -2.941,3.539 -8.193,4.021 -11.734,1.082 C 36.949,28.975 36.463,23.722 39.405,20.185 c 2.942,-3.537 8.194,-4.024 11.733,-1.08 c 3.536,2.94 4.022,8.191 1.08,11.73 z"
     id="path58" /><line
     style="fill:#ffffff;stroke:#ffffff;stroke-width:1.85119998;stroke-linecap:round;stroke-miterlimit:10"
     stroke-miterlimit="10"
     x1="40.484001"
     y1="31.916"
     x2="32.227001"
     y2="41.851002"
     id="line60" /></g><g
   transform="translate(-31.292942,-16.259281)"
   id="g174"><path
     style="fill:#ffffff"
     inkscape:connector-curvature="0"
     d="m 49.961,25.541 l -0.021,0.025 c 0.013,0.045 -0.009,0.139 0.045,0.179 c -0.009,-0.069 -0.017,-0.138 -0.024,-0.204"
     id="path64" /><path
     style="fill:#ffffff"
     inkscape:connector-curvature="0"
     d="m 50.998,25.829 c -0.053,0.075 -0.1,0.157 -0.143,0.243 c 0.027,-0.009 0.057,-0.012 0.09,-0.012 c 0.043,0 0.09,0.006 0.136,0.011 c 0.046,0.006 0.093,0.011 0.136,0.011 c 0.026,0 0.052,-0.002 0.075,-0.008 c 0.121,-0.019 0.12,-0.188 0.206,-0.234 c -0.158,-0.001 -0.33,-0.001 -0.5,-0.011 m -2.714,-1.026 c -0.013,0.075 -0.209,0.049 -0.124,0.157 c 0.13,0.044 0.129,0.198 0.254,0.267 c -0.012,0.131 0.073,0.295 -0.004,0.404 c -0.015,-0.006 -0.029,-0.009 -0.043,-0.009 c -0.047,0 -0.082,0.037 -0.115,0.073 c -0.033,0.037 -0.064,0.073 -0.106,0.073 c -0.022,0 -0.047,-0.01 -0.077,-0.036 l -0.208,-0.105 c 0.086,0.221 -0.148,0.419 0.063,0.651 l -0.139,0.215 l -0.295,0.095 c 0.061,0.02 0.123,0.027 0.185,0.027 c 0.064,0 0.127,-0.007 0.19,-0.014 c 0.063,-0.007 0.125,-0.014 0.185,-0.014 c 0.092,0 0.18,0.017 0.261,0.075 c -0.049,0.355 -0.246,0.651 -0.287,1.013 l -0.108,10e-4 c -0.008,0.05 -0.178,0.157 -0.063,0.204 c 0.017,0.062 0.037,0.086 0.058,0.086 c 0.038,0 0.082,-0.074 0.131,-0.148 c 0.049,-0.074 0.104,-0.148 0.164,-0.148 c 0.004,0 0.007,0 0.011,10e-4 c 0.014,0.095 0.028,0.246 0.144,0.252 c 0.025,-0.056 0.056,-0.071 0.089,-0.071 c 0.022,0 0.045,0.007 0.068,0.013 c 0.024,0.007 0.048,0.013 0.071,0.013 c 0.019,0 0.038,-0.004 0.056,-0.016 c 0.079,0.117 -0.013,0.284 0.031,0.431 c 0.259,-0.081 0.568,-0.291 0.874,-0.419 c 0.099,-0.064 0.111,-0.195 0.158,-0.299 c 0.257,0.016 0.317,0.329 0.56,0.404 l 0.263,-0.049 c 0.079,-0.472 -0.537,-0.513 -0.425,-0.974 c 0.157,-0.074 0.306,-0.184 0.424,-0.32 c -0.043,-0.049 -0.09,-0.098 -0.076,-0.171 c 0.024,-0.204 0.314,-0.472 0.015,-0.599 c -0.08,-0.065 -0.148,-0.145 -0.204,-0.234 C 50.25,25.622 50.235,25.611 50.22,25.6 l -0.107,0.113 c -0.233,-0.012 -0.004,-0.241 -0.15,-0.242 c 0.02,-0.12 0.067,-0.24 0.118,-0.359 C 50.077,25.081 50.073,25.05 50.071,25.02 C 50.056,25.009 50.04,25 50.025,24.992 c -0.085,0.122 -0.208,0.231 -0.32,0.294 L 49.68,25.112 l -0.085,0.159 C 49.542,25.224 49.499,25.17 49.466,25.108 c -0.067,0.031 -0.136,0.055 -0.21,0.055 c -0.032,0 -0.066,-0.005 -0.1,-0.015 c 0,0.027 0,0.053 0,0.078 l -0.129,0.012 l 0.014,0.151 c -0.017,0.042 -0.032,0.057 -0.047,0.057 c -0.016,0 -0.032,-0.016 -0.049,-0.033 C 48.928,25.397 48.911,25.38 48.892,25.38 c -0.017,0 -0.034,0.013 -0.054,0.049 C 48.581,25.313 48.46,25.01 48.284,24.803"
     id="path66" /><path
     style="fill:#ffffff"
     inkscape:connector-curvature="0"
     d="m 55.076,37.194 l 0.075,-0.082 l -0.075,0.082 m 0.38,-1.03 l -0.066,-0.03 l 0.066,0.03 M 54.34,35.243 c -0.202,0.153 -0.426,0.317 -0.689,0.366 c -0.209,0.428 -0.612,0.58 -0.872,0.967 l 0.086,0.22 C 52.818,36.9 52.669,36.883 52.6,36.942 c 0.005,0.055 0.025,0.069 0.051,0.069 c 0.013,0 0.027,-0.004 0.042,-0.007 C 52.708,37 52.722,36.997 52.736,36.997 c 0.027,0 0.05,0.014 0.06,0.068 c -0.012,0.187 -0.188,0.304 -0.245,0.442 l 0.216,-0.058 c 0.083,0.092 0.108,0.266 0.128,0.351 l -0.12,0.188 c 0.016,0.015 0.033,0.021 0.051,0.021 c 0.03,0 0.061,-0.017 0.091,-0.034 c 0.03,-0.017 0.059,-0.034 0.086,-0.034 c 0.032,0 0.06,0.025 0.082,0.103 c 0.108,0.112 -0.092,0.167 -0.031,0.271 c 0.022,0.017 0.039,0.023 0.053,0.023 c 0.055,0 0.07,-0.097 0.136,-0.101 c 0.162,0.055 0.017,0.223 0.075,0.311 l 0.111,-0.138 c 0.014,-0.002 0.027,-0.003 0.039,-0.003 c 0.2,0 -0.022,0.262 0.158,0.295 c 0.231,-0.06 0.578,-0.115 0.854,-0.239 c 0.002,0 0.005,0 0.007,0 c 0.254,0 0.236,0.439 0.51,0.484 c 0.187,-0.094 -0.1,-0.162 -0.052,-0.306 c 0.126,-0.52 0.296,-0.949 0.724,-1.25 l 0.533,0.215 l 0.077,-0.109 C 56.044,37.316 55.746,37.282 55.54,37.081 l 0.101,0.008 c -0.097,-0.033 -0.238,-0.043 -0.269,-0.151 c 0.161,-0.227 0.011,-0.3 0.241,-0.473 l -0.131,-0.157 l 0.107,-0.113 c 0.012,-0.027 0.011,-0.053 0.001,-0.08 l -0.021,0.01 L 55.498,36.002 C 55.502,36 55.506,35.998 55.511,35.997 c -0.04,-0.05 -0.081,-0.102 -0.089,-0.155 l -0.016,-0.167 l -0.224,0.051 c -0.108,-0.056 -0.12,-0.191 -0.175,-0.303 l -0.159,0.073 l -0.111,-0.128 l -0.203,0.096 c -0.12,-0.023 -0.149,-0.115 -0.194,-0.221"
     id="path68" /><path
     style="fill:#ffffff"
     inkscape:connector-curvature="0"
     d="m 53.605,33.895 l 0.006,-0.066 l -0.006,0.066 m 0.023,-0.108 l 0.067,-0.019 l -0.067,0.019 m 0.473,-0.042 l -0.043,-0.034 l 0.043,0.034 m -0.59,-0.077 v -0.056 v 0.056 m 0.06,-0.066 l 0.004,-0.081 l 0.009,0.063 l -0.013,0.018 M 54,33.527 l -0.016,-0.054 l 0.026,0.02 L 54,33.527 M 53.565,33.458 L 53.56,33.426 l 0.074,0.029 l -0.069,0.003 m 0.332,-0.108 l -0.009,-0.007 l 0.032,-0.045 l 0.009,0.007 l -0.032,0.045 m -0.089,-0.083 v 0 l -0.013,0.074 l -0.009,-0.007 c 0,0.05 -0.007,0.064 -0.017,0.064 c -0.007,0 -0.015,-0.006 -0.025,-0.012 c -0.01,-0.006 -0.021,-0.012 -0.033,-0.012 c -0.002,0 -0.005,0 -0.007,10e-4 c -0.005,0.007 -0.016,0.018 -0.038,0.034 c 0.013,-0.022 0.026,-0.032 0.038,-0.034 c 0.022,-0.032 -0.096,0.008 -0.077,-0.081 l 0.096,0.074 l 0.085,-0.101 m -0.075,-0.198 c -0.016,0.096 -0.082,0.113 -0.156,0.113 c -0.02,0 -0.04,-0.001 -0.06,-0.002 c -0.02,-10e-4 -0.04,-0.002 -0.059,-0.002 c -10e-4,0 -0.002,0 -0.003,0 l -0.038,0.167 l -0.196,0.087 c 0.21,0.12 -0.087,0.199 0.022,0.367 c 0.052,0.363 0.395,0.333 0.582,0.449 c 0.045,-0.096 0.108,-0.108 0.172,-0.108 c 0.011,0 0.021,0 0.032,10e-4 c 0.011,0 0.021,0.001 0.031,0.001 c 0.065,0 0.126,-0.013 0.165,-0.118 c 0.189,-0.134 -0.004,-0.298 0.096,-0.459 c -0.091,-0.042 0.021,-0.181 -0.107,-0.209 c 0.035,-0.239 -0.29,-0.027 -0.239,-0.269 c -0.044,0.032 -0.092,0.056 -0.137,0.056 c -0.041,10e-4 -0.078,-0.02 -0.105,-0.074"
     id="path70" /><polyline
     style="fill:#ffffff"
     points="53.921,33.298 53.889,33.343 53.897,33.35 53.929,33.304 53.921,33.298  "
     id="polyline72" /><path
     style="fill:#ffffff"
     inkscape:connector-curvature="0"
     d="m 53.704,33.376 c -0.012,0.003 -0.025,0.012 -0.038,0.034 c 0.022,-0.016 0.034,-0.027 0.038,-0.034 m 0.104,-0.109 l -0.086,0.102 l -0.096,-0.074 c -0.019,0.089 0.099,0.048 0.077,0.081 c 0.002,-10e-4 0.005,-10e-4 0.007,-10e-4 c 0.012,0 0.023,0.006 0.033,0.012 c 0.01,0.006 0.018,0.012 0.025,0.012 c 0.01,0 0.017,-0.014 0.017,-0.064 l 0.009,0.007 l 0.014,-0.075"
     id="path74" /><polyline
     style="fill:#ffffff"
     points="53.984,33.473 54,33.527 54.01,33.493 53.984,33.473  "
     id="polyline76" /><polyline
     style="fill:#ffffff"
     points="54.057,33.712 54.101,33.745 54.057,33.712  "
     id="polyline78" /><polyline
     style="fill:#ffffff"
     points="53.561,33.426 53.565,33.458 53.634,33.455 53.561,33.426  "
     id="polyline80" /><polyline
     style="fill:#ffffff"
     points="53.575,33.521 53.571,33.602 53.584,33.584 53.575,33.521  "
     id="polyline82" /><polyline
     style="fill:#ffffff"
     points="53.51,33.612 53.511,33.668 53.51,33.612  "
     id="polyline84" /><polyline
     style="fill:#ffffff"
     points="53.695,33.768 53.628,33.787 53.695,33.768  "
     id="polyline86" /><polyline
     style="fill:#ffffff"
     points="53.611,33.83 53.605,33.895 53.611,33.83  "
     id="polyline88" /><path
     style="fill:#ffffff"
     inkscape:connector-curvature="0"
     d="m 49.376,34.234 l -0.048,0.201 c -0.024,0.023 -0.043,0.031 -0.059,0.031 c -0.027,0 -0.044,-0.026 -0.064,-0.052 c -0.019,-0.026 -0.041,-0.052 -0.077,-0.052 c -0.006,0 -0.012,10e-4 -0.019,0.002 c -0.151,0.051 -0.317,0.151 -0.467,0.151 c -0.026,0 -0.052,-0.003 -0.076,-0.01 l 0.066,0.135 c 0.025,0.117 -0.122,0.116 -0.141,0.2 c -0.028,0.052 -0.057,0.069 -0.085,0.069 c -0.027,0 -0.055,-0.015 -0.084,-0.031 c -0.029,-0.015 -0.059,-0.031 -0.09,-0.031 c -0.011,0 -0.021,0.002 -0.032,0.006 l 0.122,0.094 c -0.232,0.101 0.035,0.462 -0.26,0.557 c 0.02,0.086 0.166,0.24 -0.017,0.309 c 0.09,0.106 0.242,0.153 0.376,0.153 c 0.019,0 0.037,-10e-4 0.055,-0.003 c 0.128,0.141 -0.099,0.33 0.063,0.442 c 0.016,0.009 0.036,0.011 0.06,0.011 c 0.014,0 0.028,-10e-4 0.043,-0.002 c 0.015,-0.001 0.03,-0.002 0.045,-0.002 c 0.057,0 0.114,0.011 0.142,0.076 c -0.063,0.204 0.108,0.322 0.15,0.509 c 0.003,0 0.006,0 0.009,0 c 0.112,0 0.047,-0.227 0.188,-0.241 l 0.08,0.076 c 0.035,0.035 0.062,0.049 0.085,0.049 c 0.095,0 0.105,-0.247 0.209,-0.257 l 0.118,0.231 c -0.054,-0.242 0.051,-0.277 0.191,-0.277 c 0.029,0 0.059,10e-4 0.089,0.003 c 0.031,10e-4 0.061,0.003 0.092,0.003 c 0.083,0 0.161,-0.011 0.213,-0.062 c -0.016,-0.11 -0.045,-0.259 -0.007,-0.37 c 0.017,-0.058 0.053,-0.072 0.092,-0.072 c 0.017,0 0.035,0.002 0.052,0.005 c 0.017,0.002 0.034,0.005 0.048,0.005 c 0.011,0 0.021,-0.001 0.029,-0.005 l -0.135,-0.132 c 0.022,-0.045 0.057,-0.054 0.094,-0.054 c 0.011,0 0.022,10e-4 0.033,0.002 c 0.011,10e-4 0.022,0.002 0.033,0.002 c 0.039,0 0.072,-0.01 0.086,-0.068 c 0.048,-0.314 -0.304,-0.557 -0.135,-0.834 c 0.023,-0.108 0.007,-0.219 -0.075,-0.311 c -0.017,0.001 -0.033,0.002 -0.049,0.002 c -0.374,0.002 -0.67,-0.315 -0.943,-0.458"
     id="path90" /><path
     style="fill:#ffffff"
     inkscape:connector-curvature="0"
     d="m 52.099,32.539 l 0.112,-0.082 c -0.026,0.037 0.001,0.16 -0.047,0.16 c -0.011,0 -0.027,-0.007 -0.049,-0.024 l 0.006,-0.066 l -0.022,0.012 M 51.85,32.417 l 0.049,-0.088 l 0.019,-0.027 c 0.102,0.065 -0.04,0.095 -0.051,0.185 c 0.007,-0.01 0.058,-0.032 0.109,-0.032 c 0.042,0 0.083,0.015 0.097,0.064 C 52.05,32.482 52.034,32.468 52.022,32.468 c -0.02,0 -0.03,0.036 -0.044,0.072 c -0.014,0.036 -0.031,0.072 -0.065,0.072 c -0.004,0 -0.008,0 -0.012,-0.001 l 0.045,-0.063 c -0.021,0.011 -0.038,0.016 -0.05,0.016 c -0.061,0 -0.034,-0.113 -0.053,-0.162 L 51.84,32.395 c 10e-4,0.002 0.002,0.004 0.003,0.007 l 0.007,0.015 m 0.256,-0.096 l 0.043,-0.023 l -0.043,0.023 m -0.276,0.01 l -0.028,-0.036 l 0.076,-0.012 l -0.048,0.048 m 0.201,-0.114 c 0.014,0 0.026,-0.008 0.038,-0.016 c 0.012,-0.008 0.025,-0.016 0.039,-0.016 c 0.013,0 0.028,0.008 0.045,0.031 l -0.142,0.087 l -0.025,-0.117 c 0.017,0.023 0.032,0.031 0.045,0.031 m 0.063,-0.106 c -0.089,0 -0.19,0.059 -0.267,0.092 c -0.088,0.086 -0.063,0.204 -0.056,0.307 l 0.103,0.177 c 0.021,-0.017 0.041,-0.023 0.061,-0.023 c 0.025,0 0.048,0.01 0.072,0.02 c 0.024,0.01 0.049,0.02 0.075,0.02 c 0.013,0 0.026,-0.002 0.04,-0.008 c 0.125,-0.044 0.168,-0.123 0.204,-0.249 c -0.029,-0.092 -0.014,-0.208 -0.11,-0.281 c -0.035,-0.04 -0.077,-0.055 -0.122,-0.055"
     id="path92" /><path
     style="fill:#ffffff"
     inkscape:connector-curvature="0"
     d="m 52.108,32.185 c -0.014,0 -0.026,0.008 -0.039,0.016 c -0.012,0.008 -0.025,0.016 -0.038,0.016 c -0.013,0 -0.028,-0.008 -0.045,-0.031 l 0.025,0.117 l 0.142,-0.087 c -0.017,-0.023 -0.031,-0.031 -0.045,-0.031"
     id="path94" /><polyline
     style="fill:#ffffff"
     points="52.149,32.298 52.106,32.321 52.149,32.298  "
     id="polyline96" /><path
     style="fill:#ffffff"
     inkscape:connector-curvature="0"
     d="m 52.211,32.457 l -0.112,0.082 l 0.021,-0.012 l -0.006,0.066 c 0.022,0.017 0.037,0.024 0.049,0.024 c 0.049,0 0.022,-0.123 0.048,-0.16"
     id="path98" /><path
     style="fill:#ffffff"
     inkscape:connector-curvature="0"
     d="m 51.839,32.395 l 0.003,0.007 C 51.841,32.399 51.84,32.397 51.839,32.395 m 0.079,-0.093 l -0.019,0.027 l -0.049,0.088 l -0.007,-0.015 c 0.019,0.048 -0.008,0.162 0.053,0.162 c 0.013,0 0.029,-0.005 0.05,-0.016 l -0.045,0.063 c 0.004,0.001 0.009,0.001 0.012,0.001 c 0.034,0 0.051,-0.036 0.065,-0.072 c 0.014,-0.036 0.024,-0.072 0.044,-0.072 c 0.012,0 0.028,0.014 0.051,0.051 C 52.059,32.47 52.018,32.455 51.976,32.455 c -0.05,0 -0.102,0.022 -0.109,0.032 c 0.011,-0.09 0.153,-0.121 0.051,-0.185"
     id="path100" /><polyline
     style="fill:#ffffff"
     points="51.877,32.284 51.801,32.295 51.83,32.331 51.877,32.284  "
     id="polyline102" /><path
     style="fill:#ffffff"
     inkscape:connector-curvature="0"
     d="m 58.407,32.013 c -0.103,0.295 -0.215,0.662 -0.454,0.832 L 58,32.946 c -0.018,0.047 -0.039,0.061 -0.06,0.061 c -0.018,0 -0.036,-0.011 -0.054,-0.021 c -0.017,-0.011 -0.033,-0.021 -0.047,-0.021 c -0.012,0 -0.021,0.008 -0.029,0.029 C 57.676,32.916 57.565,32.773 57.442,32.668 L 57.4,32.717 c 0.119,0.07 0.209,0.265 0.231,0.413 l -0.117,-0.023 l 0.081,0.096 c -0.061,0.038 -0.128,0.057 -0.198,0.057 c -0.05,0 -0.101,-0.01 -0.153,-0.03 l 0.104,0.09 l -0.088,0.12 l 0.203,0.058 l -0.023,0.093 l 0.099,0.026 c 0.094,0.088 -0.103,0.054 -0.022,0.15 C 57.388,33.914 57.174,33.93 57.003,34 c 0.032,0.04 0.064,0.079 0.079,0.118 l 0.209,-0.104 l 0.256,0.097 c -0.078,0.093 0.109,0.182 -0.015,0.261 l -0.115,0.12 c 0.003,0 0.006,0 0.009,0 c 0.063,0 0.112,0.033 0.162,0.066 c 0.049,0.033 0.099,0.066 0.163,0.066 c 0.029,0 0.061,-0.007 0.096,-0.024 l 0.105,0.147 l -0.009,0.227 c 0.125,-0.175 0.073,-0.427 0.239,-0.554 c 0.214,0.117 0.358,0.324 0.578,0.437 l -0.025,0.075 l 0.115,0.092 c 0.005,0 0.01,0 0.015,0 c 0.17,0 -0.115,-0.201 -0.064,-0.302 l 0.194,-0.042 l 0.028,-0.212 c 0.011,-0.003 0.022,-0.005 0.032,-0.005 c 0.081,0 0.158,0.081 0.249,0.084 c 0.009,-0.199 -0.052,-0.463 -0.063,-0.706 l -0.153,-0.18 c 0.07,-0.175 0.284,-0.144 0.389,-0.295 l 0.03,-0.194 c -0.048,-0.028 -0.094,-0.04 -0.136,-0.04 c -0.08,0 -0.152,0.039 -0.224,0.078 c -0.071,0.039 -0.142,0.078 -0.218,0.078 c -0.045,0 -0.092,-0.013 -0.142,-0.048 c -0.019,-0.227 -0.118,-0.465 -0.29,-0.602 c -0.214,-0.089 -0.009,-0.283 0.007,-0.428 l -0.097,-0.197"
     id="path104" /><path
     style="fill:#ffffff"
     inkscape:connector-curvature="0"
     d="m 57.006,34 c -0.004,0.002 -0.009,0.004 -0.013,0.005 l 0.071,0.123 l 0.021,-0.01 C 57.071,34.079 57.039,34.04 57.006,34"
     id="path106" /><polyline
     style="fill:#ffffff"
     points="56.887,34.139 56.953,34.169 56.887,34.139  "
     id="polyline108" /><path
     style="fill:#ffffff"
     inkscape:connector-curvature="0"
     d="m 61.797,40.24 c -0.17,0.121 -0.262,0.32 -0.438,0.416 l 0.029,-0.069 l -0.159,0.151 C 61.122,40.573 61.04,40.66 60.984,40.46 l -0.131,0.054 l -0.047,-0.101 l -0.264,0.033 l -0.11,-0.028 l -0.02,0.168 l -0.234,0.051 l 0.01,0.128 l -0.107,0.047 l 0.014,0.163 l -0.185,0.083 c 0.05,0.176 0.102,0.37 0.072,0.565 c 0.224,0.245 0.226,0.561 0.412,0.833 l 0.161,-0.008 l 0.031,0.218 c 0.009,0.002 0.017,0.003 0.024,0.003 c 0.034,0 0.035,-0.028 0.038,-0.056 c 0.003,-0.028 0.007,-0.056 0.046,-0.056 c 0.005,0 0.01,0 0.016,10e-4 c 0.117,0.052 0.15,0.202 0.224,0.274 l 0.014,-0.163 l 0.254,-0.007 l 0.092,0.127 c 0.083,-0.05 -0.055,-0.202 0.091,-0.202 c 0.005,0 0.011,0 0.017,10e-4 c 0.014,-0.007 0.025,-0.01 0.035,-0.01 c 0.028,0 0.043,0.024 0.059,0.048 c 0.015,0.024 0.031,0.048 0.059,0.048 c 0.004,0 0.008,0 0.013,-0.002 l -0.006,-0.15 c 0.02,-0.027 0.039,-0.036 0.059,-0.036 c 0.024,0 0.048,0.015 0.072,0.029 c 0.024,0.015 0.047,0.029 0.071,0.029 c 0.005,0 0.01,-10e-4 0.015,-0.002 l -0.062,-0.11 c 0.012,-0.058 0.032,-0.076 0.056,-0.076 c 0.019,0 0.04,0.011 0.061,0.022 c 0.022,0.011 0.043,0.022 0.064,0.022 c 0.019,0 0.036,-0.009 0.051,-0.036 c 0.016,-0.175 0.062,-0.429 0.048,-0.649 c 0.056,-0.184 0.336,-0.065 0.429,-0.246 c -0.005,-0.047 -0.019,-0.062 -0.039,-0.062 c -0.016,0 -0.037,0.01 -0.058,0.021 c -0.022,0.01 -0.045,0.021 -0.068,0.021 c -0.015,0 -0.029,-0.004 -0.042,-0.016 c -0.302,-0.209 -0.536,-0.428 -0.627,-0.796 l 0.262,-0.32 L 61.797,40.24"
     id="path110" /><polyline
     style="fill:#ffffff"
     points="56.647,35.116 56.572,35.199 56.647,35.116  "
     id="polyline112" /><path
     style="fill:#ffffff"
     inkscape:connector-curvature="0"
     d="m 62.376,34.807 c -0.074,0.283 -0.362,0.42 -0.524,0.583 l 0.117,0.081 c 0.041,0.106 -0.086,0.051 -0.096,0.136 c -0.003,0.137 0.032,0.304 -0.037,0.411 l 0.101,-0.014 l 0.094,0.145 c 0.085,0.103 -0.06,0.12 -0.06,0.206 l 0.088,-0.063 c 0.01,0.185 0.303,0.084 0.294,0.311 c 0.003,0 0.006,0 0.009,0 c 0.014,0 0.03,-0.003 0.047,-0.005 c 0.017,-0.003 0.036,-0.005 0.053,-0.005 c 0.045,0 0.083,0.017 0.084,0.094 c 0.101,-0.043 0.172,-0.16 0.197,-0.264 c 0.015,-0.007 0.029,-0.01 0.043,-0.01 c 0.038,0 0.07,0.023 0.102,0.046 c 0.032,0.023 0.062,0.046 0.096,0.046 c 0.018,0 0.036,-0.006 0.056,-0.022 c 0.04,-0.038 0.026,-0.173 0.121,-0.182 c 0.039,0.031 0.079,0.041 0.119,0.041 c 0.034,0 0.068,-0.007 0.103,-0.014 c 0.035,-0.007 0.071,-0.014 0.108,-0.014 c 0.01,0 0.019,0 0.029,0.002 c 0.037,-0.084 -0.132,-0.089 -0.107,-0.193 l 0.067,-0.038 c 0.158,-0.083 -0.086,-0.16 -0.063,-0.253 l 0.175,-0.028 C 63.264,35.767 63.59,35.488 63.516,35.319 l -0.237,-0.082 l 0.009,-0.17 l -0.116,0.063 l -0.018,-0.199 c -0.048,-0.027 -0.099,-0.035 -0.151,-0.035 c -0.039,0 -0.078,0.004 -0.116,0.009 c -0.038,0.004 -0.076,0.009 -0.112,0.009 c -0.07,0 -0.134,-0.017 -0.184,-0.084 l -0.215,-0.023"
     id="path114" /><path
     style="fill:#ffffff"
     inkscape:connector-curvature="0"
     d="m 50.019,24.635 c -0.066,0.021 -0.111,0.074 -0.116,0.194 c -0.042,0.136 -0.117,0.26 -0.211,0.368 c 0.03,0.034 0.058,0.067 0.062,0.107 c 0.078,-0.213 0.159,-0.454 0.265,-0.669 m -0.811,-3.576 c -0.013,0 -0.026,0.007 -0.041,0.026 c -0.009,-0.001 -0.016,-0.001 -0.024,-0.001 c -0.232,0 0.16,0.283 0.089,0.424 c -0.041,-0.009 -0.093,-0.021 -0.141,-0.021 c -0.056,0 -0.107,0.017 -0.131,0.077 c 0.115,0.12 -0.065,0.179 -0.041,0.296 c -0.015,0.004 -0.029,0.006 -0.044,0.006 c -0.113,0 -0.221,-0.115 -0.35,-0.121 c -0.006,0.109 0.003,0.233 0.017,0.364 l 0.071,-0.086 c 0.1,0.049 0.083,0.148 0.049,0.234 l -0.051,0.072 C 48.592,22.326 48.577,22.32 48.566,22.312 c 0.017,0.14 0.033,0.283 0.038,0.421 c 0.024,0.117 0.136,0.173 0.213,0.254 c -0.101,0.244 -0.399,0.197 -0.547,0.407 c -0.053,0.077 -0.08,0.176 -0.044,0.272 c 0.032,0.019 0.063,0.033 0.094,0.042 C 48.319,23.631 48.315,23.55 48.298,23.475 l 0.195,0.066 l 0.066,-0.188 v 0 c -0.002,0.116 0.023,0.223 0.071,0.314 c 0.034,-0.016 0.067,-0.034 0.101,-0.051 c 0.099,-0.053 0.197,-0.106 0.303,-0.106 c 0.05,0 0.102,0.012 0.156,0.041 c 0.05,-0.072 0.087,-0.149 0.099,-0.223 l 0.082,0.036 c -0.035,0.103 -0.082,0.205 -0.126,0.308 c 0.026,0.183 0.088,0.366 0.185,0.52 c 0.202,0.135 0.466,0.182 0.734,0.199 c 0.069,-0.097 0.147,-0.182 0.239,-0.245 l -0.065,-0.142 c 0.026,-0.065 0.055,-0.085 0.084,-0.085 c 0.025,0 0.051,0.015 0.075,0.03 c 0.024,0.015 0.047,0.03 0.066,0.03 c 0.016,0 0.03,-0.01 0.04,-0.04 c 0.186,0.111 0.34,0.312 0.511,0.461 l 0.059,-0.068 c -0.166,-0.099 -0.29,-0.374 -0.319,-0.581 l 0.163,0.034 l -0.112,-0.136 c 0.085,-0.051 0.177,-0.077 0.273,-0.077 c 0.071,0 0.145,0.014 0.218,0.043 l -0.145,-0.127 l 0.124,-0.167 c -0.098,-0.012 -0.198,-0.05 -0.284,-0.084 l 0.033,-0.13 L 50.985,23.07 c -0.13,-0.124 0.145,-0.074 0.033,-0.21 c 0.187,-0.21 0.497,-0.225 0.74,-0.327 C 51.703,22.5 51.767,22.352 51.695,22.352 c -0.009,0 -0.02,0.002 -0.034,0.007 c -0.083,0.111 -0.219,0.058 -0.323,0.157 C 51.226,22.46 51.051,22.488 50.98,22.377 c 0.11,-0.13 -0.15,-0.257 0.024,-0.364 l 0.163,-0.167 c -0.003,0 -0.007,0 -0.01,0 c -0.089,0 -0.158,-0.047 -0.228,-0.095 C 50.86,21.704 50.79,21.656 50.7,21.656 c -0.04,0 -0.083,0.009 -0.133,0.032 l -0.145,-0.207 c -0.027,-0.102 0.062,-0.244 0.015,-0.318 c -0.178,0.244 -0.107,0.596 -0.34,0.772 c -0.299,-0.167 -0.496,-0.458 -0.804,-0.618 l 0.036,-0.105 c -0.036,-0.017 -0.068,-0.153 -0.121,-0.153"
     id="path116" /><path
     style="fill:#ffffff"
     inkscape:connector-curvature="0"
     d="m 50.032,25.455 l -0.071,0.086 c 0.007,0.066 0.016,0.135 0.024,0.204 c 0.011,0.008 0.026,0.014 0.045,0.017 l 0.051,-0.072 c 0.034,-0.087 0.051,-0.186 -0.049,-0.235"
     id="path118" /><path
     style="fill:#ffffff"
     inkscape:connector-curvature="0"
     d="m 50.846,27.625 c 0.056,0.09 0.124,0.17 0.204,0.234 c 0.299,0.127 0.009,0.395 -0.015,0.599 c -0.014,0.073 0.033,0.123 0.076,0.171 c 0.094,-0.108 0.168,-0.233 0.211,-0.368 c 0.005,-0.12 0.05,-0.173 0.116,-0.194 c 0.043,-0.086 0.09,-0.168 0.143,-0.243 C 51.313,27.807 51.049,27.76 50.846,27.625 m -0.87,-0.839 l -0.066,0.188 l -0.195,-0.066 c 0.017,0.075 0.021,0.156 0.022,0.233 c 0.034,0.01 0.067,0.015 0.1,0.015 c 0.074,0 0.143,-0.023 0.21,-0.055 c -0.048,-0.092 -0.073,-0.198 -0.071,-0.315 m 0.73,-0.025 c -0.012,0.074 -0.049,0.151 -0.099,0.223 c 0.015,0.008 0.03,0.018 0.046,0.028 c 0.002,0.031 0.006,0.061 0.01,0.092 c 0.044,-0.103 0.091,-0.206 0.126,-0.308 l -0.083,-0.035"
     id="path120" /><path
     style="fill:#ffffff"
     inkscape:connector-curvature="0"
     d="m 47.773,30.071 l -0.097,-0.012 l 0.097,0.012 m -0.487,-0.486 c -0.005,-0.006 -0.01,-0.013 -0.016,-0.021 c 0.006,0.007 0.012,0.014 0.016,0.021 c 0.054,0.07 0.07,0.093 0.138,0.18 c -0.003,0.025 -0.01,0.033 -0.02,0.033 c -0.01,0 -0.021,-0.008 -0.033,-0.017 C 47.36,29.773 47.348,29.764 47.339,29.764 c -0.01,0 -0.017,0.011 -0.017,0.043 l 0.047,0.034 l -0.03,-0.006 l 0.142,0.102 l 0.023,-0.049 c -0.014,-0.029 -0.007,-0.061 0.042,-0.09 l -0.042,0.09 c 0.018,0.037 0.072,0.07 0.123,0.088 l -0.004,-0.017 l 0.071,0.031 c -0.019,-10e-4 -0.043,-0.006 -0.067,-0.014 l 0.013,0.051 C 47.625,30.008 47.612,30.002 47.6,30.002 c -0.014,0 -0.026,0.009 -0.036,0.017 c -0.01,0.008 -0.019,0.017 -0.025,0.017 c -0.007,0 -0.012,-0.012 -0.014,-0.05 c -0.003,0.096 -0.133,0.093 -0.115,0.161 L 47.342,30.06 l 0.044,0.009 l -0.124,-0.034 l 0.036,-0.145 l 0.035,0.056 C 47.395,29.823 47.232,29.869 47.2,29.838 c 0.079,-0.065 0.149,-0.16 0.086,-0.253 m 0.178,-0.071 l -0.019,-0.017 c 0.01,0.002 0.016,0.008 0.019,0.017 l 0.132,0.119 l 0.107,-0.074 v 0 c -0.024,0.083 0.009,0.114 0.101,0.158 l -0.068,-0.006 l 0.05,0.059 l -0.035,-0.015 c -0.062,0.124 0.068,0.086 0.118,0.105 l -0.118,0.055 l 0.053,0.083 l -0.107,-0.046 c 0.118,-0.096 -0.041,-0.145 -0.056,-0.269 l -0.074,0.105 c -0.021,-0.093 0.089,-0.102 -0.018,-0.148 l -0.047,0.127 C 47.386,29.741 47.483,29.57 47.464,29.514 m 0.075,-0.016 c 0.022,0 0.037,-0.01 0.048,-0.02 c 0.012,-0.01 0.02,-0.02 0.028,-0.02 c 0.011,0 0.021,0.015 0.039,0.065 L 47.6,29.56 c 0.011,-0.038 0.014,-0.05 0.013,-0.05 c -0.002,0 -0.008,0.011 -0.018,0.023 c -0.009,0.011 -0.021,0.023 -0.034,0.023 c -0.014,0 -0.029,-0.015 -0.041,-0.061 c 0.008,0.003 0.014,0.003 0.019,0.003 m -0.022,-0.173 c -0.036,0 -0.073,0.031 -0.113,0.061 c -0.04,0.031 -0.084,0.061 -0.133,0.061 c -0.019,0 -0.039,-0.005 -0.06,-0.016 c -0.089,0.102 -0.065,0.3 -0.116,0.442 c 0.122,0.232 0.213,0.433 0.482,0.433 c 0.004,0 0.008,0 0.012,0 c 0.006,-0.151 0.172,-0.093 0.254,-0.123 c -0.003,-0.105 0.068,-0.154 0.113,-0.225 c 0.024,-0.123 0.039,-0.281 -0.047,-0.395 c -0.065,-0.056 -0.138,-0.206 -0.22,-0.206 c -0.026,0 -0.053,0.015 -0.082,0.055 c -0.03,-0.065 -0.059,-0.087 -0.09,-0.087"
     id="path122" /><polyline
     style="fill:#ffffff"
     points="47.675,30.059 47.773,30.071 47.675,30.059  "
     id="polyline124" /><path
     style="fill:#ffffff"
     inkscape:connector-curvature="0"
     d="m 47.687,29.716 l -0.053,-0.084 l 0.08,0.065 l -0.027,0.019 m -0.223,-0.202 c 0.019,0.056 -0.078,0.227 0.037,0.251 l 0.047,-0.127 c 0.107,0.046 -0.003,0.055 0.018,0.148 l 0.074,-0.105 c 0.015,0.124 0.175,0.173 0.056,0.269 l 0.107,0.046 L 47.75,29.913 l 0.118,-0.055 c -0.05,-0.019 -0.181,0.018 -0.118,-0.105 l 0.035,0.015 l -0.05,-0.059 l 0.068,0.006 c -0.092,-0.043 -0.124,-0.074 -0.101,-0.158 l -0.107,0.074 l -0.131,-0.117 m -0.019,-0.017 l 0.019,0.017 c -0.003,-0.009 -0.009,-0.015 -0.019,-0.017"
     id="path126" /><path
     style="fill:#ffffff"
     inkscape:connector-curvature="0"
     d="m 47.625,29.96 l 0.004,0.017 c 0.024,0.008 0.048,0.013 0.067,0.014 L 47.625,29.96 m -0.077,-0.161 c -0.049,0.029 -0.056,0.061 -0.042,0.09 l 0.042,-0.09 m -0.092,0.278 l 0.003,-0.055 l -0.003,0.055 m -0.17,-0.492 c 0.062,0.093 -0.007,0.188 -0.084,0.254 c 0.032,0.031 0.195,-0.015 0.133,0.108 L 47.3,29.892 l -0.036,0.145 l 0.124,0.034 l -0.044,-0.009 l 0.068,0.087 c -0.018,-0.068 0.113,-0.065 0.115,-0.161 c 0.002,0.038 0.006,0.05 0.014,0.05 c 0.006,0 0.015,-0.009 0.025,-0.017 c 0.01,-0.008 0.022,-0.017 0.036,-0.017 c 0.012,0 0.025,0.006 0.04,0.025 L 47.629,29.978 C 47.578,29.96 47.524,29.927 47.506,29.89 l -0.023,0.049 l -0.142,-0.102 l 0.03,0.006 l -0.047,-0.034 c 0,-0.033 0.007,-0.043 0.017,-0.043 c 0.009,0 0.02,0.008 0.032,0.017 c 0.011,0.008 0.023,0.017 0.033,0.017 c 0.01,0 0.017,-0.008 0.02,-0.033 c -0.07,-0.089 -0.085,-0.112 -0.14,-0.182 M 47.27,29.564 c 0.006,0.007 0.011,0.014 0.016,0.021 c -0.004,-0.007 -0.01,-0.014 -0.016,-0.021"
     id="path128" /><polyline
     style="fill:#ffffff"
     points="47.459,30.022 47.456,30.077 47.459,30.022  "
     id="polyline130" /><polyline
     style="fill:#ffffff"
     points="47.634,29.633 47.687,29.716 47.714,29.697 47.634,29.633  "
     id="polyline132" /><path
     style="fill:#ffffff"
     inkscape:connector-curvature="0"
     d="m 47.615,29.459 c -0.008,0 -0.017,0.01 -0.028,0.02 c -0.012,0.01 -0.027,0.02 -0.048,0.02 c -0.005,0 -0.011,-10e-4 -0.017,-0.002 c 0.012,0.046 0.027,0.061 0.041,0.061 c 0.012,0 0.024,-0.011 0.034,-0.023 c 0.009,-0.011 0.016,-0.023 0.018,-0.023 c 0.002,0 -0.001,0.012 -0.013,0.05 l 0.054,-0.037 c -0.019,-0.05 -0.03,-0.066 -0.041,-0.066"
     id="path134" /><path
     style="fill:#ffffff"
     inkscape:connector-curvature="0"
     d="m 42.277,25.573 l -0.021,0.229 c -0.044,0.02 -0.096,0.026 -0.148,0.026 c -0.079,0 -0.157,-0.015 -0.207,-0.02 l -0.127,-0.179 c -0.117,0.068 0.073,0.282 -0.128,0.282 c -0.008,0 -0.017,0 -0.026,-0.001 c -0.019,0.009 -0.035,0.013 -0.048,0.013 c -0.04,0 -0.061,-0.034 -0.082,-0.068 c -0.021,-0.034 -0.043,-0.068 -0.082,-0.068 c -0.005,0 -0.011,0.001 -0.018,0.002 c -0.106,0.074 0.029,0.127 0.006,0.21 c -0.027,0.037 -0.055,0.05 -0.082,0.05 c -0.034,0 -0.068,-0.021 -0.101,-0.042 C 41.18,25.986 41.147,25.965 41.114,25.965 c -0.007,0 -0.013,0.001 -0.02,0.003 l 0.086,0.155 c -0.018,0.081 -0.046,0.106 -0.079,0.106 c -0.026,0 -0.056,-0.016 -0.086,-0.032 c -0.03,-0.016 -0.061,-0.032 -0.09,-0.032 c -0.026,0 -0.05,0.013 -0.07,0.05 c -0.024,0.244 -0.092,0.599 -0.074,0.908 c -0.08,0.256 -0.471,0.086 -0.604,0.339 c 0.006,0.067 0.026,0.087 0.054,0.087 c 0.023,0 0.051,-0.014 0.081,-0.028 c 0.03,-0.014 0.063,-0.028 0.095,-0.028 c 0.021,0 0.041,0.006 0.06,0.022 c 0.42,0.297 0.745,0.606 0.869,1.122 l -0.37,0.444 l 0.071,0.111 c 0.24,-0.167 0.37,-0.444 0.618,-0.577 l -0.041,0.096 c 0.061,-0.082 0.116,-0.21 0.218,-0.21 c 0.002,0 0.005,0 0.007,0 c 0.148,0.232 0.263,0.111 0.34,0.392 l 0.184,-0.074 l 0.065,0.142 c 0.019,0.02 0.042,0.028 0.068,0.028 c 0.04,0 0.087,-0.018 0.135,-0.037 c 0.048,-0.018 0.096,-0.037 0.14,-0.037 c 0.009,0 0.018,0.001 0.027,0.003 l 0.154,0.04 c 0,-0.08 -0.065,-0.182 0.029,-0.235 c 0.086,-0.087 0.21,-0.052 0.328,-0.068 l -0.012,-0.179 l 0.151,-0.065 L 43.43,28.182 c 0.059,-0.108 0.151,-0.105 0.26,-0.114 c -0.068,-0.247 -0.139,-0.519 -0.094,-0.791 c -0.31,-0.346 -0.31,-0.788 -0.567,-1.171 l -0.225,0.009 L 42.763,25.809 C 42.75,25.806 42.739,25.804 42.729,25.804 c -0.046,0 -0.049,0.039 -0.053,0.078 c -0.004,0.039 -0.01,0.078 -0.064,0.078 c -0.007,0 -0.015,-0.001 -0.023,-0.002 c -0.164,-0.073 -0.208,-0.283 -0.312,-0.385"
     id="path136" /><path
     style="fill:#ffffff"
     inkscape:connector-curvature="0"
     d="m 45.497,28.711 l -0.026,-0.022 l 0.053,0.003 l -0.027,0.019 m -0.255,0.003 l 0.044,-0.031 l -0.044,0.031 m 0.45,-0.019 l -0.03,-0.046 l 0.009,-0.006 l 0.03,0.046 l -0.009,0.006 m 0.019,-0.237 c 0.007,0 0.012,-0.016 0.021,-0.032 c 0.009,-0.016 0.021,-0.032 0.04,-0.032 c 0.008,0 0.018,0.003 0.03,0.011 c -10e-4,0.038 -0.012,0.046 -0.026,0.046 c -0.005,0 -0.01,-0.001 -0.016,-0.002 c -0.006,-0.001 -0.012,-0.002 -0.018,-0.002 c -0.013,0 -0.027,0.005 -0.038,0.025 l 0.062,0.117 l -0.062,-0.037 l 0.009,-0.006 C 45.605,28.504 45.698,28.5 45.704,28.452 c -0.005,-0.007 -0.01,-0.022 -0.018,-0.048 c 0.015,0.02 0.02,0.036 0.018,0.048 c 0.002,0.005 0.005,0.006 0.007,0.006 m -0.054,-0.099 l 0.021,-0.068 l 0.03,0.006 l -0.051,0.062 m -0.039,-0.081 l -0.059,-0.012 l -0.012,-0.019 l 0.071,0.031 m -0.26,0.034 l 0.006,-0.071 l -0.006,0.071 M 45.332,28.21 l -0.056,-0.028 l 0.056,0.028 m 0.227,-0.024 l -0.05,-0.019 l 0.05,0.019 m -0.165,-0.331 c -0.269,0 -0.356,0.294 -0.507,0.423 c 0.166,0.179 -0.118,0.296 0.065,0.463 c 0.056,0.229 0.266,0.096 0.375,0.247 c 0.014,-0.016 0.029,-0.021 0.045,-0.021 c 0.018,0 0.038,0.008 0.057,0.016 c 0.019,0.008 0.038,0.015 0.057,0.015 c 0.022,0 0.043,-0.01 0.063,-0.044 c 0.027,0.015 0.048,0.021 0.066,0.021 c 0.049,0 0.072,-0.048 0.093,-0.095 c 0.022,-0.048 0.043,-0.095 0.089,-0.095 c 0.019,0 0.042,0.008 0.071,0.027 c -0.027,-0.102 -0.021,-0.213 0.098,-0.229 c -0.124,-0.074 -0.038,-0.201 -0.003,-0.306 l -0.136,-0.093 l -0.012,-0.219 c -0.037,0.034 -0.065,0.048 -0.088,0.048 c -0.039,0 -0.063,-0.039 -0.091,-0.077 c -0.028,-0.039 -0.061,-0.078 -0.117,-0.078 c -0.012,0 -0.024,0.002 -0.038,0.005 c -0.03,-0.005 -0.059,-0.008 -0.087,-0.008"
     id="path138" /><polyline
     style="fill:#ffffff"
     points="45.671,28.643 45.662,28.649 45.692,28.695 45.701,28.689 45.671,28.643  "
     id="polyline140" /><path
     style="fill:#ffffff"
     inkscape:connector-curvature="0"
     d="m 45.686,28.405 c 0.007,0.026 0.013,0.041 0.018,0.048 c 0.002,-0.012 -0.003,-0.028 -0.018,-0.048 m 0.085,-0.011 c -0.019,0 -0.031,0.016 -0.04,0.032 c -0.009,0.016 -0.014,0.032 -0.021,0.032 c -0.002,0 -0.004,-0.002 -0.007,-0.005 c -0.007,0.048 -0.099,0.052 0.009,0.094 l -0.009,0.006 l 0.062,0.037 l -0.062,-0.117 c 0.011,-0.021 0.025,-0.025 0.038,-0.025 c 0.006,0 0.012,0.001 0.018,0.002 c 0.006,0.001 0.011,0.002 0.016,0.002 c 0.014,0 0.025,-0.008 0.026,-0.046 C 45.79,28.397 45.78,28.394 45.771,28.394"
     id="path142" /><polyline
     style="fill:#ffffff"
     points="45.47,28.689 45.497,28.711 45.523,28.692 45.47,28.689  "
     id="polyline144" /><polyline
     style="fill:#ffffff"
     points="45.287,28.683 45.242,28.714 45.287,28.683  "
     id="polyline146" /><polyline
     style="fill:#ffffff"
     points="45.677,28.291 45.657,28.359 45.707,28.297 45.677,28.291  "
     id="polyline148" /><polyline
     style="fill:#ffffff"
     points="45.547,28.248 45.559,28.266 45.618,28.278 45.547,28.248  "
     id="polyline150" /><polyline
     style="fill:#ffffff"
     points="45.509,28.167 45.559,28.186 45.509,28.167  "
     id="polyline152" /><polyline
     style="fill:#ffffff"
     points="45.364,28.241 45.358,28.312 45.364,28.241  "
     id="polyline154" /><polyline
     style="fill:#ffffff"
     points="45.275,28.182 45.332,28.21 45.275,28.182  "
     id="polyline156" /><path
     style="fill:#ffffff"
     inkscape:connector-curvature="0"
     d="m 44.854,20.232 c -0.142,0.059 -0.243,0.222 -0.278,0.367 c -0.021,0.009 -0.04,0.013 -0.059,0.013 c -0.053,0 -0.099,-0.033 -0.143,-0.065 C 44.33,20.514 44.287,20.482 44.239,20.482 c -0.024,0 -0.05,0.009 -0.077,0.03 c -0.057,0.053 -0.039,0.241 -0.172,0.253 C 43.934,20.72 43.878,20.706 43.821,20.706 c -0.046,0 -0.094,0.009 -0.142,0.019 c -0.048,0.009 -0.097,0.018 -0.148,0.018 c -0.015,0 -0.029,-10e-4 -0.044,-0.003 c -0.053,0.117 0.183,0.127 0.148,0.272 l -0.095,0.052 c -0.222,0.114 0.118,0.225 0.086,0.355 l -0.245,0.037 c 0.458,0.056 0,0.442 0.1,0.679 c 0.103,0.022 0.245,0.043 0.331,0.118 c 0.1,0.077 -0.018,0.173 -0.015,0.238 l 0.163,-0.086 c 0.089,0.099 -0.092,0.198 0.023,0.278 c 0.069,0.04 0.142,0.051 0.217,0.051 c 0.052,0 0.104,-0.006 0.156,-0.011 c 0.052,-0.006 0.102,-0.011 0.151,-0.011 c 0.1,0 0.192,0.024 0.262,0.12 c 0.055,0.036 0.115,0.058 0.179,0.058 c 0.04,0 0.08,-0.008 0.122,-0.027 c 0.107,-0.395 0.512,-0.583 0.74,-0.809 C 45.789,21.961 45.692,21.989 45.647,21.94 c -0.056,-0.148 0.121,-0.071 0.136,-0.188 c 0.006,-0.191 -0.041,-0.426 0.056,-0.574 l -0.142,0.018 c -0.112,-0.015 -0.062,-0.157 -0.13,-0.204 c -0.118,-0.145 0.086,-0.167 0.086,-0.287 l -0.124,0.086 C 45.517,20.532 45.106,20.67 45.121,20.352 c -0.004,0 -0.009,-0.001 -0.014,-0.001 c -0.019,0 -0.041,0.003 -0.065,0.006 c -0.024,0.003 -0.048,0.006 -0.072,0.006 c -0.061,0.002 -0.116,-0.021 -0.116,-0.131"
     id="path158" /><path
     style="fill:#ffffff"
     inkscape:connector-curvature="0"
     d="m 58.944,26.259 c -0.094,0.039 -0.16,0.147 -0.184,0.243 c -0.014,0.006 -0.027,0.009 -0.039,0.009 c -0.035,0 -0.065,-0.022 -0.094,-0.043 c -0.029,-0.022 -0.058,-0.043 -0.089,-0.043 c -0.016,0 -0.033,0.006 -0.051,0.02 c -0.037,0.035 -0.026,0.159 -0.113,0.167 C 58.337,26.582 58.3,26.573 58.262,26.573 c -0.031,0 -0.062,0.006 -0.094,0.012 c -0.032,0.006 -0.064,0.012 -0.097,0.012 c -0.01,0 -0.019,-0.001 -0.029,-0.002 c -0.035,0.077 0.121,0.084 0.097,0.179 l -0.063,0.035 c -0.146,0.075 0.078,0.149 0.057,0.234 l -0.162,0.024 c 0.302,0.037 0,0.291 0.066,0.449 c 0.068,0.014 0.162,0.029 0.219,0.078 c 0.066,0.051 -0.012,0.114 -0.01,0.157 l 0.107,-0.057 c 0.059,0.065 -0.061,0.131 0.016,0.184 c 0.045,0.026 0.094,0.034 0.143,0.034 c 0.034,0 0.069,-0.004 0.103,-0.007 c 0.034,-0.003 0.068,-0.007 0.1,-0.007 c 0.066,0 0.127,0.016 0.173,0.079 c 0.036,0.024 0.076,0.039 0.118,0.039 c 0.026,0 0.053,-0.006 0.081,-0.018 c 0.071,-0.261 0.338,-0.385 0.488,-0.534 c -0.014,-0.061 -0.078,-0.043 -0.107,-0.075 c -0.037,-0.098 0.08,-0.047 0.09,-0.124 c 0.004,-0.126 -0.027,-0.281 0.037,-0.379 l -0.094,0.012 c -0.074,-0.01 -0.041,-0.104 -0.086,-0.135 c -0.078,-0.096 0.057,-0.11 0.057,-0.19 L 59.39,26.63 c -0.008,-0.171 -0.279,-0.08 -0.269,-0.29 c -0.003,0 -0.006,0 -0.009,0 c -0.012,0 -0.027,0.002 -0.043,0.004 c -0.016,0.002 -0.032,0.004 -0.047,0.004 C 58.98,26.347 58.943,26.332 58.944,26.259"
     id="path160" /><path
     style="fill:#ffffff"
     inkscape:connector-curvature="0"
     d="m 47.184,27.306 l -0.006,-0.049 l 0.006,0.049 m -0.163,0.007 c -0.03,-0.046 -0.204,-0.059 -0.089,-0.139 l 0.056,0.028 l -0.003,-0.025 l 0.036,0.136 m 0.234,0.025 l -0.029,-0.167 l 0.112,0.015 c -0.106,0.034 0.024,0.118 -0.083,0.152 m 0.033,-0.291 l -0.026,-0.062 l 0.041,-0.015 l -0.015,0.077 m -0.257,-0.022 c -0.007,-0.062 0.011,-0.079 0.04,-0.079 c 0.018,0 0.04,0.007 0.062,0.014 c 0.022,0.007 0.043,0.014 0.06,0.014 c 0.001,0 0.002,0 0.003,0 l 0.007,-0.001 v 0 c -0.002,0.001 -0.005,0.001 -0.007,0.001 l -0.016,0.002 l 0.062,0.077 l 0.018,0.028 c -0.018,0.016 -0.032,0.022 -0.043,0.022 c -0.044,0 -0.043,-0.101 -0.104,-0.133 c 0.012,0.018 0.009,0.189 -0.092,0.189 c -0.002,0 -0.004,0 -0.005,0 c 0.177,-0.043 -0.08,-0.105 -0.024,-0.198 l 0.039,0.064 m 0.091,-0.157 l -0.192,0.04 c 0.032,0.111 -0.095,0.133 -0.092,0.238 c -0.003,0.136 0.053,0.204 0.153,0.281 c 0.056,0.002 0.115,0.022 0.174,0.022 c 0.037,0 0.075,-0.008 0.113,-0.035 c 0.142,-0.059 0.104,-0.259 0.098,-0.389 c -0.047,-0.114 -0.159,-0.129 -0.254,-0.157"
     id="path162" /><path
     style="fill:#ffffff"
     inkscape:connector-curvature="0"
     d="m 47.226,27.171 l 0.029,0.167 c 0.106,-0.034 -0.023,-0.117 0.083,-0.151 l -0.112,-0.016"
     id="path164" /><polyline
     style="fill:#ffffff"
     points="47.178,27.257 47.184,27.306 47.178,27.257  "
     id="polyline166" /><path
     style="fill:#ffffff"
     inkscape:connector-curvature="0"
     d="m 46.933,27.174 c -0.115,0.08 0.059,0.093 0.089,0.139 l -0.035,-0.136 l 0.003,0.025 l -0.057,-0.028"
     id="path168" /><path
     style="fill:#ffffff"
     inkscape:connector-curvature="0"
     d="m 47.202,26.973 l -0.007,0.001 c 0.002,0 0.005,0 0.007,-0.001 M 47.07,26.946 c -0.028,0 -0.047,0.017 -0.04,0.079 L 46.989,26.96 c -0.056,0.093 0.201,0.154 0.024,0.198 c 0.002,0 0.004,0 0.005,0 c 0.101,0 0.104,-0.17 0.092,-0.189 c 0.061,0.032 0.06,0.133 0.104,0.133 c 0.011,0 0.025,-0.006 0.043,-0.022 l -0.018,-0.028 l -0.062,-0.077 l 0.016,-0.002 c -10e-4,0 -0.002,0 -0.003,0 c -0.017,0 -0.038,-0.007 -0.06,-0.014 c -0.02,-0.006 -0.041,-0.013 -0.06,-0.013"
     id="path170" /><polyline
     style="fill:#ffffff"
     points="47.303,26.97 47.261,26.985 47.288,27.047 47.303,26.97  "
     id="polyline172" /></g><g
   transform="translate(-31.292942,-16.259281)"
   id="g176" /><g
   transform="translate(-31.292942,-16.259281)"
   id="g178" /><g
   transform="translate(-31.292942,-16.259281)"
   id="g180" /><g
   transform="translate(-31.292942,-16.259281)"
   id="g182" /><g
   transform="translate(-31.292942,-16.259281)"
   id="g184" /><g
   transform="translate(-31.292942,-16.259281)"
   id="g186" /></svg>