<?xml version="1.0" encoding="UTF-8" standalone="no"?>
<!-- Generator: Adobe Illustrator 25.4.1, SVG Export Plug-In . SVG Version: 6.00 Build 0)  -->

<svg
   xmlns:dc="http://purl.org/dc/elements/1.1/"
   xmlns:cc="http://creativecommons.org/ns#"
   xmlns:rdf="http://www.w3.org/1999/02/22-rdf-syntax-ns#"
   xmlns:svg="http://www.w3.org/2000/svg"
   xmlns="http://www.w3.org/2000/svg"
   xmlns:sodipodi="http://sodipodi.sourceforge.net/DTD/sodipodi-0.dtd"
   xmlns:inkscape="http://www.inkscape.org/namespaces/inkscape"
   version="1.0"
   id="Layer_1"
   x="0px"
   y="0px"
   viewBox="0 0 34.049016 27.789478"
   enable-background="new 0 0 84.67 85.04"
   xml:space="preserve"
   sodipodi:docname="Psychology 9-10 Science - Copy.svg"
   width="34.049015"
   height="27.789478"
   inkscape:version="0.92.4 (5da689c313, 2019-01-14)"><metadata
   id="metadata91"><rdf:RDF><cc:Work
       rdf:about=""><dc:format>image/svg+xml</dc:format><dc:type
         rdf:resource="http://purl.org/dc/dcmitype/StillImage" /><dc:title></dc:title></cc:Work></rdf:RDF></metadata><defs
   id="defs89" /><sodipodi:namedview
   pagecolor="#ffffff"
   bordercolor="#666666"
   borderopacity="1"
   objecttolerance="10"
   gridtolerance="10"
   guidetolerance="10"
   inkscape:pageopacity="0"
   inkscape:pageshadow="2"
   inkscape:window-width="732"
   inkscape:window-height="480"
   id="namedview87"
   showgrid="false"
   fit-margin-top="0"
   fit-margin-left="0"
   fit-margin-right="0"
   fit-margin-bottom="0"
   inkscape:zoom="2.7751646"
   inkscape:cx="16.448144"
   inkscape:cy="1.5124896"
   inkscape:window-x="0"
   inkscape:window-y="0"
   inkscape:window-maximized="0"
   inkscape:current-layer="Layer_1" />



<path
   d="m 4.9331452,4.4469882 c 0,0 1.91,-4.99000002 8.3699998,-3.25 c 0,0 5.16,-3.15 9.56,0.77 c 0,0 7.33,0.18 8.5,6.7 c 0,0 5.68,4.7599998 0.52,12.6399998 c 0,0 -0.06,6.17 -7.18,6.29 c 0,0 -5.28,1.38 -6.71,-3.25 c 0,0 -2.67,-0.19 -2.9,-1.78 c 0,0 -5.3499998,1.59 -6.6599998,-4.39 c 0,0 -6.71,0.16 -8.01000001,-4.27 c -1.24,-4.2299998 0.24,-8.0899998 4.51000001,-9.4599998 z"
   id="path60"
   inkscape:connector-curvature="0"
   style="fill:#ffffff" />
<g
   id="g72"
   transform="translate(-25.886855,-16.243012)">
	<g
   id="g70">
		
			<path
   stroke-miterlimit="10"
   d="m 35.37,27.3 c 0,0 -3.51,-0.5 -2.5,-2.98 c 1,-2.48 2.98,-1.84 3.61,-1.26 c 0.63,0.59 2.5,3.39 2.41,5.74 c 0,0 1.78,-3.2 4.57,-1.43 c 0,0 2.54,-1.84 5.01,1.21"
   id="path62"
   inkscape:connector-curvature="0"
   style="fill:none;stroke:#9473b2;stroke-width:0.9795;stroke-linecap:round;stroke-linejoin:round;stroke-miterlimit:10" />
		
			<path
   stroke-miterlimit="10"
   d="m 36.48,23.07 c 0,0 1.39,-3.19 5.28,-1.76 c 0,0 1.91,-1.76 3.73,-0.59 c 1.82,1.19 2.24,2.76 2.24,2.76 c 0,0 -2.52,1.3 -1.96,3.22"
   id="path64"
   inkscape:connector-curvature="0"
   style="fill:none;stroke:#9473b2;stroke-width:0.9795;stroke-linecap:round;stroke-linejoin:round;stroke-miterlimit:10" />
		
			<path
   stroke-miterlimit="10"
   d="m 47.73,23.48 c 0,0 6.38,0.22 4.52,4.61 c 0,0 1.69,1.89 0.3,3.55"
   id="path66"
   inkscape:connector-curvature="0"
   style="fill:none;stroke:#9473b2;stroke-width:0.9795;stroke-linecap:round;stroke-linejoin:round;stroke-miterlimit:10" />
		
			<path
   stroke-miterlimit="10"
   d="m 52.25,28.09 c 0,0 3.61,-0.21 3.5,2.48 c -0.12,2.68 -1.69,7.99 -7.78,4.29 c 0,0 -3.75,4.42 -8.17,0.42 c 0,0 -3.77,0.19 -4.28,-2.9 c -0.54,-3.2 3.16,-3.33 3.16,-3.33"
   id="path68"
   inkscape:connector-curvature="0"
   style="fill:none;stroke:#9473b2;stroke-width:0.9795;stroke-linecap:round;stroke-linejoin:round;stroke-miterlimit:10" />
	</g>
</g>
<g
   id="g74"
   transform="translate(-25.886855,-16.243012)">
</g>
<g
   id="g76"
   transform="translate(-25.886855,-16.243012)">
</g>
<g
   id="g78"
   transform="translate(-25.886855,-16.243012)">
</g>
<g
   id="g80"
   transform="translate(-25.886855,-16.243012)">
</g>
<g
   id="g82"
   transform="translate(-25.886855,-16.243012)">
</g>
<g
   id="g84"
   transform="translate(-25.886855,-16.243012)">
</g>
</svg>